# MagicaVoxel @ Ephtracy

# group
g predio2

# material
mtllib predio2.mtl
usemtl palette

# normals
vn -1 0 0
vn 1 0 0
vn 0 0 1
vn 0 0 -1
vn 0 -1 0
vn 0 1 0

# texcoords
vt 0.00585938 0.5
vt 0.0136719 0.5
vt 0.939453 0.5
vt 0.943359 0.5
vt 0.970703 0.5
vt 0.978516 0.5

# verts
v -18 1 9
v -18 1 -9
v -18 31 9
v -18 31 -9
v -15 30 -1
v -15 30 -4
v -15 32 -1
v -15 32 -4
v -14 30 -4
v -14 30 -5
v -14 31 -4
v -14 31 -5
v -12 30 -4
v -12 30 -5
v -12 31 -4
v -12 31 -5
v -7 30 5
v -7 30 -0
v -7 32 5
v -7 32 -0
v -2 4 9
v -2 4 8
v -2 8 9
v -2 8 8
v -2 10 9
v -2 10 8
v -2 14 9
v -2 14 8
v -2 15 7
v -2 15 -7
v -2 16 7
v -2 16 -7
v -2 18 9
v -2 18 8
v -2 22 9
v -2 22 8
v -2 24 9
v -2 24 8
v -2 28 9
v -2 28 8
v -2 30 7
v -2 30 -7
v -2 31 7
v -2 31 -7
v 4 4 9
v 4 4 8
v 4 14 9
v 4 14 8
v 12 1 9
v 12 1 8
v 12 1 -9
v 12 1 -11
v 12 4 -9
v 12 4 -11
v 12 8 9
v 12 8 8
v 16 10 9
v 16 10 8
v 16 14 9
v 16 14 8
v 16 15 7
v 16 15 -7
v 16 16 7
v 16 16 -7
v -16 4 9
v -16 4 8
v -16 8 9
v -16 8 8
v -16 10 9
v -16 10 8
v -16 14 9
v -16 14 8
v -16 15 7
v -16 15 -7
v -16 16 7
v -16 16 -7
v -16 18 9
v -16 18 8
v -16 22 9
v -16 22 8
v -16 24 9
v -16 24 8
v -16 28 9
v -16 28 8
v -16 30 7
v -16 30 -7
v -16 31 7
v -16 31 -7
v -13 30 -4
v -13 30 -5
v -13 31 -4
v -13 31 -5
v -11 30 -4
v -11 30 -5
v -11 31 -4
v -11 31 -5
v -10 30 -1
v -10 30 -4
v -10 32 -1
v -10 32 -4
v -4 30 5
v -4 30 -0
v -4 32 5
v -4 32 -0
v 0 16 9
v 0 16 -9
v 0 31 9
v 0 31 -9
v 1 4 9
v 1 4 8
v 1 14 9
v 1 14 8
v 2 15 7
v 2 15 -7
v 2 16 7
v 2 16 -7
v 6 1 9
v 6 1 8
v 6 8 9
v 6 8 8
v 6 10 9
v 6 10 8
v 6 14 9
v 6 14 8
v 16 1 -9
v 16 1 -11
v 16 4 -9
v 16 4 -11
v 17 7 6
v 17 7 -6
v 17 12 6
v 17 12 -6
v 18 1 9
v 18 1 -9
v 18 7 6
v 18 7 -6
v 18 12 6
v 18 12 -6
v 18 16 9
v 18 16 -9
v -18 1 9
v -18 31 9
v -16 4 9
v -16 8 9
v -16 10 9
v -16 14 9
v -16 18 9
v -16 22 9
v -16 24 9
v -16 28 9
v -2 4 9
v -2 8 9
v -2 10 9
v -2 14 9
v -2 18 9
v -2 22 9
v -2 24 9
v -2 28 9
v 0 16 9
v 0 31 9
v 1 4 9
v 1 14 9
v 4 4 9
v 4 14 9
v 6 1 9
v 6 8 9
v 6 10 9
v 6 14 9
v 12 1 9
v 12 8 9
v 16 10 9
v 16 14 9
v 18 1 9
v 18 16 9
v -16 4 8
v -16 8 8
v -16 10 8
v -16 14 8
v -16 18 8
v -16 22 8
v -16 24 8
v -16 28 8
v -2 4 8
v -2 8 8
v -2 10 8
v -2 14 8
v -2 18 8
v -2 22 8
v -2 24 8
v -2 28 8
v 1 4 8
v 1 14 8
v 4 4 8
v 4 14 8
v 6 1 8
v 6 8 8
v 6 10 8
v 6 14 8
v 12 1 8
v 12 8 8
v 16 10 8
v 16 14 8
v -7 30 5
v -7 32 5
v -4 30 5
v -4 32 5
v -15 30 -1
v -15 32 -1
v -10 30 -1
v -10 32 -1
v 17 7 -6
v 17 12 -6
v 18 7 -6
v 18 12 -6
v -16 15 -7
v -16 16 -7
v -16 30 -7
v -16 31 -7
v -2 15 -7
v -2 16 -7
v -2 30 -7
v -2 31 -7
v 2 15 -7
v 2 16 -7
v 16 15 -7
v 16 16 -7
v -16 15 7
v -16 16 7
v -16 30 7
v -16 31 7
v -2 15 7
v -2 16 7
v -2 30 7
v -2 31 7
v 2 15 7
v 2 16 7
v 16 15 7
v 16 16 7
v 17 7 6
v 17 12 6
v 18 7 6
v 18 12 6
v -7 30 -0
v -7 32 -0
v -4 30 -0
v -4 32 -0
v -15 30 -4
v -15 32 -4
v -14 30 -4
v -14 31 -4
v -13 30 -4
v -13 31 -4
v -12 30 -4
v -12 31 -4
v -11 30 -4
v -11 31 -4
v -10 30 -4
v -10 32 -4
v -14 30 -5
v -14 31 -5
v -13 30 -5
v -13 31 -5
v -12 30 -5
v -12 31 -5
v -11 30 -5
v -11 31 -5
v -18 1 -9
v -18 31 -9
v 0 16 -9
v 0 31 -9
v 12 1 -9
v 12 4 -9
v 16 1 -9
v 16 4 -9
v 18 1 -9
v 18 16 -9
v 12 1 -11
v 12 4 -11
v 16 1 -11
v 16 4 -11
v -18 1 9
v 6 1 9
v 12 1 9
v 18 1 9
v 6 1 8
v 12 1 8
v 6 1 7
v 12 1 7
v -18 1 -9
v 12 1 -9
v 16 1 -9
v 18 1 -9
v 12 1 -11
v 16 1 -11
v -16 8 9
v -2 8 9
v 6 8 9
v 12 8 9
v -16 8 8
v -2 8 8
v 6 8 8
v 12 8 8
v 17 12 6
v 18 12 6
v 17 12 -6
v 18 12 -6
v -16 14 9
v -2 14 9
v 1 14 9
v 4 14 9
v 6 14 9
v 16 14 9
v -16 14 8
v -2 14 8
v 1 14 8
v 4 14 8
v 6 14 8
v 16 14 8
v -16 16 7
v -2 16 7
v -16 16 -7
v -2 16 -7
v -16 22 9
v -2 22 9
v -16 22 8
v -2 22 8
v -16 28 9
v -2 28 9
v -16 28 8
v -2 28 8
v -16 4 9
v -2 4 9
v 1 4 9
v 4 4 9
v -16 4 8
v -2 4 8
v 1 4 8
v 4 4 8
v 12 4 -9
v 16 4 -9
v 12 4 -11
v 16 4 -11
v 17 7 6
v 18 7 6
v 17 7 -6
v 18 7 -6
v -16 10 9
v -2 10 9
v 6 10 9
v 16 10 9
v -16 10 8
v -2 10 8
v 6 10 8
v 16 10 8
v -16 15 7
v -2 15 7
v 2 15 7
v 16 15 7
v -16 15 -7
v -2 15 -7
v 2 15 -7
v 16 15 -7
v 0 16 9
v 18 16 9
v 2 16 7
v 16 16 7
v 2 16 -7
v 16 16 -7
v 0 16 -9
v 18 16 -9
v -16 18 9
v -2 18 9
v -16 18 8
v -2 18 8
v -16 24 9
v -2 24 9
v -16 24 8
v -2 24 8
v -16 30 7
v -2 30 7
v -7 30 5
v -4 30 5
v -7 30 -0
v -4 30 -0
v -15 30 -1
v -10 30 -1
v -15 30 -4
v -14 30 -4
v -13 30 -4
v -12 30 -4
v -11 30 -4
v -10 30 -4
v -14 30 -5
v -13 30 -5
v -12 30 -5
v -11 30 -5
v -16 30 -7
v -2 30 -7
v -18 31 9
v 0 31 9
v -16 31 7
v -2 31 7
v -14 31 -4
v -13 31 -4
v -12 31 -4
v -11 31 -4
v -14 31 -5
v -13 31 -5
v -12 31 -5
v -11 31 -5
v -16 31 -7
v -2 31 -7
v -18 31 -9
v 0 31 -9
v -7 32 5
v -4 32 5
v -7 32 -0
v -4 32 -0
v -15 32 -1
v -10 32 -1
v -15 32 -4
v -10 32 -4

# faces
f 3/6/1 2/6/1 1/6/1
f 4/6/1 2/6/1 3/6/1
f 7/4/1 6/4/1 5/4/1
f 8/4/1 6/4/1 7/4/1
f 11/4/1 10/4/1 9/4/1
f 12/4/1 10/4/1 11/4/1
f 15/4/1 14/4/1 13/4/1
f 16/4/1 14/4/1 15/4/1
f 19/4/1 18/4/1 17/4/1
f 20/4/1 18/4/1 19/4/1
f 23/6/1 22/6/1 21/6/1
f 24/6/1 22/6/1 23/6/1
f 27/6/1 26/6/1 25/6/1
f 28/6/1 26/6/1 27/6/1
f 31/6/1 30/6/1 29/6/1
f 32/6/1 30/6/1 31/6/1
f 35/6/1 34/6/1 33/6/1
f 36/6/1 34/6/1 35/6/1
f 39/6/1 38/6/1 37/6/1
f 40/6/1 38/6/1 39/6/1
f 43/6/1 42/6/1 41/6/1
f 44/6/1 42/6/1 43/6/1
f 47/6/1 46/6/1 45/6/1
f 48/6/1 46/6/1 47/6/1
f 53/6/1 52/6/1 51/6/1
f 54/6/1 52/6/1 53/6/1
f 55/6/1 50/6/1 49/6/1
f 56/6/1 50/6/1 55/6/1
f 59/6/1 58/6/1 57/6/1
f 60/6/1 58/6/1 59/6/1
f 63/6/1 62/6/1 61/6/1
f 64/6/1 62/6/1 63/6/1
f 65/6/2 66/6/2 67/6/2
f 67/6/2 66/6/2 68/6/2
f 69/6/2 70/6/2 71/6/2
f 71/6/2 70/6/2 72/6/2
f 73/6/2 74/6/2 75/6/2
f 75/6/2 74/6/2 76/6/2
f 77/6/2 78/6/2 79/6/2
f 79/6/2 78/6/2 80/6/2
f 81/6/2 82/6/2 83/6/2
f 83/6/2 82/6/2 84/6/2
f 85/6/2 86/6/2 87/6/2
f 87/6/2 86/6/2 88/6/2
f 89/4/2 90/4/2 91/4/2
f 91/4/2 90/4/2 92/4/2
f 93/4/2 94/4/2 95/4/2
f 95/4/2 94/4/2 96/4/2
f 97/4/2 98/4/2 99/4/2
f 99/4/2 98/4/2 100/4/2
f 101/4/2 102/4/2 103/4/2
f 103/4/2 102/4/2 104/4/2
f 105/6/2 106/6/2 107/6/2
f 107/6/2 106/6/2 108/6/2
f 109/6/2 110/6/2 111/6/2
f 111/6/2 110/6/2 112/6/2
f 113/6/2 114/6/2 115/6/2
f 115/6/2 114/6/2 116/6/2
f 117/6/2 118/6/2 119/6/2
f 119/6/2 118/6/2 120/6/2
f 121/6/2 122/6/2 123/6/2
f 123/6/2 122/6/2 124/6/2
f 125/6/2 126/6/2 127/6/2
f 127/6/2 126/6/2 128/6/2
f 129/3/2 130/3/2 131/3/2
f 131/3/2 130/3/2 132/3/2
f 133/6/2 134/6/2 135/6/2
f 135/6/2 134/6/2 136/6/2
f 133/6/2 135/6/2 137/6/2
f 136/6/2 134/6/2 138/6/2
f 133/6/2 137/6/2 139/6/2
f 137/6/2 138/6/2 139/6/2
f 138/6/2 134/6/2 140/6/2
f 139/6/2 138/6/2 140/6/2
f 143/6/3 142/6/3 141/6/3
f 144/6/3 142/6/3 143/6/3
f 145/6/3 142/6/3 144/6/3
f 146/6/3 142/6/3 145/6/3
f 147/6/3 142/6/3 146/6/3
f 148/6/3 142/6/3 147/6/3
f 149/6/3 142/6/3 148/6/3
f 150/6/3 142/6/3 149/6/3
f 151/6/3 143/6/3 141/6/3
f 152/6/3 145/6/3 144/6/3
f 153/6/3 145/6/3 152/6/3
f 154/6/3 147/6/3 146/6/3
f 155/6/3 147/6/3 154/6/3
f 156/6/3 149/6/3 148/6/3
f 157/6/3 149/6/3 156/6/3
f 158/6/3 142/6/3 150/6/3
f 159/6/3 157/6/3 156/6/3
f 159/6/3 158/6/3 157/6/3
f 159/6/3 155/6/3 154/6/3
f 159/6/3 153/6/3 152/6/3
f 159/6/3 156/6/3 155/6/3
f 159/6/3 152/6/3 151/6/3
f 159/6/3 154/6/3 153/6/3
f 160/6/3 142/6/3 158/6/3
f 160/6/3 158/6/3 159/6/3
f 161/6/3 159/6/3 151/6/3
f 161/6/3 151/6/3 141/6/3
f 162/6/3 159/6/3 161/6/3
f 163/6/3 161/6/3 141/6/3
f 164/6/3 159/6/3 162/6/3
f 165/6/3 163/6/3 141/6/3
f 165/6/3 164/6/3 163/6/3
f 166/6/3 164/6/3 165/6/3
f 167/6/3 164/6/3 166/6/3
f 168/6/3 159/6/3 164/6/3
f 168/6/3 164/6/3 167/6/3
f 170/6/3 167/6/3 166/6/3
f 171/6/3 167/6/3 170/6/3
f 171/6/3 170/6/3 169/6/3
f 172/6/3 159/6/3 168/6/3
f 173/6/3 171/6/3 169/6/3
f 173/6/3 172/6/3 171/6/3
f 174/6/3 159/6/3 172/6/3
f 174/6/3 172/6/3 173/6/3
f 183/3/3 176/3/3 175/3/3
f 184/3/3 176/3/3 183/3/3
f 185/3/3 178/3/3 177/3/3
f 186/3/3 178/3/3 185/3/3
f 187/3/3 180/3/3 179/3/3
f 188/3/3 180/3/3 187/3/3
f 189/3/3 182/3/3 181/3/3
f 190/3/3 182/3/3 189/3/3
f 193/3/3 192/3/3 191/3/3
f 194/3/3 192/3/3 193/3/3
f 199/3/3 196/3/3 195/3/3
f 200/3/3 196/3/3 199/3/3
f 201/3/3 198/3/3 197/3/3
f 202/3/3 198/3/3 201/3/3
f 205/4/3 204/4/3 203/4/3
f 206/4/3 204/4/3 205/4/3
f 209/4/3 208/4/3 207/4/3
f 210/4/3 208/4/3 209/4/3
f 213/6/3 212/6/3 211/6/3
f 214/6/3 212/6/3 213/6/3
f 219/6/3 216/6/3 215/6/3
f 220/6/3 216/6/3 219/6/3
f 221/6/3 218/6/3 217/6/3
f 222/6/3 218/6/3 221/6/3
f 225/6/3 224/6/3 223/6/3
f 226/6/3 224/6/3 225/6/3
f 227/6/4 228/6/4 231/6/4
f 231/6/4 228/6/4 232/6/4
f 229/6/4 230/6/4 233/6/4
f 233/6/4 230/6/4 234/6/4
f 235/6/4 236/6/4 237/6/4
f 237/6/4 236/6/4 238/6/4
f 239/6/4 240/6/4 241/6/4
f 241/6/4 240/6/4 242/6/4
f 243/4/4 244/4/4 245/4/4
f 245/4/4 244/4/4 246/4/4
f 247/4/4 248/4/4 249/4/4
f 249/4/4 248/4/4 250/4/4
f 250/4/4 248/4/4 252/4/4
f 251/4/4 252/4/4 253/4/4
f 252/4/4 248/4/4 254/4/4
f 253/4/4 252/4/4 254/4/4
f 254/4/4 248/4/4 256/4/4
f 255/4/4 256/4/4 257/4/4
f 256/4/4 248/4/4 258/4/4
f 257/4/4 256/4/4 258/4/4
f 259/4/4 260/4/4 261/4/4
f 261/4/4 260/4/4 262/4/4
f 263/4/4 264/4/4 265/4/4
f 265/4/4 264/4/4 266/4/4
f 267/6/4 268/6/4 269/6/4
f 269/6/4 268/6/4 270/6/4
f 267/6/4 269/6/4 271/6/4
f 271/6/4 269/6/4 272/6/4
f 272/6/4 269/6/4 274/6/4
f 273/6/4 274/6/4 275/6/4
f 274/6/4 269/6/4 276/6/4
f 275/6/4 274/6/4 276/6/4
f 277/6/4 278/6/4 279/6/4
f 279/6/4 278/6/4 280/6/4
f 285/6/5 282/6/5 281/6/5
f 286/6/5 284/6/5 283/6/5
f 287/6/5 285/6/5 281/6/5
f 287/3/5 286/3/5 285/3/5
f 288/6/5 284/6/5 286/6/5
f 288/3/5 286/3/5 287/3/5
f 289/6/5 287/6/5 281/6/5
f 289/6/5 288/6/5 287/6/5
f 290/6/5 284/6/5 288/6/5
f 290/6/5 288/6/5 289/6/5
f 291/6/5 284/6/5 290/6/5
f 292/6/5 284/6/5 291/6/5
f 293/6/5 291/6/5 290/6/5
f 294/6/5 291/6/5 293/6/5
f 299/6/5 296/6/5 295/6/5
f 300/6/5 296/6/5 299/6/5
f 301/6/5 298/6/5 297/6/5
f 302/6/5 298/6/5 301/6/5
f 305/6/5 304/6/5 303/6/5
f 306/6/5 304/6/5 305/6/5
f 313/6/5 308/6/5 307/6/5
f 314/6/5 308/6/5 313/6/5
f 315/6/5 310/6/5 309/6/5
f 316/6/5 310/6/5 315/6/5
f 317/6/5 312/6/5 311/6/5
f 318/6/5 312/6/5 317/6/5
f 321/6/5 320/6/5 319/6/5
f 322/6/5 320/6/5 321/6/5
f 325/6/5 324/6/5 323/6/5
f 326/6/5 324/6/5 325/6/5
f 329/6/5 328/6/5 327/6/5
f 330/6/5 328/6/5 329/6/5
f 331/6/6 332/6/6 335/6/6
f 335/6/6 332/6/6 336/6/6
f 333/6/6 334/6/6 337/6/6
f 337/6/6 334/6/6 338/6/6
f 339/6/6 340/6/6 341/6/6
f 341/6/6 340/6/6 342/6/6
f 343/6/6 344/6/6 345/6/6
f 345/6/6 344/6/6 346/6/6
f 347/6/6 348/6/6 351/6/6
f 351/6/6 348/6/6 352/6/6
f 349/6/6 350/6/6 353/6/6
f 353/6/6 350/6/6 354/6/6
f 355/6/6 356/6/6 359/6/6
f 359/6/6 356/6/6 360/6/6
f 357/4/6 358/4/6 361/4/6
f 361/4/6 358/4/6 362/4/6
f 363/6/6 364/6/6 365/6/6
f 365/6/6 364/6/6 366/6/6
f 363/6/6 365/6/6 367/6/6
f 366/6/6 364/6/6 368/6/6
f 363/6/6 367/6/6 369/6/6
f 367/6/6 368/6/6 369/6/6
f 368/6/6 364/6/6 370/6/6
f 369/6/6 368/6/6 370/6/6
f 371/6/6 372/6/6 373/6/6
f 373/6/6 372/6/6 374/6/6
f 375/6/6 376/6/6 377/6/6
f 377/6/6 376/6/6 378/6/6
f 379/4/6 380/4/6 381/4/6
f 381/4/6 380/4/6 382/4/6
f 379/4/6 381/4/6 383/4/6
f 382/4/6 380/4/6 384/4/6
f 379/4/6 383/4/6 385/4/6
f 383/4/6 384/4/6 385/4/6
f 385/4/6 384/4/6 386/4/6
f 379/4/6 385/4/6 387/4/6
f 386/4/6 384/4/6 392/4/6
f 387/4/6 388/4/6 393/4/6
f 389/4/6 390/4/6 394/4/6
f 394/4/6 390/4/6 395/4/6
f 391/4/6 392/4/6 396/4/6
f 387/4/6 393/4/6 397/4/6
f 395/4/6 396/4/6 397/4/6
f 379/4/6 387/4/6 397/4/6
f 394/4/6 395/4/6 397/4/6
f 393/4/6 394/4/6 397/4/6
f 384/4/6 380/4/6 398/4/6
f 397/4/6 396/4/6 398/4/6
f 396/4/6 392/4/6 398/4/6
f 392/4/6 384/4/6 398/4/6
f 399/6/6 400/6/6 401/6/6
f 401/6/6 400/6/6 402/6/6
f 403/4/6 404/4/6 407/4/6
f 407/4/6 404/4/6 408/4/6
f 405/4/6 406/4/6 409/4/6
f 409/4/6 406/4/6 410/4/6
f 399/6/6 401/6/6 411/6/6
f 402/6/6 400/6/6 412/6/6
f 399/6/6 411/6/6 413/6/6
f 411/6/6 412/6/6 413/6/6
f 412/6/6 400/6/6 414/6/6
f 413/6/6 412/6/6 414/6/6
f 415/4/6 416/4/6 417/4/6
f 417/4/6 416/4/6 418/4/6
f 419/4/6 420/4/6 421/4/6
f 421/4/6 420/4/6 422/4/6
