# MagicaVoxel @ Ephtracy

# group
g trashCan

# material
mtllib trashCan.mtl
usemtl palette

# normals
vn -1 0 0
vn 1 0 0
vn 0 0 1
vn 0 0 -1
vn 0 -1 0
vn 0 1 0

# texcoords
vt 0.306641 0.5
vt 0.537109 0.5
vt 0.619141 0.5
vt 0.677734 0.5
vt 0.908203 0.5
vt 0.978516 0.5
vt 0.982422 0.5
vt 0.994141 0.5

# verts
v -4 0 1
v -4 0 -2
v -4 1 1
v -4 1 -0
v -4 1 -1
v -4 1 -2
v -4 7 1
v -4 7 -0
v -4 7 -1
v -4 7 -2
v -4 8 1
v -4 8 -2
v -3 0 2
v -3 0 1
v -3 0 -2
v -3 0 -3
v -3 1 2
v -3 1 1
v -3 1 -2
v -3 1 -3
v -3 7 1
v -3 7 -2
v -3 8 2
v -3 8 1
v -3 8 -2
v -3 8 -3
v -2 0 3
v -2 0 2
v -2 0 -3
v -2 0 -4
v -2 1 3
v -2 1 2
v -2 1 -3
v -2 1 -4
v -2 2 1
v -2 2 -0
v -2 3 1
v -2 3 -0
v -2 7 3
v -2 7 2
v -2 7 -3
v -2 7 -4
v -2 8 3
v -2 8 2
v -2 8 -3
v -2 8 -4
v -1 2 2
v -1 2 1
v -1 3 1
v -1 3 -0
v -1 3 -1
v -1 3 -2
v -1 4 2
v -1 4 1
v -1 4 -1
v -1 4 -2
v -1 5 1
v -1 5 -0
v -1 5 -1
v -1 5 -2
v -1 6 1
v -1 6 -0
v 0 2 -0
v 0 2 -1
v 0 2 -2
v 0 2 -3
v 0 3 -0
v 0 3 -1
v 0 3 -2
v 0 4 -2
v 0 4 -3
v 1 2 2
v 1 2 1
v 1 3 1
v 1 4 -2
v 1 4 -3
v 1 7 2
v 1 7 -3
v 1 8 2
v 1 8 1
v 1 8 -2
v 1 8 -3
v 2 2 1
v 2 2 -0
v 2 2 -1
v 2 2 -2
v 2 7 1
v 2 7 -0
v 2 7 -1
v 2 7 -2
v 2 8 1
v 2 8 -2
v -3 2 1
v -3 2 -0
v -3 2 -1
v -3 3 -1
v -3 3 -2
v -3 7 1
v -3 7 -0
v -3 7 -1
v -3 7 -2
v -3 8 1
v -3 8 -2
v -2 2 2
v -2 2 1
v -2 3 1
v -2 3 -2
v -2 3 -3
v -2 7 2
v -2 7 -3
v -2 8 2
v -2 8 1
v -2 8 -2
v -2 8 -3
v -1 2 -2
v -1 2 -3
v -1 3 -2
v -1 3 -3
v 0 2 2
v 0 2 1
v 0 3 1
v 0 3 -0
v 0 4 2
v 0 4 1
v 0 4 -1
v 0 4 -2
v 0 5 1
v 0 5 -0
v 0 5 -1
v 0 5 -2
v 0 6 1
v 0 6 -0
v 1 0 3
v 1 0 2
v 1 0 -3
v 1 0 -4
v 1 1 3
v 1 1 2
v 1 1 -3
v 1 1 -4
v 1 2 1
v 1 2 -0
v 1 2 -1
v 1 2 -2
v 1 3 1
v 1 3 -0
v 1 3 -1
v 1 4 -1
v 1 4 -2
v 1 7 3
v 1 7 2
v 1 7 -3
v 1 7 -4
v 1 8 3
v 1 8 2
v 1 8 -3
v 1 8 -4
v 2 0 2
v 2 0 1
v 2 0 -2
v 2 0 -3
v 2 1 2
v 2 1 1
v 2 1 -2
v 2 1 -3
v 2 7 1
v 2 7 -2
v 2 8 2
v 2 8 1
v 2 8 -2
v 2 8 -3
v 3 0 1
v 3 0 -2
v 3 1 1
v 3 1 -0
v 3 1 -1
v 3 1 -2
v 3 7 1
v 3 7 -0
v 3 7 -1
v 3 7 -2
v 3 8 1
v 3 8 -2
v -2 0 3
v -2 1 3
v -2 7 3
v -2 8 3
v -1 1 3
v -1 7 3
v 0 1 3
v 0 7 3
v 1 0 3
v 1 1 3
v 1 7 3
v 1 8 3
v -3 0 2
v -3 1 2
v -3 8 2
v -2 0 2
v -2 1 2
v -2 7 2
v -2 8 2
v 1 0 2
v 1 1 2
v 1 7 2
v 1 8 2
v 2 0 2
v 2 1 2
v 2 8 2
v -4 0 1
v -4 1 1
v -4 7 1
v -4 8 1
v -3 0 1
v -3 1 1
v -3 7 1
v -3 8 1
v -2 2 1
v -2 3 1
v -1 2 1
v -1 3 1
v -1 4 1
v -1 5 1
v -1 6 1
v 0 2 1
v 0 3 1
v 0 4 1
v 0 5 1
v 0 6 1
v 1 2 1
v 1 3 1
v 2 0 1
v 2 1 1
v 2 7 1
v 2 8 1
v 3 0 1
v 3 1 1
v 3 7 1
v 3 8 1
v -3 2 -1
v -3 3 -1
v -2 2 -1
v -2 3 -1
v -1 2 -1
v -1 3 -1
v -1 4 -1
v -1 5 -1
v 0 2 -1
v 0 3 -1
v 0 4 -1
v 0 5 -1
v 1 3 -1
v 1 4 -1
v -3 3 -2
v -3 7 -2
v -3 8 -2
v -2 3 -2
v -2 8 -2
v 1 2 -2
v 1 4 -2
v 1 8 -2
v 2 2 -2
v 2 7 -2
v 2 8 -2
v -2 3 -3
v -2 7 -3
v -2 8 -3
v -1 2 -3
v -1 3 -3
v -1 7 -3
v 0 2 -3
v 0 4 -3
v 0 7 -3
v 1 4 -3
v 1 7 -3
v 1 8 -3
v -2 2 2
v -2 7 2
v -2 8 2
v -1 2 2
v -1 4 2
v -1 7 2
v 0 2 2
v 0 4 2
v 0 7 2
v 1 2 2
v 1 7 2
v 1 8 2
v -3 2 1
v -3 7 1
v -3 8 1
v -2 2 1
v -2 3 1
v -2 8 1
v 1 2 1
v 1 3 1
v 1 8 1
v 2 2 1
v 2 7 1
v 2 8 1
v -2 2 -0
v -2 3 -0
v -1 3 -0
v -1 5 -0
v -1 6 -0
v 0 2 -0
v 0 3 -0
v 0 5 -0
v 0 6 -0
v -4 0 -2
v -4 1 -2
v -4 7 -2
v -4 8 -2
v -3 0 -2
v -3 1 -2
v -3 7 -2
v -3 8 -2
v -1 2 -2
v -1 3 -2
v -1 4 -2
v -1 5 -2
v 0 2 -2
v 0 3 -2
v 0 4 -2
v 0 5 -2
v 2 0 -2
v 2 1 -2
v 2 7 -2
v 2 8 -2
v 3 0 -2
v 3 1 -2
v 3 7 -2
v 3 8 -2
v -3 0 -3
v -3 1 -3
v -3 8 -3
v -2 0 -3
v -2 1 -3
v -2 7 -3
v -2 8 -3
v 1 0 -3
v 1 1 -3
v 1 7 -3
v 1 8 -3
v 2 0 -3
v 2 1 -3
v 2 8 -3
v -2 0 -4
v -2 1 -4
v -2 7 -4
v -2 8 -4
v -1 1 -4
v -1 7 -4
v 0 1 -4
v 0 7 -4
v 1 0 -4
v 1 1 -4
v 1 7 -4
v 1 8 -4
v -2 0 3
v 1 0 3
v -3 0 2
v -2 0 2
v 1 0 2
v 2 0 2
v -4 0 1
v -3 0 1
v -2 0 1
v 1 0 1
v 2 0 1
v 3 0 1
v -4 0 -2
v -3 0 -2
v -2 0 -2
v 1 0 -2
v 2 0 -2
v 3 0 -2
v -3 0 -3
v -2 0 -3
v 1 0 -3
v 2 0 -3
v -2 0 -4
v 1 0 -4
v -2 2 2
v -1 2 2
v 0 2 2
v 1 2 2
v -3 2 1
v -2 2 1
v -1 2 1
v 0 2 1
v 1 2 1
v 2 2 1
v -3 2 -0
v -2 2 -0
v 0 2 -0
v 1 2 -0
v 2 2 -0
v -3 2 -1
v -2 2 -1
v -1 2 -1
v 0 2 -1
v 1 2 -1
v 2 2 -1
v -1 2 -2
v 0 2 -2
v 1 2 -2
v 2 2 -2
v -1 2 -3
v 0 2 -3
v -2 3 1
v -1 3 1
v 0 3 1
v 1 3 1
v -2 3 -0
v -1 3 -0
v 0 3 -0
v 1 3 -0
v -3 3 -1
v -2 3 -1
v -1 3 -1
v 0 3 -1
v 1 3 -1
v -3 3 -2
v -2 3 -2
v -1 3 -2
v -2 3 -3
v -1 3 -3
v -1 4 2
v 0 4 2
v -1 4 1
v 0 4 1
v 0 4 -1
v 1 4 -1
v 0 4 -2
v 1 4 -2
v 0 4 -3
v 1 4 -3
v -1 5 -1
v 0 5 -1
v -1 5 -2
v 0 5 -2
v -1 6 1
v 0 6 1
v -1 6 -0
v 0 6 -0
v -2 8 3
v 1 8 3
v -3 8 2
v -2 8 2
v 1 8 2
v 2 8 2
v -4 8 1
v -3 8 1
v -2 8 1
v 1 8 1
v 2 8 1
v 3 8 1
v -4 8 -2
v -3 8 -2
v -2 8 -2
v 1 8 -2
v 2 8 -2
v 3 8 -2
v -3 8 -3
v -2 8 -3
v 1 8 -3
v 2 8 -3
v -2 8 -4
v 1 8 -4

# faces
f 3/8/1 2/8/1 1/8/1
f 4/8/1 2/8/1 3/8/1
f 5/8/1 2/8/1 4/8/1
f 6/8/1 2/8/1 5/8/1
f 7/6/1 4/6/1 3/6/1
f 8/7/1 5/7/1 4/7/1
f 8/6/1 4/6/1 7/6/1
f 9/6/1 6/6/1 5/6/1
f 9/7/1 5/7/1 8/7/1
f 10/6/1 6/6/1 9/6/1
f 11/7/1 8/7/1 7/7/1
f 11/7/1 9/7/1 8/7/1
f 11/7/1 10/7/1 9/7/1
f 12/7/1 10/7/1 11/7/1
f 17/8/1 14/8/1 13/8/1
f 18/8/1 14/8/1 17/8/1
f 19/8/1 16/8/1 15/8/1
f 20/8/1 16/8/1 19/8/1
f 21/7/1 18/7/1 17/7/1
f 22/7/1 20/7/1 19/7/1
f 23/7/1 21/7/1 17/7/1
f 24/7/1 21/7/1 23/7/1
f 25/7/1 20/7/1 22/7/1
f 26/7/1 20/7/1 25/7/1
f 31/8/1 28/8/1 27/8/1
f 32/8/1 28/8/1 31/8/1
f 33/8/1 30/8/1 29/8/1
f 34/8/1 30/8/1 33/8/1
f 37/5/1 36/5/1 35/5/1
f 38/5/1 36/5/1 37/5/1
f 39/6/1 32/6/1 31/6/1
f 40/6/1 32/6/1 39/6/1
f 41/6/1 34/6/1 33/6/1
f 42/6/1 34/6/1 41/6/1
f 43/7/1 40/7/1 39/7/1
f 44/7/1 40/7/1 43/7/1
f 45/7/1 42/7/1 41/7/1
f 46/7/1 42/7/1 45/7/1
f 49/5/1 48/5/1 47/5/1
f 53/5/1 49/5/1 47/5/1
f 53/5/1 50/5/1 49/5/1
f 54/5/1 50/5/1 53/5/1
f 55/3/1 52/3/1 51/3/1
f 56/3/1 52/3/1 55/3/1
f 57/5/1 50/5/1 54/5/1
f 58/5/1 50/5/1 57/5/1
f 59/2/1 56/2/1 55/2/1
f 60/2/1 56/2/1 59/2/1
f 61/2/1 58/2/1 57/2/1
f 62/2/1 58/2/1 61/2/1
f 67/2/1 64/2/1 63/2/1
f 68/2/1 64/2/1 67/2/1
f 69/3/1 66/3/1 65/3/1
f 70/3/1 66/3/1 69/3/1
f 71/3/1 66/3/1 70/3/1
f 74/7/1 73/7/1 72/7/1
f 77/7/1 74/7/1 72/7/1
f 78/7/1 76/7/1 75/7/1
f 79/7/1 74/7/1 77/7/1
f 80/7/1 74/7/1 79/7/1
f 81/7/1 78/7/1 75/7/1
f 82/7/1 78/7/1 81/7/1
f 87/6/1 84/6/1 83/6/1
f 88/7/1 85/7/1 84/7/1
f 88/6/1 84/6/1 87/6/1
f 89/6/1 86/6/1 85/6/1
f 89/7/1 85/7/1 88/7/1
f 90/6/1 86/6/1 89/6/1
f 91/7/1 88/7/1 87/7/1
f 91/7/1 89/7/1 88/7/1
f 91/7/1 90/7/1 89/7/1
f 92/7/1 90/7/1 91/7/1
f 94/7/2 95/7/2 96/7/2
f 93/6/2 94/6/2 98/6/2
f 94/7/2 96/7/2 99/7/2
f 98/6/2 94/6/2 99/6/2
f 96/6/2 97/6/2 100/6/2
f 99/7/2 96/7/2 100/7/2
f 100/6/2 97/6/2 101/6/2
f 98/7/2 99/7/2 102/7/2
f 99/7/2 100/7/2 102/7/2
f 100/7/2 101/7/2 102/7/2
f 102/7/2 101/7/2 103/7/2
f 104/7/2 105/7/2 106/7/2
f 104/7/2 106/7/2 109/7/2
f 107/7/2 108/7/2 110/7/2
f 109/7/2 106/7/2 111/7/2
f 111/7/2 106/7/2 112/7/2
f 107/7/2 110/7/2 113/7/2
f 113/7/2 110/7/2 114/7/2
f 115/2/2 116/2/2 117/2/2
f 117/2/2 116/2/2 118/2/2
f 119/5/2 120/5/2 121/5/2
f 119/5/2 121/5/2 123/5/2
f 121/5/2 122/5/2 123/5/2
f 123/5/2 122/5/2 124/5/2
f 124/5/2 122/5/2 127/5/2
f 127/5/2 122/5/2 128/5/2
f 125/2/2 126/2/2 129/2/2
f 129/2/2 126/2/2 130/2/2
f 127/2/2 128/2/2 131/2/2
f 131/2/2 128/2/2 132/2/2
f 133/8/2 134/8/2 137/8/2
f 137/8/2 134/8/2 138/8/2
f 135/8/2 136/8/2 139/8/2
f 139/8/2 136/8/2 140/8/2
f 141/5/2 142/5/2 145/5/2
f 142/2/2 143/2/2 146/2/2
f 145/5/2 142/5/2 146/5/2
f 143/3/2 144/3/2 147/3/2
f 146/2/2 143/2/2 147/2/2
f 147/3/2 144/3/2 148/3/2
f 148/3/2 144/3/2 149/3/2
f 137/6/2 138/6/2 150/6/2
f 150/6/2 138/6/2 151/6/2
f 139/6/2 140/6/2 152/6/2
f 152/6/2 140/6/2 153/6/2
f 150/7/2 151/7/2 154/7/2
f 154/7/2 151/7/2 155/7/2
f 152/7/2 153/7/2 156/7/2
f 156/7/2 153/7/2 157/7/2
f 158/8/2 159/8/2 162/8/2
f 162/8/2 159/8/2 163/8/2
f 160/8/2 161/8/2 164/8/2
f 164/8/2 161/8/2 165/8/2
f 162/7/2 163/7/2 166/7/2
f 164/7/2 165/7/2 167/7/2
f 162/7/2 166/7/2 168/7/2
f 168/7/2 166/7/2 169/7/2
f 167/7/2 165/7/2 170/7/2
f 170/7/2 165/7/2 171/7/2
f 172/8/2 173/8/2 174/8/2
f 174/8/2 173/8/2 175/8/2
f 175/8/2 173/8/2 176/8/2
f 176/8/2 173/8/2 177/8/2
f 174/6/2 175/6/2 178/6/2
f 175/7/2 176/7/2 179/7/2
f 178/6/2 175/6/2 179/6/2
f 176/6/2 177/6/2 180/6/2
f 179/7/2 176/7/2 180/7/2
f 180/6/2 177/6/2 181/6/2
f 178/7/2 179/7/2 182/7/2
f 179/7/2 180/7/2 182/7/2
f 180/7/2 181/7/2 182/7/2
f 182/7/2 181/7/2 183/7/2
f 188/8/3 185/8/3 184/8/3
f 188/6/3 186/6/3 185/6/3
f 189/7/3 187/7/3 186/7/3
f 189/6/3 186/6/3 188/6/3
f 190/8/3 188/8/3 184/8/3
f 190/7/3 189/7/3 188/7/3
f 191/7/3 187/7/3 189/7/3
f 191/7/3 189/7/3 190/7/3
f 192/8/3 190/8/3 184/8/3
f 193/6/3 191/6/3 190/6/3
f 193/8/3 190/8/3 192/8/3
f 194/7/3 187/7/3 191/7/3
f 194/6/3 191/6/3 193/6/3
f 195/7/3 187/7/3 194/7/3
f 199/8/3 197/8/3 196/8/3
f 200/7/3 198/7/3 197/7/3
f 200/8/3 197/8/3 199/8/3
f 201/7/3 198/7/3 200/7/3
f 202/7/3 198/7/3 201/7/3
f 207/8/3 204/8/3 203/8/3
f 208/7/3 206/7/3 205/7/3
f 208/8/3 204/8/3 207/8/3
f 208/7/3 205/7/3 204/7/3
f 209/7/3 206/7/3 208/7/3
f 214/8/3 211/8/3 210/8/3
f 215/6/3 212/6/3 211/6/3
f 215/8/3 211/8/3 214/8/3
f 216/7/3 213/7/3 212/7/3
f 216/6/3 212/6/3 215/6/3
f 217/7/3 213/7/3 216/7/3
f 220/5/3 219/5/3 218/5/3
f 221/5/3 219/5/3 220/5/3
f 227/5/3 223/5/3 222/5/3
f 228/2/3 224/2/3 223/2/3
f 228/5/3 223/5/3 227/5/3
f 229/2/3 224/2/3 228/2/3
f 230/5/3 226/5/3 225/5/3
f 231/5/3 226/5/3 230/5/3
f 236/8/3 233/8/3 232/8/3
f 237/6/3 234/6/3 233/6/3
f 237/8/3 233/8/3 236/8/3
f 238/7/3 235/7/3 234/7/3
f 238/6/3 234/6/3 237/6/3
f 239/7/3 235/7/3 238/7/3
f 242/2/3 241/2/3 240/2/3
f 243/2/3 241/2/3 242/2/3
f 244/3/3 243/3/3 242/3/3
f 245/3/3 243/3/3 244/3/3
f 248/4/3 245/4/3 244/4/3
f 249/3/3 246/3/3 245/3/3
f 249/4/3 245/4/3 248/4/3
f 250/2/3 247/2/3 246/2/3
f 250/3/3 246/3/3 249/3/3
f 251/2/3 247/2/3 250/2/3
f 252/3/3 250/3/3 249/3/3
f 253/3/3 250/3/3 252/3/3
f 257/7/3 255/7/3 254/7/3
f 257/7/3 256/7/3 255/7/3
f 258/7/3 256/7/3 257/7/3
f 262/7/3 260/7/3 259/7/3
f 262/7/3 261/7/3 260/7/3
f 263/7/3 261/7/3 262/7/3
f 264/7/3 261/7/3 263/7/3
f 269/6/3 266/6/3 265/6/3
f 270/7/3 267/7/3 266/7/3
f 270/6/3 266/6/3 269/6/3
f 271/7/3 269/7/3 268/7/3
f 271/7/3 270/7/3 269/7/3
f 272/7/3 270/7/3 271/7/3
f 273/7/3 267/7/3 270/7/3
f 273/7/3 270/7/3 272/7/3
f 274/6/3 273/6/3 272/6/3
f 275/7/3 267/7/3 273/7/3
f 275/6/3 273/6/3 274/6/3
f 276/7/3 267/7/3 275/7/3
f 277/6/4 278/6/4 280/6/4
f 280/6/4 278/6/4 281/6/4
f 278/7/4 279/7/4 282/7/4
f 281/6/4 278/6/4 282/6/4
f 281/7/4 282/7/4 284/7/4
f 282/7/4 279/7/4 285/7/4
f 284/7/4 282/7/4 285/7/4
f 283/6/4 284/6/4 286/6/4
f 284/6/4 285/6/4 286/6/4
f 285/7/4 279/7/4 287/7/4
f 286/6/4 285/6/4 287/6/4
f 287/7/4 279/7/4 288/7/4
f 289/7/4 290/7/4 292/7/4
f 290/7/4 291/7/4 292/7/4
f 292/7/4 291/7/4 293/7/4
f 293/7/4 291/7/4 294/7/4
f 295/7/4 296/7/4 298/7/4
f 296/7/4 297/7/4 298/7/4
f 298/7/4 297/7/4 299/7/4
f 299/7/4 297/7/4 300/7/4
f 301/5/4 302/5/4 303/5/4
f 301/5/4 303/5/4 306/5/4
f 303/5/4 304/5/4 306/5/4
f 306/5/4 304/5/4 307/5/4
f 304/2/4 305/2/4 308/2/4
f 307/5/4 304/5/4 308/5/4
f 308/2/4 305/2/4 309/2/4
f 310/8/4 311/8/4 314/8/4
f 311/6/4 312/6/4 315/6/4
f 314/8/4 311/8/4 315/8/4
f 312/7/4 313/7/4 316/7/4
f 315/6/4 312/6/4 316/6/4
f 316/7/4 313/7/4 317/7/4
f 318/4/4 319/4/4 322/4/4
f 319/3/4 320/3/4 323/3/4
f 322/4/4 319/4/4 323/4/4
f 320/2/4 321/2/4 324/2/4
f 323/3/4 320/3/4 324/3/4
f 324/2/4 321/2/4 325/2/4
f 326/8/4 327/8/4 330/8/4
f 327/6/4 328/6/4 331/6/4
f 330/8/4 327/8/4 331/8/4
f 328/7/4 329/7/4 332/7/4
f 331/6/4 328/6/4 332/6/4
f 332/7/4 329/7/4 333/7/4
f 334/8/4 335/8/4 337/8/4
f 335/7/4 336/7/4 338/7/4
f 337/8/4 335/8/4 338/8/4
f 338/7/4 336/7/4 339/7/4
f 339/7/4 336/7/4 340/7/4
f 341/8/4 342/8/4 345/8/4
f 343/7/4 344/7/4 346/7/4
f 345/8/4 342/8/4 346/8/4
f 342/7/4 343/7/4 346/7/4
f 346/7/4 344/7/4 347/7/4
f 348/8/4 349/8/4 352/8/4
f 349/6/4 350/6/4 352/6/4
f 350/7/4 351/7/4 353/7/4
f 352/6/4 350/6/4 353/6/4
f 348/8/4 352/8/4 354/8/4
f 352/7/4 353/7/4 354/7/4
f 353/7/4 351/7/4 355/7/4
f 354/7/4 353/7/4 355/7/4
f 348/8/4 354/8/4 356/8/4
f 354/6/4 355/6/4 357/6/4
f 356/8/4 354/8/4 357/8/4
f 355/7/4 351/7/4 358/7/4
f 357/6/4 355/6/4 358/6/4
f 358/7/4 351/7/4 359/7/4
f 363/8/5 361/8/5 360/8/5
f 364/8/5 361/8/5 363/8/5
f 367/8/5 363/8/5 362/8/5
f 368/1/5 364/1/5 363/1/5
f 368/8/5 363/8/5 367/8/5
f 369/8/5 365/8/5 364/8/5
f 369/1/5 364/1/5 368/1/5
f 370/8/5 365/8/5 369/8/5
f 372/8/5 367/8/5 366/8/5
f 373/1/5 368/1/5 367/1/5
f 373/8/5 367/8/5 372/8/5
f 373/1/5 369/1/5 368/1/5
f 373/1/5 370/1/5 369/1/5
f 374/1/5 370/1/5 373/1/5
f 375/1/5 370/1/5 374/1/5
f 376/8/5 371/8/5 370/8/5
f 376/1/5 370/1/5 375/1/5
f 377/8/5 371/8/5 376/8/5
f 378/8/5 374/8/5 373/8/5
f 379/1/5 375/1/5 374/1/5
f 379/8/5 374/8/5 378/8/5
f 380/8/5 376/8/5 375/8/5
f 380/1/5 375/1/5 379/1/5
f 381/8/5 376/8/5 380/8/5
f 382/8/5 380/8/5 379/8/5
f 383/8/5 380/8/5 382/8/5
f 384/5/6 385/5/6 389/5/6
f 389/5/6 385/5/6 390/5/6
f 386/5/6 387/5/6 391/5/6
f 391/5/6 387/5/6 392/5/6
f 388/4/6 389/4/6 394/4/6
f 394/4/6 389/4/6 395/4/6
f 392/3/6 393/3/6 397/3/6
f 397/3/6 393/3/6 398/3/6
f 394/4/6 395/4/6 399/4/6
f 395/5/6 396/5/6 400/5/6
f 399/4/6 395/4/6 400/4/6
f 400/5/6 396/5/6 401/5/6
f 401/5/6 396/5/6 402/5/6
f 397/3/6 398/3/6 403/3/6
f 403/3/6 398/3/6 404/3/6
f 403/3/6 404/3/6 407/3/6
f 407/3/6 404/3/6 408/3/6
f 405/3/6 406/3/6 409/3/6
f 409/3/6 406/3/6 410/3/6
f 411/5/6 412/5/6 415/5/6
f 415/5/6 412/5/6 416/5/6
f 413/5/6 414/5/6 417/5/6
f 417/5/6 414/5/6 418/5/6
f 417/2/6 418/2/6 422/2/6
f 422/2/6 418/2/6 423/2/6
f 419/2/6 420/2/6 424/2/6
f 420/3/6 421/3/6 425/3/6
f 424/2/6 420/2/6 425/2/6
f 425/3/6 421/3/6 426/3/6
f 425/2/6 426/2/6 427/2/6
f 427/2/6 426/2/6 428/2/6
f 429/5/6 430/5/6 431/5/6
f 431/5/6 430/5/6 432/5/6
f 433/3/6 434/3/6 435/3/6
f 435/3/6 434/3/6 436/3/6
f 435/3/6 436/3/6 437/3/6
f 437/3/6 436/3/6 438/3/6
f 439/2/6 440/2/6 441/2/6
f 441/2/6 440/2/6 442/2/6
f 443/2/6 444/2/6 445/2/6
f 445/2/6 444/2/6 446/2/6
f 447/7/6 448/7/6 450/7/6
f 450/7/6 448/7/6 451/7/6
f 449/7/6 450/7/6 454/7/6
f 454/7/6 450/7/6 455/7/6
f 451/7/6 452/7/6 456/7/6
f 456/7/6 452/7/6 457/7/6
f 453/7/6 454/7/6 459/7/6
f 459/7/6 454/7/6 460/7/6
f 457/7/6 458/7/6 463/7/6
f 463/7/6 458/7/6 464/7/6
f 460/7/6 461/7/6 465/7/6
f 465/7/6 461/7/6 466/7/6
f 462/7/6 463/7/6 467/7/6
f 467/7/6 463/7/6 468/7/6
f 466/7/6 467/7/6 469/7/6
f 469/7/6 467/7/6 470/7/6
