# MagicaVoxel @ Ephtracy

# group
g road-2

# material
mtllib road-2.mtl
usemtl palette

# normals
vn -1 0 0
vn 1 0 0
vn 0 0 1
vn 0 0 -1
vn 0 -1 0
vn 0 1 0

# texcoords
vt 0.958984 0.5
vt 0.974609 0.5
vt 0.990234 0.5

# verts
v -20 0 20
v -20 0 -5
v -20 1 17
v -20 1 16
v -20 1 15
v -20 1 8
v -20 1 7
v -20 1 -0
v -20 1 -1
v -20 1 -2
v -20 2 17
v -20 2 16
v -20 2 15
v -20 2 8
v -20 2 7
v -20 2 -0
v -20 2 -1
v -20 2 -2
v -20 3 20
v -20 3 17
v -20 3 -2
v -20 3 -5
v -5 0 -5
v -5 0 -20
v -5 3 -5
v -5 3 -20
v 17 2 17
v 17 2 -20
v 17 3 17
v 17 3 -20
v -2 2 -2
v -2 2 -20
v -2 3 -2
v -2 3 -20
v 20 0 20
v 20 0 -20
v 20 1 8
v 20 1 7
v 20 2 8
v 20 2 7
v 20 3 20
v 20 3 -20
v -20 0 20
v -20 3 20
v 8 1 20
v 8 2 20
v 9 1 20
v 9 2 20
v 20 0 20
v 20 3 20
v -20 2 -2
v -20 3 -2
v -2 2 -2
v -2 3 -2
v -20 2 17
v -20 3 17
v 17 2 17
v 17 3 17
v -20 0 -5
v -20 3 -5
v -5 0 -5
v -5 3 -5
v -5 0 -20
v -5 3 -20
v -2 1 -20
v -2 2 -20
v -2 3 -20
v -1 1 -20
v -1 2 -20
v 0 1 -20
v 0 2 -20
v 7 1 -20
v 7 2 -20
v 8 1 -20
v 8 2 -20
v 15 1 -20
v 15 2 -20
v 16 1 -20
v 16 2 -20
v 17 1 -20
v 17 2 -20
v 17 3 -20
v 20 0 -20
v 20 3 -20
v -20 0 20
v 20 0 20
v -2 0 17
v 17 0 17
v -20 0 -5
v -5 0 -5
v -2 0 -7
v 17 0 -7
v -5 0 -20
v 20 0 -20
v -20 2 17
v 17 2 17
v -20 2 16
v 16 2 16
v -20 2 15
v 15 2 15
v -20 2 8
v -18 2 8
v -14 2 8
v -10 2 8
v -6 2 8
v -2 2 8
v 2 2 8
v 6 2 8
v -20 2 7
v -18 2 7
v -14 2 7
v -10 2 7
v -6 2 7
v -2 2 7
v 2 2 7
v 6 2 7
v 7 2 5
v 8 2 5
v 7 2 1
v 8 2 1
v -20 2 -0
v 0 2 -0
v -20 2 -1
v -1 2 -1
v -20 2 -2
v -2 2 -2
v 7 2 -3
v 8 2 -3
v 7 2 -7
v 8 2 -7
v 7 2 -11
v 8 2 -11
v 7 2 -15
v 8 2 -15
v 7 2 -19
v 8 2 -19
v -2 2 -20
v -1 2 -20
v 0 2 -20
v 7 2 -20
v 8 2 -20
v 15 2 -20
v 16 2 -20
v 17 2 -20
v -20 3 20
v 20 3 20
v -20 3 17
v 17 3 17
v -20 3 -2
v -2 3 -2
v -20 3 -5
v -5 3 -5
v -5 3 -20
v -2 3 -20
v 17 3 -20
v 20 3 -20

# faces
f 3/2/1 2/2/1 1/2/1
f 4/2/1 2/2/1 3/2/1
f 5/2/1 2/2/1 4/2/1
f 6/2/1 2/2/1 5/2/1
f 7/2/1 2/2/1 6/2/1
f 8/2/1 2/2/1 7/2/1
f 9/2/1 2/2/1 8/2/1
f 10/2/1 2/2/1 9/2/1
f 11/2/1 3/2/1 1/2/1
f 11/3/1 4/3/1 3/3/1
f 12/1/1 5/1/1 4/1/1
f 12/3/1 4/3/1 11/3/1
f 13/3/1 6/3/1 5/3/1
f 13/1/1 5/1/1 12/1/1
f 14/1/1 7/1/1 6/1/1
f 14/3/1 6/3/1 13/3/1
f 15/3/1 8/3/1 7/3/1
f 15/1/1 7/1/1 14/1/1
f 16/1/1 9/1/1 8/1/1
f 16/3/1 8/3/1 15/3/1
f 17/3/1 10/3/1 9/3/1
f 17/1/1 9/1/1 16/1/1
f 18/2/1 2/2/1 10/2/1
f 18/3/1 10/3/1 17/3/1
f 19/2/1 11/2/1 1/2/1
f 20/2/1 11/2/1 19/2/1
f 21/2/1 2/2/1 18/2/1
f 22/2/1 2/2/1 21/2/1
f 25/2/1 24/2/1 23/2/1
f 26/2/1 24/2/1 25/2/1
f 29/2/1 28/2/1 27/2/1
f 30/2/1 28/2/1 29/2/1
f 31/2/2 32/2/2 33/2/2
f 33/2/2 32/2/2 34/2/2
f 35/2/2 36/2/2 37/2/2
f 37/2/2 36/2/2 38/2/2
f 35/2/2 37/2/2 39/2/2
f 37/1/2 38/1/2 39/1/2
f 38/2/2 36/2/2 40/2/2
f 39/1/2 38/1/2 40/1/2
f 35/2/2 39/2/2 41/2/2
f 39/2/2 40/2/2 41/2/2
f 40/2/2 36/2/2 42/2/2
f 41/2/2 40/2/2 42/2/2
f 45/2/3 44/2/3 43/2/3
f 46/2/3 44/2/3 45/2/3
f 47/2/3 45/2/3 43/2/3
f 47/1/3 46/1/3 45/1/3
f 48/2/3 44/2/3 46/2/3
f 48/1/3 46/1/3 47/1/3
f 49/2/3 47/2/3 43/2/3
f 49/2/3 48/2/3 47/2/3
f 50/2/3 44/2/3 48/2/3
f 50/2/3 48/2/3 49/2/3
f 53/2/3 52/2/3 51/2/3
f 54/2/3 52/2/3 53/2/3
f 55/2/4 56/2/4 57/2/4
f 57/2/4 56/2/4 58/2/4
f 59/2/4 60/2/4 61/2/4
f 61/2/4 60/2/4 62/2/4
f 63/2/4 64/2/4 65/2/4
f 65/2/4 64/2/4 66/2/4
f 66/2/4 64/2/4 67/2/4
f 63/2/4 65/2/4 68/2/4
f 65/3/4 66/3/4 68/3/4
f 68/3/4 66/3/4 69/3/4
f 63/2/4 68/2/4 70/2/4
f 68/1/4 69/1/4 70/1/4
f 70/1/4 69/1/4 71/1/4
f 63/2/4 70/2/4 72/2/4
f 70/3/4 71/3/4 72/3/4
f 72/3/4 71/3/4 73/3/4
f 63/2/4 72/2/4 74/2/4
f 72/1/4 73/1/4 74/1/4
f 74/1/4 73/1/4 75/1/4
f 63/2/4 74/2/4 76/2/4
f 74/3/4 75/3/4 76/3/4
f 76/3/4 75/3/4 77/3/4
f 63/2/4 76/2/4 78/2/4
f 76/1/4 77/1/4 78/1/4
f 78/1/4 77/1/4 79/1/4
f 63/2/4 78/2/4 80/2/4
f 78/3/4 79/3/4 80/3/4
f 80/3/4 79/3/4 81/3/4
f 80/2/4 81/2/4 83/2/4
f 81/2/4 82/2/4 83/2/4
f 63/2/4 80/2/4 83/2/4
f 83/2/4 82/2/4 84/2/4
f 87/2/5 86/2/5 85/2/5
f 88/2/5 86/2/5 87/2/5
f 89/2/5 87/2/5 85/2/5
f 90/2/5 87/2/5 89/2/5
f 91/3/5 88/3/5 87/3/5
f 91/2/5 87/2/5 90/2/5
f 92/2/5 86/2/5 88/2/5
f 92/3/5 88/3/5 91/3/5
f 93/2/5 91/2/5 90/2/5
f 93/2/5 92/2/5 91/2/5
f 94/2/5 86/2/5 92/2/5
f 94/2/5 92/2/5 93/2/5
f 95/3/6 96/3/6 97/3/6
f 97/3/6 96/3/6 98/3/6
f 97/1/6 98/1/6 99/1/6
f 99/1/6 98/1/6 100/1/6
f 99/3/6 100/3/6 101/3/6
f 101/3/6 100/3/6 102/3/6
f 102/3/6 100/3/6 103/3/6
f 103/3/6 100/3/6 104/3/6
f 104/3/6 100/3/6 105/3/6
f 105/3/6 100/3/6 106/3/6
f 106/3/6 100/3/6 107/3/6
f 107/3/6 100/3/6 108/3/6
f 101/1/6 102/1/6 109/1/6
f 102/3/6 103/3/6 110/3/6
f 109/1/6 102/1/6 110/1/6
f 103/1/6 104/1/6 111/1/6
f 110/3/6 103/3/6 111/3/6
f 104/3/6 105/3/6 112/3/6
f 111/1/6 104/1/6 112/1/6
f 105/1/6 106/1/6 113/1/6
f 112/3/6 105/3/6 113/3/6
f 106/3/6 107/3/6 114/3/6
f 113/1/6 106/1/6 114/1/6
f 107/1/6 108/1/6 115/1/6
f 114/3/6 107/3/6 115/3/6
f 108/3/6 100/3/6 116/3/6
f 115/1/6 108/1/6 116/1/6
f 114/3/6 115/3/6 117/3/6
f 116/3/6 100/3/6 117/3/6
f 115/3/6 116/3/6 117/3/6
f 113/3/6 114/3/6 117/3/6
f 112/3/6 113/3/6 117/3/6
f 111/3/6 112/3/6 117/3/6
f 110/3/6 111/3/6 117/3/6
f 109/3/6 110/3/6 117/3/6
f 117/3/6 100/3/6 118/3/6
f 109/3/6 117/3/6 119/3/6
f 117/1/6 118/1/6 119/1/6
f 118/3/6 100/3/6 120/3/6
f 119/1/6 118/1/6 120/1/6
f 109/3/6 119/3/6 121/3/6
f 119/3/6 120/3/6 121/3/6
f 121/3/6 120/3/6 122/3/6
f 121/1/6 122/1/6 123/1/6
f 123/1/6 122/1/6 124/1/6
f 123/3/6 124/3/6 125/3/6
f 125/3/6 124/3/6 126/3/6
f 122/3/6 120/3/6 127/3/6
f 120/3/6 100/3/6 128/3/6
f 127/3/6 120/3/6 128/3/6
f 122/3/6 127/3/6 129/3/6
f 127/1/6 128/1/6 129/1/6
f 128/3/6 100/3/6 130/3/6
f 129/1/6 128/1/6 130/1/6
f 122/3/6 129/3/6 131/3/6
f 129/3/6 130/3/6 131/3/6
f 130/3/6 100/3/6 132/3/6
f 131/3/6 130/3/6 132/3/6
f 122/3/6 131/3/6 133/3/6
f 131/1/6 132/1/6 133/1/6
f 132/3/6 100/3/6 134/3/6
f 133/1/6 132/1/6 134/1/6
f 122/3/6 133/3/6 135/3/6
f 133/3/6 134/3/6 135/3/6
f 134/3/6 100/3/6 136/3/6
f 135/3/6 134/3/6 136/3/6
f 126/3/6 124/3/6 137/3/6
f 124/1/6 122/1/6 138/1/6
f 137/3/6 124/3/6 138/3/6
f 122/3/6 135/3/6 139/3/6
f 138/1/6 122/1/6 139/1/6
f 135/1/6 136/1/6 140/1/6
f 139/3/6 135/3/6 140/3/6
f 136/3/6 100/3/6 141/3/6
f 140/1/6 136/1/6 141/1/6
f 100/1/6 98/1/6 142/1/6
f 141/3/6 100/3/6 142/3/6
f 98/3/6 96/3/6 143/3/6
f 142/1/6 98/1/6 143/1/6
f 143/3/6 96/3/6 144/3/6
f 145/2/6 146/2/6 147/2/6
f 147/2/6 146/2/6 148/2/6
f 149/2/6 150/2/6 151/2/6
f 151/2/6 150/2/6 152/2/6
f 152/2/6 150/2/6 153/2/6
f 153/2/6 150/2/6 154/2/6
f 148/2/6 146/2/6 155/2/6
f 155/2/6 146/2/6 156/2/6
