# MagicaVoxel @ Ephtracy

# group
g fourthBuilding

# material
mtllib fourthBuilding.mtl
usemtl palette

# normals
vn -1 0 0
vn 1 0 0
vn 0 0 1
vn 0 0 -1
vn 0 -1 0
vn 0 1 0

# texcoords
vt 0.00195313 0.5
vt 0.00585938 0.5
vt 0.00976563 0.5

# verts
v -14 1 14
v -14 1 -14
v -14 3 12
v -14 3 2
v -14 3 -2
v -14 3 -12
v -14 6 12
v -14 6 2
v -14 6 -2
v -14 6 -12
v -14 9 12
v -14 9 2
v -14 9 -2
v -14 9 -12
v -14 12 12
v -14 12 2
v -14 12 -2
v -14 12 -12
v -14 16 14
v -14 16 -14
v -14 19 14
v -14 19 -14
v -14 22 14
v -14 22 -14
v -14 25 14
v -14 25 -14
v -14 28 14
v -14 28 -14
v -14 31 14
v -14 31 -14
v -14 35 14
v -14 35 -14
v -13 3 12
v -13 3 2
v -13 3 -2
v -13 3 -12
v -13 6 12
v -13 6 2
v -13 6 -2
v -13 6 -12
v -13 9 12
v -13 9 2
v -13 9 -2
v -13 9 -12
v -13 12 12
v -13 12 2
v -13 12 -2
v -13 12 -12
v -13 16 13
v -13 16 -13
v -13 19 13
v -13 19 -13
v -13 22 13
v -13 22 -13
v -13 25 13
v -13 25 -13
v -13 28 13
v -13 28 -13
v -13 31 13
v -13 31 -13
v -8 34 11
v -8 34 8
v -8 34 -8
v -8 34 -11
v -8 36 11
v -8 36 8
v -8 36 -8
v -8 36 -11
v -2 3 14
v -2 3 13
v -2 3 -13
v -2 3 -14
v -2 6 14
v -2 6 13
v -2 6 -13
v -2 6 -14
v -2 9 14
v -2 9 13
v -2 9 -13
v -2 9 -14
v -2 12 14
v -2 12 13
v -2 12 -13
v -2 12 -14
v -2 34 12
v -2 34 -12
v -2 35 12
v -2 35 -12
v -12 3 14
v -12 3 13
v -12 3 -13
v -12 3 -14
v -12 6 14
v -12 6 13
v -12 6 -13
v -12 6 -14
v -12 9 14
v -12 9 13
v -12 9 -13
v -12 9 -14
v -12 12 14
v -12 12 13
v -12 12 -13
v -12 12 -14
v -12 34 12
v -12 34 -12
v -12 35 12
v -12 35 -12
v -6 34 11
v -6 34 8
v -6 34 -8
v -6 34 -11
v -6 36 11
v -6 36 8
v -6 36 -8
v -6 36 -11
v -1 3 12
v -1 3 2
v -1 3 -2
v -1 3 -12
v -1 6 12
v -1 6 2
v -1 6 -2
v -1 6 -12
v -1 9 12
v -1 9 2
v -1 9 -2
v -1 9 -12
v -1 12 12
v -1 12 2
v -1 12 -2
v -1 12 -12
v -1 16 13
v -1 16 -13
v -1 19 13
v -1 19 -13
v -1 22 13
v -1 22 -13
v -1 25 13
v -1 25 -13
v -1 28 13
v -1 28 -13
v -1 31 13
v -1 31 -13
v 0 1 14
v 0 1 -14
v 0 3 12
v 0 3 2
v 0 3 -2
v 0 3 -12
v 0 6 12
v 0 6 2
v 0 6 -2
v 0 6 -12
v 0 9 12
v 0 9 2
v 0 9 -2
v 0 9 -12
v 0 12 12
v 0 12 2
v 0 12 -2
v 0 12 -12
v 0 16 14
v 0 16 -14
v 0 19 14
v 0 19 -14
v 0 22 14
v 0 22 -14
v 0 25 14
v 0 25 -14
v 0 28 14
v 0 28 -14
v 0 31 14
v 0 31 -14
v 0 35 14
v 0 35 -14
v -14 1 14
v -14 16 14
v -14 19 14
v -14 22 14
v -14 25 14
v -14 28 14
v -14 31 14
v -14 35 14
v -12 3 14
v -12 6 14
v -12 9 14
v -12 12 14
v -2 3 14
v -2 6 14
v -2 9 14
v -2 12 14
v 0 1 14
v 0 16 14
v 0 19 14
v 0 22 14
v 0 25 14
v 0 28 14
v 0 31 14
v 0 35 14
v -13 16 13
v -13 19 13
v -13 22 13
v -13 25 13
v -13 28 13
v -13 31 13
v -12 3 13
v -12 6 13
v -12 9 13
v -12 12 13
v -2 3 13
v -2 6 13
v -2 9 13
v -2 12 13
v -1 16 13
v -1 19 13
v -1 22 13
v -1 25 13
v -1 28 13
v -1 31 13
v -8 34 11
v -8 36 11
v -6 34 11
v -6 36 11
v -14 3 2
v -14 6 2
v -14 9 2
v -14 12 2
v -13 3 2
v -13 6 2
v -13 9 2
v -13 12 2
v -1 3 2
v -1 6 2
v -1 9 2
v -1 12 2
v 0 3 2
v 0 6 2
v 0 9 2
v 0 12 2
v -8 34 -8
v -8 36 -8
v -6 34 -8
v -6 36 -8
v -14 3 -12
v -14 6 -12
v -14 9 -12
v -14 12 -12
v -13 3 -12
v -13 6 -12
v -13 9 -12
v -13 12 -12
v -12 34 -12
v -12 35 -12
v -2 34 -12
v -2 35 -12
v -1 3 -12
v -1 6 -12
v -1 9 -12
v -1 12 -12
v 0 3 -12
v 0 6 -12
v 0 9 -12
v 0 12 -12
v -14 3 12
v -14 6 12
v -14 9 12
v -14 12 12
v -13 3 12
v -13 6 12
v -13 9 12
v -13 12 12
v -12 34 12
v -12 35 12
v -2 34 12
v -2 35 12
v -1 3 12
v -1 6 12
v -1 9 12
v -1 12 12
v 0 3 12
v 0 6 12
v 0 9 12
v 0 12 12
v -8 34 8
v -8 36 8
v -6 34 8
v -6 36 8
v -14 3 -2
v -14 6 -2
v -14 9 -2
v -14 12 -2
v -13 3 -2
v -13 6 -2
v -13 9 -2
v -13 12 -2
v -1 3 -2
v -1 6 -2
v -1 9 -2
v -1 12 -2
v 0 3 -2
v 0 6 -2
v 0 9 -2
v 0 12 -2
v -8 34 -11
v -8 36 -11
v -6 34 -11
v -6 36 -11
v -13 16 -13
v -13 19 -13
v -13 22 -13
v -13 25 -13
v -13 28 -13
v -13 31 -13
v -12 3 -13
v -12 6 -13
v -12 9 -13
v -12 12 -13
v -2 3 -13
v -2 6 -13
v -2 9 -13
v -2 12 -13
v -1 16 -13
v -1 19 -13
v -1 22 -13
v -1 25 -13
v -1 28 -13
v -1 31 -13
v -14 1 -14
v -14 16 -14
v -14 19 -14
v -14 22 -14
v -14 25 -14
v -14 28 -14
v -14 31 -14
v -14 35 -14
v -12 3 -14
v -12 6 -14
v -12 9 -14
v -12 12 -14
v -2 3 -14
v -2 6 -14
v -2 9 -14
v -2 12 -14
v 0 1 -14
v 0 16 -14
v 0 19 -14
v 0 22 -14
v 0 25 -14
v 0 28 -14
v 0 31 -14
v 0 35 -14
v -14 1 14
v 0 1 14
v -14 1 -14
v 0 1 -14
v -12 6 14
v -2 6 14
v -12 6 13
v -2 6 13
v -14 6 12
v -13 6 12
v -1 6 12
v 0 6 12
v -14 6 2
v -13 6 2
v -1 6 2
v 0 6 2
v -14 6 -2
v -13 6 -2
v -1 6 -2
v 0 6 -2
v -14 6 -12
v -13 6 -12
v -1 6 -12
v 0 6 -12
v -12 6 -13
v -2 6 -13
v -12 6 -14
v -2 6 -14
v -12 12 14
v -2 12 14
v -12 12 13
v -2 12 13
v -14 12 12
v -13 12 12
v -1 12 12
v 0 12 12
v -14 12 2
v -13 12 2
v -1 12 2
v 0 12 2
v -14 12 -2
v -13 12 -2
v -1 12 -2
v 0 12 -2
v -14 12 -12
v -13 12 -12
v -1 12 -12
v 0 12 -12
v -12 12 -13
v -2 12 -13
v -12 12 -14
v -2 12 -14
v -14 19 14
v 0 19 14
v -13 19 13
v -1 19 13
v -13 19 -13
v -1 19 -13
v -14 19 -14
v 0 19 -14
v -14 25 14
v 0 25 14
v -13 25 13
v -1 25 13
v -13 25 -13
v -1 25 -13
v -14 25 -14
v 0 25 -14
v -14 31 14
v 0 31 14
v -13 31 13
v -1 31 13
v -13 31 -13
v -1 31 -13
v -14 31 -14
v 0 31 -14
v -12 3 14
v -2 3 14
v -12 3 13
v -2 3 13
v -14 3 12
v -13 3 12
v -1 3 12
v 0 3 12
v -14 3 2
v -13 3 2
v -1 3 2
v 0 3 2
v -14 3 -2
v -13 3 -2
v -1 3 -2
v 0 3 -2
v -14 3 -12
v -13 3 -12
v -1 3 -12
v 0 3 -12
v -12 3 -13
v -2 3 -13
v -12 3 -14
v -2 3 -14
v -12 9 14
v -2 9 14
v -12 9 13
v -2 9 13
v -14 9 12
v -13 9 12
v -1 9 12
v 0 9 12
v -14 9 2
v -13 9 2
v -1 9 2
v 0 9 2
v -14 9 -2
v -13 9 -2
v -1 9 -2
v 0 9 -2
v -14 9 -12
v -13 9 -12
v -1 9 -12
v 0 9 -12
v -12 9 -13
v -2 9 -13
v -12 9 -14
v -2 9 -14
v -14 16 14
v 0 16 14
v -13 16 13
v -1 16 13
v -13 16 -13
v -1 16 -13
v -14 16 -14
v 0 16 -14
v -14 22 14
v 0 22 14
v -13 22 13
v -1 22 13
v -13 22 -13
v -1 22 -13
v -14 22 -14
v 0 22 -14
v -14 28 14
v 0 28 14
v -13 28 13
v -1 28 13
v -13 28 -13
v -1 28 -13
v -14 28 -14
v 0 28 -14
v -12 34 12
v -2 34 12
v -8 34 11
v -6 34 11
v -8 34 8
v -6 34 8
v -8 34 -8
v -6 34 -8
v -8 34 -11
v -6 34 -11
v -12 34 -12
v -2 34 -12
v -14 35 14
v 0 35 14
v -12 35 12
v -2 35 12
v -12 35 -12
v -2 35 -12
v -14 35 -14
v 0 35 -14
v -8 36 11
v -6 36 11
v -8 36 8
v -6 36 8
v -8 36 -8
v -6 36 -8
v -8 36 -11
v -6 36 -11

# faces
f 3/2/1 2/2/1 1/2/1
f 4/2/1 2/2/1 3/2/1
f 5/2/1 2/2/1 4/2/1
f 6/2/1 2/2/1 5/2/1
f 7/2/1 3/2/1 1/2/1
f 8/2/1 5/2/1 4/2/1
f 9/2/1 5/2/1 8/2/1
f 10/2/1 2/2/1 6/2/1
f 11/2/1 9/2/1 8/2/1
f 11/2/1 10/2/1 9/2/1
f 11/2/1 7/2/1 1/2/1
f 11/2/1 8/2/1 7/2/1
f 12/2/1 10/2/1 11/2/1
f 13/2/1 10/2/1 12/2/1
f 14/2/1 2/2/1 10/2/1
f 14/2/1 10/2/1 13/2/1
f 15/2/1 11/2/1 1/2/1
f 16/2/1 13/2/1 12/2/1
f 17/2/1 13/2/1 16/2/1
f 18/2/1 2/2/1 14/2/1
f 19/2/1 15/2/1 1/2/1
f 19/2/1 18/2/1 17/2/1
f 19/2/1 17/2/1 16/2/1
f 19/2/1 16/2/1 15/2/1
f 20/2/1 2/2/1 18/2/1
f 20/2/1 18/2/1 19/2/1
f 23/2/1 22/2/1 21/2/1
f 24/2/1 22/2/1 23/2/1
f 27/2/1 26/2/1 25/2/1
f 28/2/1 26/2/1 27/2/1
f 31/2/1 30/2/1 29/2/1
f 32/2/1 30/2/1 31/2/1
f 37/1/1 34/1/1 33/1/1
f 38/1/1 34/1/1 37/1/1
f 39/1/1 36/1/1 35/1/1
f 40/1/1 36/1/1 39/1/1
f 45/1/1 42/1/1 41/1/1
f 46/1/1 42/1/1 45/1/1
f 47/1/1 44/1/1 43/1/1
f 48/1/1 44/1/1 47/1/1
f 51/1/1 50/1/1 49/1/1
f 52/1/1 50/1/1 51/1/1
f 55/1/1 54/1/1 53/1/1
f 56/1/1 54/1/1 55/1/1
f 59/1/1 58/1/1 57/1/1
f 60/1/1 58/1/1 59/1/1
f 65/3/1 62/3/1 61/3/1
f 66/3/1 62/3/1 65/3/1
f 67/3/1 64/3/1 63/3/1
f 68/3/1 64/3/1 67/3/1
f 73/2/1 70/2/1 69/2/1
f 74/2/1 70/2/1 73/2/1
f 75/2/1 72/2/1 71/2/1
f 76/2/1 72/2/1 75/2/1
f 81/2/1 78/2/1 77/2/1
f 82/2/1 78/2/1 81/2/1
f 83/2/1 80/2/1 79/2/1
f 84/2/1 80/2/1 83/2/1
f 87/2/1 86/2/1 85/2/1
f 88/2/1 86/2/1 87/2/1
f 89/2/2 90/2/2 93/2/2
f 93/2/2 90/2/2 94/2/2
f 91/2/2 92/2/2 95/2/2
f 95/2/2 92/2/2 96/2/2
f 97/2/2 98/2/2 101/2/2
f 101/2/2 98/2/2 102/2/2
f 99/2/2 100/2/2 103/2/2
f 103/2/2 100/2/2 104/2/2
f 105/2/2 106/2/2 107/2/2
f 107/2/2 106/2/2 108/2/2
f 109/3/2 110/3/2 113/3/2
f 113/3/2 110/3/2 114/3/2
f 111/3/2 112/3/2 115/3/2
f 115/3/2 112/3/2 116/3/2
f 117/1/2 118/1/2 121/1/2
f 121/1/2 118/1/2 122/1/2
f 119/1/2 120/1/2 123/1/2
f 123/1/2 120/1/2 124/1/2
f 125/1/2 126/1/2 129/1/2
f 129/1/2 126/1/2 130/1/2
f 127/1/2 128/1/2 131/1/2
f 131/1/2 128/1/2 132/1/2
f 133/1/2 134/1/2 135/1/2
f 135/1/2 134/1/2 136/1/2
f 137/1/2 138/1/2 139/1/2
f 139/1/2 138/1/2 140/1/2
f 141/1/2 142/1/2 143/1/2
f 143/1/2 142/1/2 144/1/2
f 145/2/2 146/2/2 147/2/2
f 147/2/2 146/2/2 148/2/2
f 148/2/2 146/2/2 149/2/2
f 149/2/2 146/2/2 150/2/2
f 145/2/2 147/2/2 151/2/2
f 148/2/2 149/2/2 152/2/2
f 152/2/2 149/2/2 153/2/2
f 150/2/2 146/2/2 154/2/2
f 152/2/2 153/2/2 155/2/2
f 153/2/2 154/2/2 155/2/2
f 145/2/2 151/2/2 155/2/2
f 151/2/2 152/2/2 155/2/2
f 155/2/2 154/2/2 156/2/2
f 156/2/2 154/2/2 157/2/2
f 154/2/2 146/2/2 158/2/2
f 157/2/2 154/2/2 158/2/2
f 145/2/2 155/2/2 159/2/2
f 156/2/2 157/2/2 160/2/2
f 160/2/2 157/2/2 161/2/2
f 158/2/2 146/2/2 162/2/2
f 145/2/2 159/2/2 163/2/2
f 161/2/2 162/2/2 163/2/2
f 160/2/2 161/2/2 163/2/2
f 159/2/2 160/2/2 163/2/2
f 162/2/2 146/2/2 164/2/2
f 163/2/2 162/2/2 164/2/2
f 165/2/2 166/2/2 167/2/2
f 167/2/2 166/2/2 168/2/2
f 169/2/2 170/2/2 171/2/2
f 171/2/2 170/2/2 172/2/2
f 173/2/2 174/2/2 175/2/2
f 175/2/2 174/2/2 176/2/2
f 185/2/3 178/2/3 177/2/3
f 186/2/3 178/2/3 185/2/3
f 187/2/3 178/2/3 186/2/3
f 188/2/3 178/2/3 187/2/3
f 189/2/3 185/2/3 177/2/3
f 190/2/3 187/2/3 186/2/3
f 191/2/3 187/2/3 190/2/3
f 192/2/3 178/2/3 188/2/3
f 193/2/3 191/2/3 190/2/3
f 193/2/3 192/2/3 191/2/3
f 193/2/3 189/2/3 177/2/3
f 193/2/3 190/2/3 189/2/3
f 194/2/3 178/2/3 192/2/3
f 194/2/3 192/2/3 193/2/3
f 195/2/3 180/2/3 179/2/3
f 196/2/3 180/2/3 195/2/3
f 197/2/3 182/2/3 181/2/3
f 198/2/3 182/2/3 197/2/3
f 199/2/3 184/2/3 183/2/3
f 200/2/3 184/2/3 199/2/3
f 211/1/3 208/1/3 207/1/3
f 212/1/3 208/1/3 211/1/3
f 213/1/3 210/1/3 209/1/3
f 214/1/3 210/1/3 213/1/3
f 215/1/3 202/1/3 201/1/3
f 216/1/3 202/1/3 215/1/3
f 217/1/3 204/1/3 203/1/3
f 218/1/3 204/1/3 217/1/3
f 219/1/3 206/1/3 205/1/3
f 220/1/3 206/1/3 219/1/3
f 223/3/3 222/3/3 221/3/3
f 224/3/3 222/3/3 223/3/3
f 229/2/3 226/2/3 225/2/3
f 230/2/3 226/2/3 229/2/3
f 231/2/3 228/2/3 227/2/3
f 232/2/3 228/2/3 231/2/3
f 237/2/3 234/2/3 233/2/3
f 238/2/3 234/2/3 237/2/3
f 239/2/3 236/2/3 235/2/3
f 240/2/3 236/2/3 239/2/3
f 243/3/3 242/3/3 241/3/3
f 244/3/3 242/3/3 243/3/3
f 249/2/3 246/2/3 245/2/3
f 250/2/3 246/2/3 249/2/3
f 251/2/3 248/2/3 247/2/3
f 252/2/3 248/2/3 251/2/3
f 255/2/3 254/2/3 253/2/3
f 256/2/3 254/2/3 255/2/3
f 261/2/3 258/2/3 257/2/3
f 262/2/3 258/2/3 261/2/3
f 263/2/3 260/2/3 259/2/3
f 264/2/3 260/2/3 263/2/3
f 265/2/4 266/2/4 269/2/4
f 269/2/4 266/2/4 270/2/4
f 267/2/4 268/2/4 271/2/4
f 271/2/4 268/2/4 272/2/4
f 273/2/4 274/2/4 275/2/4
f 275/2/4 274/2/4 276/2/4
f 277/2/4 278/2/4 281/2/4
f 281/2/4 278/2/4 282/2/4
f 279/2/4 280/2/4 283/2/4
f 283/2/4 280/2/4 284/2/4
f 285/3/4 286/3/4 287/3/4
f 287/3/4 286/3/4 288/3/4
f 289/2/4 290/2/4 293/2/4
f 293/2/4 290/2/4 294/2/4
f 291/2/4 292/2/4 295/2/4
f 295/2/4 292/2/4 296/2/4
f 297/2/4 298/2/4 301/2/4
f 301/2/4 298/2/4 302/2/4
f 299/2/4 300/2/4 303/2/4
f 303/2/4 300/2/4 304/2/4
f 305/3/4 306/3/4 307/3/4
f 307/3/4 306/3/4 308/3/4
f 315/1/4 316/1/4 319/1/4
f 319/1/4 316/1/4 320/1/4
f 317/1/4 318/1/4 321/1/4
f 321/1/4 318/1/4 322/1/4
f 309/1/4 310/1/4 323/1/4
f 323/1/4 310/1/4 324/1/4
f 311/1/4 312/1/4 325/1/4
f 325/1/4 312/1/4 326/1/4
f 313/1/4 314/1/4 327/1/4
f 327/1/4 314/1/4 328/1/4
f 329/2/4 330/2/4 337/2/4
f 337/2/4 330/2/4 338/2/4
f 338/2/4 330/2/4 339/2/4
f 339/2/4 330/2/4 340/2/4
f 329/2/4 337/2/4 341/2/4
f 338/2/4 339/2/4 342/2/4
f 342/2/4 339/2/4 343/2/4
f 340/2/4 330/2/4 344/2/4
f 342/2/4 343/2/4 345/2/4
f 343/2/4 344/2/4 345/2/4
f 329/2/4 341/2/4 345/2/4
f 341/2/4 342/2/4 345/2/4
f 344/2/4 330/2/4 346/2/4
f 345/2/4 344/2/4 346/2/4
f 331/2/4 332/2/4 347/2/4
f 347/2/4 332/2/4 348/2/4
f 333/2/4 334/2/4 349/2/4
f 349/2/4 334/2/4 350/2/4
f 335/2/4 336/2/4 351/2/4
f 351/2/4 336/2/4 352/2/4
f 355/2/5 354/2/5 353/2/5
f 356/2/5 354/2/5 355/2/5
f 359/2/5 358/2/5 357/2/5
f 360/2/5 358/2/5 359/2/5
f 365/2/5 362/2/5 361/2/5
f 366/2/5 362/2/5 365/2/5
f 367/2/5 364/2/5 363/2/5
f 368/2/5 364/2/5 367/2/5
f 373/2/5 370/2/5 369/2/5
f 374/2/5 370/2/5 373/2/5
f 375/2/5 372/2/5 371/2/5
f 376/2/5 372/2/5 375/2/5
f 379/2/5 378/2/5 377/2/5
f 380/2/5 378/2/5 379/2/5
f 383/2/5 382/2/5 381/2/5
f 384/2/5 382/2/5 383/2/5
f 389/2/5 386/2/5 385/2/5
f 390/2/5 386/2/5 389/2/5
f 391/2/5 388/2/5 387/2/5
f 392/2/5 388/2/5 391/2/5
f 397/2/5 394/2/5 393/2/5
f 398/2/5 394/2/5 397/2/5
f 399/2/5 396/2/5 395/2/5
f 400/2/5 396/2/5 399/2/5
f 403/2/5 402/2/5 401/2/5
f 404/2/5 402/2/5 403/2/5
f 407/2/5 406/2/5 405/2/5
f 408/2/5 406/2/5 407/2/5
f 409/2/5 407/2/5 405/2/5
f 410/2/5 406/2/5 408/2/5
f 411/2/5 409/2/5 405/2/5
f 411/2/5 410/2/5 409/2/5
f 412/2/5 406/2/5 410/2/5
f 412/2/5 410/2/5 411/2/5
f 415/2/5 414/2/5 413/2/5
f 416/2/5 414/2/5 415/2/5
f 417/2/5 415/2/5 413/2/5
f 418/2/5 414/2/5 416/2/5
f 419/2/5 417/2/5 413/2/5
f 419/2/5 418/2/5 417/2/5
f 420/2/5 414/2/5 418/2/5
f 420/2/5 418/2/5 419/2/5
f 423/2/5 422/2/5 421/2/5
f 424/2/5 422/2/5 423/2/5
f 425/2/5 423/2/5 421/2/5
f 426/2/5 422/2/5 424/2/5
f 427/2/5 425/2/5 421/2/5
f 427/2/5 426/2/5 425/2/5
f 428/2/5 422/2/5 426/2/5
f 428/2/5 426/2/5 427/2/5
f 429/2/6 430/2/6 431/2/6
f 431/2/6 430/2/6 432/2/6
f 433/2/6 434/2/6 437/2/6
f 437/2/6 434/2/6 438/2/6
f 435/2/6 436/2/6 439/2/6
f 439/2/6 436/2/6 440/2/6
f 441/2/6 442/2/6 445/2/6
f 445/2/6 442/2/6 446/2/6
f 443/2/6 444/2/6 447/2/6
f 447/2/6 444/2/6 448/2/6
f 449/2/6 450/2/6 451/2/6
f 451/2/6 450/2/6 452/2/6
f 453/2/6 454/2/6 455/2/6
f 455/2/6 454/2/6 456/2/6
f 457/2/6 458/2/6 461/2/6
f 461/2/6 458/2/6 462/2/6
f 459/2/6 460/2/6 463/2/6
f 463/2/6 460/2/6 464/2/6
f 465/2/6 466/2/6 469/2/6
f 469/2/6 466/2/6 470/2/6
f 467/2/6 468/2/6 471/2/6
f 471/2/6 468/2/6 472/2/6
f 473/2/6 474/2/6 475/2/6
f 475/2/6 474/2/6 476/2/6
f 477/2/6 478/2/6 479/2/6
f 479/2/6 478/2/6 480/2/6
f 477/2/6 479/2/6 481/2/6
f 480/2/6 478/2/6 482/2/6
f 477/2/6 481/2/6 483/2/6
f 481/2/6 482/2/6 483/2/6
f 482/2/6 478/2/6 484/2/6
f 483/2/6 482/2/6 484/2/6
f 485/2/6 486/2/6 487/2/6
f 487/2/6 486/2/6 488/2/6
f 485/2/6 487/2/6 489/2/6
f 488/2/6 486/2/6 490/2/6
f 485/2/6 489/2/6 491/2/6
f 489/2/6 490/2/6 491/2/6
f 490/2/6 486/2/6 492/2/6
f 491/2/6 490/2/6 492/2/6
f 493/2/6 494/2/6 495/2/6
f 495/2/6 494/2/6 496/2/6
f 493/2/6 495/2/6 497/2/6
f 496/2/6 494/2/6 498/2/6
f 493/2/6 497/2/6 499/2/6
f 497/2/6 498/2/6 499/2/6
f 498/2/6 494/2/6 500/2/6
f 499/2/6 498/2/6 500/2/6
f 501/2/6 502/2/6 503/2/6
f 503/2/6 502/2/6 504/2/6
f 501/2/6 503/2/6 505/2/6
f 504/2/6 502/2/6 506/2/6
f 501/2/6 505/2/6 507/2/6
f 505/2/6 506/2/6 507/2/6
f 506/2/6 502/2/6 508/2/6
f 507/2/6 506/2/6 508/2/6
f 501/2/6 507/2/6 509/2/6
f 508/2/6 502/2/6 510/2/6
f 501/2/6 509/2/6 511/2/6
f 509/2/6 510/2/6 511/2/6
f 510/2/6 502/2/6 512/2/6
f 511/2/6 510/2/6 512/2/6
f 513/2/6 514/2/6 515/2/6
f 515/2/6 514/2/6 516/2/6
f 513/2/6 515/2/6 517/2/6
f 516/2/6 514/2/6 518/2/6
f 513/2/6 517/2/6 519/2/6
f 517/2/6 518/2/6 519/2/6
f 518/2/6 514/2/6 520/2/6
f 519/2/6 518/2/6 520/2/6
f 521/3/6 522/3/6 523/3/6
f 523/3/6 522/3/6 524/3/6
f 525/3/6 526/3/6 527/3/6
f 527/3/6 526/3/6 528/3/6
