# MagicaVoxel @ Ephtracy

# group
g roadintersection-1

# material
mtllib roadintersection-1.mtl
usemtl palette

# normals
vn -1 0 0
vn 1 0 0
vn 0 0 1
vn 0 0 -1
vn 0 -1 0
vn 0 1 0

# texcoords
vt 0.271484 0.5
vt 0.884766 0.5
vt 0.892578 0.5
vt 0.958984 0.5
vt 0.974609 0.5
vt 0.990234 0.5

# verts
v -20 0 12.5
v -20 0 -12.5
v -20 1 9.5
v -20 1 8.5
v -20 1 7.5
v -20 1 0.5
v -20 1 -0.5
v -20 1 -7.5
v -20 1 -8.5
v -20 1 -9.5
v -20 2 9.5
v -20 2 8.5
v -20 2 7.5
v -20 2 0.5
v -20 2 -0.5
v -20 2 -7.5
v -20 2 -8.5
v -20 2 -9.5
v -20 3 12.5
v -20 3 9.5
v -20 3 -9.5
v -20 3 -12.5
v -15 4 -9.5
v -15 4 -10.5
v -15 5 -9.5
v -15 5 -10.5
v -14 3 -9.5
v -14 3 -10.5
v -14 4 -8.5
v -14 4 -9.5
v -14 4 -10.5
v -14 4 -11.5
v -14 5 -8.5
v -14 5 -9.5
v -14 5 -10.5
v -14 5 -11.5
v -14 6 -9.5
v -14 6 -10.5
v 10 3 11.5
v 10 3 10.5
v 10 4 11.5
v 10 4 10.5
v 10 5 11.5
v 10 5 10.5
v 10 7 11.5
v 10 7 10.5
v 11 4 11.5
v 11 4 10.5
v 11 5 11.5
v 11 5 10.5
v 13 4 11.5
v 13 4 10.5
v 13 5 11.5
v 13 5 10.5
v 13 6 11.5
v 13 6 10.5
v 13 7 11.5
v 13 7 10.5
v -13 3 -9.5
v -13 3 -10.5
v -13 4 -8.5
v -13 4 -9.5
v -13 4 -10.5
v -13 4 -11.5
v -13 5 -8.5
v -13 5 -9.5
v -13 5 -10.5
v -13 5 -11.5
v -13 6 -9.5
v -13 6 -10.5
v -12 4 -9.5
v -12 4 -10.5
v -12 5 -9.5
v -12 5 -10.5
v 11 6 11.5
v 11 6 10.5
v 11 7 11.5
v 11 7 10.5
v 12 3 11.5
v 12 3 10.5
v 12 5 11.5
v 12 5 10.5
v 14 4 11.5
v 14 4 10.5
v 14 5 11.5
v 14 5 10.5
v 14 6 11.5
v 14 6 10.5
v 14 7 11.5
v 14 7 10.5
v 15 5 11.5
v 15 5 10.5
v 15 6 11.5
v 15 6 10.5
v 20 0 12.5
v 20 0 -12.5
v 20 1 9.5
v 20 1 8.5
v 20 1 7.5
v 20 1 0.5
v 20 1 -0.5
v 20 1 -7.5
v 20 1 -8.5
v 20 1 -9.5
v 20 2 9.5
v 20 2 8.5
v 20 2 7.5
v 20 2 0.5
v 20 2 -0.5
v 20 2 -7.5
v 20 2 -8.5
v 20 2 -9.5
v 20 3 12.5
v 20 3 9.5
v 20 3 -9.5
v 20 3 -12.5
v -20 0 12.5
v -20 3 12.5
v 20 0 12.5
v 20 3 12.5
v 10 3 11.5
v 10 4 11.5
v 10 5 11.5
v 10 7 11.5
v 11 4 11.5
v 11 5 11.5
v 11 6 11.5
v 11 7 11.5
v 12 3 11.5
v 12 5 11.5
v 13 4 11.5
v 13 5 11.5
v 13 6 11.5
v 13 7 11.5
v 14 4 11.5
v 14 5 11.5
v 14 6 11.5
v 14 7 11.5
v 15 5 11.5
v 15 6 11.5
v -14 4 -8.5
v -14 5 -8.5
v -13 4 -8.5
v -13 5 -8.5
v -20 2 -9.5
v -20 3 -9.5
v -15 4 -9.5
v -15 5 -9.5
v -14 3 -9.5
v -14 4 -9.5
v -14 5 -9.5
v -14 6 -9.5
v -13 3 -9.5
v -13 4 -9.5
v -13 5 -9.5
v -13 6 -9.5
v -12 4 -9.5
v -12 5 -9.5
v 20 2 -9.5
v 20 3 -9.5
v 10 3 10.5
v 10 4 10.5
v 10 5 10.5
v 10 7 10.5
v 11 4 10.5
v 11 5 10.5
v 11 6 10.5
v 11 7 10.5
v 12 3 10.5
v 12 5 10.5
v 13 4 10.5
v 13 5 10.5
v 13 6 10.5
v 13 7 10.5
v 14 4 10.5
v 14 5 10.5
v 14 6 10.5
v 14 7 10.5
v 15 5 10.5
v 15 6 10.5
v -20 2 9.5
v -20 3 9.5
v 20 2 9.5
v 20 3 9.5
v -15 4 -10.5
v -15 5 -10.5
v -14 3 -10.5
v -14 4 -10.5
v -14 5 -10.5
v -14 6 -10.5
v -13 3 -10.5
v -13 4 -10.5
v -13 5 -10.5
v -13 6 -10.5
v -12 4 -10.5
v -12 5 -10.5
v -14 4 -11.5
v -14 5 -11.5
v -13 4 -11.5
v -13 5 -11.5
v -20 0 -12.5
v -20 3 -12.5
v 20 0 -12.5
v 20 3 -12.5
v -20 0 12.5
v 20 0 12.5
v -20 0 -12.5
v 20 0 -12.5
v 13 4 11.5
v 14 4 11.5
v 13 4 10.5
v 14 4 10.5
v -14 4 -8.5
v -13 4 -8.5
v -15 4 -9.5
v -14 4 -9.5
v -13 4 -9.5
v -12 4 -9.5
v -15 4 -10.5
v -14 4 -10.5
v -13 4 -10.5
v -12 4 -10.5
v -14 4 -11.5
v -13 4 -11.5
v 10 5 11.5
v 11 5 11.5
v 12 5 11.5
v 13 5 11.5
v 14 5 11.5
v 15 5 11.5
v 10 5 10.5
v 11 5 10.5
v 12 5 10.5
v 13 5 10.5
v 14 5 10.5
v 15 5 10.5
v -20 2 9.5
v 20 2 9.5
v -20 2 8.5
v 20 2 8.5
v -20 2 7.5
v 20 2 7.5
v -20 2 0.5
v -18 2 0.5
v -14 2 0.5
v -10 2 0.5
v -6 2 0.5
v -2 2 0.5
v 2 2 0.5
v 6 2 0.5
v 10 2 0.5
v 14 2 0.5
v 18 2 0.5
v 20 2 0.5
v -20 2 -0.5
v -18 2 -0.5
v -14 2 -0.5
v -10 2 -0.5
v -6 2 -0.5
v -2 2 -0.5
v 2 2 -0.5
v 6 2 -0.5
v 10 2 -0.5
v 14 2 -0.5
v 18 2 -0.5
v 20 2 -0.5
v -20 2 -7.5
v 20 2 -7.5
v -20 2 -8.5
v 20 2 -8.5
v -20 2 -9.5
v 20 2 -9.5
v -20 3 12.5
v 20 3 12.5
v 10 3 11.5
v 12 3 11.5
v 10 3 10.5
v 12 3 10.5
v -20 3 9.5
v 20 3 9.5
v -20 3 -9.5
v -14 3 -9.5
v -13 3 -9.5
v 20 3 -9.5
v -14 3 -10.5
v -13 3 -10.5
v -20 3 -12.5
v 20 3 -12.5
v 10 4 11.5
v 11 4 11.5
v 10 4 10.5
v 11 4 10.5
v -14 5 -8.5
v -13 5 -8.5
v -15 5 -9.5
v -14 5 -9.5
v -13 5 -9.5
v -12 5 -9.5
v -15 5 -10.5
v -14 5 -10.5
v -13 5 -10.5
v -12 5 -10.5
v -14 5 -11.5
v -13 5 -11.5
v 11 6 11.5
v 13 6 11.5
v 14 6 11.5
v 15 6 11.5
v 11 6 10.5
v 13 6 10.5
v 14 6 10.5
v 15 6 10.5
v -14 6 -9.5
v -13 6 -9.5
v -14 6 -10.5
v -13 6 -10.5
v 10 7 11.5
v 11 7 11.5
v 13 7 11.5
v 14 7 11.5
v 10 7 10.5
v 11 7 10.5
v 13 7 10.5
v 14 7 10.5

# faces
f 3/5/1 2/5/1 1/5/1
f 4/5/1 2/5/1 3/5/1
f 5/5/1 2/5/1 4/5/1
f 6/5/1 2/5/1 5/5/1
f 7/5/1 2/5/1 6/5/1
f 8/5/1 2/5/1 7/5/1
f 9/5/1 2/5/1 8/5/1
f 10/5/1 2/5/1 9/5/1
f 11/5/1 3/5/1 1/5/1
f 11/6/1 4/6/1 3/6/1
f 12/4/1 5/4/1 4/4/1
f 12/6/1 4/6/1 11/6/1
f 13/6/1 6/6/1 5/6/1
f 13/4/1 5/4/1 12/4/1
f 14/4/1 7/4/1 6/4/1
f 14/6/1 6/6/1 13/6/1
f 15/6/1 8/6/1 7/6/1
f 15/4/1 7/4/1 14/4/1
f 16/4/1 9/4/1 8/4/1
f 16/6/1 8/6/1 15/6/1
f 17/6/1 10/6/1 9/6/1
f 17/4/1 9/4/1 16/4/1
f 18/5/1 2/5/1 10/5/1
f 18/6/1 10/6/1 17/6/1
f 19/5/1 11/5/1 1/5/1
f 20/5/1 11/5/1 19/5/1
f 21/5/1 2/5/1 18/5/1
f 22/5/1 2/5/1 21/5/1
f 25/2/1 24/2/1 23/2/1
f 26/2/1 24/2/1 25/2/1
f 30/2/1 28/2/1 27/2/1
f 31/2/1 28/2/1 30/2/1
f 33/2/1 30/2/1 29/2/1
f 34/2/1 30/2/1 33/2/1
f 35/2/1 32/2/1 31/2/1
f 36/2/1 32/2/1 35/2/1
f 37/1/1 35/1/1 34/1/1
f 38/1/1 35/1/1 37/1/1
f 41/3/1 40/3/1 39/3/1
f 42/3/1 40/3/1 41/3/1
f 45/3/1 44/3/1 43/3/1
f 46/3/1 44/3/1 45/3/1
f 49/3/1 48/3/1 47/3/1
f 50/3/1 48/3/1 49/3/1
f 53/3/1 52/3/1 51/3/1
f 54/3/1 52/3/1 53/3/1
f 57/3/1 56/3/1 55/3/1
f 58/3/1 56/3/1 57/3/1
f 59/2/2 60/2/2 62/2/2
f 62/2/2 60/2/2 63/2/2
f 61/2/2 62/2/2 65/2/2
f 65/2/2 62/2/2 66/2/2
f 63/2/2 64/2/2 67/2/2
f 67/2/2 64/2/2 68/2/2
f 66/1/2 67/1/2 69/1/2
f 69/1/2 67/1/2 70/1/2
f 71/2/2 72/2/2 73/2/2
f 73/2/2 72/2/2 74/2/2
f 75/3/2 76/3/2 77/3/2
f 77/3/2 76/3/2 78/3/2
f 79/3/2 80/3/2 81/3/2
f 81/3/2 80/3/2 82/3/2
f 83/3/2 84/3/2 85/3/2
f 85/3/2 84/3/2 86/3/2
f 87/3/2 88/3/2 89/3/2
f 89/3/2 88/3/2 90/3/2
f 91/3/2 92/3/2 93/3/2
f 93/3/2 92/3/2 94/3/2
f 95/5/2 96/5/2 97/5/2
f 97/5/2 96/5/2 98/5/2
f 98/5/2 96/5/2 99/5/2
f 99/5/2 96/5/2 100/5/2
f 100/5/2 96/5/2 101/5/2
f 101/5/2 96/5/2 102/5/2
f 102/5/2 96/5/2 103/5/2
f 103/5/2 96/5/2 104/5/2
f 95/5/2 97/5/2 105/5/2
f 97/6/2 98/6/2 105/6/2
f 98/4/2 99/4/2 106/4/2
f 105/6/2 98/6/2 106/6/2
f 99/6/2 100/6/2 107/6/2
f 106/4/2 99/4/2 107/4/2
f 100/4/2 101/4/2 108/4/2
f 107/6/2 100/6/2 108/6/2
f 101/6/2 102/6/2 109/6/2
f 108/4/2 101/4/2 109/4/2
f 102/4/2 103/4/2 110/4/2
f 109/6/2 102/6/2 110/6/2
f 103/6/2 104/6/2 111/6/2
f 110/4/2 103/4/2 111/4/2
f 104/5/2 96/5/2 112/5/2
f 111/6/2 104/6/2 112/6/2
f 95/5/2 105/5/2 113/5/2
f 113/5/2 105/5/2 114/5/2
f 112/5/2 96/5/2 115/5/2
f 115/5/2 96/5/2 116/5/2
f 119/5/3 118/5/3 117/5/3
f 120/5/3 118/5/3 119/5/3
f 125/3/3 122/3/3 121/3/3
f 126/3/3 124/3/3 123/3/3
f 127/3/3 124/3/3 126/3/3
f 128/3/3 124/3/3 127/3/3
f 129/3/3 125/3/3 121/3/3
f 129/3/3 126/3/3 125/3/3
f 129/3/3 127/3/3 126/3/3
f 130/3/3 127/3/3 129/3/3
f 132/3/3 127/3/3 130/3/3
f 133/3/3 127/3/3 132/3/3
f 135/3/3 132/3/3 131/3/3
f 135/3/3 134/3/3 133/3/3
f 135/3/3 133/3/3 132/3/3
f 136/3/3 134/3/3 135/3/3
f 137/3/3 134/3/3 136/3/3
f 138/3/3 134/3/3 137/3/3
f 139/3/3 137/3/3 136/3/3
f 140/3/3 137/3/3 139/3/3
f 143/2/3 142/2/3 141/2/3
f 144/2/3 142/2/3 143/2/3
f 149/5/3 146/5/3 145/5/3
f 150/2/3 148/2/3 147/2/3
f 151/2/3 148/2/3 150/2/3
f 153/5/3 149/5/3 145/5/3
f 153/2/3 150/2/3 149/2/3
f 154/2/3 150/2/3 153/2/3
f 155/1/3 152/1/3 151/1/3
f 156/1/3 152/1/3 155/1/3
f 157/2/3 155/2/3 154/2/3
f 158/2/3 155/2/3 157/2/3
f 159/5/3 153/5/3 145/5/3
f 160/5/3 153/5/3 159/5/3
f 161/3/4 162/3/4 165/3/4
f 163/3/4 164/3/4 166/3/4
f 166/3/4 164/3/4 167/3/4
f 167/3/4 164/3/4 168/3/4
f 161/3/4 165/3/4 169/3/4
f 165/3/4 166/3/4 169/3/4
f 166/3/4 167/3/4 169/3/4
f 169/3/4 167/3/4 170/3/4
f 170/3/4 167/3/4 172/3/4
f 172/3/4 167/3/4 173/3/4
f 171/3/4 172/3/4 175/3/4
f 173/3/4 174/3/4 175/3/4
f 172/3/4 173/3/4 175/3/4
f 175/3/4 174/3/4 176/3/4
f 176/3/4 174/3/4 177/3/4
f 177/3/4 174/3/4 178/3/4
f 176/3/4 177/3/4 179/3/4
f 179/3/4 177/3/4 180/3/4
f 181/5/4 182/5/4 183/5/4
f 183/5/4 182/5/4 184/5/4
f 185/2/4 186/2/4 188/2/4
f 188/2/4 186/2/4 189/2/4
f 187/2/4 188/2/4 191/2/4
f 191/2/4 188/2/4 192/2/4
f 189/1/4 190/1/4 193/1/4
f 193/1/4 190/1/4 194/1/4
f 192/2/4 193/2/4 195/2/4
f 195/2/4 193/2/4 196/2/4
f 197/2/4 198/2/4 199/2/4
f 199/2/4 198/2/4 200/2/4
f 201/5/4 202/5/4 203/5/4
f 203/5/4 202/5/4 204/5/4
f 207/5/5 206/5/5 205/5/5
f 208/5/5 206/5/5 207/5/5
f 211/3/5 210/3/5 209/3/5
f 212/3/5 210/3/5 211/3/5
f 216/2/5 214/2/5 213/2/5
f 217/2/5 214/2/5 216/2/5
f 219/2/5 216/2/5 215/2/5
f 220/2/5 216/2/5 219/2/5
f 221/2/5 218/2/5 217/2/5
f 222/2/5 218/2/5 221/2/5
f 223/2/5 221/2/5 220/2/5
f 224/2/5 221/2/5 223/2/5
f 231/3/5 226/3/5 225/3/5
f 232/3/5 226/3/5 231/3/5
f 233/3/5 228/3/5 227/3/5
f 234/3/5 228/3/5 233/3/5
f 235/3/5 230/3/5 229/3/5
f 236/3/5 230/3/5 235/3/5
f 237/6/6 238/6/6 239/6/6
f 239/6/6 238/6/6 240/6/6
f 239/4/6 240/4/6 241/4/6
f 241/4/6 240/4/6 242/4/6
f 241/6/6 242/6/6 243/6/6
f 243/6/6 242/6/6 244/6/6
f 244/6/6 242/6/6 245/6/6
f 245/6/6 242/6/6 246/6/6
f 246/6/6 242/6/6 247/6/6
f 247/6/6 242/6/6 248/6/6
f 248/6/6 242/6/6 249/6/6
f 249/6/6 242/6/6 250/6/6
f 250/6/6 242/6/6 251/6/6
f 251/6/6 242/6/6 252/6/6
f 252/6/6 242/6/6 253/6/6
f 253/6/6 242/6/6 254/6/6
f 243/4/6 244/4/6 255/4/6
f 244/6/6 245/6/6 256/6/6
f 255/4/6 244/4/6 256/4/6
f 245/4/6 246/4/6 257/4/6
f 256/6/6 245/6/6 257/6/6
f 246/6/6 247/6/6 258/6/6
f 257/4/6 246/4/6 258/4/6
f 247/4/6 248/4/6 259/4/6
f 258/6/6 247/6/6 259/6/6
f 248/6/6 249/6/6 260/6/6
f 259/4/6 248/4/6 260/4/6
f 249/4/6 250/4/6 261/4/6
f 260/6/6 249/6/6 261/6/6
f 250/6/6 251/6/6 262/6/6
f 261/4/6 250/4/6 262/4/6
f 251/4/6 252/4/6 263/4/6
f 262/6/6 251/6/6 263/6/6
f 252/6/6 253/6/6 264/6/6
f 263/4/6 252/4/6 264/4/6
f 253/4/6 254/4/6 265/4/6
f 264/6/6 253/6/6 265/6/6
f 265/4/6 254/4/6 266/4/6
f 255/6/6 256/6/6 267/6/6
f 256/6/6 257/6/6 267/6/6
f 265/6/6 266/6/6 267/6/6
f 264/6/6 265/6/6 267/6/6
f 263/6/6 264/6/6 267/6/6
f 262/6/6 263/6/6 267/6/6
f 261/6/6 262/6/6 267/6/6
f 260/6/6 261/6/6 267/6/6
f 259/6/6 260/6/6 267/6/6
f 258/6/6 259/6/6 267/6/6
f 257/6/6 258/6/6 267/6/6
f 267/6/6 266/6/6 268/6/6
f 267/4/6 268/4/6 269/4/6
f 269/4/6 268/4/6 270/4/6
f 269/6/6 270/6/6 271/6/6
f 271/6/6 270/6/6 272/6/6
f 273/5/6 274/5/6 275/5/6
f 275/5/6 274/5/6 276/5/6
f 273/5/6 275/5/6 277/5/6
f 276/5/6 274/5/6 278/5/6
f 273/5/6 277/5/6 279/5/6
f 277/5/6 278/5/6 279/5/6
f 278/5/6 274/5/6 280/5/6
f 279/5/6 278/5/6 280/5/6
f 281/5/6 282/5/6 285/5/6
f 283/5/6 284/5/6 286/5/6
f 281/5/6 285/5/6 287/5/6
f 285/5/6 286/5/6 287/5/6
f 286/5/6 284/5/6 288/5/6
f 287/5/6 286/5/6 288/5/6
f 289/3/6 290/3/6 291/3/6
f 291/3/6 290/3/6 292/3/6
f 293/2/6 294/2/6 296/2/6
f 296/2/6 294/2/6 297/2/6
f 295/2/6 296/2/6 299/2/6
f 299/2/6 296/2/6 300/2/6
f 297/2/6 298/2/6 301/2/6
f 301/2/6 298/2/6 302/2/6
f 300/2/6 301/2/6 303/2/6
f 303/2/6 301/2/6 304/2/6
f 305/3/6 306/3/6 309/3/6
f 309/3/6 306/3/6 310/3/6
f 307/3/6 308/3/6 311/3/6
f 311/3/6 308/3/6 312/3/6
f 313/1/6 314/1/6 315/1/6
f 315/1/6 314/1/6 316/1/6
f 317/3/6 318/3/6 321/3/6
f 321/3/6 318/3/6 322/3/6
f 319/3/6 320/3/6 323/3/6
f 323/3/6 320/3/6 324/3/6
