# MagicaVoxel @ Ephtracy

# group
g casa3

# material
mtllib casa3.mtl
usemtl palette

# normals
vn -1 0 0
vn 1 0 0
vn 0 0 1
vn 0 0 -1
vn 0 -1 0
vn 0 1 0

# texcoords
vt 0.0566406 0.5
vt 0.310547 0.5
vt 0.748047 0.5
vt 0.962891 0.5

# verts
v -17 0 12
v -17 0 -11
v -17 25 12
v -17 25 -11
v -9 0 12
v -9 0 11
v -9 9 12
v -9 9 11
v -9 11 12
v -9 11 11
v -9 20 12
v -9 20 11
v -7 10 17
v -7 10 12
v -7 11 17
v -7 11 12
v 2 3 12
v 2 3 11
v 2 9 12
v 2 9 11
v 13 3 12
v 13 3 11
v 13 9 12
v 13 9 11
v 13 11 12
v 13 11 11
v 13 20 12
v 13 20 11
v 15 24 11
v 15 24 -10
v 15 25 11
v 15 25 -10
v -16 24 11
v -16 24 -10
v -16 25 11
v -16 25 -10
v -14 0 12
v -14 0 11
v -14 9 12
v -14 9 11
v -14 11 12
v -14 11 11
v -14 20 12
v -14 20 11
v -6 3 12
v -6 3 11
v -6 9 12
v -6 9 11
v -6 11 12
v -6 11 11
v -6 20 12
v -6 20 11
v 5 3 12
v 5 3 11
v 5 9 12
v 5 9 11
v 14 10 17
v 14 10 12
v 14 11 17
v 14 11 12
v 16 0 12
v 16 0 -11
v 16 25 12
v 16 25 -11
v -7 10 17
v -7 11 17
v 14 10 17
v 14 11 17
v -17 0 12
v -17 25 12
v -14 0 12
v -14 9 12
v -14 11 12
v -14 20 12
v -9 0 12
v -9 9 12
v -9 11 12
v -9 20 12
v -7 10 12
v -7 11 12
v -6 3 12
v -6 9 12
v -6 11 12
v -6 20 12
v 2 3 12
v 2 9 12
v 5 3 12
v 5 9 12
v 13 3 12
v 13 9 12
v 13 11 12
v 13 20 12
v 14 10 12
v 14 11 12
v 16 0 12
v 16 25 12
v -14 0 11
v -14 9 11
v -14 11 11
v -14 20 11
v -9 0 11
v -9 9 11
v -9 11 11
v -9 20 11
v -6 3 11
v -6 9 11
v -6 11 11
v -6 20 11
v 2 3 11
v 2 9 11
v 5 3 11
v 5 9 11
v 13 3 11
v 13 9 11
v 13 11 11
v 13 20 11
v -16 24 -10
v -16 25 -10
v 15 24 -10
v 15 25 -10
v -16 24 11
v -16 25 11
v 15 24 11
v 15 25 11
v -17 0 -11
v -17 25 -11
v 16 0 -11
v 16 25 -11
v -17 0 12
v -14 0 12
v -9 0 12
v 16 0 12
v -14 0 11
v -9 0 11
v -14 0 10
v -9 0 10
v -17 0 -11
v 16 0 -11
v -14 9 12
v -9 9 12
v -6 9 12
v 2 9 12
v 5 9 12
v 13 9 12
v -14 9 11
v -9 9 11
v -6 9 11
v 2 9 11
v 5 9 11
v 13 9 11
v -7 10 17
v 14 10 17
v -7 10 12
v 14 10 12
v -14 20 12
v -9 20 12
v -6 20 12
v 13 20 12
v -14 20 11
v -9 20 11
v -6 20 11
v 13 20 11
v -6 3 12
v 2 3 12
v 5 3 12
v 13 3 12
v -6 3 11
v 2 3 11
v 5 3 11
v 13 3 11
v -7 11 17
v 14 11 17
v -14 11 12
v -9 11 12
v -7 11 12
v -6 11 12
v 13 11 12
v 14 11 12
v -14 11 11
v -9 11 11
v -6 11 11
v 13 11 11
v -16 24 11
v 15 24 11
v -16 24 -10
v 15 24 -10
v -17 25 12
v 16 25 12
v -16 25 11
v 15 25 11
v -16 25 -10
v 15 25 -10
v -17 25 -11
v 16 25 -11

# faces
f 3/1/1 2/1/1 1/1/1
f 4/1/1 2/1/1 3/1/1
f 7/1/1 6/1/1 5/1/1
f 8/1/1 6/1/1 7/1/1
f 11/1/1 10/1/1 9/1/1
f 12/1/1 10/1/1 11/1/1
f 15/4/1 14/4/1 13/4/1
f 16/4/1 14/4/1 15/4/1
f 19/1/1 18/1/1 17/1/1
f 20/1/1 18/1/1 19/1/1
f 23/1/1 22/1/1 21/1/1
f 24/1/1 22/1/1 23/1/1
f 27/1/1 26/1/1 25/1/1
f 28/1/1 26/1/1 27/1/1
f 31/1/1 30/1/1 29/1/1
f 32/1/1 30/1/1 31/1/1
f 33/1/2 34/1/2 35/1/2
f 35/1/2 34/1/2 36/1/2
f 37/1/2 38/1/2 39/1/2
f 39/1/2 38/1/2 40/1/2
f 41/1/2 42/1/2 43/1/2
f 43/1/2 42/1/2 44/1/2
f 45/1/2 46/1/2 47/1/2
f 47/1/2 46/1/2 48/1/2
f 49/1/2 50/1/2 51/1/2
f 51/1/2 50/1/2 52/1/2
f 53/1/2 54/1/2 55/1/2
f 55/1/2 54/1/2 56/1/2
f 57/4/2 58/4/2 59/4/2
f 59/4/2 58/4/2 60/4/2
f 61/1/2 62/1/2 63/1/2
f 63/1/2 62/1/2 64/1/2
f 67/4/3 66/4/3 65/4/3
f 68/4/3 66/4/3 67/4/3
f 71/1/3 70/1/3 69/1/3
f 72/1/3 70/1/3 71/1/3
f 73/1/3 70/1/3 72/1/3
f 74/1/3 70/1/3 73/1/3
f 76/1/3 73/1/3 72/1/3
f 77/1/3 73/1/3 76/1/3
f 78/1/3 70/1/3 74/1/3
f 79/1/3 77/1/3 76/1/3
f 79/1/3 78/1/3 77/1/3
f 79/1/3 76/1/3 75/1/3
f 80/1/3 78/1/3 79/1/3
f 81/1/3 79/1/3 75/1/3
f 82/1/3 79/1/3 81/1/3
f 83/1/3 78/1/3 80/1/3
f 84/1/3 70/1/3 78/1/3
f 84/1/3 78/1/3 83/1/3
f 85/1/3 81/1/3 75/1/3
f 86/1/3 79/1/3 82/1/3
f 87/1/3 85/1/3 75/1/3
f 87/1/3 86/1/3 85/1/3
f 88/1/3 79/1/3 86/1/3
f 88/1/3 86/1/3 87/1/3
f 89/1/3 87/1/3 75/1/3
f 90/1/3 79/1/3 88/1/3
f 92/1/3 70/1/3 84/1/3
f 93/1/3 90/1/3 89/1/3
f 93/1/3 79/1/3 90/1/3
f 94/1/3 92/1/3 91/1/3
f 95/1/3 89/1/3 75/1/3
f 95/1/3 94/1/3 93/1/3
f 95/1/3 93/1/3 89/1/3
f 96/1/3 92/1/3 94/1/3
f 96/1/3 94/1/3 95/1/3
f 96/1/3 70/1/3 92/1/3
f 101/2/3 98/2/3 97/2/3
f 102/2/3 98/2/3 101/2/3
f 103/3/3 100/3/3 99/3/3
f 104/3/3 100/3/3 103/3/3
f 109/3/3 106/3/3 105/3/3
f 110/3/3 106/3/3 109/3/3
f 113/3/3 112/3/3 111/3/3
f 114/3/3 112/3/3 113/3/3
f 115/3/3 108/3/3 107/3/3
f 116/3/3 108/3/3 115/3/3
f 119/1/3 118/1/3 117/1/3
f 120/1/3 118/1/3 119/1/3
f 121/1/4 122/1/4 123/1/4
f 123/1/4 122/1/4 124/1/4
f 125/1/4 126/1/4 127/1/4
f 127/1/4 126/1/4 128/1/4
f 133/1/5 130/1/5 129/1/5
f 134/1/5 132/1/5 131/1/5
f 135/1/5 133/1/5 129/1/5
f 135/2/5 134/2/5 133/2/5
f 136/1/5 132/1/5 134/1/5
f 136/2/5 134/2/5 135/2/5
f 137/1/5 135/1/5 129/1/5
f 137/1/5 136/1/5 135/1/5
f 138/1/5 132/1/5 136/1/5
f 138/1/5 136/1/5 137/1/5
f 145/1/5 140/1/5 139/1/5
f 146/1/5 140/1/5 145/1/5
f 147/1/5 142/1/5 141/1/5
f 148/1/5 142/1/5 147/1/5
f 149/1/5 144/1/5 143/1/5
f 150/1/5 144/1/5 149/1/5
f 153/4/5 152/4/5 151/4/5
f 154/4/5 152/4/5 153/4/5
f 159/1/5 156/1/5 155/1/5
f 160/1/5 156/1/5 159/1/5
f 161/1/5 158/1/5 157/1/5
f 162/1/5 158/1/5 161/1/5
f 163/1/6 164/1/6 167/1/6
f 167/1/6 164/1/6 168/1/6
f 165/1/6 166/1/6 169/1/6
f 169/1/6 166/1/6 170/1/6
f 171/4/6 172/4/6 175/4/6
f 175/4/6 172/4/6 176/4/6
f 176/4/6 172/4/6 177/4/6
f 177/4/6 172/4/6 178/4/6
f 173/1/6 174/1/6 179/1/6
f 179/1/6 174/1/6 180/1/6
f 176/4/6 177/4/6 181/4/6
f 181/4/6 177/4/6 182/4/6
f 183/1/6 184/1/6 185/1/6
f 185/1/6 184/1/6 186/1/6
f 187/1/6 188/1/6 189/1/6
f 189/1/6 188/1/6 190/1/6
f 187/1/6 189/1/6 191/1/6
f 190/1/6 188/1/6 192/1/6
f 187/1/6 191/1/6 193/1/6
f 191/1/6 192/1/6 193/1/6
f 192/1/6 188/1/6 194/1/6
f 193/1/6 192/1/6 194/1/6
