# MagicaVoxel @ Ephtracy

# group
g bife

# material
mtllib bife.mtl
usemtl palette

# normals
vn -1 0 0
vn 1 0 0
vn 0 0 1
vn 0 0 -1
vn 0 -1 0
vn 0 1 0

# texcoords
vt 0.115234 0.5
vt 0.119141 0.5
vt 0.416016 0.5
vt 0.912109 0.5

# verts
v -12 0 -1
v -12 0 -6
v -12 3 -1
v -12 3 -6
v -11 0 1
v -11 0 -1
v -11 0 -6
v -11 0 -8
v -11 3 1
v -11 3 -1
v -11 3 -6
v -11 3 -8
v -10 0 3
v -10 0 1
v -10 0 -8
v -10 0 -10
v -10 3 3
v -10 3 1
v -10 3 -8
v -10 3 -10
v -8 0 4
v -8 0 3
v -8 0 -10
v -8 0 -11
v -8 3 4
v -8 3 3
v -8 3 -10
v -8 3 -11
v -6 0 5
v -6 0 4
v -6 0 -11
v -6 0 -12
v -6 3 5
v -6 3 4
v -6 3 -11
v -6 3 -12
v -5 0 7
v -5 0 5
v -5 3 7
v -5 3 5
v -4 0 8
v -4 0 7
v -4 3 8
v -4 3 7
v -2 0 9
v -2 0 8
v -2 3 9
v -2 3 8
v 0 0 10
v 0 0 9
v 0 3 10
v 0 3 9
v -1 0 -11
v -1 0 -12
v -1 3 -11
v -1 3 -12
v 1 0 -10
v 1 0 -11
v 1 3 -10
v 1 3 -11
v 3 0 -8
v 3 0 -10
v 3 3 -8
v 3 3 -10
v 7 0 10
v 7 0 9
v 7 3 10
v 7 3 9
v 9 0 -7
v 9 0 -8
v 9 3 -7
v 9 3 -8
v 10 0 9
v 10 0 8
v 10 3 9
v 10 3 8
v 12 0 8
v 12 0 7
v 12 3 8
v 12 3 7
v 13 0 -6
v 13 0 -7
v 13 3 -6
v 13 3 -7
v 14 0 7
v 14 0 6
v 14 0 -4
v 14 0 -6
v 14 3 7
v 14 3 6
v 14 3 -4
v 14 3 -6
v 15 0 6
v 15 0 4
v 15 0 -2
v 15 0 -4
v 15 3 6
v 15 3 4
v 15 3 -2
v 15 3 -4
v 16 0 4
v 16 0 -2
v 16 3 4
v 16 3 -2
v 0 0 10
v 0 3 10
v 7 0 10
v 7 3 10
v -2 0 9
v -2 3 9
v 0 0 9
v 0 3 9
v 7 0 9
v 7 3 9
v 10 0 9
v 10 3 9
v -4 0 8
v -4 3 8
v -2 0 8
v -2 3 8
v 10 0 8
v 10 3 8
v 12 0 8
v 12 3 8
v -5 0 7
v -5 3 7
v -4 0 7
v -4 3 7
v 12 0 7
v 12 3 7
v 14 0 7
v 14 3 7
v 14 0 6
v 14 3 6
v 15 0 6
v 15 3 6
v -6 0 5
v -6 3 5
v -5 0 5
v -5 3 5
v -8 0 4
v -8 3 4
v -6 0 4
v -6 3 4
v 15 0 4
v 15 3 4
v 16 0 4
v 16 3 4
v -10 0 3
v -10 3 3
v -8 0 3
v -8 3 3
v -11 0 1
v -11 3 1
v -10 0 1
v -10 3 1
v -12 0 -1
v -12 3 -1
v -11 0 -1
v -11 3 -1
v 15 0 -2
v 15 3 -2
v 16 0 -2
v 16 3 -2
v 14 0 -4
v 14 3 -4
v 15 0 -4
v 15 3 -4
v -12 0 -6
v -12 3 -6
v -11 0 -6
v -11 3 -6
v 13 0 -6
v 13 3 -6
v 14 0 -6
v 14 3 -6
v 9 0 -7
v 9 3 -7
v 13 0 -7
v 13 3 -7
v -11 0 -8
v -11 3 -8
v -10 0 -8
v -10 3 -8
v 3 0 -8
v 3 3 -8
v 9 0 -8
v 9 3 -8
v -10 0 -10
v -10 3 -10
v -8 0 -10
v -8 3 -10
v 1 0 -10
v 1 3 -10
v 3 0 -10
v 3 3 -10
v -8 0 -11
v -8 3 -11
v -6 0 -11
v -6 3 -11
v -1 0 -11
v -1 3 -11
v 1 0 -11
v 1 3 -11
v -6 0 -12
v -6 3 -12
v -1 0 -12
v -1 3 -12
v 0 0 10
v 7 0 10
v -2 0 9
v 0 0 9
v 7 0 9
v 10 0 9
v -4 0 8
v -2 0 8
v 0 0 8
v 7 0 8
v 10 0 8
v 12 0 8
v -5 0 7
v -4 0 7
v -1 0 7
v 0 0 7
v 1 0 7
v 6 0 7
v 7 0 7
v 10 0 7
v 12 0 7
v 14 0 7
v -4 0 6
v -1 0 6
v 0 0 6
v 1 0 6
v 6 0 6
v 9 0 6
v 10 0 6
v 11 0 6
v 14 0 6
v 15 0 6
v -6 0 5
v -5 0 5
v -3 0 5
v 0 0 5
v 9 0 5
v 10 0 5
v 11 0 5
v 14 0 5
v -8 0 4
v -6 0 4
v 10 0 4
v 13 0 4
v 15 0 4
v 16 0 4
v -10 0 3
v -8 0 3
v -6 0 3
v -4 0 3
v -3 0 3
v -9 0 2
v -6 0 2
v -5 0 2
v -4 0 2
v 12 0 2
v 13 0 2
v -11 0 1
v -10 0 1
v -8 0 1
v -5 0 1
v 13 0 -0
v 14 0 -0
v -12 0 -1
v -11 0 -1
v -10 0 -2
v -9 0 -2
v -4 0 -2
v -3 0 -2
v 11 0 -2
v 12 0 -2
v 15 0 -2
v 16 0 -2
v -9 0 -3
v -8 0 -3
v -5 0 -3
v -4 0 -3
v -3 0 -3
v -2 0 -3
v 12 0 -3
v 13 0 -3
v -9 0 -4
v -8 0 -4
v -2 0 -4
v -1 0 -4
v 14 0 -4
v 15 0 -4
v -10 0 -5
v -9 0 -5
v -2 0 -5
v -1 0 -5
v 5 0 -5
v 11 0 -5
v -12 0 -6
v -11 0 -6
v -5 0 -6
v -2 0 -6
v 0 0 -6
v 5 0 -6
v 6 0 -6
v 12 0 -6
v 13 0 -6
v 14 0 -6
v 1 0 -7
v 6 0 -7
v 9 0 -7
v 13 0 -7
v -11 0 -8
v -10 0 -8
v -8 0 -8
v 0 0 -8
v 3 0 -8
v 9 0 -8
v -9 0 -9
v 1 0 -9
v -10 0 -10
v -8 0 -10
v 1 0 -10
v 3 0 -10
v -8 0 -11
v -6 0 -11
v -1 0 -11
v 1 0 -11
v -6 0 -12
v -1 0 -12
v 0 3 10
v 7 3 10
v -2 3 9
v 0 3 9
v 7 3 9
v 10 3 9
v -4 3 8
v -2 3 8
v 0 3 8
v 7 3 8
v 10 3 8
v 12 3 8
v -5 3 7
v -4 3 7
v -1 3 7
v 0 3 7
v 1 3 7
v 6 3 7
v 7 3 7
v 10 3 7
v 12 3 7
v 14 3 7
v -4 3 6
v -1 3 6
v 0 3 6
v 1 3 6
v 6 3 6
v 9 3 6
v 10 3 6
v 11 3 6
v 14 3 6
v 15 3 6
v -6 3 5
v -5 3 5
v -3 3 5
v 0 3 5
v 9 3 5
v 10 3 5
v 11 3 5
v 14 3 5
v -8 3 4
v -6 3 4
v 10 3 4
v 13 3 4
v 15 3 4
v 16 3 4
v -10 3 3
v -8 3 3
v -6 3 3
v -4 3 3
v -3 3 3
v -9 3 2
v -6 3 2
v -5 3 2
v -4 3 2
v 12 3 2
v 13 3 2
v -11 3 1
v -10 3 1
v -8 3 1
v -5 3 1
v 13 3 -0
v 14 3 -0
v -12 3 -1
v -11 3 -1
v -10 3 -2
v -9 3 -2
v -4 3 -2
v -3 3 -2
v 11 3 -2
v 12 3 -2
v 15 3 -2
v 16 3 -2
v -9 3 -3
v -8 3 -3
v -5 3 -3
v -4 3 -3
v -3 3 -3
v -2 3 -3
v 12 3 -3
v 13 3 -3
v -9 3 -4
v -8 3 -4
v -2 3 -4
v -1 3 -4
v 14 3 -4
v 15 3 -4
v -10 3 -5
v -9 3 -5
v -2 3 -5
v -1 3 -5
v 5 3 -5
v 11 3 -5
v -12 3 -6
v -11 3 -6
v -5 3 -6
v -2 3 -6
v 0 3 -6
v 5 3 -6
v 6 3 -6
v 12 3 -6
v 13 3 -6
v 14 3 -6
v 1 3 -7
v 6 3 -7
v 9 3 -7
v 13 3 -7
v -11 3 -8
v -10 3 -8
v -8 3 -8
v 0 3 -8
v 3 3 -8
v 9 3 -8
v -9 3 -9
v 1 3 -9
v -10 3 -10
v -8 3 -10
v 1 3 -10
v 3 3 -10
v -8 3 -11
v -6 3 -11
v -1 3 -11
v 1 3 -11
v -6 3 -12
v -1 3 -12

# faces
f 3/3/1 2/3/1 1/3/1
f 4/3/1 2/3/1 3/3/1
f 9/3/1 6/3/1 5/3/1
f 10/3/1 6/3/1 9/3/1
f 11/3/1 8/3/1 7/3/1
f 12/3/1 8/3/1 11/3/1
f 17/3/1 14/3/1 13/3/1
f 18/3/1 14/3/1 17/3/1
f 19/3/1 16/3/1 15/3/1
f 20/3/1 16/3/1 19/3/1
f 25/3/1 22/3/1 21/3/1
f 26/3/1 22/3/1 25/3/1
f 27/3/1 24/3/1 23/3/1
f 28/3/1 24/3/1 27/3/1
f 33/3/1 30/3/1 29/3/1
f 34/3/1 30/3/1 33/3/1
f 35/3/1 32/3/1 31/3/1
f 36/3/1 32/3/1 35/3/1
f 39/3/1 38/3/1 37/3/1
f 40/3/1 38/3/1 39/3/1
f 43/3/1 42/3/1 41/3/1
f 44/3/1 42/3/1 43/3/1
f 47/3/1 46/3/1 45/3/1
f 48/3/1 46/3/1 47/3/1
f 51/3/1 50/3/1 49/3/1
f 52/3/1 50/3/1 51/3/1
f 53/3/2 54/3/2 55/3/2
f 55/3/2 54/3/2 56/3/2
f 57/3/2 58/3/2 59/3/2
f 59/3/2 58/3/2 60/3/2
f 61/3/2 62/3/2 63/3/2
f 63/3/2 62/3/2 64/3/2
f 65/3/2 66/3/2 67/3/2
f 67/3/2 66/3/2 68/3/2
f 69/3/2 70/3/2 71/3/2
f 71/3/2 70/3/2 72/3/2
f 73/3/2 74/3/2 75/3/2
f 75/3/2 74/3/2 76/3/2
f 77/3/2 78/3/2 79/3/2
f 79/3/2 78/3/2 80/3/2
f 81/3/2 82/3/2 83/3/2
f 83/3/2 82/3/2 84/3/2
f 85/3/2 86/3/2 89/3/2
f 89/3/2 86/3/2 90/3/2
f 87/3/2 88/3/2 91/3/2
f 91/3/2 88/3/2 92/3/2
f 93/3/2 94/3/2 97/3/2
f 97/3/2 94/3/2 98/3/2
f 95/3/2 96/3/2 99/3/2
f 99/3/2 96/3/2 100/3/2
f 101/3/2 102/3/2 103/3/2
f 103/3/2 102/3/2 104/3/2
f 107/3/3 106/3/3 105/3/3
f 108/3/3 106/3/3 107/3/3
f 111/3/3 110/3/3 109/3/3
f 112/3/3 110/3/3 111/3/3
f 115/3/3 114/3/3 113/3/3
f 116/3/3 114/3/3 115/3/3
f 119/3/3 118/3/3 117/3/3
f 120/3/3 118/3/3 119/3/3
f 123/3/3 122/3/3 121/3/3
f 124/3/3 122/3/3 123/3/3
f 127/3/3 126/3/3 125/3/3
f 128/3/3 126/3/3 127/3/3
f 131/3/3 130/3/3 129/3/3
f 132/3/3 130/3/3 131/3/3
f 135/3/3 134/3/3 133/3/3
f 136/3/3 134/3/3 135/3/3
f 139/3/3 138/3/3 137/3/3
f 140/3/3 138/3/3 139/3/3
f 143/3/3 142/3/3 141/3/3
f 144/3/3 142/3/3 143/3/3
f 147/3/3 146/3/3 145/3/3
f 148/3/3 146/3/3 147/3/3
f 151/3/3 150/3/3 149/3/3
f 152/3/3 150/3/3 151/3/3
f 155/3/3 154/3/3 153/3/3
f 156/3/3 154/3/3 155/3/3
f 159/3/3 158/3/3 157/3/3
f 160/3/3 158/3/3 159/3/3
f 161/3/4 162/3/4 163/3/4
f 163/3/4 162/3/4 164/3/4
f 165/3/4 166/3/4 167/3/4
f 167/3/4 166/3/4 168/3/4
f 169/3/4 170/3/4 171/3/4
f 171/3/4 170/3/4 172/3/4
f 173/3/4 174/3/4 175/3/4
f 175/3/4 174/3/4 176/3/4
f 177/3/4 178/3/4 179/3/4
f 179/3/4 178/3/4 180/3/4
f 181/3/4 182/3/4 183/3/4
f 183/3/4 182/3/4 184/3/4
f 185/3/4 186/3/4 187/3/4
f 187/3/4 186/3/4 188/3/4
f 189/3/4 190/3/4 191/3/4
f 191/3/4 190/3/4 192/3/4
f 193/3/4 194/3/4 195/3/4
f 195/3/4 194/3/4 196/3/4
f 197/3/4 198/3/4 199/3/4
f 199/3/4 198/3/4 200/3/4
f 201/3/4 202/3/4 203/3/4
f 203/3/4 202/3/4 204/3/4
f 205/3/4 206/3/4 207/3/4
f 207/3/4 206/3/4 208/3/4
f 212/3/5 210/3/5 209/3/5
f 213/3/5 210/3/5 212/3/5
f 216/3/5 212/3/5 211/3/5
f 216/3/5 214/3/5 213/3/5
f 216/3/5 213/3/5 212/3/5
f 217/3/5 214/3/5 216/3/5
f 218/3/5 214/3/5 217/3/5
f 219/3/5 214/3/5 218/3/5
f 222/3/5 216/3/5 215/3/5
f 222/3/5 217/3/5 216/3/5
f 223/3/5 217/3/5 222/3/5
f 224/2/5 218/2/5 217/2/5
f 224/3/5 217/3/5 223/3/5
f 225/2/5 218/2/5 224/2/5
f 226/2/5 218/2/5 225/2/5
f 227/3/5 220/3/5 219/3/5
f 227/2/5 218/2/5 226/2/5
f 227/3/5 219/3/5 218/3/5
f 228/3/5 220/3/5 227/3/5
f 229/3/5 220/3/5 228/3/5
f 231/3/5 223/3/5 222/3/5
f 231/3/5 222/3/5 221/3/5
f 232/2/5 225/2/5 224/2/5
f 232/3/5 223/3/5 231/3/5
f 232/2/5 224/2/5 223/2/5
f 233/2/5 225/2/5 232/2/5
f 234/1/5 226/1/5 225/1/5
f 234/2/5 225/2/5 233/2/5
f 235/2/5 228/2/5 227/2/5
f 235/1/5 226/1/5 234/1/5
f 235/2/5 227/2/5 226/2/5
f 236/2/5 228/2/5 235/2/5
f 237/3/5 230/3/5 229/3/5
f 237/2/5 228/2/5 236/2/5
f 237/3/5 229/3/5 228/3/5
f 238/3/5 230/3/5 237/3/5
f 239/3/5 230/3/5 238/3/5
f 242/3/5 231/3/5 221/3/5
f 243/2/5 233/2/5 232/2/5
f 243/2/5 232/2/5 231/2/5
f 244/1/5 236/1/5 235/1/5
f 244/2/5 233/2/5 243/2/5
f 244/1/5 235/1/5 234/1/5
f 244/1/5 234/1/5 233/1/5
f 245/2/5 237/2/5 236/2/5
f 245/1/5 236/1/5 244/1/5
f 245/2/5 238/2/5 237/2/5
f 246/2/5 238/2/5 245/2/5
f 247/3/5 240/3/5 239/3/5
f 247/2/5 238/2/5 246/2/5
f 247/3/5 239/3/5 238/3/5
f 248/3/5 240/3/5 247/3/5
f 250/3/5 242/3/5 241/3/5
f 251/1/5 246/1/5 245/1/5
f 251/1/5 245/1/5 244/1/5
f 251/1/5 244/1/5 243/1/5
f 251/2/5 247/2/5 246/2/5
f 251/2/5 248/2/5 247/2/5
f 252/2/5 248/2/5 251/2/5
f 253/3/5 240/3/5 248/3/5
f 256/3/5 250/3/5 249/3/5
f 257/3/5 242/3/5 250/3/5
f 257/3/5 250/3/5 256/3/5
f 258/2/5 243/2/5 231/2/5
f 258/3/5 242/3/5 257/3/5
f 258/3/5 231/3/5 242/3/5
f 259/1/5 251/1/5 243/1/5
f 259/2/5 243/2/5 258/2/5
f 259/1/5 252/1/5 251/1/5
f 260/3/5 257/3/5 256/3/5
f 260/3/5 256/3/5 255/3/5
f 261/2/5 258/2/5 257/2/5
f 261/3/5 257/3/5 260/3/5
f 262/2/5 258/2/5 261/2/5
f 263/1/5 259/1/5 258/1/5
f 263/2/5 258/2/5 262/2/5
f 264/1/5 252/1/5 259/1/5
f 264/1/5 259/1/5 263/1/5
f 265/2/5 248/2/5 252/2/5
f 265/1/5 252/1/5 264/1/5
f 267/3/5 260/3/5 255/3/5
f 268/2/5 262/2/5 261/2/5
f 268/2/5 261/2/5 260/2/5
f 269/1/5 264/1/5 263/1/5
f 269/2/5 262/2/5 268/2/5
f 269/1/5 263/1/5 262/1/5
f 270/2/5 248/2/5 265/2/5
f 270/2/5 265/2/5 264/2/5
f 271/3/5 254/3/5 253/3/5
f 271/2/5 248/2/5 270/2/5
f 271/3/5 253/3/5 248/3/5
f 273/3/5 267/3/5 266/3/5
f 274/3/5 260/3/5 267/3/5
f 274/3/5 273/3/5 272/3/5
f 274/3/5 267/3/5 273/3/5
f 275/2/5 268/2/5 260/2/5
f 275/3/5 260/3/5 274/3/5
f 276/1/5 264/1/5 269/1/5
f 276/1/5 269/1/5 268/1/5
f 277/1/5 264/1/5 276/1/5
f 278/1/5 264/1/5 277/1/5
f 279/2/5 270/2/5 264/2/5
f 279/1/5 264/1/5 278/1/5
f 280/3/5 254/3/5 271/3/5
f 280/3/5 271/3/5 270/3/5
f 281/3/5 254/3/5 280/3/5
f 282/2/5 268/2/5 275/2/5
f 282/2/5 275/2/5 274/2/5
f 283/1/5 276/1/5 268/1/5
f 283/2/5 268/2/5 282/2/5
f 284/1/5 276/1/5 283/1/5
f 285/4/5 277/4/5 276/4/5
f 285/1/5 276/1/5 284/1/5
f 286/1/5 278/1/5 277/1/5
f 286/4/5 277/4/5 285/4/5
f 287/1/5 278/1/5 286/1/5
f 288/2/5 270/2/5 279/2/5
f 288/2/5 279/2/5 278/2/5
f 289/3/5 280/3/5 270/3/5
f 289/2/5 270/2/5 288/2/5
f 290/2/5 282/2/5 274/2/5
f 290/1/5 284/1/5 283/1/5
f 290/1/5 283/1/5 282/1/5
f 291/1/5 284/1/5 290/1/5
f 292/4/5 285/4/5 284/4/5
f 292/1/5 278/1/5 287/1/5
f 292/4/5 287/4/5 286/4/5
f 292/4/5 286/4/5 285/4/5
f 293/1/5 278/1/5 292/1/5
f 294/3/5 280/3/5 289/3/5
f 294/3/5 289/3/5 288/3/5
f 295/3/5 280/3/5 294/3/5
f 296/3/5 274/3/5 272/3/5
f 296/2/5 291/2/5 290/2/5
f 296/2/5 290/2/5 274/2/5
f 297/2/5 291/2/5 296/2/5
f 298/4/5 292/4/5 284/4/5
f 298/4/5 293/4/5 292/4/5
f 299/1/5 278/1/5 293/1/5
f 299/4/5 293/4/5 298/4/5
f 300/1/5 278/1/5 299/1/5
f 301/2/5 288/2/5 278/2/5
f 301/1/5 278/1/5 300/1/5
f 302/3/5 297/3/5 296/3/5
f 302/3/5 296/3/5 272/3/5
f 303/3/5 297/3/5 302/3/5
f 304/1/5 284/1/5 291/1/5
f 304/4/5 298/4/5 284/4/5
f 305/1/5 300/1/5 299/1/5
f 305/4/5 298/4/5 304/4/5
f 305/1/5 299/1/5 298/1/5
f 306/1/5 300/1/5 305/1/5
f 307/2/5 301/2/5 300/2/5
f 307/1/5 300/1/5 306/1/5
f 308/2/5 301/2/5 307/2/5
f 309/3/5 294/3/5 288/3/5
f 309/2/5 301/2/5 308/2/5
f 309/2/5 288/2/5 301/2/5
f 310/3/5 294/3/5 309/3/5
f 311/3/5 294/3/5 310/3/5
f 312/2/5 308/2/5 307/2/5
f 312/2/5 307/2/5 306/2/5
f 313/3/5 310/3/5 309/3/5
f 313/2/5 308/2/5 312/2/5
f 313/3/5 309/3/5 308/3/5
f 314/3/5 310/3/5 313/3/5
f 315/3/5 310/3/5 314/3/5
f 316/3/5 297/3/5 303/3/5
f 317/3/5 297/3/5 316/3/5
f 318/1/5 304/1/5 291/1/5
f 318/2/5 291/2/5 297/2/5
f 318/1/5 305/1/5 304/1/5
f 318/1/5 306/1/5 305/1/5
f 319/2/5 312/2/5 306/2/5
f 319/1/5 306/1/5 318/1/5
f 320/3/5 314/3/5 313/3/5
f 320/3/5 313/3/5 312/3/5
f 321/3/5 314/3/5 320/3/5
f 322/3/5 297/3/5 317/3/5
f 322/2/5 318/2/5 297/2/5
f 322/2/5 319/2/5 318/2/5
f 323/3/5 320/3/5 312/3/5
f 323/2/5 319/2/5 322/2/5
f 323/2/5 312/2/5 319/2/5
f 324/3/5 322/3/5 317/3/5
f 324/3/5 323/3/5 322/3/5
f 325/3/5 323/3/5 324/3/5
f 326/3/5 320/3/5 323/3/5
f 326/3/5 323/3/5 325/3/5
f 327/3/5 320/3/5 326/3/5
f 328/3/5 326/3/5 325/3/5
f 329/3/5 326/3/5 328/3/5
f 330/3/5 326/3/5 329/3/5
f 331/3/5 326/3/5 330/3/5
f 332/3/5 330/3/5 329/3/5
f 333/3/5 330/3/5 332/3/5
f 334/3/6 335/3/6 337/3/6
f 337/3/6 335/3/6 338/3/6
f 336/3/6 337/3/6 341/3/6
f 338/3/6 339/3/6 341/3/6
f 337/3/6 338/3/6 341/3/6
f 341/3/6 339/3/6 342/3/6
f 342/3/6 339/3/6 343/3/6
f 343/3/6 339/3/6 344/3/6
f 340/3/6 341/3/6 347/3/6
f 341/3/6 342/3/6 347/3/6
f 347/3/6 342/3/6 348/3/6
f 342/2/6 343/2/6 349/2/6
f 348/3/6 342/3/6 349/3/6
f 349/2/6 343/2/6 350/2/6
f 350/2/6 343/2/6 351/2/6
f 344/3/6 345/3/6 352/3/6
f 351/2/6 343/2/6 352/2/6
f 343/3/6 344/3/6 352/3/6
f 352/3/6 345/3/6 353/3/6
f 353/3/6 345/3/6 354/3/6
f 347/3/6 348/3/6 356/3/6
f 346/3/6 347/3/6 356/3/6
f 349/2/6 350/2/6 357/2/6
f 356/3/6 348/3/6 357/3/6
f 348/2/6 349/2/6 357/2/6
f 357/2/6 350/2/6 358/2/6
f 350/1/6 351/1/6 359/1/6
f 358/2/6 350/2/6 359/2/6
f 352/2/6 353/2/6 360/2/6
f 359/1/6 351/1/6 360/1/6
f 351/2/6 352/2/6 360/2/6
f 360/2/6 353/2/6 361/2/6
f 354/3/6 355/3/6 362/3/6
f 361/2/6 353/2/6 362/2/6
f 353/3/6 354/3/6 362/3/6
f 362/3/6 355/3/6 363/3/6
f 363/3/6 355/3/6 364/3/6
f 346/3/6 356/3/6 367/3/6
f 357/2/6 358/2/6 368/2/6
f 356/2/6 357/2/6 368/2/6
f 360/1/6 361/1/6 369/1/6
f 368/2/6 358/2/6 369/2/6
f 359/1/6 360/1/6 369/1/6
f 358/1/6 359/1/6 369/1/6
f 361/2/6 362/2/6 370/2/6
f 369/1/6 361/1/6 370/1/6
f 362/2/6 363/2/6 370/2/6
f 370/2/6 363/2/6 371/2/6
f 364/3/6 365/3/6 372/3/6
f 371/2/6 363/2/6 372/2/6
f 363/3/6 364/3/6 372/3/6
f 372/3/6 365/3/6 373/3/6
f 366/3/6 367/3/6 375/3/6
f 370/1/6 371/1/6 376/1/6
f 369/1/6 370/1/6 376/1/6
f 368/1/6 369/1/6 376/1/6
f 371/2/6 372/2/6 376/2/6
f 372/2/6 373/2/6 376/2/6
f 376/2/6 373/2/6 377/2/6
f 373/3/6 365/3/6 378/3/6
f 374/3/6 375/3/6 381/3/6
f 375/3/6 367/3/6 382/3/6
f 381/3/6 375/3/6 382/3/6
f 356/2/6 368/2/6 383/2/6
f 382/3/6 367/3/6 383/3/6
f 367/3/6 356/3/6 383/3/6
f 368/1/6 376/1/6 384/1/6
f 383/2/6 368/2/6 384/2/6
f 376/1/6 377/1/6 384/1/6
f 381/3/6 382/3/6 385/3/6
f 380/3/6 381/3/6 385/3/6
f 382/2/6 383/2/6 386/2/6
f 385/3/6 382/3/6 386/3/6
f 386/2/6 383/2/6 387/2/6
f 383/1/6 384/1/6 388/1/6
f 387/2/6 383/2/6 388/2/6
f 384/1/6 377/1/6 389/1/6
f 388/1/6 384/1/6 389/1/6
f 377/2/6 373/2/6 390/2/6
f 389/1/6 377/1/6 390/1/6
f 380/3/6 385/3/6 392/3/6
f 386/2/6 387/2/6 393/2/6
f 385/2/6 386/2/6 393/2/6
f 388/1/6 389/1/6 394/1/6
f 393/2/6 387/2/6 394/2/6
f 387/1/6 388/1/6 394/1/6
f 390/2/6 373/2/6 395/2/6
f 389/2/6 390/2/6 395/2/6
f 378/3/6 379/3/6 396/3/6
f 395/2/6 373/2/6 396/2/6
f 373/3/6 378/3/6 396/3/6
f 391/3/6 392/3/6 398/3/6
f 392/3/6 385/3/6 399/3/6
f 397/3/6 398/3/6 399/3/6
f 398/3/6 392/3/6 399/3/6
f 385/2/6 393/2/6 400/2/6
f 399/3/6 385/3/6 400/3/6
f 394/1/6 389/1/6 401/1/6
f 393/1/6 394/1/6 401/1/6
f 401/1/6 389/1/6 402/1/6
f 402/1/6 389/1/6 403/1/6
f 389/2/6 395/2/6 404/2/6
f 403/1/6 389/1/6 404/1/6
f 396/3/6 379/3/6 405/3/6
f 395/3/6 396/3/6 405/3/6
f 405/3/6 379/3/6 406/3/6
f 400/2/6 393/2/6 407/2/6
f 399/2/6 400/2/6 407/2/6
f 393/1/6 401/1/6 408/1/6
f 407/2/6 393/2/6 408/2/6
f 408/1/6 401/1/6 409/1/6
f 401/4/6 402/4/6 410/4/6
f 409/1/6 401/1/6 410/1/6
f 402/1/6 403/1/6 411/1/6
f 410/4/6 402/4/6 411/4/6
f 411/1/6 403/1/6 412/1/6
f 404/2/6 395/2/6 413/2/6
f 403/2/6 404/2/6 413/2/6
f 395/3/6 405/3/6 414/3/6
f 413/2/6 395/2/6 414/2/6
f 399/2/6 407/2/6 415/2/6
f 408/1/6 409/1/6 415/1/6
f 407/1/6 408/1/6 415/1/6
f 415/1/6 409/1/6 416/1/6
f 409/4/6 410/4/6 417/4/6
f 412/1/6 403/1/6 417/1/6
f 411/4/6 412/4/6 417/4/6
f 410/4/6 411/4/6 417/4/6
f 417/1/6 403/1/6 418/1/6
f 414/3/6 405/3/6 419/3/6
f 413/3/6 414/3/6 419/3/6
f 419/3/6 405/3/6 420/3/6
f 397/3/6 399/3/6 421/3/6
f 415/2/6 416/2/6 421/2/6
f 399/2/6 415/2/6 421/2/6
f 421/2/6 416/2/6 422/2/6
f 409/4/6 417/4/6 423/4/6
f 417/4/6 418/4/6 423/4/6
f 418/1/6 403/1/6 424/1/6
f 423/4/6 418/4/6 424/4/6
f 424/1/6 403/1/6 425/1/6
f 403/2/6 413/2/6 426/2/6
f 425/1/6 403/1/6 426/1/6
f 421/3/6 422/3/6 427/3/6
f 397/3/6 421/3/6 427/3/6
f 427/3/6 422/3/6 428/3/6
f 416/1/6 409/1/6 429/1/6
f 409/4/6 423/4/6 429/4/6
f 424/1/6 425/1/6 430/1/6
f 429/4/6 423/4/6 430/4/6
f 423/1/6 424/1/6 430/1/6
f 430/1/6 425/1/6 431/1/6
f 425/2/6 426/2/6 432/2/6
f 431/1/6 425/1/6 432/1/6
f 432/2/6 426/2/6 433/2/6
f 413/3/6 419/3/6 434/3/6
f 433/2/6 426/2/6 434/2/6
f 426/2/6 413/2/6 434/2/6
f 434/3/6 419/3/6 435/3/6
f 435/3/6 419/3/6 436/3/6
f 432/2/6 433/2/6 437/2/6
f 431/2/6 432/2/6 437/2/6
f 434/3/6 435/3/6 438/3/6
f 437/2/6 433/2/6 438/2/6
f 433/3/6 434/3/6 438/3/6
f 438/3/6 435/3/6 439/3/6
f 439/3/6 435/3/6 440/3/6
f 428/3/6 422/3/6 441/3/6
f 441/3/6 422/3/6 442/3/6
f 416/1/6 429/1/6 443/1/6
f 422/2/6 416/2/6 443/2/6
f 429/1/6 430/1/6 443/1/6
f 430/1/6 431/1/6 443/1/6
f 431/2/6 437/2/6 444/2/6
f 443/1/6 431/1/6 444/1/6
f 438/3/6 439/3/6 445/3/6
f 437/3/6 438/3/6 445/3/6
f 445/3/6 439/3/6 446/3/6
f 442/3/6 422/3/6 447/3/6
f 422/2/6 443/2/6 447/2/6
f 443/2/6 444/2/6 447/2/6
f 437/3/6 445/3/6 448/3/6
f 447/2/6 444/2/6 448/2/6
f 444/2/6 437/2/6 448/2/6
f 442/3/6 447/3/6 449/3/6
f 447/3/6 448/3/6 449/3/6
f 449/3/6 448/3/6 450/3/6
f 448/3/6 445/3/6 451/3/6
f 450/3/6 448/3/6 451/3/6
f 451/3/6 445/3/6 452/3/6
f 450/3/6 451/3/6 453/3/6
f 453/3/6 451/3/6 454/3/6
f 454/3/6 451/3/6 455/3/6
f 455/3/6 451/3/6 456/3/6
f 454/3/6 455/3/6 457/3/6
f 457/3/6 455/3/6 458/3/6
