# MagicaVoxel @ Ephtracy

# group
g hydrant

# material
mtllib hydrant.mtl
usemtl palette

# normals
vn -1 0 0
vn 1 0 0
vn 0 0 1
vn 0 0 -1
vn 0 -1 0
vn 0 1 0

# texcoords
vt 0.841797 0.5
vt 0.853516 0.5
vt 0.958984 0.5
vt 0.982422 0.5
vt 0.994141 0.5

# verts
v -5 0 2
v -5 0 -1
v -5 1 2
v -5 1 -1
v -5 6 1
v -5 6 -0
v -5 7 2
v -5 7 1
v -5 7 -0
v -5 7 -1
v -5 8 2
v -5 8 1
v -5 8 -0
v -5 8 -1
v -5 9 1
v -5 9 -0
v -5 10 2
v -5 10 -1
v -5 11 2
v -5 11 -1
v -4 0 3
v -4 0 2
v -4 0 -1
v -4 0 -2
v -4 1 3
v -4 1 2
v -4 1 -1
v -4 1 -2
v -4 6 2
v -4 6 1
v -4 6 -0
v -4 6 -1
v -4 7 2
v -4 7 1
v -4 7 -0
v -4 7 -1
v -4 8 2
v -4 8 1
v -4 8 -0
v -4 8 -1
v -4 9 1
v -4 9 -0
v -4 10 3
v -4 10 2
v -4 10 -1
v -4 10 -2
v -4 11 3
v -4 11 2
v -4 11 -1
v -4 11 -2
v -4 12 2
v -4 12 -1
v -3 0 4
v -3 0 3
v -3 0 -2
v -3 0 -3
v -3 1 4
v -3 1 3
v -3 1 2
v -3 1 -1
v -3 1 -2
v -3 1 -3
v -3 6 2
v -3 6 1
v -3 6 -0
v -3 6 -1
v -3 7 4
v -3 7 3
v -3 7 2
v -3 8 4
v -3 8 3
v -3 8 2
v -3 10 4
v -3 10 3
v -3 10 2
v -3 10 -1
v -3 10 -2
v -3 10 -3
v -3 11 4
v -3 11 3
v -3 11 2
v -3 11 -1
v -3 11 -2
v -3 11 -3
v -3 12 3
v -3 12 2
v -3 12 -1
v -3 12 -2
v -3 13 2
v -3 13 -1
v -2 6 4
v -2 6 3
v -2 6 2
v -2 7 5
v -2 7 4
v -2 7 3
v -2 7 2
v -2 8 5
v -2 8 4
v -2 8 3
v -2 8 2
v -2 9 4
v -2 9 3
v -2 9 2
v -2 13 1
v -2 13 -0
v -2 14 1
v -2 14 -0
v -1 0 1
v -1 0 -0
v -1 1 1
v -1 1 -0
v -1 5 4
v -1 5 3
v -1 6 4
v -1 6 3
v 0 1 4
v 0 1 2
v 0 2 3
v 0 2 2
v 0 5 4
v 0 5 3
v 1 10 2
v 1 10 1
v 1 11 2
v 1 11 1
v -4 10 2
v -4 10 -1
v -4 11 2
v -4 11 -1
v -2 0 1
v -2 0 -0
v -2 1 1
v -2 1 -0
v -1 6 3
v -1 6 2
v -1 7 5
v -1 7 4
v -1 7 3
v -1 7 2
v -1 8 5
v -1 8 4
v -1 8 3
v -1 8 2
v -1 9 4
v -1 9 3
v -1 9 2
v -1 13 1
v -1 13 -0
v -1 14 1
v -1 14 -0
v 0 0 4
v 0 0 3
v 0 0 -2
v 0 0 -3
v 0 1 4
v 0 1 3
v 0 1 1
v 0 1 -1
v 0 1 -2
v 0 1 -3
v 0 2 2
v 0 2 1
v 0 5 4
v 0 5 3
v 0 6 2
v 0 6 1
v 0 6 -0
v 0 6 -1
v 0 7 4
v 0 7 3
v 0 7 2
v 0 8 4
v 0 8 3
v 0 8 2
v 0 10 4
v 0 10 3
v 0 10 2
v 0 10 1
v 0 10 -2
v 0 10 -3
v 0 11 4
v 0 11 3
v 0 11 2
v 0 11 1
v 0 11 -1
v 0 11 -2
v 0 11 -3
v 0 12 3
v 0 12 2
v 0 12 -1
v 0 12 -2
v 0 13 2
v 0 13 -1
v 1 0 3
v 1 0 2
v 1 0 -1
v 1 0 -2
v 1 1 4
v 1 1 3
v 1 1 2
v 1 1 1
v 1 1 -1
v 1 1 -2
v 1 2 3
v 1 2 1
v 1 5 4
v 1 5 3
v 1 6 2
v 1 6 1
v 1 6 -0
v 1 6 -1
v 1 7 2
v 1 7 1
v 1 7 -0
v 1 7 -1
v 1 8 2
v 1 8 1
v 1 8 -0
v 1 8 -1
v 1 9 1
v 1 9 -0
v 1 10 3
v 1 10 2
v 1 10 -1
v 1 10 -2
v 1 11 3
v 1 11 2
v 1 11 -1
v 1 11 -2
v 1 12 2
v 1 12 -1
v 2 0 2
v 2 0 -1
v 2 1 2
v 2 1 -1
v 2 6 1
v 2 6 -0
v 2 7 2
v 2 7 1
v 2 7 -0
v 2 7 -1
v 2 8 2
v 2 8 1
v 2 8 -0
v 2 8 -1
v 2 9 1
v 2 9 -0
v 2 10 2
v 2 10 -1
v 2 11 2
v 2 11 -1
v -2 7 5
v -2 8 5
v -1 7 5
v -1 8 5
v -3 0 4
v -3 1 4
v -3 7 4
v -3 8 4
v -3 10 4
v -3 11 4
v -2 6 4
v -2 7 4
v -2 8 4
v -2 9 4
v -1 5 4
v -1 6 4
v -1 7 4
v -1 8 4
v -1 9 4
v 0 0 4
v 0 1 4
v 0 5 4
v 0 7 4
v 0 8 4
v 0 10 4
v 0 11 4
v 1 1 4
v 1 5 4
v -4 0 3
v -4 1 3
v -4 10 3
v -4 11 3
v -3 0 3
v -3 1 3
v -3 10 3
v -3 11 3
v -3 12 3
v 0 0 3
v 0 1 3
v 0 10 3
v 0 11 3
v 0 12 3
v 1 0 3
v 1 1 3
v 1 10 3
v 1 11 3
v -5 0 2
v -5 1 2
v -5 7 2
v -5 8 2
v -5 10 2
v -5 11 2
v -4 0 2
v -4 1 2
v -4 6 2
v -4 7 2
v -4 8 2
v -4 10 2
v -4 11 2
v -4 12 2
v -3 1 2
v -3 6 2
v -3 7 2
v -3 8 2
v -3 11 2
v -3 12 2
v -3 13 2
v -2 6 2
v -2 7 2
v -2 8 2
v -2 9 2
v -1 6 2
v -1 7 2
v -1 8 2
v -1 9 2
v 0 1 2
v 0 2 2
v 0 6 2
v 0 7 2
v 0 8 2
v 0 11 2
v 0 12 2
v 0 13 2
v 1 0 2
v 1 1 2
v 1 6 2
v 1 7 2
v 1 8 2
v 1 10 2
v 1 11 2
v 1 12 2
v 2 0 2
v 2 1 2
v 2 7 2
v 2 8 2
v 2 10 2
v 2 11 2
v -5 6 1
v -5 7 1
v -5 8 1
v -5 9 1
v -4 6 1
v -4 7 1
v -4 8 1
v -4 9 1
v -2 13 1
v -2 14 1
v -1 13 1
v -1 14 1
v 0 10 1
v 0 11 1
v 1 6 1
v 1 7 1
v 1 8 1
v 1 9 1
v 1 10 1
v 1 11 1
v 2 6 1
v 2 7 1
v 2 8 1
v 2 9 1
v -2 0 -0
v -2 1 -0
v -1 0 -0
v -1 1 -0
v -4 10 -1
v -4 11 -1
v -3 10 -1
v -3 11 -1
v -1 5 3
v -1 6 3
v -1 7 3
v 0 2 3
v 0 5 3
v 0 7 3
v 1 2 3
v 1 5 3
v -4 10 2
v -4 11 2
v -3 10 2
v -3 11 2
v 0 10 2
v 0 11 2
v 1 10 2
v 1 11 2
v -2 0 1
v -2 1 1
v -1 0 1
v -1 1 1
v 0 1 1
v 0 2 1
v 1 1 1
v 1 2 1
v -5 6 -0
v -5 7 -0
v -5 8 -0
v -5 9 -0
v -4 6 -0
v -4 7 -0
v -4 8 -0
v -4 9 -0
v -2 13 -0
v -2 14 -0
v -1 13 -0
v -1 14 -0
v 1 6 -0
v 1 7 -0
v 1 8 -0
v 1 9 -0
v 2 6 -0
v 2 7 -0
v 2 8 -0
v 2 9 -0
v -5 0 -1
v -5 1 -1
v -5 7 -1
v -5 8 -1
v -5 10 -1
v -5 11 -1
v -4 0 -1
v -4 1 -1
v -4 6 -1
v -4 7 -1
v -4 8 -1
v -4 10 -1
v -4 11 -1
v -4 12 -1
v -3 1 -1
v -3 6 -1
v -3 11 -1
v -3 12 -1
v -3 13 -1
v 0 1 -1
v 0 6 -1
v 0 11 -1
v 0 12 -1
v 0 13 -1
v 1 0 -1
v 1 1 -1
v 1 6 -1
v 1 7 -1
v 1 8 -1
v 1 10 -1
v 1 11 -1
v 1 12 -1
v 2 0 -1
v 2 1 -1
v 2 7 -1
v 2 8 -1
v 2 10 -1
v 2 11 -1
v -4 0 -2
v -4 1 -2
v -4 10 -2
v -4 11 -2
v -3 0 -2
v -3 1 -2
v -3 10 -2
v -3 11 -2
v -3 12 -2
v 0 0 -2
v 0 1 -2
v 0 10 -2
v 0 11 -2
v 0 12 -2
v 1 0 -2
v 1 1 -2
v 1 10 -2
v 1 11 -2
v -3 0 -3
v -3 1 -3
v -3 10 -3
v -3 11 -3
v 0 0 -3
v 0 1 -3
v 0 10 -3
v 0 11 -3
v -3 0 4
v 0 0 4
v -4 0 3
v -3 0 3
v 0 0 3
v 1 0 3
v -5 0 2
v -4 0 2
v 1 0 2
v 2 0 2
v -2 0 1
v -1 0 1
v -2 0 -0
v -1 0 -0
v -5 0 -1
v -4 0 -1
v 1 0 -1
v 2 0 -1
v -4 0 -2
v -3 0 -2
v 0 0 -2
v 1 0 -2
v -3 0 -3
v 0 0 -3
v 0 1 4
v 1 1 4
v 0 1 3
v 1 1 3
v -2 1 1
v -1 1 1
v -2 1 -0
v -1 1 -0
v -1 5 4
v 0 5 4
v -1 5 3
v 0 5 3
v -2 6 4
v -1 6 4
v -2 6 3
v -1 6 3
v -4 6 2
v -3 6 2
v -2 6 2
v -1 6 2
v 0 6 2
v 1 6 2
v -5 6 1
v -4 6 1
v -3 6 1
v 0 6 1
v 1 6 1
v 2 6 1
v -5 6 -0
v -4 6 -0
v -3 6 -0
v 0 6 -0
v 1 6 -0
v 2 6 -0
v -4 6 -1
v -3 6 -1
v 0 6 -1
v 1 6 -1
v -2 7 5
v -1 7 5
v -3 7 4
v -2 7 4
v -1 7 4
v -3 7 3
v -2 7 3
v -1 7 3
v 0 7 3
v -5 7 2
v -4 7 2
v -3 7 2
v -2 7 2
v -1 7 2
v 0 7 2
v 1 7 2
v 2 7 2
v -5 7 1
v -4 7 1
v 1 7 1
v 2 7 1
v -5 7 -0
v -4 7 -0
v 1 7 -0
v 2 7 -0
v -5 7 -1
v -4 7 -1
v 1 7 -1
v 2 7 -1
v -3 10 4
v 0 10 4
v -4 10 3
v -3 10 3
v 0 10 3
v 1 10 3
v -5 10 2
v -4 10 2
v 1 10 2
v 2 10 2
v -5 10 -1
v -4 10 -1
v 1 10 -1
v 2 10 -1
v -4 10 -2
v -3 10 -2
v 0 10 -2
v 1 10 -2
v -3 10 -3
v 0 10 -3
v -4 11 2
v -3 11 2
v 0 11 2
v 1 11 2
v 0 11 1
v 1 11 1
v -4 11 -1
v -3 11 -1
v -3 1 4
v 0 1 4
v -4 1 3
v -3 1 3
v -5 1 2
v -4 1 2
v -3 1 2
v 0 1 2
v 1 1 2
v 2 1 2
v 0 1 1
v 1 1 1
v -5 1 -1
v -4 1 -1
v -3 1 -1
v 0 1 -1
v 1 1 -1
v 2 1 -1
v -4 1 -2
v -3 1 -2
v 0 1 -2
v 1 1 -2
v -3 1 -3
v 0 1 -3
v 0 2 3
v 1 2 3
v 0 2 2
v 0 2 1
v 1 2 1
v 0 5 4
v 1 5 4
v 0 5 3
v 1 5 3
v -2 8 5
v -1 8 5
v -3 8 4
v -2 8 4
v -1 8 4
v 0 8 4
v -3 8 3
v -2 8 3
v -1 8 3
v 0 8 3
v -5 8 2
v -4 8 2
v -3 8 2
v -2 8 2
v -1 8 2
v 0 8 2
v 1 8 2
v 2 8 2
v -5 8 1
v -4 8 1
v 1 8 1
v 2 8 1
v -5 8 -0
v -4 8 -0
v 1 8 -0
v 2 8 -0
v -5 8 -1
v -4 8 -1
v 1 8 -1
v 2 8 -1
v -2 9 4
v -1 9 4
v -2 9 3
v -1 9 3
v -2 9 2
v -1 9 2
v -5 9 1
v -4 9 1
v 1 9 1
v 2 9 1
v -5 9 -0
v -4 9 -0
v 1 9 -0
v 2 9 -0
v -4 10 2
v -3 10 2
v 0 10 2
v 1 10 2
v 0 10 1
v 1 10 1
v -4 10 -1
v -3 10 -1
v -3 11 4
v 0 11 4
v -4 11 3
v -3 11 3
v 0 11 3
v 1 11 3
v -5 11 2
v -4 11 2
v -3 11 2
v 0 11 2
v 1 11 2
v 2 11 2
v -5 11 -1
v -4 11 -1
v -3 11 -1
v 0 11 -1
v 1 11 -1
v 2 11 -1
v -4 11 -2
v -3 11 -2
v 0 11 -2
v 1 11 -2
v -3 11 -3
v 0 11 -3
v -3 12 3
v 0 12 3
v -4 12 2
v -3 12 2
v 0 12 2
v 1 12 2
v -4 12 -1
v -3 12 -1
v 0 12 -1
v 1 12 -1
v -3 12 -2
v 0 12 -2
v -3 13 2
v 0 13 2
v -2 13 1
v -1 13 1
v -2 13 -0
v -1 13 -0
v -3 13 -1
v 0 13 -1
v -2 14 1
v -1 14 1
v -2 14 -0
v -1 14 -0

# faces
f 3/1/1 2/1/1 1/1/1
f 4/1/1 2/1/1 3/1/1
f 8/1/1 6/1/1 5/1/1
f 9/1/1 6/1/1 8/1/1
f 11/1/1 8/1/1 7/1/1
f 12/3/1 9/3/1 8/3/1
f 12/1/1 8/1/1 11/1/1
f 13/1/1 10/1/1 9/1/1
f 13/3/1 9/3/1 12/3/1
f 14/1/1 10/1/1 13/1/1
f 15/1/1 13/1/1 12/1/1
f 16/1/1 13/1/1 15/1/1
f 19/1/1 18/1/1 17/1/1
f 20/1/1 18/1/1 19/1/1
f 25/1/1 22/1/1 21/1/1
f 26/1/1 22/1/1 25/1/1
f 27/1/1 24/1/1 23/1/1
f 28/1/1 24/1/1 27/1/1
f 33/2/1 30/2/1 29/2/1
f 34/2/1 30/2/1 33/2/1
f 35/2/1 32/2/1 31/2/1
f 36/2/1 32/2/1 35/2/1
f 41/2/1 38/2/1 37/2/1
f 42/2/1 40/2/1 39/2/1
f 44/2/1 41/2/1 37/2/1
f 44/2/1 42/2/1 41/2/1
f 45/2/1 40/2/1 42/2/1
f 45/2/1 42/2/1 44/2/1
f 47/1/1 44/1/1 43/1/1
f 48/1/1 44/1/1 47/1/1
f 49/1/1 46/1/1 45/1/1
f 50/1/1 46/1/1 49/1/1
f 51/2/1 49/2/1 48/2/1
f 52/2/1 49/2/1 51/2/1
f 57/1/1 54/1/1 53/1/1
f 58/1/1 54/1/1 57/1/1
f 61/1/1 56/1/1 55/1/1
f 62/1/1 56/1/1 61/1/1
f 63/2/1 60/2/1 59/2/1
f 64/2/1 60/2/1 63/2/1
f 65/2/1 60/2/1 64/2/1
f 66/2/1 60/2/1 65/2/1
f 70/5/1 68/5/1 67/5/1
f 71/1/1 69/1/1 68/1/1
f 71/5/1 68/5/1 70/5/1
f 72/1/1 69/1/1 71/1/1
f 79/1/1 74/1/1 73/1/1
f 80/1/1 74/1/1 79/1/1
f 81/1/1 76/1/1 75/1/1
f 82/1/1 76/1/1 81/1/1
f 83/1/1 78/1/1 77/1/1
f 84/1/1 78/1/1 83/1/1
f 85/2/1 81/2/1 80/2/1
f 86/2/1 81/2/1 85/2/1
f 87/2/1 83/2/1 82/2/1
f 88/2/1 83/2/1 87/2/1
f 89/1/1 87/1/1 86/1/1
f 90/1/1 87/1/1 89/1/1
f 95/5/1 92/5/1 91/5/1
f 96/1/1 93/1/1 92/1/1
f 96/5/1 92/5/1 95/5/1
f 97/1/1 93/1/1 96/1/1
f 98/3/1 95/3/1 94/3/1
f 99/3/1 95/3/1 98/3/1
f 102/5/1 100/5/1 99/5/1
f 103/2/1 101/2/1 100/2/1
f 103/5/1 100/5/1 102/5/1
f 104/2/1 101/2/1 103/2/1
f 107/2/1 106/2/1 105/2/1
f 108/2/1 106/2/1 107/2/1
f 111/1/1 110/1/1 109/1/1
f 112/1/1 110/1/1 111/1/1
f 115/4/1 114/4/1 113/4/1
f 116/4/1 114/4/1 115/4/1
f 119/4/1 118/4/1 117/4/1
f 120/4/1 118/4/1 119/4/1
f 121/4/1 119/4/1 117/4/1
f 122/4/1 119/4/1 121/4/1
f 125/1/1 124/1/1 123/1/1
f 126/1/1 124/1/1 125/1/1
f 127/1/2 128/1/2 129/1/2
f 129/1/2 128/1/2 130/1/2
f 131/1/2 132/1/2 133/1/2
f 133/1/2 132/1/2 134/1/2
f 135/1/2 136/1/2 139/1/2
f 139/1/2 136/1/2 140/1/2
f 137/3/2 138/3/2 141/3/2
f 141/3/2 138/3/2 142/3/2
f 142/5/2 143/5/2 145/5/2
f 143/2/2 144/2/2 146/2/2
f 145/5/2 143/5/2 146/5/2
f 146/2/2 144/2/2 147/2/2
f 148/2/2 149/2/2 150/2/2
f 150/2/2 149/2/2 151/2/2
f 152/1/2 153/1/2 156/1/2
f 156/1/2 153/1/2 157/1/2
f 154/1/2 155/1/2 160/1/2
f 160/1/2 155/1/2 161/1/2
f 158/2/2 159/2/2 163/2/2
f 162/2/2 163/2/2 166/2/2
f 163/2/2 159/2/2 167/2/2
f 166/2/2 163/2/2 167/2/2
f 167/2/2 159/2/2 168/2/2
f 168/2/2 159/2/2 169/2/2
f 164/4/2 165/4/2 170/4/2
f 170/4/2 165/4/2 171/4/2
f 170/5/2 171/5/2 173/5/2
f 171/2/2 172/2/2 174/2/2
f 173/5/2 171/5/2 174/5/2
f 174/2/2 172/2/2 175/2/2
f 176/1/2 177/1/2 182/1/2
f 182/1/2 177/1/2 183/1/2
f 178/1/2 179/1/2 184/1/2
f 184/1/2 179/1/2 185/1/2
f 180/1/2 181/1/2 187/1/2
f 187/1/2 181/1/2 188/1/2
f 183/2/2 184/2/2 189/2/2
f 189/2/2 184/2/2 190/2/2
f 186/2/2 187/2/2 191/2/2
f 191/2/2 187/2/2 192/2/2
f 190/1/2 191/1/2 193/1/2
f 193/1/2 191/1/2 194/1/2
f 195/1/2 196/1/2 200/1/2
f 200/1/2 196/1/2 201/1/2
f 197/1/2 198/1/2 203/1/2
f 203/1/2 198/1/2 204/1/2
f 201/4/2 202/4/2 205/4/2
f 199/4/2 200/4/2 205/4/2
f 200/4/2 201/4/2 205/4/2
f 205/4/2 202/4/2 206/4/2
f 199/4/2 205/4/2 207/4/2
f 207/4/2 205/4/2 208/4/2
f 209/2/2 210/2/2 213/2/2
f 213/2/2 210/2/2 214/2/2
f 211/2/2 212/2/2 215/2/2
f 215/2/2 212/2/2 216/2/2
f 217/2/2 218/2/2 221/2/2
f 219/2/2 220/2/2 222/2/2
f 217/2/2 221/2/2 224/2/2
f 221/2/2 222/2/2 224/2/2
f 222/2/2 220/2/2 225/2/2
f 224/2/2 222/2/2 225/2/2
f 223/1/2 224/1/2 227/1/2
f 227/1/2 224/1/2 228/1/2
f 225/1/2 226/1/2 229/1/2
f 229/1/2 226/1/2 230/1/2
f 228/2/2 229/2/2 231/2/2
f 231/2/2 229/2/2 232/2/2
f 233/1/2 234/1/2 235/1/2
f 235/1/2 234/1/2 236/1/2
f 237/1/2 238/1/2 240/1/2
f 240/1/2 238/1/2 241/1/2
f 239/1/2 240/1/2 243/1/2
f 240/3/2 241/3/2 244/3/2
f 243/1/2 240/1/2 244/1/2
f 241/1/2 242/1/2 245/1/2
f 244/3/2 241/3/2 245/3/2
f 245/1/2 242/1/2 246/1/2
f 244/1/2 245/1/2 247/1/2
f 247/1/2 245/1/2 248/1/2
f 249/1/2 250/1/2 251/1/2
f 251/1/2 250/1/2 252/1/2
f 255/3/3 254/3/3 253/3/3
f 256/3/3 254/3/3 255/3/3
f 264/5/3 260/5/3 259/5/3
f 265/5/3 260/5/3 264/5/3
f 268/5/3 264/5/3 263/5/3
f 269/5/3 264/5/3 268/5/3
f 270/5/3 266/5/3 265/5/3
f 271/5/3 266/5/3 270/5/3
f 272/1/3 258/1/3 257/1/3
f 273/1/3 258/1/3 272/1/3
f 274/4/3 269/4/3 268/4/3
f 274/4/3 268/4/3 267/4/3
f 275/5/3 270/5/3 269/5/3
f 275/4/3 269/4/3 274/4/3
f 276/5/3 270/5/3 275/5/3
f 277/1/3 262/1/3 261/1/3
f 278/1/3 262/1/3 277/1/3
f 279/4/3 274/4/3 273/4/3
f 280/4/3 274/4/3 279/4/3
f 285/1/3 282/1/3 281/1/3
f 286/1/3 282/1/3 285/1/3
f 287/1/3 284/1/3 283/1/3
f 288/1/3 284/1/3 287/1/3
f 293/2/3 289/2/3 288/2/3
f 294/2/3 289/2/3 293/2/3
f 295/1/3 291/1/3 290/1/3
f 296/1/3 291/1/3 295/1/3
f 297/1/3 293/1/3 292/1/3
f 298/1/3 293/1/3 297/1/3
f 305/1/3 300/1/3 299/1/3
f 306/1/3 300/1/3 305/1/3
f 308/1/3 302/1/3 301/1/3
f 309/1/3 302/1/3 308/1/3
f 310/1/3 304/1/3 303/1/3
f 311/1/3 304/1/3 310/1/3
f 314/2/3 309/2/3 308/2/3
f 314/2/3 310/2/3 309/2/3
f 314/2/3 308/2/3 307/2/3
f 315/2/3 310/2/3 314/2/3
f 316/2/3 310/2/3 315/2/3
f 317/2/3 312/2/3 311/2/3
f 318/2/3 312/2/3 317/2/3
f 320/2/3 314/2/3 313/2/3
f 320/2/3 315/2/3 314/2/3
f 321/2/3 315/2/3 320/2/3
f 322/2/3 310/2/3 316/2/3
f 323/2/3 310/2/3 322/2/3
f 324/2/3 320/2/3 313/2/3
f 327/2/3 310/2/3 323/2/3
f 328/2/3 325/2/3 324/2/3
f 328/2/3 324/2/3 313/2/3
f 329/2/3 325/2/3 328/2/3
f 330/2/3 325/2/3 329/2/3
f 331/2/3 325/2/3 330/2/3
f 332/2/3 327/2/3 326/2/3
f 334/1/3 319/1/3 318/1/3
f 335/1/3 319/1/3 334/1/3
f 338/2/3 331/2/3 330/2/3
f 338/2/3 332/2/3 331/2/3
f 339/2/3 332/2/3 338/2/3
f 340/2/3 327/2/3 332/2/3
f 340/2/3 332/2/3 339/2/3
f 341/2/3 310/2/3 327/2/3
f 341/2/3 327/2/3 340/2/3
f 342/2/3 334/2/3 333/2/3
f 343/2/3 334/2/3 342/2/3
f 344/1/3 337/1/3 336/1/3
f 345/1/3 337/1/3 344/1/3
f 346/1/3 340/1/3 339/1/3
f 347/1/3 340/1/3 346/1/3
f 348/1/3 342/1/3 341/1/3
f 349/1/3 342/1/3 348/1/3
f 354/1/3 351/1/3 350/1/3
f 355/1/3 351/1/3 354/1/3
f 356/1/3 353/1/3 352/1/3
f 357/1/3 353/1/3 356/1/3
f 360/2/3 359/2/3 358/2/3
f 361/2/3 359/2/3 360/2/3
f 368/1/3 363/1/3 362/1/3
f 369/1/3 363/1/3 368/1/3
f 370/1/3 365/1/3 364/1/3
f 371/1/3 365/1/3 370/1/3
f 372/1/3 367/1/3 366/1/3
f 373/1/3 367/1/3 372/1/3
f 376/1/3 375/1/3 374/1/3
f 377/1/3 375/1/3 376/1/3
f 380/1/3 379/1/3 378/1/3
f 381/1/3 379/1/3 380/1/3
f 382/4/4 383/4/4 386/4/4
f 383/4/4 384/4/4 386/4/4
f 386/4/4 384/4/4 387/4/4
f 385/4/4 386/4/4 388/4/4
f 388/4/4 386/4/4 389/4/4
f 390/1/4 391/1/4 392/1/4
f 392/1/4 391/1/4 393/1/4
f 394/1/4 395/1/4 396/1/4
f 396/1/4 395/1/4 397/1/4
f 398/1/4 399/1/4 400/1/4
f 400/1/4 399/1/4 401/1/4
f 402/4/4 403/4/4 404/4/4
f 404/4/4 403/4/4 405/4/4
f 406/1/4 407/1/4 410/1/4
f 410/1/4 407/1/4 411/1/4
f 408/1/4 409/1/4 412/1/4
f 412/1/4 409/1/4 413/1/4
f 414/2/4 415/2/4 416/2/4
f 416/2/4 415/2/4 417/2/4
f 418/1/4 419/1/4 422/1/4
f 422/1/4 419/1/4 423/1/4
f 420/1/4 421/1/4 424/1/4
f 424/1/4 421/1/4 425/1/4
f 426/1/4 427/1/4 432/1/4
f 432/1/4 427/1/4 433/1/4
f 428/1/4 429/1/4 435/1/4
f 435/1/4 429/1/4 436/1/4
f 430/1/4 431/1/4 437/1/4
f 437/1/4 431/1/4 438/1/4
f 435/2/4 436/2/4 441/2/4
f 436/2/4 437/2/4 441/2/4
f 434/2/4 435/2/4 441/2/4
f 438/2/4 439/2/4 442/2/4
f 442/2/4 439/2/4 443/2/4
f 440/2/4 441/2/4 445/2/4
f 441/2/4 437/2/4 446/2/4
f 445/2/4 441/2/4 446/2/4
f 443/1/4 444/1/4 448/1/4
f 448/1/4 444/1/4 449/1/4
f 446/2/4 437/2/4 452/2/4
f 452/2/4 437/2/4 453/2/4
f 453/2/4 437/2/4 454/2/4
f 454/2/4 437/2/4 455/2/4
f 447/2/4 448/2/4 456/2/4
f 456/2/4 448/2/4 457/2/4
f 450/1/4 451/1/4 458/1/4
f 458/1/4 451/1/4 459/1/4
f 453/1/4 454/1/4 460/1/4
f 460/1/4 454/1/4 461/1/4
f 455/1/4 456/1/4 462/1/4
f 462/1/4 456/1/4 463/1/4
f 464/1/4 465/1/4 468/1/4
f 468/1/4 465/1/4 469/1/4
f 466/1/4 467/1/4 470/1/4
f 470/1/4 467/1/4 471/1/4
f 471/2/4 472/2/4 476/2/4
f 476/2/4 472/2/4 477/2/4
f 473/1/4 474/1/4 478/1/4
f 478/1/4 474/1/4 479/1/4
f 475/1/4 476/1/4 480/1/4
f 480/1/4 476/1/4 481/1/4
f 482/1/4 483/1/4 486/1/4
f 486/1/4 483/1/4 487/1/4
f 484/1/4 485/1/4 488/1/4
f 488/1/4 485/1/4 489/1/4
f 493/1/5 491/1/5 490/1/5
f 494/1/5 491/1/5 493/1/5
f 497/1/5 493/1/5 492/1/5
f 497/1/5 495/1/5 494/1/5
f 497/1/5 494/1/5 493/1/5
f 498/1/5 495/1/5 497/1/5
f 500/1/5 497/1/5 496/1/5
f 500/1/5 499/1/5 498/1/5
f 500/1/5 498/1/5 497/1/5
f 501/1/5 499/1/5 500/1/5
f 502/1/5 500/1/5 496/1/5
f 503/1/5 499/1/5 501/1/5
f 504/1/5 502/1/5 496/1/5
f 504/1/5 503/1/5 502/1/5
f 505/1/5 503/1/5 504/1/5
f 506/1/5 499/1/5 503/1/5
f 506/1/5 503/1/5 505/1/5
f 507/1/5 499/1/5 506/1/5
f 508/1/5 506/1/5 505/1/5
f 509/1/5 506/1/5 508/1/5
f 510/1/5 506/1/5 509/1/5
f 511/1/5 506/1/5 510/1/5
f 512/1/5 510/1/5 509/1/5
f 513/1/5 510/1/5 512/1/5
f 516/4/5 515/4/5 514/4/5
f 517/4/5 515/4/5 516/4/5
f 520/1/5 519/1/5 518/1/5
f 521/1/5 519/1/5 520/1/5
f 524/4/5 523/4/5 522/4/5
f 525/4/5 523/4/5 524/4/5
f 528/5/5 527/5/5 526/5/5
f 529/5/5 527/5/5 528/5/5
f 532/1/5 529/1/5 528/1/5
f 533/1/5 529/1/5 532/1/5
f 537/2/5 531/2/5 530/2/5
f 538/2/5 531/2/5 537/2/5
f 539/2/5 535/2/5 534/2/5
f 540/2/5 535/2/5 539/2/5
f 542/1/5 538/1/5 537/1/5
f 542/1/5 537/1/5 536/1/5
f 543/1/5 538/1/5 542/1/5
f 544/1/5 538/1/5 543/1/5
f 545/1/5 541/1/5 540/1/5
f 545/1/5 540/1/5 539/1/5
f 546/1/5 541/1/5 545/1/5
f 547/1/5 541/1/5 546/1/5
f 548/2/5 544/2/5 543/2/5
f 549/2/5 544/2/5 548/2/5
f 550/2/5 546/2/5 545/2/5
f 551/2/5 546/2/5 550/2/5
f 555/3/5 553/3/5 552/3/5
f 556/3/5 553/3/5 555/3/5
f 557/5/5 555/5/5 554/5/5
f 558/5/5 555/5/5 557/5/5
f 563/1/5 558/1/5 557/1/5
f 564/1/5 558/1/5 563/1/5
f 565/2/5 560/2/5 559/2/5
f 566/2/5 560/2/5 565/2/5
f 569/1/5 562/1/5 561/1/5
f 570/1/5 562/1/5 569/1/5
f 571/1/5 568/1/5 567/1/5
f 572/1/5 568/1/5 571/1/5
f 577/1/5 574/1/5 573/1/5
f 578/1/5 574/1/5 577/1/5
f 579/1/5 576/1/5 575/1/5
f 580/1/5 576/1/5 579/1/5
f 584/1/5 582/1/5 581/1/5
f 585/1/5 582/1/5 584/1/5
f 588/1/5 584/1/5 583/1/5
f 588/1/5 586/1/5 585/1/5
f 588/1/5 585/1/5 584/1/5
f 589/1/5 586/1/5 588/1/5
f 591/1/5 588/1/5 587/1/5
f 592/1/5 588/1/5 591/1/5
f 593/1/5 590/1/5 589/1/5
f 594/1/5 590/1/5 593/1/5
f 595/1/5 593/1/5 592/1/5
f 596/1/5 593/1/5 595/1/5
f 597/1/5 593/1/5 596/1/5
f 598/1/5 593/1/5 597/1/5
f 599/1/5 597/1/5 596/1/5
f 600/1/5 597/1/5 599/1/5
f 605/2/5 604/2/5 603/2/5
f 606/2/5 604/2/5 605/2/5
f 607/2/5 602/2/5 601/2/5
f 608/2/5 602/2/5 607/2/5
f 609/1/6 610/1/6 612/1/6
f 611/1/6 612/1/6 614/1/6
f 612/1/6 610/1/6 615/1/6
f 614/1/6 612/1/6 615/1/6
f 615/1/6 610/1/6 616/1/6
f 617/1/6 618/1/6 620/1/6
f 613/1/6 614/1/6 621/1/6
f 614/1/6 615/1/6 621/1/6
f 621/1/6 615/1/6 622/1/6
f 622/1/6 615/1/6 623/1/6
f 619/1/6 620/1/6 624/1/6
f 620/1/6 618/1/6 625/1/6
f 624/1/6 620/1/6 625/1/6
f 625/1/6 618/1/6 626/1/6
f 622/1/6 623/1/6 627/1/6
f 623/1/6 624/1/6 627/1/6
f 624/1/6 625/1/6 627/1/6
f 627/1/6 625/1/6 628/1/6
f 628/1/6 625/1/6 629/1/6
f 629/1/6 625/1/6 630/1/6
f 628/1/6 629/1/6 631/1/6
f 631/1/6 629/1/6 632/1/6
f 633/4/6 634/4/6 635/4/6
f 635/4/6 634/4/6 636/4/6
f 636/4/6 634/4/6 637/4/6
f 638/4/6 639/4/6 640/4/6
f 640/4/6 639/4/6 641/4/6
f 642/3/6 643/3/6 645/3/6
f 645/3/6 643/3/6 646/3/6
f 644/5/6 645/5/6 648/5/6
f 648/5/6 645/5/6 649/5/6
f 646/5/6 647/5/6 650/5/6
f 650/5/6 647/5/6 651/5/6
f 648/1/6 649/1/6 654/1/6
f 654/1/6 649/1/6 655/1/6
f 650/2/6 651/2/6 656/2/6
f 656/2/6 651/2/6 657/2/6
f 652/1/6 653/1/6 660/1/6
f 660/1/6 653/1/6 661/1/6
f 658/1/6 659/1/6 662/1/6
f 662/1/6 659/1/6 663/1/6
f 664/1/6 665/1/6 668/1/6
f 668/1/6 665/1/6 669/1/6
f 666/1/6 667/1/6 670/1/6
f 670/1/6 667/1/6 671/1/6
f 672/5/6 673/5/6 674/5/6
f 674/5/6 673/5/6 675/5/6
f 674/2/6 675/2/6 676/2/6
f 676/2/6 675/2/6 677/2/6
f 678/1/6 679/1/6 682/1/6
f 682/1/6 679/1/6 683/1/6
f 680/1/6 681/1/6 684/1/6
f 684/1/6 681/1/6 685/1/6
f 688/2/6 689/2/6 690/2/6
f 690/2/6 689/2/6 691/2/6
f 686/2/6 687/2/6 692/2/6
f 692/2/6 687/2/6 693/2/6
f 694/1/6 695/1/6 697/1/6
f 697/1/6 695/1/6 698/1/6
f 696/1/6 697/1/6 701/1/6
f 701/1/6 697/1/6 702/1/6
f 698/1/6 699/1/6 703/1/6
f 703/1/6 699/1/6 704/1/6
f 700/1/6 701/1/6 706/1/6
f 706/1/6 701/1/6 707/1/6
f 704/1/6 705/1/6 710/1/6
f 710/1/6 705/1/6 711/1/6
f 707/1/6 708/1/6 712/1/6
f 712/1/6 708/1/6 713/1/6
f 709/1/6 710/1/6 714/1/6
f 714/1/6 710/1/6 715/1/6
f 713/1/6 714/1/6 716/1/6
f 716/1/6 714/1/6 717/1/6
f 718/2/6 719/2/6 721/2/6
f 721/2/6 719/2/6 722/2/6
f 720/2/6 721/2/6 724/2/6
f 724/2/6 721/2/6 725/2/6
f 722/2/6 723/2/6 726/2/6
f 726/2/6 723/2/6 727/2/6
f 725/2/6 726/2/6 728/2/6
f 728/2/6 726/2/6 729/2/6
f 730/1/6 731/1/6 732/1/6
f 732/1/6 731/1/6 733/1/6
f 730/1/6 732/1/6 734/1/6
f 733/1/6 731/1/6 735/1/6
f 730/1/6 734/1/6 736/1/6
f 734/1/6 735/1/6 736/1/6
f 735/1/6 731/1/6 737/1/6
f 736/1/6 735/1/6 737/1/6
f 738/2/6 739/2/6 740/2/6
f 740/2/6 739/2/6 741/2/6
