# MagicaVoxel @ Ephtracy

# group
g laserbeam

# material
mtllib laserbeam.mtl
usemtl palette

# normals
vn -1 0 0
vn 1 0 0
vn 0 0 1
vn 0 0 -1
vn 0 -1 0
vn 0 1 0

# texcoords
vt 0.845703 0.5
vt 0.966797 0.5
vt 0.990234 0.5
vt 0.994141 0.5

# verts
v -26 19 1
v -26 19 -1
v -26 21 1
v -26 21 -1
v 0 16 2
v 0 16 -2
v 0 17 3
v 0 17 2
v 0 17 -2
v 0 17 -3
v 0 18 4
v 0 18 3
v 0 18 -3
v 0 18 -4
v 0 19 1
v 0 19 -1
v 0 21 1
v 0 21 -1
v 0 22 4
v 0 22 3
v 0 22 -3
v 0 22 -4
v 0 23 3
v 0 23 2
v 0 23 -2
v 0 23 -3
v 0 24 2
v 0 24 -2
v 40 16 2
v 40 16 -2
v 40 17 3
v 40 17 2
v 40 17 -2
v 40 17 -3
v 40 18 4
v 40 18 3
v 40 18 -3
v 40 18 -4
v 40 22 4
v 40 22 3
v 40 22 -3
v 40 22 -4
v 40 23 3
v 40 23 2
v 40 23 -2
v 40 23 -3
v 40 24 2
v 40 24 -2
v 0 18 4
v 0 22 4
v 3 18 4
v 3 22 4
v 40 18 4
v 40 22 4
v 0 17 3
v 0 18 3
v 0 22 3
v 0 23 3
v 3 17 3
v 3 18 3
v 3 22 3
v 3 23 3
v 40 17 3
v 40 18 3
v 40 22 3
v 40 23 3
v 0 16 2
v 0 17 2
v 0 23 2
v 0 24 2
v 3 16 2
v 3 17 2
v 3 23 2
v 3 24 2
v 40 16 2
v 40 17 2
v 40 23 2
v 40 24 2
v -26 19 1
v -26 21 1
v 0 19 1
v 0 21 1
v -26 19 -1
v -26 21 -1
v 0 19 -1
v 0 21 -1
v 0 16 -2
v 0 17 -2
v 0 23 -2
v 0 24 -2
v 3 16 -2
v 3 17 -2
v 3 23 -2
v 3 24 -2
v 40 16 -2
v 40 17 -2
v 40 23 -2
v 40 24 -2
v 0 17 -3
v 0 18 -3
v 0 22 -3
v 0 23 -3
v 3 17 -3
v 3 18 -3
v 3 22 -3
v 3 23 -3
v 40 17 -3
v 40 18 -3
v 40 22 -3
v 40 23 -3
v 0 18 -4
v 0 22 -4
v 3 18 -4
v 3 22 -4
v 40 18 -4
v 40 22 -4
v 0 16 2
v 3 16 2
v 40 16 2
v 0 16 -2
v 3 16 -2
v 40 16 -2
v 0 17 3
v 3 17 3
v 40 17 3
v 0 17 2
v 3 17 2
v 40 17 2
v 0 17 -2
v 3 17 -2
v 40 17 -2
v 0 17 -3
v 3 17 -3
v 40 17 -3
v 0 18 4
v 3 18 4
v 40 18 4
v 0 18 3
v 3 18 3
v 40 18 3
v 0 18 -3
v 3 18 -3
v 40 18 -3
v 0 18 -4
v 3 18 -4
v 40 18 -4
v -26 19 1
v 0 19 1
v -26 19 -1
v 0 19 -1
v -26 21 1
v 0 21 1
v -26 21 -1
v 0 21 -1
v 0 22 4
v 3 22 4
v 40 22 4
v 0 22 3
v 3 22 3
v 40 22 3
v 0 22 -3
v 3 22 -3
v 40 22 -3
v 0 22 -4
v 3 22 -4
v 40 22 -4
v 0 23 3
v 3 23 3
v 40 23 3
v 0 23 2
v 3 23 2
v 40 23 2
v 0 23 -2
v 3 23 -2
v 40 23 -2
v 0 23 -3
v 3 23 -3
v 40 23 -3
v 0 24 2
v 3 24 2
v 40 24 2
v 12 24 1
v 16 24 1
v 12 24 -1
v 16 24 -1
v 0 24 -2
v 3 24 -2
v 40 24 -2

# faces
f 3/1/1 2/1/1 1/1/1
f 4/1/1 2/1/1 3/1/1
f 8/2/1 6/2/1 5/2/1
f 9/2/1 6/2/1 8/2/1
f 12/2/1 8/2/1 7/2/1
f 12/2/1 10/2/1 9/2/1
f 12/2/1 9/2/1 8/2/1
f 13/2/1 10/2/1 12/2/1
f 15/2/1 12/2/1 11/2/1
f 15/2/1 14/2/1 13/2/1
f 15/2/1 13/2/1 12/2/1
f 16/2/1 14/2/1 15/2/1
f 17/2/1 15/2/1 11/2/1
f 18/2/1 14/2/1 16/2/1
f 19/2/1 17/2/1 11/2/1
f 19/2/1 18/2/1 17/2/1
f 20/2/1 18/2/1 19/2/1
f 21/2/1 14/2/1 18/2/1
f 21/2/1 18/2/1 20/2/1
f 22/2/1 14/2/1 21/2/1
f 23/2/1 21/2/1 20/2/1
f 24/2/1 21/2/1 23/2/1
f 25/2/1 21/2/1 24/2/1
f 26/2/1 21/2/1 25/2/1
f 27/2/1 25/2/1 24/2/1
f 28/2/1 25/2/1 27/2/1
f 29/3/2 30/3/2 32/3/2
f 32/3/2 30/3/2 33/3/2
f 31/3/2 32/3/2 36/3/2
f 33/3/2 34/3/2 36/3/2
f 32/3/2 33/3/2 36/3/2
f 36/3/2 34/3/2 37/3/2
f 35/3/2 36/3/2 39/3/2
f 37/3/2 38/3/2 39/3/2
f 36/3/2 37/3/2 39/3/2
f 39/3/2 38/3/2 40/3/2
f 40/3/2 38/3/2 41/3/2
f 41/3/2 38/3/2 42/3/2
f 40/3/2 41/3/2 43/3/2
f 43/3/2 41/3/2 44/3/2
f 44/3/2 41/3/2 45/3/2
f 45/3/2 41/3/2 46/3/2
f 44/3/2 45/3/2 47/3/2
f 47/3/2 45/3/2 48/3/2
f 51/2/3 50/2/3 49/2/3
f 52/2/3 50/2/3 51/2/3
f 53/3/3 52/3/3 51/3/3
f 54/3/3 52/3/3 53/3/3
f 59/2/3 56/2/3 55/2/3
f 60/2/3 56/2/3 59/2/3
f 61/2/3 58/2/3 57/2/3
f 62/2/3 58/2/3 61/2/3
f 63/3/3 60/3/3 59/3/3
f 64/3/3 60/3/3 63/3/3
f 65/3/3 62/3/3 61/3/3
f 66/3/3 62/3/3 65/3/3
f 71/2/3 68/2/3 67/2/3
f 72/2/3 68/2/3 71/2/3
f 73/2/3 70/2/3 69/2/3
f 74/2/3 70/2/3 73/2/3
f 75/3/3 72/3/3 71/3/3
f 76/3/3 72/3/3 75/3/3
f 77/3/3 74/3/3 73/3/3
f 78/3/3 74/3/3 77/3/3
f 81/1/3 80/1/3 79/1/3
f 82/1/3 80/1/3 81/1/3
f 83/1/4 84/1/4 85/1/4
f 85/1/4 84/1/4 86/1/4
f 87/2/4 88/2/4 91/2/4
f 91/2/4 88/2/4 92/2/4
f 89/2/4 90/2/4 93/2/4
f 93/2/4 90/2/4 94/2/4
f 91/3/4 92/3/4 95/3/4
f 95/3/4 92/3/4 96/3/4
f 93/3/4 94/3/4 97/3/4
f 97/3/4 94/3/4 98/3/4
f 99/2/4 100/2/4 103/2/4
f 103/2/4 100/2/4 104/2/4
f 101/2/4 102/2/4 105/2/4
f 105/2/4 102/2/4 106/2/4
f 103/3/4 104/3/4 107/3/4
f 107/3/4 104/3/4 108/3/4
f 105/3/4 106/3/4 109/3/4
f 109/3/4 106/3/4 110/3/4
f 111/2/4 112/2/4 113/2/4
f 113/2/4 112/2/4 114/2/4
f 113/3/4 114/3/4 115/3/4
f 115/3/4 114/3/4 116/3/4
f 120/2/5 118/2/5 117/2/5
f 121/3/5 119/3/5 118/3/5
f 121/2/5 118/2/5 120/2/5
f 122/3/5 119/3/5 121/3/5
f 126/2/5 124/2/5 123/2/5
f 127/3/5 125/3/5 124/3/5
f 127/2/5 124/2/5 126/2/5
f 128/3/5 125/3/5 127/3/5
f 132/2/5 130/2/5 129/2/5
f 133/3/5 131/3/5 130/3/5
f 133/2/5 130/2/5 132/2/5
f 134/3/5 131/3/5 133/3/5
f 138/2/5 136/2/5 135/2/5
f 139/3/5 137/3/5 136/3/5
f 139/2/5 136/2/5 138/2/5
f 140/3/5 137/3/5 139/3/5
f 144/2/5 142/2/5 141/2/5
f 145/3/5 143/3/5 142/3/5
f 145/2/5 142/2/5 144/2/5
f 146/3/5 143/3/5 145/3/5
f 149/1/5 148/1/5 147/1/5
f 150/1/5 148/1/5 149/1/5
f 151/1/6 152/1/6 153/1/6
f 153/1/6 152/1/6 154/1/6
f 155/2/6 156/2/6 158/2/6
f 156/3/6 157/3/6 159/3/6
f 158/2/6 156/2/6 159/2/6
f 159/3/6 157/3/6 160/3/6
f 161/2/6 162/2/6 164/2/6
f 162/3/6 163/3/6 165/3/6
f 164/2/6 162/2/6 165/2/6
f 165/3/6 163/3/6 166/3/6
f 167/2/6 168/2/6 170/2/6
f 168/3/6 169/3/6 171/3/6
f 170/2/6 168/2/6 171/2/6
f 171/3/6 169/3/6 172/3/6
f 173/2/6 174/2/6 176/2/6
f 174/3/6 175/3/6 177/3/6
f 176/2/6 174/2/6 177/2/6
f 177/3/6 175/3/6 178/3/6
f 180/3/6 181/3/6 182/3/6
f 182/3/6 181/3/6 183/3/6
f 180/3/6 182/3/6 184/3/6
f 182/2/6 183/2/6 184/2/6
f 183/3/6 181/3/6 185/3/6
f 184/2/6 183/2/6 185/2/6
f 179/2/6 180/2/6 186/2/6
f 180/3/6 184/3/6 187/3/6
f 186/2/6 180/2/6 187/2/6
f 184/3/6 185/3/6 187/3/6
f 185/3/6 181/3/6 188/3/6
f 187/3/6 185/3/6 188/3/6
