# MagicaVoxel @ Ephtracy

# group
g truck-3

# material
mtllib truck-3.mtl
usemtl palette

# normals
vn -1 0 0
vn 1 0 0
vn 0 0 1
vn 0 0 -1
vn 0 -1 0
vn 0 1 0

# texcoords
vt 0.0605469 0.5
vt 0.0917969 0.5
vt 0.306641 0.5
vt 0.587891 0.5
vt 0.646484 0.5
vt 0.958984 0.5
vt 0.978516 0.5
vt 0.994141 0.5

# verts
v -11 2 12
v -11 2 9
v -11 2 -3
v -11 2 -6
v -11 3 13
v -11 3 12
v -11 3 9
v -11 3 8
v -11 3 -2
v -11 3 -3
v -11 3 -6
v -11 3 -7
v -11 4 11
v -11 4 10
v -11 4 -4
v -11 4 -5
v -11 5 11
v -11 5 10
v -11 5 -4
v -11 5 -5
v -11 6 13
v -11 6 12
v -11 6 9
v -11 6 8
v -11 6 -2
v -11 6 -3
v -11 6 -6
v -11 6 -7
v -11 7 12
v -11 7 9
v -11 7 -3
v -11 7 -6
v -10 4 17
v -10 4 13
v -10 4 11
v -10 4 10
v -10 4 8
v -10 4 -2
v -10 4 -4
v -10 4 -5
v -10 4 -7
v -10 4 -11
v -10 5 11
v -10 5 10
v -10 5 -4
v -10 5 -5
v -10 6 13
v -10 6 12
v -10 6 9
v -10 6 8
v -10 6 -2
v -10 6 -3
v -10 6 -6
v -10 6 -7
v -10 7 12
v -10 7 9
v -10 7 -3
v -10 7 -6
v -10 9 17
v -10 9 12
v -10 9 10
v -10 9 4
v -10 9 3
v -10 9 -4
v -10 9 -6
v -10 9 -11
v -10 10 12
v -10 10 11
v -10 11 11
v -10 11 10
v -10 11 9
v -10 13 10
v -10 13 9
v -10 13 8
v -10 15 9
v -10 15 8
v -10 15 4
v -10 15 3
v -10 15 -4
v -10 16 8
v -10 16 -6
v -9 9 10
v -9 9 4
v -9 9 3
v -9 9 -4
v -9 11 10
v -9 11 9
v -9 13 9
v -9 13 8
v -9 15 8
v -9 15 4
v -9 15 3
v -9 15 -4
v -4 16 6
v -4 16 5
v -4 17 6
v -4 17 5
v -4 17 4
v -4 18 5
v -4 18 4
v -4 18 3
v -4 19 4
v -4 19 3
v -4 19 2
v -4 20 3
v -4 20 2
v 1 9 -5
v 1 9 -6
v 1 15 -5
v 1 15 -6
v 2 2 12
v 2 2 9
v 2 2 -3
v 2 2 -6
v 2 3 13
v 2 3 12
v 2 3 9
v 2 3 8
v 2 3 -2
v 2 3 -3
v 2 3 -6
v 2 3 -7
v 2 4 13
v 2 4 8
v 2 4 -2
v 2 4 -7
v -10 2 12
v -10 2 9
v -10 2 -3
v -10 2 -6
v -10 3 13
v -10 3 12
v -10 3 9
v -10 3 8
v -10 3 -2
v -10 3 -3
v -10 3 -6
v -10 3 -7
v -10 4 13
v -10 4 8
v -10 4 -2
v -10 4 -7
v -9 9 -5
v -9 9 -6
v -9 15 -5
v -9 15 -6
v -3 16 6
v -3 16 5
v -3 17 6
v -3 17 5
v -3 17 4
v -3 18 5
v -3 18 4
v -3 18 3
v -3 19 4
v -3 19 3
v -3 19 2
v -3 20 3
v -3 20 2
v 1 9 10
v 1 9 4
v 1 9 3
v 1 9 -4
v 1 11 10
v 1 11 9
v 1 13 9
v 1 13 8
v 1 15 8
v 1 15 4
v 1 15 3
v 1 15 -4
v 2 4 17
v 2 4 13
v 2 4 11
v 2 4 10
v 2 4 8
v 2 4 -2
v 2 4 -4
v 2 4 -5
v 2 4 -7
v 2 4 -11
v 2 5 11
v 2 5 10
v 2 5 -4
v 2 5 -5
v 2 6 13
v 2 6 12
v 2 6 9
v 2 6 8
v 2 6 -2
v 2 6 -3
v 2 6 -6
v 2 6 -7
v 2 7 12
v 2 7 9
v 2 7 -3
v 2 7 -6
v 2 9 17
v 2 9 12
v 2 9 10
v 2 9 4
v 2 9 3
v 2 9 -4
v 2 9 -6
v 2 9 -11
v 2 10 12
v 2 10 11
v 2 11 11
v 2 11 10
v 2 11 9
v 2 13 10
v 2 13 9
v 2 13 8
v 2 15 9
v 2 15 8
v 2 15 4
v 2 15 3
v 2 15 -4
v 2 16 8
v 2 16 -6
v 3 2 12
v 3 2 9
v 3 2 -3
v 3 2 -6
v 3 3 13
v 3 3 12
v 3 3 9
v 3 3 8
v 3 3 -2
v 3 3 -3
v 3 3 -6
v 3 3 -7
v 3 4 11
v 3 4 10
v 3 4 -4
v 3 4 -5
v 3 5 11
v 3 5 10
v 3 5 -4
v 3 5 -5
v 3 6 13
v 3 6 12
v 3 6 9
v 3 6 8
v 3 6 -2
v 3 6 -3
v 3 6 -6
v 3 6 -7
v 3 7 12
v 3 7 9
v 3 7 -3
v 3 7 -6
v -10 4 17
v -10 9 17
v -9 6 17
v -9 8 17
v -8 6 17
v -8 8 17
v -7 6 17
v -7 8 17
v -1 6 17
v -1 8 17
v 0 6 17
v 0 8 17
v 1 6 17
v 1 8 17
v 2 4 17
v 2 9 17
v -11 3 13
v -11 6 13
v -10 3 13
v -10 4 13
v -10 6 13
v 2 3 13
v 2 4 13
v 2 6 13
v 3 3 13
v 3 6 13
v -11 2 12
v -11 3 12
v -11 6 12
v -11 7 12
v -10 2 12
v -10 3 12
v -10 6 12
v -10 7 12
v -10 9 12
v -10 10 12
v -9 9 12
v -9 10 12
v 1 9 12
v 1 10 12
v 2 2 12
v 2 3 12
v 2 6 12
v 2 7 12
v 2 9 12
v 2 10 12
v 3 2 12
v 3 3 12
v 3 6 12
v 3 7 12
v -10 10 11
v -10 11 11
v -9 10 11
v -9 11 11
v 1 10 11
v 1 11 11
v 2 10 11
v 2 11 11
v -11 4 10
v -11 5 10
v -10 4 10
v -10 5 10
v -10 11 10
v -10 13 10
v -9 11 10
v -9 13 10
v 1 11 10
v 1 13 10
v 2 4 10
v 2 5 10
v 2 11 10
v 2 13 10
v 3 4 10
v 3 5 10
v -10 13 9
v -10 15 9
v -9 13 9
v -9 15 9
v 1 13 9
v 1 15 9
v 2 13 9
v 2 15 9
v -10 15 8
v -10 16 8
v -9 15 8
v 1 15 8
v 2 15 8
v 2 16 8
v -4 16 6
v -4 17 6
v -3 16 6
v -3 17 6
v -4 17 5
v -4 18 5
v -3 17 5
v -3 18 5
v -10 9 4
v -10 15 4
v -9 9 4
v -9 15 4
v -4 18 4
v -4 19 4
v -3 18 4
v -3 19 4
v 1 9 4
v 1 15 4
v 2 9 4
v 2 15 4
v -4 19 3
v -4 20 3
v -3 19 3
v -3 20 3
v -11 3 -2
v -11 6 -2
v -10 3 -2
v -10 4 -2
v -10 6 -2
v 2 3 -2
v 2 4 -2
v 2 6 -2
v 3 3 -2
v 3 6 -2
v -11 2 -3
v -11 3 -3
v -11 6 -3
v -11 7 -3
v -10 2 -3
v -10 3 -3
v -10 6 -3
v -10 7 -3
v 2 2 -3
v 2 3 -3
v 2 6 -3
v 2 7 -3
v 3 2 -3
v 3 3 -3
v 3 6 -3
v 3 7 -3
v -10 9 -4
v -10 15 -4
v -9 9 -4
v -9 15 -4
v 1 9 -4
v 1 15 -4
v 2 9 -4
v 2 15 -4
v -11 4 -5
v -11 5 -5
v -10 4 -5
v -10 5 -5
v 2 4 -5
v 2 5 -5
v 3 4 -5
v 3 5 -5
v -11 4 11
v -11 5 11
v -10 4 11
v -10 5 11
v 2 4 11
v 2 5 11
v 3 4 11
v 3 5 11
v -10 9 10
v -10 11 10
v -9 9 10
v -9 11 10
v 1 9 10
v 1 11 10
v 2 9 10
v 2 11 10
v -11 2 9
v -11 3 9
v -11 6 9
v -11 7 9
v -10 2 9
v -10 3 9
v -10 6 9
v -10 7 9
v -10 11 9
v -10 13 9
v -9 11 9
v -9 13 9
v 1 11 9
v 1 13 9
v 2 2 9
v 2 3 9
v 2 6 9
v 2 7 9
v 2 11 9
v 2 13 9
v 3 2 9
v 3 3 9
v 3 6 9
v 3 7 9
v -11 3 8
v -11 6 8
v -10 3 8
v -10 4 8
v -10 6 8
v -10 13 8
v -10 15 8
v -9 13 8
v -9 15 8
v 1 13 8
v 1 15 8
v 2 3 8
v 2 4 8
v 2 6 8
v 2 13 8
v 2 15 8
v 3 3 8
v 3 6 8
v -4 16 5
v -4 17 5
v -3 16 5
v -3 17 5
v -4 17 4
v -4 18 4
v -3 17 4
v -3 18 4
v -10 9 3
v -10 15 3
v -9 9 3
v -9 15 3
v -4 18 3
v -4 19 3
v -3 18 3
v -3 19 3
v 1 9 3
v 1 15 3
v 2 9 3
v 2 15 3
v -4 19 2
v -4 20 2
v -3 19 2
v -3 20 2
v -11 4 -4
v -11 5 -4
v -10 4 -4
v -10 5 -4
v 2 4 -4
v 2 5 -4
v 3 4 -4
v 3 5 -4
v -9 9 -5
v -9 15 -5
v 1 9 -5
v 1 15 -5
v -11 2 -6
v -11 3 -6
v -11 6 -6
v -11 7 -6
v -10 2 -6
v -10 3 -6
v -10 6 -6
v -10 7 -6
v -10 9 -6
v -10 16 -6
v -9 9 -6
v -9 15 -6
v 1 9 -6
v 1 15 -6
v 2 2 -6
v 2 3 -6
v 2 6 -6
v 2 7 -6
v 2 9 -6
v 2 16 -6
v 3 2 -6
v 3 3 -6
v 3 6 -6
v 3 7 -6
v -11 3 -7
v -11 6 -7
v -10 3 -7
v -10 4 -7
v -10 6 -7
v 2 3 -7
v 2 4 -7
v 2 6 -7
v 3 3 -7
v 3 6 -7
v -10 4 -11
v -10 9 -11
v -9 5 -11
v -9 6 -11
v -9 7 -11
v -8 5 -11
v -8 6 -11
v -8 7 -11
v 0 5 -11
v 0 6 -11
v 0 7 -11
v 1 5 -11
v 1 6 -11
v 1 7 -11
v 2 4 -11
v 2 9 -11
v -11 2 12
v -10 2 12
v 2 2 12
v 3 2 12
v -11 2 9
v -10 2 9
v 2 2 9
v 3 2 9
v -11 2 -3
v -10 2 -3
v 2 2 -3
v 3 2 -3
v -11 2 -6
v -10 2 -6
v 2 2 -6
v 3 2 -6
v -11 3 13
v -10 3 13
v 2 3 13
v 3 3 13
v -11 3 12
v -10 3 12
v 2 3 12
v 3 3 12
v -11 3 9
v -10 3 9
v 2 3 9
v 3 3 9
v -11 3 8
v -10 3 8
v 2 3 8
v 3 3 8
v -11 3 -2
v -10 3 -2
v 2 3 -2
v 3 3 -2
v -11 3 -3
v -10 3 -3
v 2 3 -3
v 3 3 -3
v -11 3 -6
v -10 3 -6
v 2 3 -6
v 3 3 -6
v -11 3 -7
v -10 3 -7
v 2 3 -7
v 3 3 -7
v -10 4 17
v 2 4 17
v -10 4 13
v 2 4 13
v -10 4 8
v 2 4 8
v -10 4 -2
v 2 4 -2
v -10 4 -7
v 2 4 -7
v -10 4 -11
v 2 4 -11
v -11 5 11
v -10 5 11
v 2 5 11
v 3 5 11
v -11 5 10
v -10 5 10
v 2 5 10
v 3 5 10
v -11 5 -4
v -10 5 -4
v 2 5 -4
v 3 5 -4
v -11 5 -5
v -10 5 -5
v 2 5 -5
v 3 5 -5
v -10 11 10
v -9 11 10
v 1 11 10
v 2 11 10
v -10 11 9
v -9 11 9
v 1 11 9
v 2 11 9
v -10 13 9
v -9 13 9
v 1 13 9
v 2 13 9
v -10 13 8
v -9 13 8
v 1 13 8
v 2 13 8
v -10 15 8
v -9 15 8
v 1 15 8
v 2 15 8
v -10 15 4
v -9 15 4
v 1 15 4
v 2 15 4
v -10 15 3
v -9 15 3
v 1 15 3
v 2 15 3
v -10 15 -4
v -9 15 -4
v 1 15 -4
v 2 15 -4
v -9 15 -5
v 1 15 -5
v -9 15 -6
v 1 15 -6
v -4 17 5
v -3 17 5
v -4 17 4
v -3 17 4
v -4 18 4
v -3 18 4
v -4 18 3
v -3 18 3
v -4 19 3
v -3 19 3
v -4 19 2
v -3 19 2
v -11 4 11
v -10 4 11
v 2 4 11
v 3 4 11
v -11 4 10
v -10 4 10
v 2 4 10
v 3 4 10
v -11 4 -4
v -10 4 -4
v 2 4 -4
v 3 4 -4
v -11 4 -5
v -10 4 -5
v 2 4 -5
v 3 4 -5
v -11 6 13
v -10 6 13
v 2 6 13
v 3 6 13
v -11 6 12
v -10 6 12
v 2 6 12
v 3 6 12
v -11 6 9
v -10 6 9
v 2 6 9
v 3 6 9
v -11 6 8
v -10 6 8
v 2 6 8
v 3 6 8
v -11 6 -2
v -10 6 -2
v 2 6 -2
v 3 6 -2
v -11 6 -3
v -10 6 -3
v 2 6 -3
v 3 6 -3
v -11 6 -6
v -10 6 -6
v 2 6 -6
v 3 6 -6
v -11 6 -7
v -10 6 -7
v 2 6 -7
v 3 6 -7
v -11 7 12
v -10 7 12
v 2 7 12
v 3 7 12
v -11 7 9
v -10 7 9
v 2 7 9
v 3 7 9
v -11 7 -3
v -10 7 -3
v 2 7 -3
v 3 7 -3
v -11 7 -6
v -10 7 -6
v 2 7 -6
v 3 7 -6
v -10 9 17
v 2 9 17
v -10 9 12
v -9 9 12
v 1 9 12
v 2 9 12
v -10 9 10
v -9 9 10
v 1 9 10
v 2 9 10
v -10 9 4
v -9 9 4
v 1 9 4
v 2 9 4
v -10 9 3
v -9 9 3
v 1 9 3
v 2 9 3
v -10 9 -4
v -9 9 -4
v 1 9 -4
v 2 9 -4
v -9 9 -5
v 1 9 -5
v -10 9 -6
v -9 9 -6
v 1 9 -6
v 2 9 -6
v -10 9 -11
v 2 9 -11
v -10 10 12
v -9 10 12
v 1 10 12
v 2 10 12
v -10 10 11
v -9 10 11
v 1 10 11
v 2 10 11
v -10 11 11
v -9 11 11
v 1 11 11
v 2 11 11
v -10 11 10
v -9 11 10
v 1 11 10
v 2 11 10
v -10 13 10
v -9 13 10
v 1 13 10
v 2 13 10
v -10 13 9
v -9 13 9
v 1 13 9
v 2 13 9
v -10 15 9
v -9 15 9
v 1 15 9
v 2 15 9
v -10 15 8
v -9 15 8
v 1 15 8
v 2 15 8
v -10 16 8
v 2 16 8
v -4 16 6
v -3 16 6
v -4 16 5
v -3 16 5
v -10 16 -6
v 2 16 -6
v -4 17 6
v -3 17 6
v -4 17 5
v -3 17 5
v -4 18 5
v -3 18 5
v -4 18 4
v -3 18 4
v -4 19 4
v -3 19 4
v -4 19 3
v -3 19 3
v -4 20 3
v -3 20 3
v -4 20 2
v -3 20 2

# faces
f 6/8/1 2/8/1 1/8/1
f 7/8/1 2/8/1 6/8/1
f 10/8/1 4/8/1 3/8/1
f 11/8/1 4/8/1 10/8/1
f 13/8/1 8/8/1 7/8/1
f 13/8/1 6/8/1 5/8/1
f 13/8/1 7/8/1 6/8/1
f 14/8/1 8/8/1 13/8/1
f 15/8/1 12/8/1 11/8/1
f 15/8/1 11/8/1 10/8/1
f 15/8/1 10/8/1 9/8/1
f 16/8/1 12/8/1 15/8/1
f 17/8/1 13/8/1 5/8/1
f 18/8/1 8/8/1 14/8/1
f 19/8/1 15/8/1 9/8/1
f 20/8/1 12/8/1 16/8/1
f 21/8/1 17/8/1 5/8/1
f 21/8/1 18/8/1 17/8/1
f 22/8/1 18/8/1 21/8/1
f 23/8/1 8/8/1 18/8/1
f 23/8/1 18/8/1 22/8/1
f 24/8/1 8/8/1 23/8/1
f 25/8/1 20/8/1 19/8/1
f 25/8/1 19/8/1 9/8/1
f 26/8/1 20/8/1 25/8/1
f 27/8/1 12/8/1 20/8/1
f 27/8/1 20/8/1 26/8/1
f 28/8/1 12/8/1 27/8/1
f 29/8/1 23/8/1 22/8/1
f 30/8/1 23/8/1 29/8/1
f 31/8/1 27/8/1 26/8/1
f 32/8/1 27/8/1 31/8/1
f 43/5/1 36/5/1 35/5/1
f 44/5/1 36/5/1 43/5/1
f 45/5/1 40/5/1 39/5/1
f 46/5/1 40/5/1 45/5/1
f 47/5/1 34/5/1 33/5/1
f 50/5/1 38/5/1 37/5/1
f 51/5/1 38/5/1 50/5/1
f 54/5/1 42/5/1 41/5/1
f 55/5/1 48/5/1 47/5/1
f 56/5/1 52/5/1 51/5/1
f 56/5/1 51/5/1 50/5/1
f 56/5/1 50/5/1 49/5/1
f 57/5/1 52/5/1 56/5/1
f 58/5/1 54/5/1 53/5/1
f 59/5/1 55/5/1 47/5/1
f 59/5/1 58/5/1 57/5/1
f 59/5/1 57/5/1 56/5/1
f 59/5/1 47/5/1 33/5/1
f 59/5/1 56/5/1 55/5/1
f 60/5/1 58/5/1 59/5/1
f 61/5/1 58/5/1 60/5/1
f 62/5/1 58/5/1 61/5/1
f 63/5/1 58/5/1 62/5/1
f 64/5/1 58/5/1 63/5/1
f 65/5/1 54/5/1 58/5/1
f 65/5/1 58/5/1 64/5/1
f 66/5/1 42/5/1 54/5/1
f 66/5/1 54/5/1 65/5/1
f 67/5/1 61/5/1 60/5/1
f 68/5/1 61/5/1 67/5/1
f 69/5/1 61/5/1 68/5/1
f 70/5/1 61/5/1 69/5/1
f 72/5/1 71/5/1 70/5/1
f 73/5/1 71/5/1 72/5/1
f 75/5/1 74/5/1 73/5/1
f 76/5/1 74/5/1 75/5/1
f 77/5/1 63/5/1 62/5/1
f 78/5/1 63/5/1 77/5/1
f 79/5/1 65/5/1 64/5/1
f 80/5/1 78/5/1 77/5/1
f 80/5/1 79/5/1 78/5/1
f 80/5/1 77/5/1 76/5/1
f 81/5/1 65/5/1 79/5/1
f 81/5/1 79/5/1 80/5/1
f 86/4/1 83/4/1 82/4/1
f 87/4/1 83/4/1 86/4/1
f 88/4/1 83/4/1 87/4/1
f 89/4/1 83/4/1 88/4/1
f 90/4/1 83/4/1 89/4/1
f 91/4/1 83/4/1 90/4/1
f 92/4/1 85/4/1 84/4/1
f 93/4/1 85/4/1 92/4/1
f 96/8/1 95/8/1 94/8/1
f 97/8/1 95/8/1 96/8/1
f 99/8/1 98/8/1 97/8/1
f 100/8/1 98/8/1 99/8/1
f 102/8/1 101/8/1 100/8/1
f 103/8/1 101/8/1 102/8/1
f 105/8/1 104/8/1 103/8/1
f 106/8/1 104/8/1 105/8/1
f 109/5/1 108/5/1 107/5/1
f 110/5/1 108/5/1 109/5/1
f 116/8/1 112/8/1 111/8/1
f 117/8/1 112/8/1 116/8/1
f 120/8/1 114/8/1 113/8/1
f 121/8/1 114/8/1 120/8/1
f 123/8/1 118/8/1 117/8/1
f 123/8/1 116/8/1 115/8/1
f 123/8/1 117/8/1 116/8/1
f 124/8/1 118/8/1 123/8/1
f 125/8/1 122/8/1 121/8/1
f 125/8/1 121/8/1 120/8/1
f 125/8/1 120/8/1 119/8/1
f 126/8/1 122/8/1 125/8/1
f 127/8/2 128/8/2 132/8/2
f 132/8/2 128/8/2 133/8/2
f 129/8/2 130/8/2 136/8/2
f 136/8/2 130/8/2 137/8/2
f 133/8/2 134/8/2 139/8/2
f 131/8/2 132/8/2 139/8/2
f 132/8/2 133/8/2 139/8/2
f 139/8/2 134/8/2 140/8/2
f 137/8/2 138/8/2 141/8/2
f 136/8/2 137/8/2 141/8/2
f 135/8/2 136/8/2 141/8/2
f 141/8/2 138/8/2 142/8/2
f 143/5/2 144/5/2 145/5/2
f 145/5/2 144/5/2 146/5/2
f 147/8/2 148/8/2 149/8/2
f 149/8/2 148/8/2 150/8/2
f 150/8/2 151/8/2 152/8/2
f 152/8/2 151/8/2 153/8/2
f 153/8/2 154/8/2 155/8/2
f 155/8/2 154/8/2 156/8/2
f 156/8/2 157/8/2 158/8/2
f 158/8/2 157/8/2 159/8/2
f 160/4/2 161/4/2 164/4/2
f 164/4/2 161/4/2 165/4/2
f 165/4/2 161/4/2 166/4/2
f 166/4/2 161/4/2 167/4/2
f 167/4/2 161/4/2 168/4/2
f 168/4/2 161/4/2 169/4/2
f 162/4/2 163/4/2 170/4/2
f 170/4/2 163/4/2 171/4/2
f 174/5/2 175/5/2 182/5/2
f 182/5/2 175/5/2 183/5/2
f 178/5/2 179/5/2 184/5/2
f 184/5/2 179/5/2 185/5/2
f 172/5/2 173/5/2 186/5/2
f 176/5/2 177/5/2 189/5/2
f 189/5/2 177/5/2 190/5/2
f 180/5/2 181/5/2 193/5/2
f 186/5/2 187/5/2 194/5/2
f 190/5/2 191/5/2 195/5/2
f 189/5/2 190/5/2 195/5/2
f 188/5/2 189/5/2 195/5/2
f 195/5/2 191/5/2 196/5/2
f 192/5/2 193/5/2 197/5/2
f 186/5/2 194/5/2 198/5/2
f 196/5/2 197/5/2 198/5/2
f 195/5/2 196/5/2 198/5/2
f 172/5/2 186/5/2 198/5/2
f 194/5/2 195/5/2 198/5/2
f 198/5/2 197/5/2 199/5/2
f 199/5/2 197/5/2 200/5/2
f 200/5/2 197/5/2 201/5/2
f 201/5/2 197/5/2 202/5/2
f 202/5/2 197/5/2 203/5/2
f 197/5/2 193/5/2 204/5/2
f 203/5/2 197/5/2 204/5/2
f 193/5/2 181/5/2 205/5/2
f 204/5/2 193/5/2 205/5/2
f 199/5/2 200/5/2 206/5/2
f 206/5/2 200/5/2 207/5/2
f 207/5/2 200/5/2 208/5/2
f 208/5/2 200/5/2 209/5/2
f 209/5/2 210/5/2 211/5/2
f 211/5/2 210/5/2 212/5/2
f 212/5/2 213/5/2 214/5/2
f 214/5/2 213/5/2 215/5/2
f 201/5/2 202/5/2 216/5/2
f 216/5/2 202/5/2 217/5/2
f 203/5/2 204/5/2 218/5/2
f 216/5/2 217/5/2 219/5/2
f 217/5/2 218/5/2 219/5/2
f 215/5/2 216/5/2 219/5/2
f 218/5/2 204/5/2 220/5/2
f 219/5/2 218/5/2 220/5/2
f 221/8/2 222/8/2 226/8/2
f 226/8/2 222/8/2 227/8/2
f 223/8/2 224/8/2 230/8/2
f 230/8/2 224/8/2 231/8/2
f 227/8/2 228/8/2 233/8/2
f 225/8/2 226/8/2 233/8/2
f 226/8/2 227/8/2 233/8/2
f 233/8/2 228/8/2 234/8/2
f 231/8/2 232/8/2 235/8/2
f 230/8/2 231/8/2 235/8/2
f 229/8/2 230/8/2 235/8/2
f 235/8/2 232/8/2 236/8/2
f 225/8/2 233/8/2 237/8/2
f 234/8/2 228/8/2 238/8/2
f 229/8/2 235/8/2 239/8/2
f 236/8/2 232/8/2 240/8/2
f 225/8/2 237/8/2 241/8/2
f 237/8/2 238/8/2 241/8/2
f 241/8/2 238/8/2 242/8/2
f 238/8/2 228/8/2 243/8/2
f 242/8/2 238/8/2 243/8/2
f 243/8/2 228/8/2 244/8/2
f 239/8/2 240/8/2 245/8/2
f 229/8/2 239/8/2 245/8/2
f 245/8/2 240/8/2 246/8/2
f 240/8/2 232/8/2 247/8/2
f 246/8/2 240/8/2 247/8/2
f 247/8/2 232/8/2 248/8/2
f 242/8/2 243/8/2 249/8/2
f 249/8/2 243/8/2 250/8/2
f 246/8/2 247/8/2 251/8/2
f 251/8/2 247/8/2 252/8/2
f 255/5/3 254/5/3 253/5/3
f 256/5/3 254/5/3 255/5/3
f 257/5/3 255/5/3 253/5/3
f 257/2/3 256/2/3 255/2/3
f 258/5/3 254/5/3 256/5/3
f 258/2/3 256/2/3 257/2/3
f 259/5/3 257/5/3 253/5/3
f 259/5/3 258/5/3 257/5/3
f 260/5/3 254/5/3 258/5/3
f 260/5/3 258/5/3 259/5/3
f 261/5/3 259/5/3 253/5/3
f 261/8/3 260/8/3 259/8/3
f 262/5/3 254/5/3 260/5/3
f 262/8/3 260/8/3 261/8/3
f 263/5/3 261/5/3 253/5/3
f 263/5/3 262/5/3 261/5/3
f 264/5/3 254/5/3 262/5/3
f 264/5/3 262/5/3 263/5/3
f 265/5/3 263/5/3 253/5/3
f 265/2/3 264/2/3 263/2/3
f 266/5/3 254/5/3 264/5/3
f 266/2/3 264/2/3 265/2/3
f 267/5/3 265/5/3 253/5/3
f 267/5/3 266/5/3 265/5/3
f 268/5/3 254/5/3 266/5/3
f 268/5/3 266/5/3 267/5/3
f 271/8/3 270/8/3 269/8/3
f 272/8/3 270/8/3 271/8/3
f 273/8/3 270/8/3 272/8/3
f 277/8/3 275/8/3 274/8/3
f 277/8/3 276/8/3 275/8/3
f 278/8/3 276/8/3 277/8/3
f 283/8/3 280/8/3 279/8/3
f 284/8/3 280/8/3 283/8/3
f 285/8/3 282/8/3 281/8/3
f 286/8/3 282/8/3 285/8/3
f 289/5/3 288/5/3 287/5/3
f 290/5/3 288/5/3 289/5/3
f 291/8/3 290/8/3 289/8/3
f 292/8/3 290/8/3 291/8/3
f 297/5/3 292/5/3 291/5/3
f 298/5/3 292/5/3 297/5/3
f 299/8/3 294/8/3 293/8/3
f 300/8/3 294/8/3 299/8/3
f 301/8/3 296/8/3 295/8/3
f 302/8/3 296/8/3 301/8/3
f 305/5/3 304/5/3 303/5/3
f 306/5/3 304/5/3 305/5/3
f 307/4/3 306/4/3 305/4/3
f 308/4/3 306/4/3 307/4/3
f 309/5/3 308/5/3 307/5/3
f 310/5/3 308/5/3 309/5/3
f 313/8/3 312/8/3 311/8/3
f 314/8/3 312/8/3 313/8/3
f 317/5/3 316/5/3 315/5/3
f 318/5/3 316/5/3 317/5/3
f 319/4/3 318/4/3 317/4/3
f 320/4/3 318/4/3 319/4/3
f 323/5/3 320/5/3 319/5/3
f 324/5/3 320/5/3 323/5/3
f 325/8/3 322/8/3 321/8/3
f 326/8/3 322/8/3 325/8/3
f 329/5/3 328/5/3 327/5/3
f 330/5/3 328/5/3 329/5/3
f 331/4/3 330/4/3 329/4/3
f 332/4/3 330/4/3 331/4/3
f 333/5/3 332/5/3 331/5/3
f 334/5/3 332/5/3 333/5/3
f 337/5/3 336/5/3 335/5/3
f 338/5/3 336/5/3 337/5/3
f 339/5/3 336/5/3 338/5/3
f 340/5/3 336/5/3 339/5/3
f 343/8/3 342/8/3 341/8/3
f 344/8/3 342/8/3 343/8/3
f 347/8/3 346/8/3 345/8/3
f 348/8/3 346/8/3 347/8/3
f 351/5/3 350/5/3 349/5/3
f 352/5/3 350/5/3 351/5/3
f 355/8/3 354/8/3 353/8/3
f 356/8/3 354/8/3 355/8/3
f 359/5/3 358/5/3 357/5/3
f 360/5/3 358/5/3 359/5/3
f 363/8/3 362/8/3 361/8/3
f 364/8/3 362/8/3 363/8/3
f 367/8/3 366/8/3 365/8/3
f 368/8/3 366/8/3 367/8/3
f 369/8/3 366/8/3 368/8/3
f 373/8/3 371/8/3 370/8/3
f 373/8/3 372/8/3 371/8/3
f 374/8/3 372/8/3 373/8/3
f 379/8/3 376/8/3 375/8/3
f 380/8/3 376/8/3 379/8/3
f 381/8/3 378/8/3 377/8/3
f 382/8/3 378/8/3 381/8/3
f 387/8/3 384/8/3 383/8/3
f 388/8/3 384/8/3 387/8/3
f 389/8/3 386/8/3 385/8/3
f 390/8/3 386/8/3 389/8/3
f 393/5/3 392/5/3 391/5/3
f 394/5/3 392/5/3 393/5/3
f 397/5/3 396/5/3 395/5/3
f 398/5/3 396/5/3 397/5/3
f 401/8/3 400/8/3 399/8/3
f 402/8/3 400/8/3 401/8/3
f 405/8/3 404/8/3 403/8/3
f 406/8/3 404/8/3 405/8/3
f 407/8/4 408/8/4 409/8/4
f 409/8/4 408/8/4 410/8/4
f 411/8/4 412/8/4 413/8/4
f 413/8/4 412/8/4 414/8/4
f 415/5/4 416/5/4 417/5/4
f 417/5/4 416/5/4 418/5/4
f 419/5/4 420/5/4 421/5/4
f 421/5/4 420/5/4 422/5/4
f 423/8/4 424/8/4 427/8/4
f 427/8/4 424/8/4 428/8/4
f 425/8/4 426/8/4 429/8/4
f 429/8/4 426/8/4 430/8/4
f 431/5/4 432/5/4 433/5/4
f 433/5/4 432/5/4 434/5/4
f 435/5/4 436/5/4 441/5/4
f 441/5/4 436/5/4 442/5/4
f 437/8/4 438/8/4 443/8/4
f 443/8/4 438/8/4 444/8/4
f 439/8/4 440/8/4 445/8/4
f 445/8/4 440/8/4 446/8/4
f 447/8/4 448/8/4 449/8/4
f 449/8/4 448/8/4 450/8/4
f 450/8/4 448/8/4 451/8/4
f 452/5/4 453/5/4 454/5/4
f 454/5/4 453/5/4 455/5/4
f 456/5/4 457/5/4 461/5/4
f 461/5/4 457/5/4 462/5/4
f 459/8/4 460/8/4 463/8/4
f 458/8/4 459/8/4 463/8/4
f 463/8/4 460/8/4 464/8/4
f 465/8/4 466/8/4 467/8/4
f 467/8/4 466/8/4 468/8/4
f 469/8/4 470/8/4 471/8/4
f 471/8/4 470/8/4 472/8/4
f 473/5/4 474/5/4 475/5/4
f 475/5/4 474/5/4 476/5/4
f 477/8/4 478/8/4 479/8/4
f 479/8/4 478/8/4 480/8/4
f 481/5/4 482/5/4 483/5/4
f 483/5/4 482/5/4 484/5/4
f 485/8/4 486/8/4 487/8/4
f 487/8/4 486/8/4 488/8/4
f 489/8/4 490/8/4 491/8/4
f 491/8/4 490/8/4 492/8/4
f 493/8/4 494/8/4 495/8/4
f 495/8/4 494/8/4 496/8/4
f 497/4/4 498/4/4 499/4/4
f 499/4/4 498/4/4 500/4/4
f 501/8/4 502/8/4 505/8/4
f 505/8/4 502/8/4 506/8/4
f 503/8/4 504/8/4 507/8/4
f 507/8/4 504/8/4 508/8/4
f 509/5/4 510/5/4 511/5/4
f 511/5/4 510/5/4 512/5/4
f 512/5/4 510/5/4 514/5/4
f 513/5/4 514/5/4 519/5/4
f 514/5/4 510/5/4 520/5/4
f 519/5/4 514/5/4 520/5/4
f 515/8/4 516/8/4 521/8/4
f 521/8/4 516/8/4 522/8/4
f 517/8/4 518/8/4 523/8/4
f 523/8/4 518/8/4 524/8/4
f 525/8/4 526/8/4 527/8/4
f 527/8/4 526/8/4 528/8/4
f 528/8/4 526/8/4 529/8/4
f 530/8/4 531/8/4 533/8/4
f 531/8/4 532/8/4 533/8/4
f 533/8/4 532/8/4 534/8/4
f 535/5/4 536/5/4 537/5/4
f 537/5/4 536/5/4 538/5/4
f 538/5/4 536/5/4 539/5/4
f 535/5/4 537/5/4 540/5/4
f 537/1/4 538/1/4 540/1/4
f 538/2/4 539/2/4 541/2/4
f 540/1/4 538/1/4 541/1/4
f 539/5/4 536/5/4 542/5/4
f 541/2/4 539/2/4 542/2/4
f 540/5/4 541/5/4 543/5/4
f 535/5/4 540/5/4 543/5/4
f 541/5/4 542/5/4 543/5/4
f 543/5/4 542/5/4 544/5/4
f 542/5/4 536/5/4 545/5/4
f 544/5/4 542/5/4 545/5/4
f 543/1/4 544/1/4 546/1/4
f 535/5/4 543/5/4 546/5/4
f 544/2/4 545/2/4 547/2/4
f 546/1/4 544/1/4 547/1/4
f 545/5/4 536/5/4 548/5/4
f 547/2/4 545/2/4 548/2/4
f 546/5/4 547/5/4 549/5/4
f 535/5/4 546/5/4 549/5/4
f 547/5/4 548/5/4 549/5/4
f 548/5/4 536/5/4 550/5/4
f 549/5/4 548/5/4 550/5/4
f 555/8/5 552/8/5 551/8/5
f 556/8/5 552/8/5 555/8/5
f 557/8/5 554/8/5 553/8/5
f 558/8/5 554/8/5 557/8/5
f 563/8/5 560/8/5 559/8/5
f 564/8/5 560/8/5 563/8/5
f 565/8/5 562/8/5 561/8/5
f 566/8/5 562/8/5 565/8/5
f 571/8/5 568/8/5 567/8/5
f 572/8/5 568/8/5 571/8/5
f 573/8/5 570/8/5 569/8/5
f 574/8/5 570/8/5 573/8/5
f 579/8/5 576/8/5 575/8/5
f 580/8/5 576/8/5 579/8/5
f 581/8/5 578/8/5 577/8/5
f 582/8/5 578/8/5 581/8/5
f 587/8/5 584/8/5 583/8/5
f 588/8/5 584/8/5 587/8/5
f 589/8/5 586/8/5 585/8/5
f 590/8/5 586/8/5 589/8/5
f 595/8/5 592/8/5 591/8/5
f 596/8/5 592/8/5 595/8/5
f 597/8/5 594/8/5 593/8/5
f 598/8/5 594/8/5 597/8/5
f 601/5/5 600/5/5 599/5/5
f 602/5/5 600/5/5 601/5/5
f 603/5/5 602/5/5 601/5/5
f 604/5/5 602/5/5 603/5/5
f 605/5/5 604/5/5 603/5/5
f 606/5/5 604/5/5 605/5/5
f 607/5/5 606/5/5 605/5/5
f 608/5/5 606/5/5 607/5/5
f 609/5/5 608/5/5 607/5/5
f 610/5/5 608/5/5 609/5/5
f 615/8/5 612/8/5 611/8/5
f 616/8/5 612/8/5 615/8/5
f 617/8/5 614/8/5 613/8/5
f 618/8/5 614/8/5 617/8/5
f 623/8/5 620/8/5 619/8/5
f 624/8/5 620/8/5 623/8/5
f 625/8/5 622/8/5 621/8/5
f 626/8/5 622/8/5 625/8/5
f 631/5/5 628/5/5 627/5/5
f 632/5/5 628/5/5 631/5/5
f 633/5/5 630/5/5 629/5/5
f 634/5/5 630/5/5 633/5/5
f 639/5/5 636/5/5 635/5/5
f 640/5/5 636/5/5 639/5/5
f 641/5/5 638/5/5 637/5/5
f 642/5/5 638/5/5 641/5/5
f 647/5/5 644/5/5 643/5/5
f 648/5/5 644/5/5 647/5/5
f 649/5/5 646/5/5 645/5/5
f 650/5/5 646/5/5 649/5/5
f 655/5/5 652/5/5 651/5/5
f 656/5/5 652/5/5 655/5/5
f 657/5/5 654/5/5 653/5/5
f 658/5/5 654/5/5 657/5/5
f 661/5/5 660/5/5 659/5/5
f 662/5/5 660/5/5 661/5/5
f 665/8/5 664/8/5 663/8/5
f 666/8/5 664/8/5 665/8/5
f 669/8/5 668/8/5 667/8/5
f 670/8/5 668/8/5 669/8/5
f 673/8/5 672/8/5 671/8/5
f 674/8/5 672/8/5 673/8/5
f 675/8/6 676/8/6 679/8/6
f 679/8/6 676/8/6 680/8/6
f 677/8/6 678/8/6 681/8/6
f 681/8/6 678/8/6 682/8/6
f 683/8/6 684/8/6 687/8/6
f 687/8/6 684/8/6 688/8/6
f 685/8/6 686/8/6 689/8/6
f 689/8/6 686/8/6 690/8/6
f 691/8/6 692/8/6 695/8/6
f 695/8/6 692/8/6 696/8/6
f 693/8/6 694/8/6 697/8/6
f 697/8/6 694/8/6 698/8/6
f 699/8/6 700/8/6 703/8/6
f 703/8/6 700/8/6 704/8/6
f 701/8/6 702/8/6 705/8/6
f 705/8/6 702/8/6 706/8/6
f 707/8/6 708/8/6 711/8/6
f 711/8/6 708/8/6 712/8/6
f 709/8/6 710/8/6 713/8/6
f 713/8/6 710/8/6 714/8/6
f 715/8/6 716/8/6 719/8/6
f 719/8/6 716/8/6 720/8/6
f 717/8/6 718/8/6 721/8/6
f 721/8/6 718/8/6 722/8/6
f 723/8/6 724/8/6 727/8/6
f 727/8/6 724/8/6 728/8/6
f 725/8/6 726/8/6 729/8/6
f 729/8/6 726/8/6 730/8/6
f 731/8/6 732/8/6 735/8/6
f 735/8/6 732/8/6 736/8/6
f 733/8/6 734/8/6 737/8/6
f 737/8/6 734/8/6 738/8/6
f 739/5/6 740/5/6 741/5/6
f 741/5/6 740/5/6 742/5/6
f 742/5/6 740/5/6 743/5/6
f 743/5/6 740/5/6 744/5/6
f 745/5/6 746/5/6 749/5/6
f 749/5/6 746/5/6 750/5/6
f 747/5/6 748/5/6 751/5/6
f 751/5/6 748/5/6 752/5/6
f 753/5/6 754/5/6 757/5/6
f 757/5/6 754/5/6 758/5/6
f 755/5/6 756/5/6 759/5/6
f 759/5/6 756/5/6 760/5/6
f 761/5/6 762/5/6 764/5/6
f 764/5/6 762/5/6 765/5/6
f 763/5/6 764/5/6 767/5/6
f 765/5/6 766/5/6 767/5/6
f 764/5/6 765/5/6 767/5/6
f 767/5/6 766/5/6 768/5/6
f 769/5/6 770/5/6 773/5/6
f 770/8/6 771/8/6 774/8/6
f 773/5/6 770/5/6 774/5/6
f 771/5/6 772/5/6 775/5/6
f 774/8/6 771/8/6 775/8/6
f 775/5/6 772/5/6 776/5/6
f 777/5/6 778/5/6 781/5/6
f 778/4/6 779/4/6 782/4/6
f 781/5/6 778/5/6 782/5/6
f 779/5/6 780/5/6 783/5/6
f 782/4/6 779/4/6 783/4/6
f 783/5/6 780/5/6 784/5/6
f 785/5/6 786/5/6 789/5/6
f 786/4/6 787/4/6 790/4/6
f 789/5/6 786/5/6 790/5/6
f 787/5/6 788/5/6 791/5/6
f 790/4/6 787/4/6 791/4/6
f 791/5/6 788/5/6 792/5/6
f 793/5/6 794/5/6 797/5/6
f 794/4/6 795/4/6 798/4/6
f 797/5/6 794/5/6 798/5/6
f 795/5/6 796/5/6 799/5/6
f 798/4/6 795/4/6 799/4/6
f 799/5/6 796/5/6 800/5/6
f 801/5/6 802/5/6 803/5/6
f 803/5/6 802/5/6 804/5/6
f 801/5/6 803/5/6 805/5/6
f 804/5/6 802/5/6 806/5/6
f 801/5/6 805/5/6 807/5/6
f 805/5/6 806/5/6 807/5/6
f 806/5/6 802/5/6 808/5/6
f 807/5/6 806/5/6 808/5/6
f 809/8/6 810/8/6 811/8/6
f 811/8/6 810/8/6 812/8/6
f 813/8/6 814/8/6 815/8/6
f 815/8/6 814/8/6 816/8/6
f 817/8/6 818/8/6 819/8/6
f 819/8/6 818/8/6 820/8/6
f 821/8/6 822/8/6 823/8/6
f 823/8/6 822/8/6 824/8/6
