# MagicaVoxel @ Ephtracy

# group
g truck-2

# material
mtllib truck-2.mtl
usemtl palette

# normals
vn -1 0 0
vn 1 0 0
vn 0 0 1
vn 0 0 -1
vn 0 -1 0
vn 0 1 0

# texcoords
vt 0.0605469 0.5
vt 0.0917969 0.5
vt 0.306641 0.5
vt 0.587891 0.5
vt 0.958984 0.5
vt 0.978516 0.5
vt 0.986328 0.5
vt 0.994141 0.5

# verts
v -11 2 12
v -11 2 9
v -11 2 -3
v -11 2 -6
v -11 3 13
v -11 3 12
v -11 3 9
v -11 3 8
v -11 3 -2
v -11 3 -3
v -11 3 -6
v -11 3 -7
v -11 4 11
v -11 4 10
v -11 4 -4
v -11 4 -5
v -11 5 11
v -11 5 10
v -11 5 -4
v -11 5 -5
v -11 6 13
v -11 6 12
v -11 6 9
v -11 6 8
v -11 6 -2
v -11 6 -3
v -11 6 -6
v -11 6 -7
v -11 7 12
v -11 7 9
v -11 7 -3
v -11 7 -6
v -10 4 17
v -10 4 13
v -10 4 11
v -10 4 10
v -10 4 8
v -10 4 -2
v -10 4 -4
v -10 4 -5
v -10 4 -7
v -10 4 -11
v -10 5 11
v -10 5 10
v -10 5 -4
v -10 5 -5
v -10 6 13
v -10 6 12
v -10 6 9
v -10 6 8
v -10 6 -2
v -10 6 -3
v -10 6 -6
v -10 6 -7
v -10 7 12
v -10 7 9
v -10 7 -3
v -10 7 -6
v -10 9 17
v -10 9 12
v -10 9 10
v -10 9 4
v -10 9 3
v -10 9 -4
v -10 9 -6
v -10 9 -11
v -10 10 12
v -10 10 11
v -10 11 11
v -10 11 10
v -10 11 9
v -10 13 10
v -10 13 9
v -10 13 8
v -10 15 9
v -10 15 8
v -10 15 4
v -10 15 3
v -10 15 -4
v -10 16 8
v -10 16 -6
v -9 9 10
v -9 9 4
v -9 9 3
v -9 9 -4
v -9 11 10
v -9 11 9
v -9 13 9
v -9 13 8
v -9 15 8
v -9 15 4
v -9 15 3
v -9 15 -4
v -4 16 6
v -4 16 5
v -4 17 6
v -4 17 5
v -4 17 4
v -4 18 5
v -4 18 4
v -4 18 3
v -4 19 4
v -4 19 3
v -4 19 2
v -4 20 3
v -4 20 2
v 1 9 -5
v 1 9 -6
v 1 15 -5
v 1 15 -6
v 2 2 12
v 2 2 9
v 2 2 -3
v 2 2 -6
v 2 3 13
v 2 3 12
v 2 3 9
v 2 3 8
v 2 3 -2
v 2 3 -3
v 2 3 -6
v 2 3 -7
v 2 4 13
v 2 4 8
v 2 4 -2
v 2 4 -7
v -10 2 12
v -10 2 9
v -10 2 -3
v -10 2 -6
v -10 3 13
v -10 3 12
v -10 3 9
v -10 3 8
v -10 3 -2
v -10 3 -3
v -10 3 -6
v -10 3 -7
v -10 4 13
v -10 4 8
v -10 4 -2
v -10 4 -7
v -9 9 -5
v -9 9 -6
v -9 15 -5
v -9 15 -6
v -3 16 6
v -3 16 5
v -3 17 6
v -3 17 5
v -3 17 4
v -3 18 5
v -3 18 4
v -3 18 3
v -3 19 4
v -3 19 3
v -3 19 2
v -3 20 3
v -3 20 2
v 1 9 10
v 1 9 4
v 1 9 3
v 1 9 -4
v 1 11 10
v 1 11 9
v 1 13 9
v 1 13 8
v 1 15 8
v 1 15 4
v 1 15 3
v 1 15 -4
v 2 4 17
v 2 4 13
v 2 4 11
v 2 4 10
v 2 4 8
v 2 4 -2
v 2 4 -4
v 2 4 -5
v 2 4 -7
v 2 4 -11
v 2 5 11
v 2 5 10
v 2 5 -4
v 2 5 -5
v 2 6 13
v 2 6 12
v 2 6 9
v 2 6 8
v 2 6 -2
v 2 6 -3
v 2 6 -6
v 2 6 -7
v 2 7 12
v 2 7 9
v 2 7 -3
v 2 7 -6
v 2 9 17
v 2 9 12
v 2 9 10
v 2 9 4
v 2 9 3
v 2 9 -4
v 2 9 -6
v 2 9 -11
v 2 10 12
v 2 10 11
v 2 11 11
v 2 11 10
v 2 11 9
v 2 13 10
v 2 13 9
v 2 13 8
v 2 15 9
v 2 15 8
v 2 15 4
v 2 15 3
v 2 15 -4
v 2 16 8
v 2 16 -6
v 3 2 12
v 3 2 9
v 3 2 -3
v 3 2 -6
v 3 3 13
v 3 3 12
v 3 3 9
v 3 3 8
v 3 3 -2
v 3 3 -3
v 3 3 -6
v 3 3 -7
v 3 4 11
v 3 4 10
v 3 4 -4
v 3 4 -5
v 3 5 11
v 3 5 10
v 3 5 -4
v 3 5 -5
v 3 6 13
v 3 6 12
v 3 6 9
v 3 6 8
v 3 6 -2
v 3 6 -3
v 3 6 -6
v 3 6 -7
v 3 7 12
v 3 7 9
v 3 7 -3
v 3 7 -6
v -10 4 17
v -10 9 17
v -9 6 17
v -9 8 17
v -8 6 17
v -8 8 17
v -7 6 17
v -7 8 17
v -1 6 17
v -1 8 17
v 0 6 17
v 0 8 17
v 1 6 17
v 1 8 17
v 2 4 17
v 2 9 17
v -11 3 13
v -11 6 13
v -10 3 13
v -10 4 13
v -10 6 13
v 2 3 13
v 2 4 13
v 2 6 13
v 3 3 13
v 3 6 13
v -11 2 12
v -11 3 12
v -11 6 12
v -11 7 12
v -10 2 12
v -10 3 12
v -10 6 12
v -10 7 12
v -10 9 12
v -10 10 12
v -9 9 12
v -9 10 12
v 1 9 12
v 1 10 12
v 2 2 12
v 2 3 12
v 2 6 12
v 2 7 12
v 2 9 12
v 2 10 12
v 3 2 12
v 3 3 12
v 3 6 12
v 3 7 12
v -10 10 11
v -10 11 11
v -9 10 11
v -9 11 11
v 1 10 11
v 1 11 11
v 2 10 11
v 2 11 11
v -11 4 10
v -11 5 10
v -10 4 10
v -10 5 10
v -10 11 10
v -10 13 10
v -9 11 10
v -9 13 10
v 1 11 10
v 1 13 10
v 2 4 10
v 2 5 10
v 2 11 10
v 2 13 10
v 3 4 10
v 3 5 10
v -10 13 9
v -10 15 9
v -9 13 9
v -9 15 9
v 1 13 9
v 1 15 9
v 2 13 9
v 2 15 9
v -10 15 8
v -10 16 8
v -9 15 8
v 1 15 8
v 2 15 8
v 2 16 8
v -4 16 6
v -4 17 6
v -3 16 6
v -3 17 6
v -4 17 5
v -4 18 5
v -3 17 5
v -3 18 5
v -10 9 4
v -10 15 4
v -9 9 4
v -9 15 4
v -4 18 4
v -4 19 4
v -3 18 4
v -3 19 4
v 1 9 4
v 1 15 4
v 2 9 4
v 2 15 4
v -4 19 3
v -4 20 3
v -3 19 3
v -3 20 3
v -11 3 -2
v -11 6 -2
v -10 3 -2
v -10 4 -2
v -10 6 -2
v 2 3 -2
v 2 4 -2
v 2 6 -2
v 3 3 -2
v 3 6 -2
v -11 2 -3
v -11 3 -3
v -11 6 -3
v -11 7 -3
v -10 2 -3
v -10 3 -3
v -10 6 -3
v -10 7 -3
v 2 2 -3
v 2 3 -3
v 2 6 -3
v 2 7 -3
v 3 2 -3
v 3 3 -3
v 3 6 -3
v 3 7 -3
v -10 9 -4
v -10 15 -4
v -9 9 -4
v -9 15 -4
v 1 9 -4
v 1 15 -4
v 2 9 -4
v 2 15 -4
v -11 4 -5
v -11 5 -5
v -10 4 -5
v -10 5 -5
v 2 4 -5
v 2 5 -5
v 3 4 -5
v 3 5 -5
v -11 4 11
v -11 5 11
v -10 4 11
v -10 5 11
v 2 4 11
v 2 5 11
v 3 4 11
v 3 5 11
v -10 9 10
v -10 11 10
v -9 9 10
v -9 11 10
v 1 9 10
v 1 11 10
v 2 9 10
v 2 11 10
v -11 2 9
v -11 3 9
v -11 6 9
v -11 7 9
v -10 2 9
v -10 3 9
v -10 6 9
v -10 7 9
v -10 11 9
v -10 13 9
v -9 11 9
v -9 13 9
v 1 11 9
v 1 13 9
v 2 2 9
v 2 3 9
v 2 6 9
v 2 7 9
v 2 11 9
v 2 13 9
v 3 2 9
v 3 3 9
v 3 6 9
v 3 7 9
v -11 3 8
v -11 6 8
v -10 3 8
v -10 4 8
v -10 6 8
v -10 13 8
v -10 15 8
v -9 13 8
v -9 15 8
v 1 13 8
v 1 15 8
v 2 3 8
v 2 4 8
v 2 6 8
v 2 13 8
v 2 15 8
v 3 3 8
v 3 6 8
v -4 16 5
v -4 17 5
v -3 16 5
v -3 17 5
v -4 17 4
v -4 18 4
v -3 17 4
v -3 18 4
v -10 9 3
v -10 15 3
v -9 9 3
v -9 15 3
v -4 18 3
v -4 19 3
v -3 18 3
v -3 19 3
v 1 9 3
v 1 15 3
v 2 9 3
v 2 15 3
v -4 19 2
v -4 20 2
v -3 19 2
v -3 20 2
v -11 4 -4
v -11 5 -4
v -10 4 -4
v -10 5 -4
v 2 4 -4
v 2 5 -4
v 3 4 -4
v 3 5 -4
v -9 9 -5
v -9 15 -5
v 1 9 -5
v 1 15 -5
v -11 2 -6
v -11 3 -6
v -11 6 -6
v -11 7 -6
v -10 2 -6
v -10 3 -6
v -10 6 -6
v -10 7 -6
v -10 9 -6
v -10 16 -6
v -9 9 -6
v -9 15 -6
v 1 9 -6
v 1 15 -6
v 2 2 -6
v 2 3 -6
v 2 6 -6
v 2 7 -6
v 2 9 -6
v 2 16 -6
v 3 2 -6
v 3 3 -6
v 3 6 -6
v 3 7 -6
v -11 3 -7
v -11 6 -7
v -10 3 -7
v -10 4 -7
v -10 6 -7
v 2 3 -7
v 2 4 -7
v 2 6 -7
v 3 3 -7
v 3 6 -7
v -10 4 -11
v -10 9 -11
v -9 5 -11
v -9 6 -11
v -9 7 -11
v -8 5 -11
v -8 6 -11
v -8 7 -11
v 0 5 -11
v 0 6 -11
v 0 7 -11
v 1 5 -11
v 1 6 -11
v 1 7 -11
v 2 4 -11
v 2 9 -11
v -11 2 12
v -10 2 12
v 2 2 12
v 3 2 12
v -11 2 9
v -10 2 9
v 2 2 9
v 3 2 9
v -11 2 -3
v -10 2 -3
v 2 2 -3
v 3 2 -3
v -11 2 -6
v -10 2 -6
v 2 2 -6
v 3 2 -6
v -11 3 13
v -10 3 13
v 2 3 13
v 3 3 13
v -11 3 12
v -10 3 12
v 2 3 12
v 3 3 12
v -11 3 9
v -10 3 9
v 2 3 9
v 3 3 9
v -11 3 8
v -10 3 8
v 2 3 8
v 3 3 8
v -11 3 -2
v -10 3 -2
v 2 3 -2
v 3 3 -2
v -11 3 -3
v -10 3 -3
v 2 3 -3
v 3 3 -3
v -11 3 -6
v -10 3 -6
v 2 3 -6
v 3 3 -6
v -11 3 -7
v -10 3 -7
v 2 3 -7
v 3 3 -7
v -10 4 17
v 2 4 17
v -10 4 13
v 2 4 13
v -10 4 8
v 2 4 8
v -10 4 -2
v 2 4 -2
v -10 4 -7
v 2 4 -7
v -10 4 -11
v 2 4 -11
v -11 5 11
v -10 5 11
v 2 5 11
v 3 5 11
v -11 5 10
v -10 5 10
v 2 5 10
v 3 5 10
v -11 5 -4
v -10 5 -4
v 2 5 -4
v 3 5 -4
v -11 5 -5
v -10 5 -5
v 2 5 -5
v 3 5 -5
v -10 11 10
v -9 11 10
v 1 11 10
v 2 11 10
v -10 11 9
v -9 11 9
v 1 11 9
v 2 11 9
v -10 13 9
v -9 13 9
v 1 13 9
v 2 13 9
v -10 13 8
v -9 13 8
v 1 13 8
v 2 13 8
v -10 15 8
v -9 15 8
v 1 15 8
v 2 15 8
v -10 15 4
v -9 15 4
v 1 15 4
v 2 15 4
v -10 15 3
v -9 15 3
v 1 15 3
v 2 15 3
v -10 15 -4
v -9 15 -4
v 1 15 -4
v 2 15 -4
v -9 15 -5
v 1 15 -5
v -9 15 -6
v 1 15 -6
v -4 17 5
v -3 17 5
v -4 17 4
v -3 17 4
v -4 18 4
v -3 18 4
v -4 18 3
v -3 18 3
v -4 19 3
v -3 19 3
v -4 19 2
v -3 19 2
v -11 4 11
v -10 4 11
v 2 4 11
v 3 4 11
v -11 4 10
v -10 4 10
v 2 4 10
v 3 4 10
v -11 4 -4
v -10 4 -4
v 2 4 -4
v 3 4 -4
v -11 4 -5
v -10 4 -5
v 2 4 -5
v 3 4 -5
v -11 6 13
v -10 6 13
v 2 6 13
v 3 6 13
v -11 6 12
v -10 6 12
v 2 6 12
v 3 6 12
v -11 6 9
v -10 6 9
v 2 6 9
v 3 6 9
v -11 6 8
v -10 6 8
v 2 6 8
v 3 6 8
v -11 6 -2
v -10 6 -2
v 2 6 -2
v 3 6 -2
v -11 6 -3
v -10 6 -3
v 2 6 -3
v 3 6 -3
v -11 6 -6
v -10 6 -6
v 2 6 -6
v 3 6 -6
v -11 6 -7
v -10 6 -7
v 2 6 -7
v 3 6 -7
v -11 7 12
v -10 7 12
v 2 7 12
v 3 7 12
v -11 7 9
v -10 7 9
v 2 7 9
v 3 7 9
v -11 7 -3
v -10 7 -3
v 2 7 -3
v 3 7 -3
v -11 7 -6
v -10 7 -6
v 2 7 -6
v 3 7 -6
v -10 9 17
v 2 9 17
v -10 9 12
v -9 9 12
v 1 9 12
v 2 9 12
v -10 9 10
v -9 9 10
v 1 9 10
v 2 9 10
v -10 9 4
v -9 9 4
v 1 9 4
v 2 9 4
v -10 9 3
v -9 9 3
v 1 9 3
v 2 9 3
v -10 9 -4
v -9 9 -4
v 1 9 -4
v 2 9 -4
v -9 9 -5
v 1 9 -5
v -10 9 -6
v -9 9 -6
v 1 9 -6
v 2 9 -6
v -10 9 -11
v 2 9 -11
v -10 10 12
v -9 10 12
v 1 10 12
v 2 10 12
v -10 10 11
v -9 10 11
v 1 10 11
v 2 10 11
v -10 11 11
v -9 11 11
v 1 11 11
v 2 11 11
v -10 11 10
v -9 11 10
v 1 11 10
v 2 11 10
v -10 13 10
v -9 13 10
v 1 13 10
v 2 13 10
v -10 13 9
v -9 13 9
v 1 13 9
v 2 13 9
v -10 15 9
v -9 15 9
v 1 15 9
v 2 15 9
v -10 15 8
v -9 15 8
v 1 15 8
v 2 15 8
v -10 16 8
v 2 16 8
v -4 16 6
v -3 16 6
v -4 16 5
v -3 16 5
v -10 16 -6
v 2 16 -6
v -4 17 6
v -3 17 6
v -4 17 5
v -3 17 5
v -4 18 5
v -3 18 5
v -4 18 4
v -3 18 4
v -4 19 4
v -3 19 4
v -4 19 3
v -3 19 3
v -4 20 3
v -3 20 3
v -4 20 2
v -3 20 2

# faces
f 6/8/1 2/8/1 1/8/1
f 7/8/1 2/8/1 6/8/1
f 10/8/1 4/8/1 3/8/1
f 11/8/1 4/8/1 10/8/1
f 13/8/1 8/8/1 7/8/1
f 13/8/1 6/8/1 5/8/1
f 13/8/1 7/8/1 6/8/1
f 14/8/1 8/8/1 13/8/1
f 15/8/1 12/8/1 11/8/1
f 15/8/1 11/8/1 10/8/1
f 15/8/1 10/8/1 9/8/1
f 16/8/1 12/8/1 15/8/1
f 17/8/1 13/8/1 5/8/1
f 18/8/1 8/8/1 14/8/1
f 19/8/1 15/8/1 9/8/1
f 20/8/1 12/8/1 16/8/1
f 21/8/1 17/8/1 5/8/1
f 21/8/1 18/8/1 17/8/1
f 22/8/1 18/8/1 21/8/1
f 23/8/1 8/8/1 18/8/1
f 23/8/1 18/8/1 22/8/1
f 24/8/1 8/8/1 23/8/1
f 25/8/1 20/8/1 19/8/1
f 25/8/1 19/8/1 9/8/1
f 26/8/1 20/8/1 25/8/1
f 27/8/1 12/8/1 20/8/1
f 27/8/1 20/8/1 26/8/1
f 28/8/1 12/8/1 27/8/1
f 29/8/1 23/8/1 22/8/1
f 30/8/1 23/8/1 29/8/1
f 31/8/1 27/8/1 26/8/1
f 32/8/1 27/8/1 31/8/1
f 43/7/1 36/7/1 35/7/1
f 44/7/1 36/7/1 43/7/1
f 45/7/1 40/7/1 39/7/1
f 46/7/1 40/7/1 45/7/1
f 47/7/1 34/7/1 33/7/1
f 50/7/1 38/7/1 37/7/1
f 51/7/1 38/7/1 50/7/1
f 54/7/1 42/7/1 41/7/1
f 55/7/1 48/7/1 47/7/1
f 56/7/1 52/7/1 51/7/1
f 56/7/1 51/7/1 50/7/1
f 56/7/1 50/7/1 49/7/1
f 57/7/1 52/7/1 56/7/1
f 58/7/1 54/7/1 53/7/1
f 59/7/1 55/7/1 47/7/1
f 59/7/1 58/7/1 57/7/1
f 59/7/1 57/7/1 56/7/1
f 59/7/1 47/7/1 33/7/1
f 59/7/1 56/7/1 55/7/1
f 60/7/1 58/7/1 59/7/1
f 61/7/1 58/7/1 60/7/1
f 62/7/1 58/7/1 61/7/1
f 63/7/1 58/7/1 62/7/1
f 64/7/1 58/7/1 63/7/1
f 65/7/1 54/7/1 58/7/1
f 65/7/1 58/7/1 64/7/1
f 66/7/1 42/7/1 54/7/1
f 66/7/1 54/7/1 65/7/1
f 67/7/1 61/7/1 60/7/1
f 68/7/1 61/7/1 67/7/1
f 69/7/1 61/7/1 68/7/1
f 70/7/1 61/7/1 69/7/1
f 72/7/1 71/7/1 70/7/1
f 73/7/1 71/7/1 72/7/1
f 75/7/1 74/7/1 73/7/1
f 76/7/1 74/7/1 75/7/1
f 77/7/1 63/7/1 62/7/1
f 78/7/1 63/7/1 77/7/1
f 79/7/1 65/7/1 64/7/1
f 80/7/1 78/7/1 77/7/1
f 80/7/1 79/7/1 78/7/1
f 80/7/1 77/7/1 76/7/1
f 81/7/1 65/7/1 79/7/1
f 81/7/1 79/7/1 80/7/1
f 86/4/1 83/4/1 82/4/1
f 87/4/1 83/4/1 86/4/1
f 88/4/1 83/4/1 87/4/1
f 89/4/1 83/4/1 88/4/1
f 90/4/1 83/4/1 89/4/1
f 91/4/1 83/4/1 90/4/1
f 92/4/1 85/4/1 84/4/1
f 93/4/1 85/4/1 92/4/1
f 96/8/1 95/8/1 94/8/1
f 97/8/1 95/8/1 96/8/1
f 99/8/1 98/8/1 97/8/1
f 100/8/1 98/8/1 99/8/1
f 102/8/1 101/8/1 100/8/1
f 103/8/1 101/8/1 102/8/1
f 105/8/1 104/8/1 103/8/1
f 106/8/1 104/8/1 105/8/1
f 109/7/1 108/7/1 107/7/1
f 110/7/1 108/7/1 109/7/1
f 116/8/1 112/8/1 111/8/1
f 117/8/1 112/8/1 116/8/1
f 120/8/1 114/8/1 113/8/1
f 121/8/1 114/8/1 120/8/1
f 123/8/1 118/8/1 117/8/1
f 123/8/1 116/8/1 115/8/1
f 123/8/1 117/8/1 116/8/1
f 124/8/1 118/8/1 123/8/1
f 125/8/1 122/8/1 121/8/1
f 125/8/1 121/8/1 120/8/1
f 125/8/1 120/8/1 119/8/1
f 126/8/1 122/8/1 125/8/1
f 127/8/2 128/8/2 132/8/2
f 132/8/2 128/8/2 133/8/2
f 129/8/2 130/8/2 136/8/2
f 136/8/2 130/8/2 137/8/2
f 133/8/2 134/8/2 139/8/2
f 131/8/2 132/8/2 139/8/2
f 132/8/2 133/8/2 139/8/2
f 139/8/2 134/8/2 140/8/2
f 137/8/2 138/8/2 141/8/2
f 136/8/2 137/8/2 141/8/2
f 135/8/2 136/8/2 141/8/2
f 141/8/2 138/8/2 142/8/2
f 143/7/2 144/7/2 145/7/2
f 145/7/2 144/7/2 146/7/2
f 147/8/2 148/8/2 149/8/2
f 149/8/2 148/8/2 150/8/2
f 150/8/2 151/8/2 152/8/2
f 152/8/2 151/8/2 153/8/2
f 153/8/2 154/8/2 155/8/2
f 155/8/2 154/8/2 156/8/2
f 156/8/2 157/8/2 158/8/2
f 158/8/2 157/8/2 159/8/2
f 160/4/2 161/4/2 164/4/2
f 164/4/2 161/4/2 165/4/2
f 165/4/2 161/4/2 166/4/2
f 166/4/2 161/4/2 167/4/2
f 167/4/2 161/4/2 168/4/2
f 168/4/2 161/4/2 169/4/2
f 162/4/2 163/4/2 170/4/2
f 170/4/2 163/4/2 171/4/2
f 174/7/2 175/7/2 182/7/2
f 182/7/2 175/7/2 183/7/2
f 178/7/2 179/7/2 184/7/2
f 184/7/2 179/7/2 185/7/2
f 172/7/2 173/7/2 186/7/2
f 176/7/2 177/7/2 189/7/2
f 189/7/2 177/7/2 190/7/2
f 180/7/2 181/7/2 193/7/2
f 186/7/2 187/7/2 194/7/2
f 190/7/2 191/7/2 195/7/2
f 189/7/2 190/7/2 195/7/2
f 188/7/2 189/7/2 195/7/2
f 195/7/2 191/7/2 196/7/2
f 192/7/2 193/7/2 197/7/2
f 186/7/2 194/7/2 198/7/2
f 196/7/2 197/7/2 198/7/2
f 195/7/2 196/7/2 198/7/2
f 172/7/2 186/7/2 198/7/2
f 194/7/2 195/7/2 198/7/2
f 198/7/2 197/7/2 199/7/2
f 199/7/2 197/7/2 200/7/2
f 200/7/2 197/7/2 201/7/2
f 201/7/2 197/7/2 202/7/2
f 202/7/2 197/7/2 203/7/2
f 197/7/2 193/7/2 204/7/2
f 203/7/2 197/7/2 204/7/2
f 193/7/2 181/7/2 205/7/2
f 204/7/2 193/7/2 205/7/2
f 199/7/2 200/7/2 206/7/2
f 206/7/2 200/7/2 207/7/2
f 207/7/2 200/7/2 208/7/2
f 208/7/2 200/7/2 209/7/2
f 209/7/2 210/7/2 211/7/2
f 211/7/2 210/7/2 212/7/2
f 212/7/2 213/7/2 214/7/2
f 214/7/2 213/7/2 215/7/2
f 201/7/2 202/7/2 216/7/2
f 216/7/2 202/7/2 217/7/2
f 203/7/2 204/7/2 218/7/2
f 216/7/2 217/7/2 219/7/2
f 217/7/2 218/7/2 219/7/2
f 215/7/2 216/7/2 219/7/2
f 218/7/2 204/7/2 220/7/2
f 219/7/2 218/7/2 220/7/2
f 221/8/2 222/8/2 226/8/2
f 226/8/2 222/8/2 227/8/2
f 223/8/2 224/8/2 230/8/2
f 230/8/2 224/8/2 231/8/2
f 227/8/2 228/8/2 233/8/2
f 225/8/2 226/8/2 233/8/2
f 226/8/2 227/8/2 233/8/2
f 233/8/2 228/8/2 234/8/2
f 231/8/2 232/8/2 235/8/2
f 230/8/2 231/8/2 235/8/2
f 229/8/2 230/8/2 235/8/2
f 235/8/2 232/8/2 236/8/2
f 225/8/2 233/8/2 237/8/2
f 234/8/2 228/8/2 238/8/2
f 229/8/2 235/8/2 239/8/2
f 236/8/2 232/8/2 240/8/2
f 225/8/2 237/8/2 241/8/2
f 237/8/2 238/8/2 241/8/2
f 241/8/2 238/8/2 242/8/2
f 238/8/2 228/8/2 243/8/2
f 242/8/2 238/8/2 243/8/2
f 243/8/2 228/8/2 244/8/2
f 239/8/2 240/8/2 245/8/2
f 229/8/2 239/8/2 245/8/2
f 245/8/2 240/8/2 246/8/2
f 240/8/2 232/8/2 247/8/2
f 246/8/2 240/8/2 247/8/2
f 247/8/2 232/8/2 248/8/2
f 242/8/2 243/8/2 249/8/2
f 249/8/2 243/8/2 250/8/2
f 246/8/2 247/8/2 251/8/2
f 251/8/2 247/8/2 252/8/2
f 255/7/3 254/7/3 253/7/3
f 256/7/3 254/7/3 255/7/3
f 257/7/3 255/7/3 253/7/3
f 257/2/3 256/2/3 255/2/3
f 258/7/3 254/7/3 256/7/3
f 258/2/3 256/2/3 257/2/3
f 259/7/3 257/7/3 253/7/3
f 259/7/3 258/7/3 257/7/3
f 260/7/3 254/7/3 258/7/3
f 260/7/3 258/7/3 259/7/3
f 261/7/3 259/7/3 253/7/3
f 261/8/3 260/8/3 259/8/3
f 262/7/3 254/7/3 260/7/3
f 262/8/3 260/8/3 261/8/3
f 263/7/3 261/7/3 253/7/3
f 263/7/3 262/7/3 261/7/3
f 264/7/3 254/7/3 262/7/3
f 264/7/3 262/7/3 263/7/3
f 265/7/3 263/7/3 253/7/3
f 265/2/3 264/2/3 263/2/3
f 266/7/3 254/7/3 264/7/3
f 266/2/3 264/2/3 265/2/3
f 267/7/3 265/7/3 253/7/3
f 267/7/3 266/7/3 265/7/3
f 268/7/3 254/7/3 266/7/3
f 268/7/3 266/7/3 267/7/3
f 271/8/3 270/8/3 269/8/3
f 272/8/3 270/8/3 271/8/3
f 273/8/3 270/8/3 272/8/3
f 277/8/3 275/8/3 274/8/3
f 277/8/3 276/8/3 275/8/3
f 278/8/3 276/8/3 277/8/3
f 283/8/3 280/8/3 279/8/3
f 284/8/3 280/8/3 283/8/3
f 285/8/3 282/8/3 281/8/3
f 286/8/3 282/8/3 285/8/3
f 289/7/3 288/7/3 287/7/3
f 290/7/3 288/7/3 289/7/3
f 291/8/3 290/8/3 289/8/3
f 292/8/3 290/8/3 291/8/3
f 297/7/3 292/7/3 291/7/3
f 298/7/3 292/7/3 297/7/3
f 299/8/3 294/8/3 293/8/3
f 300/8/3 294/8/3 299/8/3
f 301/8/3 296/8/3 295/8/3
f 302/8/3 296/8/3 301/8/3
f 305/7/3 304/7/3 303/7/3
f 306/7/3 304/7/3 305/7/3
f 307/4/3 306/4/3 305/4/3
f 308/4/3 306/4/3 307/4/3
f 309/7/3 308/7/3 307/7/3
f 310/7/3 308/7/3 309/7/3
f 313/8/3 312/8/3 311/8/3
f 314/8/3 312/8/3 313/8/3
f 317/7/3 316/7/3 315/7/3
f 318/7/3 316/7/3 317/7/3
f 319/4/3 318/4/3 317/4/3
f 320/4/3 318/4/3 319/4/3
f 323/7/3 320/7/3 319/7/3
f 324/7/3 320/7/3 323/7/3
f 325/8/3 322/8/3 321/8/3
f 326/8/3 322/8/3 325/8/3
f 329/7/3 328/7/3 327/7/3
f 330/7/3 328/7/3 329/7/3
f 331/4/3 330/4/3 329/4/3
f 332/4/3 330/4/3 331/4/3
f 333/7/3 332/7/3 331/7/3
f 334/7/3 332/7/3 333/7/3
f 337/7/3 336/7/3 335/7/3
f 338/7/3 336/7/3 337/7/3
f 339/7/3 336/7/3 338/7/3
f 340/7/3 336/7/3 339/7/3
f 343/8/3 342/8/3 341/8/3
f 344/8/3 342/8/3 343/8/3
f 347/8/3 346/8/3 345/8/3
f 348/8/3 346/8/3 347/8/3
f 351/7/3 350/7/3 349/7/3
f 352/7/3 350/7/3 351/7/3
f 355/8/3 354/8/3 353/8/3
f 356/8/3 354/8/3 355/8/3
f 359/7/3 358/7/3 357/7/3
f 360/7/3 358/7/3 359/7/3
f 363/8/3 362/8/3 361/8/3
f 364/8/3 362/8/3 363/8/3
f 367/8/3 366/8/3 365/8/3
f 368/8/3 366/8/3 367/8/3
f 369/8/3 366/8/3 368/8/3
f 373/8/3 371/8/3 370/8/3
f 373/8/3 372/8/3 371/8/3
f 374/8/3 372/8/3 373/8/3
f 379/8/3 376/8/3 375/8/3
f 380/8/3 376/8/3 379/8/3
f 381/8/3 378/8/3 377/8/3
f 382/8/3 378/8/3 381/8/3
f 387/8/3 384/8/3 383/8/3
f 388/8/3 384/8/3 387/8/3
f 389/8/3 386/8/3 385/8/3
f 390/8/3 386/8/3 389/8/3
f 393/7/3 392/7/3 391/7/3
f 394/7/3 392/7/3 393/7/3
f 397/7/3 396/7/3 395/7/3
f 398/7/3 396/7/3 397/7/3
f 401/8/3 400/8/3 399/8/3
f 402/8/3 400/8/3 401/8/3
f 405/8/3 404/8/3 403/8/3
f 406/8/3 404/8/3 405/8/3
f 407/8/4 408/8/4 409/8/4
f 409/8/4 408/8/4 410/8/4
f 411/8/4 412/8/4 413/8/4
f 413/8/4 412/8/4 414/8/4
f 415/7/4 416/7/4 417/7/4
f 417/7/4 416/7/4 418/7/4
f 419/7/4 420/7/4 421/7/4
f 421/7/4 420/7/4 422/7/4
f 423/8/4 424/8/4 427/8/4
f 427/8/4 424/8/4 428/8/4
f 425/8/4 426/8/4 429/8/4
f 429/8/4 426/8/4 430/8/4
f 431/7/4 432/7/4 433/7/4
f 433/7/4 432/7/4 434/7/4
f 435/7/4 436/7/4 441/7/4
f 441/7/4 436/7/4 442/7/4
f 437/8/4 438/8/4 443/8/4
f 443/8/4 438/8/4 444/8/4
f 439/8/4 440/8/4 445/8/4
f 445/8/4 440/8/4 446/8/4
f 447/8/4 448/8/4 449/8/4
f 449/8/4 448/8/4 450/8/4
f 450/8/4 448/8/4 451/8/4
f 452/7/4 453/7/4 454/7/4
f 454/7/4 453/7/4 455/7/4
f 456/7/4 457/7/4 461/7/4
f 461/7/4 457/7/4 462/7/4
f 459/8/4 460/8/4 463/8/4
f 458/8/4 459/8/4 463/8/4
f 463/8/4 460/8/4 464/8/4
f 465/8/4 466/8/4 467/8/4
f 467/8/4 466/8/4 468/8/4
f 469/8/4 470/8/4 471/8/4
f 471/8/4 470/8/4 472/8/4
f 473/7/4 474/7/4 475/7/4
f 475/7/4 474/7/4 476/7/4
f 477/8/4 478/8/4 479/8/4
f 479/8/4 478/8/4 480/8/4
f 481/7/4 482/7/4 483/7/4
f 483/7/4 482/7/4 484/7/4
f 485/8/4 486/8/4 487/8/4
f 487/8/4 486/8/4 488/8/4
f 489/8/4 490/8/4 491/8/4
f 491/8/4 490/8/4 492/8/4
f 493/8/4 494/8/4 495/8/4
f 495/8/4 494/8/4 496/8/4
f 497/4/4 498/4/4 499/4/4
f 499/4/4 498/4/4 500/4/4
f 501/8/4 502/8/4 505/8/4
f 505/8/4 502/8/4 506/8/4
f 503/8/4 504/8/4 507/8/4
f 507/8/4 504/8/4 508/8/4
f 509/7/4 510/7/4 511/7/4
f 511/7/4 510/7/4 512/7/4
f 512/7/4 510/7/4 514/7/4
f 513/7/4 514/7/4 519/7/4
f 514/7/4 510/7/4 520/7/4
f 519/7/4 514/7/4 520/7/4
f 515/8/4 516/8/4 521/8/4
f 521/8/4 516/8/4 522/8/4
f 517/8/4 518/8/4 523/8/4
f 523/8/4 518/8/4 524/8/4
f 525/8/4 526/8/4 527/8/4
f 527/8/4 526/8/4 528/8/4
f 528/8/4 526/8/4 529/8/4
f 530/8/4 531/8/4 533/8/4
f 531/8/4 532/8/4 533/8/4
f 533/8/4 532/8/4 534/8/4
f 535/7/4 536/7/4 537/7/4
f 537/7/4 536/7/4 538/7/4
f 538/7/4 536/7/4 539/7/4
f 535/7/4 537/7/4 540/7/4
f 537/1/4 538/1/4 540/1/4
f 538/2/4 539/2/4 541/2/4
f 540/1/4 538/1/4 541/1/4
f 539/7/4 536/7/4 542/7/4
f 541/2/4 539/2/4 542/2/4
f 540/7/4 541/7/4 543/7/4
f 535/7/4 540/7/4 543/7/4
f 541/7/4 542/7/4 543/7/4
f 543/7/4 542/7/4 544/7/4
f 542/7/4 536/7/4 545/7/4
f 544/7/4 542/7/4 545/7/4
f 543/1/4 544/1/4 546/1/4
f 535/7/4 543/7/4 546/7/4
f 544/2/4 545/2/4 547/2/4
f 546/1/4 544/1/4 547/1/4
f 545/7/4 536/7/4 548/7/4
f 547/2/4 545/2/4 548/2/4
f 546/7/4 547/7/4 549/7/4
f 535/7/4 546/7/4 549/7/4
f 547/7/4 548/7/4 549/7/4
f 548/7/4 536/7/4 550/7/4
f 549/7/4 548/7/4 550/7/4
f 555/8/5 552/8/5 551/8/5
f 556/8/5 552/8/5 555/8/5
f 557/8/5 554/8/5 553/8/5
f 558/8/5 554/8/5 557/8/5
f 563/8/5 560/8/5 559/8/5
f 564/8/5 560/8/5 563/8/5
f 565/8/5 562/8/5 561/8/5
f 566/8/5 562/8/5 565/8/5
f 571/8/5 568/8/5 567/8/5
f 572/8/5 568/8/5 571/8/5
f 573/8/5 570/8/5 569/8/5
f 574/8/5 570/8/5 573/8/5
f 579/8/5 576/8/5 575/8/5
f 580/8/5 576/8/5 579/8/5
f 581/8/5 578/8/5 577/8/5
f 582/8/5 578/8/5 581/8/5
f 587/8/5 584/8/5 583/8/5
f 588/8/5 584/8/5 587/8/5
f 589/8/5 586/8/5 585/8/5
f 590/8/5 586/8/5 589/8/5
f 595/8/5 592/8/5 591/8/5
f 596/8/5 592/8/5 595/8/5
f 597/8/5 594/8/5 593/8/5
f 598/8/5 594/8/5 597/8/5
f 601/7/5 600/7/5 599/7/5
f 602/7/5 600/7/5 601/7/5
f 603/7/5 602/7/5 601/7/5
f 604/7/5 602/7/5 603/7/5
f 605/7/5 604/7/5 603/7/5
f 606/7/5 604/7/5 605/7/5
f 607/7/5 606/7/5 605/7/5
f 608/7/5 606/7/5 607/7/5
f 609/7/5 608/7/5 607/7/5
f 610/7/5 608/7/5 609/7/5
f 615/8/5 612/8/5 611/8/5
f 616/8/5 612/8/5 615/8/5
f 617/8/5 614/8/5 613/8/5
f 618/8/5 614/8/5 617/8/5
f 623/8/5 620/8/5 619/8/5
f 624/8/5 620/8/5 623/8/5
f 625/8/5 622/8/5 621/8/5
f 626/8/5 622/8/5 625/8/5
f 631/7/5 628/7/5 627/7/5
f 632/7/5 628/7/5 631/7/5
f 633/7/5 630/7/5 629/7/5
f 634/7/5 630/7/5 633/7/5
f 639/7/5 636/7/5 635/7/5
f 640/7/5 636/7/5 639/7/5
f 641/7/5 638/7/5 637/7/5
f 642/7/5 638/7/5 641/7/5
f 647/7/5 644/7/5 643/7/5
f 648/7/5 644/7/5 647/7/5
f 649/7/5 646/7/5 645/7/5
f 650/7/5 646/7/5 649/7/5
f 655/7/5 652/7/5 651/7/5
f 656/7/5 652/7/5 655/7/5
f 657/7/5 654/7/5 653/7/5
f 658/7/5 654/7/5 657/7/5
f 661/7/5 660/7/5 659/7/5
f 662/7/5 660/7/5 661/7/5
f 665/8/5 664/8/5 663/8/5
f 666/8/5 664/8/5 665/8/5
f 669/8/5 668/8/5 667/8/5
f 670/8/5 668/8/5 669/8/5
f 673/8/5 672/8/5 671/8/5
f 674/8/5 672/8/5 673/8/5
f 675/8/6 676/8/6 679/8/6
f 679/8/6 676/8/6 680/8/6
f 677/8/6 678/8/6 681/8/6
f 681/8/6 678/8/6 682/8/6
f 683/8/6 684/8/6 687/8/6
f 687/8/6 684/8/6 688/8/6
f 685/8/6 686/8/6 689/8/6
f 689/8/6 686/8/6 690/8/6
f 691/8/6 692/8/6 695/8/6
f 695/8/6 692/8/6 696/8/6
f 693/8/6 694/8/6 697/8/6
f 697/8/6 694/8/6 698/8/6
f 699/8/6 700/8/6 703/8/6
f 703/8/6 700/8/6 704/8/6
f 701/8/6 702/8/6 705/8/6
f 705/8/6 702/8/6 706/8/6
f 707/8/6 708/8/6 711/8/6
f 711/8/6 708/8/6 712/8/6
f 709/8/6 710/8/6 713/8/6
f 713/8/6 710/8/6 714/8/6
f 715/8/6 716/8/6 719/8/6
f 719/8/6 716/8/6 720/8/6
f 717/8/6 718/8/6 721/8/6
f 721/8/6 718/8/6 722/8/6
f 723/8/6 724/8/6 727/8/6
f 727/8/6 724/8/6 728/8/6
f 725/8/6 726/8/6 729/8/6
f 729/8/6 726/8/6 730/8/6
f 731/8/6 732/8/6 735/8/6
f 735/8/6 732/8/6 736/8/6
f 733/8/6 734/8/6 737/8/6
f 737/8/6 734/8/6 738/8/6
f 739/7/6 740/7/6 741/7/6
f 741/7/6 740/7/6 742/7/6
f 742/7/6 740/7/6 743/7/6
f 743/7/6 740/7/6 744/7/6
f 745/7/6 746/7/6 749/7/6
f 749/7/6 746/7/6 750/7/6
f 747/7/6 748/7/6 751/7/6
f 751/7/6 748/7/6 752/7/6
f 753/7/6 754/7/6 757/7/6
f 757/7/6 754/7/6 758/7/6
f 755/7/6 756/7/6 759/7/6
f 759/7/6 756/7/6 760/7/6
f 761/7/6 762/7/6 764/7/6
f 764/7/6 762/7/6 765/7/6
f 763/7/6 764/7/6 767/7/6
f 765/7/6 766/7/6 767/7/6
f 764/7/6 765/7/6 767/7/6
f 767/7/6 766/7/6 768/7/6
f 769/7/6 770/7/6 773/7/6
f 770/8/6 771/8/6 774/8/6
f 773/7/6 770/7/6 774/7/6
f 771/7/6 772/7/6 775/7/6
f 774/8/6 771/8/6 775/8/6
f 775/7/6 772/7/6 776/7/6
f 777/7/6 778/7/6 781/7/6
f 778/4/6 779/4/6 782/4/6
f 781/7/6 778/7/6 782/7/6
f 779/7/6 780/7/6 783/7/6
f 782/4/6 779/4/6 783/4/6
f 783/7/6 780/7/6 784/7/6
f 785/7/6 786/7/6 789/7/6
f 786/4/6 787/4/6 790/4/6
f 789/7/6 786/7/6 790/7/6
f 787/7/6 788/7/6 791/7/6
f 790/4/6 787/4/6 791/4/6
f 791/7/6 788/7/6 792/7/6
f 793/7/6 794/7/6 797/7/6
f 794/4/6 795/4/6 798/4/6
f 797/7/6 794/7/6 798/7/6
f 795/7/6 796/7/6 799/7/6
f 798/4/6 795/4/6 799/4/6
f 799/7/6 796/7/6 800/7/6
f 801/7/6 802/7/6 803/7/6
f 803/7/6 802/7/6 804/7/6
f 801/7/6 803/7/6 805/7/6
f 804/7/6 802/7/6 806/7/6
f 801/7/6 805/7/6 807/7/6
f 805/7/6 806/7/6 807/7/6
f 806/7/6 802/7/6 808/7/6
f 807/7/6 806/7/6 808/7/6
f 809/8/6 810/8/6 811/8/6
f 811/8/6 810/8/6 812/8/6
f 813/8/6 814/8/6 815/8/6
f 815/8/6 814/8/6 816/8/6
f 817/8/6 818/8/6 819/8/6
f 819/8/6 818/8/6 820/8/6
f 821/8/6 822/8/6 823/8/6
f 823/8/6 822/8/6 824/8/6
