# MagicaVoxel @ Ephtracy

# group
g truck-1

# material
mtllib truck-1.mtl
usemtl palette

# normals
vn -1 0 0
vn 1 0 0
vn 0 0 1
vn 0 0 -1
vn 0 -1 0
vn 0 1 0

# texcoords
vt 0.0605469 0.5
vt 0.0917969 0.5
vt 0.306641 0.5
vt 0.587891 0.5
vt 0.958984 0.5
vt 0.978516 0.5
vt 0.994141 0.5

# verts
v -11 2 12
v -11 2 9
v -11 2 -3
v -11 2 -6
v -11 3 13
v -11 3 12
v -11 3 9
v -11 3 8
v -11 3 -2
v -11 3 -3
v -11 3 -6
v -11 3 -7
v -11 4 11
v -11 4 10
v -11 4 -4
v -11 4 -5
v -11 5 11
v -11 5 10
v -11 5 -4
v -11 5 -5
v -11 6 13
v -11 6 12
v -11 6 9
v -11 6 8
v -11 6 -2
v -11 6 -3
v -11 6 -6
v -11 6 -7
v -11 7 12
v -11 7 9
v -11 7 -3
v -11 7 -6
v -10 4 17
v -10 4 13
v -10 4 11
v -10 4 10
v -10 4 8
v -10 4 -2
v -10 4 -4
v -10 4 -5
v -10 4 -7
v -10 4 -11
v -10 5 11
v -10 5 10
v -10 5 -4
v -10 5 -5
v -10 6 13
v -10 6 12
v -10 6 9
v -10 6 8
v -10 6 -2
v -10 6 -3
v -10 6 -6
v -10 6 -7
v -10 7 12
v -10 7 9
v -10 7 -3
v -10 7 -6
v -10 9 17
v -10 9 12
v -10 9 10
v -10 9 4
v -10 9 3
v -10 9 -4
v -10 9 -6
v -10 9 -11
v -10 10 12
v -10 10 11
v -10 11 11
v -10 11 10
v -10 11 9
v -10 13 10
v -10 13 9
v -10 13 8
v -10 15 9
v -10 15 8
v -10 15 4
v -10 15 3
v -10 15 -4
v -10 16 8
v -10 16 -6
v -9 9 10
v -9 9 4
v -9 9 3
v -9 9 -4
v -9 11 10
v -9 11 9
v -9 13 9
v -9 13 8
v -9 15 8
v -9 15 4
v -9 15 3
v -9 15 -4
v -4 16 6
v -4 16 5
v -4 17 6
v -4 17 5
v -4 17 4
v -4 18 5
v -4 18 4
v -4 18 3
v -4 19 4
v -4 19 3
v -4 19 2
v -4 20 3
v -4 20 2
v 1 9 -5
v 1 9 -6
v 1 15 -5
v 1 15 -6
v 2 2 12
v 2 2 9
v 2 2 -3
v 2 2 -6
v 2 3 13
v 2 3 12
v 2 3 9
v 2 3 8
v 2 3 -2
v 2 3 -3
v 2 3 -6
v 2 3 -7
v 2 4 13
v 2 4 8
v 2 4 -2
v 2 4 -7
v -10 2 12
v -10 2 9
v -10 2 -3
v -10 2 -6
v -10 3 13
v -10 3 12
v -10 3 9
v -10 3 8
v -10 3 -2
v -10 3 -3
v -10 3 -6
v -10 3 -7
v -10 4 13
v -10 4 8
v -10 4 -2
v -10 4 -7
v -9 9 -5
v -9 9 -6
v -9 15 -5
v -9 15 -6
v -3 16 6
v -3 16 5
v -3 17 6
v -3 17 5
v -3 17 4
v -3 18 5
v -3 18 4
v -3 18 3
v -3 19 4
v -3 19 3
v -3 19 2
v -3 20 3
v -3 20 2
v 1 9 10
v 1 9 4
v 1 9 3
v 1 9 -4
v 1 11 10
v 1 11 9
v 1 13 9
v 1 13 8
v 1 15 8
v 1 15 4
v 1 15 3
v 1 15 -4
v 2 4 17
v 2 4 13
v 2 4 11
v 2 4 10
v 2 4 8
v 2 4 -2
v 2 4 -4
v 2 4 -5
v 2 4 -7
v 2 4 -11
v 2 5 11
v 2 5 10
v 2 5 -4
v 2 5 -5
v 2 6 13
v 2 6 12
v 2 6 9
v 2 6 8
v 2 6 -2
v 2 6 -3
v 2 6 -6
v 2 6 -7
v 2 7 12
v 2 7 9
v 2 7 -3
v 2 7 -6
v 2 9 17
v 2 9 12
v 2 9 10
v 2 9 4
v 2 9 3
v 2 9 -4
v 2 9 -6
v 2 9 -11
v 2 10 12
v 2 10 11
v 2 11 11
v 2 11 10
v 2 11 9
v 2 13 10
v 2 13 9
v 2 13 8
v 2 15 9
v 2 15 8
v 2 15 4
v 2 15 3
v 2 15 -4
v 2 16 8
v 2 16 -6
v 3 2 12
v 3 2 9
v 3 2 -3
v 3 2 -6
v 3 3 13
v 3 3 12
v 3 3 9
v 3 3 8
v 3 3 -2
v 3 3 -3
v 3 3 -6
v 3 3 -7
v 3 4 11
v 3 4 10
v 3 4 -4
v 3 4 -5
v 3 5 11
v 3 5 10
v 3 5 -4
v 3 5 -5
v 3 6 13
v 3 6 12
v 3 6 9
v 3 6 8
v 3 6 -2
v 3 6 -3
v 3 6 -6
v 3 6 -7
v 3 7 12
v 3 7 9
v 3 7 -3
v 3 7 -6
v -10 4 17
v -10 9 17
v -9 6 17
v -9 8 17
v -8 6 17
v -8 8 17
v -7 6 17
v -7 8 17
v -1 6 17
v -1 8 17
v 0 6 17
v 0 8 17
v 1 6 17
v 1 8 17
v 2 4 17
v 2 9 17
v -11 3 13
v -11 6 13
v -10 3 13
v -10 4 13
v -10 6 13
v 2 3 13
v 2 4 13
v 2 6 13
v 3 3 13
v 3 6 13
v -11 2 12
v -11 3 12
v -11 6 12
v -11 7 12
v -10 2 12
v -10 3 12
v -10 6 12
v -10 7 12
v -10 9 12
v -10 10 12
v -9 9 12
v -9 10 12
v 1 9 12
v 1 10 12
v 2 2 12
v 2 3 12
v 2 6 12
v 2 7 12
v 2 9 12
v 2 10 12
v 3 2 12
v 3 3 12
v 3 6 12
v 3 7 12
v -10 10 11
v -10 11 11
v -9 10 11
v -9 11 11
v 1 10 11
v 1 11 11
v 2 10 11
v 2 11 11
v -11 4 10
v -11 5 10
v -10 4 10
v -10 5 10
v -10 11 10
v -10 13 10
v -9 11 10
v -9 13 10
v 1 11 10
v 1 13 10
v 2 4 10
v 2 5 10
v 2 11 10
v 2 13 10
v 3 4 10
v 3 5 10
v -10 13 9
v -10 15 9
v -9 13 9
v -9 15 9
v 1 13 9
v 1 15 9
v 2 13 9
v 2 15 9
v -10 15 8
v -10 16 8
v -9 15 8
v 1 15 8
v 2 15 8
v 2 16 8
v -4 16 6
v -4 17 6
v -3 16 6
v -3 17 6
v -4 17 5
v -4 18 5
v -3 17 5
v -3 18 5
v -10 9 4
v -10 15 4
v -9 9 4
v -9 15 4
v -4 18 4
v -4 19 4
v -3 18 4
v -3 19 4
v 1 9 4
v 1 15 4
v 2 9 4
v 2 15 4
v -4 19 3
v -4 20 3
v -3 19 3
v -3 20 3
v -11 3 -2
v -11 6 -2
v -10 3 -2
v -10 4 -2
v -10 6 -2
v 2 3 -2
v 2 4 -2
v 2 6 -2
v 3 3 -2
v 3 6 -2
v -11 2 -3
v -11 3 -3
v -11 6 -3
v -11 7 -3
v -10 2 -3
v -10 3 -3
v -10 6 -3
v -10 7 -3
v 2 2 -3
v 2 3 -3
v 2 6 -3
v 2 7 -3
v 3 2 -3
v 3 3 -3
v 3 6 -3
v 3 7 -3
v -10 9 -4
v -10 15 -4
v -9 9 -4
v -9 15 -4
v 1 9 -4
v 1 15 -4
v 2 9 -4
v 2 15 -4
v -11 4 -5
v -11 5 -5
v -10 4 -5
v -10 5 -5
v 2 4 -5
v 2 5 -5
v 3 4 -5
v 3 5 -5
v -11 4 11
v -11 5 11
v -10 4 11
v -10 5 11
v 2 4 11
v 2 5 11
v 3 4 11
v 3 5 11
v -10 9 10
v -10 11 10
v -9 9 10
v -9 11 10
v 1 9 10
v 1 11 10
v 2 9 10
v 2 11 10
v -11 2 9
v -11 3 9
v -11 6 9
v -11 7 9
v -10 2 9
v -10 3 9
v -10 6 9
v -10 7 9
v -10 11 9
v -10 13 9
v -9 11 9
v -9 13 9
v 1 11 9
v 1 13 9
v 2 2 9
v 2 3 9
v 2 6 9
v 2 7 9
v 2 11 9
v 2 13 9
v 3 2 9
v 3 3 9
v 3 6 9
v 3 7 9
v -11 3 8
v -11 6 8
v -10 3 8
v -10 4 8
v -10 6 8
v -10 13 8
v -10 15 8
v -9 13 8
v -9 15 8
v 1 13 8
v 1 15 8
v 2 3 8
v 2 4 8
v 2 6 8
v 2 13 8
v 2 15 8
v 3 3 8
v 3 6 8
v -4 16 5
v -4 17 5
v -3 16 5
v -3 17 5
v -4 17 4
v -4 18 4
v -3 17 4
v -3 18 4
v -10 9 3
v -10 15 3
v -9 9 3
v -9 15 3
v -4 18 3
v -4 19 3
v -3 18 3
v -3 19 3
v 1 9 3
v 1 15 3
v 2 9 3
v 2 15 3
v -4 19 2
v -4 20 2
v -3 19 2
v -3 20 2
v -11 4 -4
v -11 5 -4
v -10 4 -4
v -10 5 -4
v 2 4 -4
v 2 5 -4
v 3 4 -4
v 3 5 -4
v -9 9 -5
v -9 15 -5
v 1 9 -5
v 1 15 -5
v -11 2 -6
v -11 3 -6
v -11 6 -6
v -11 7 -6
v -10 2 -6
v -10 3 -6
v -10 6 -6
v -10 7 -6
v -10 9 -6
v -10 16 -6
v -9 9 -6
v -9 15 -6
v 1 9 -6
v 1 15 -6
v 2 2 -6
v 2 3 -6
v 2 6 -6
v 2 7 -6
v 2 9 -6
v 2 16 -6
v 3 2 -6
v 3 3 -6
v 3 6 -6
v 3 7 -6
v -11 3 -7
v -11 6 -7
v -10 3 -7
v -10 4 -7
v -10 6 -7
v 2 3 -7
v 2 4 -7
v 2 6 -7
v 3 3 -7
v 3 6 -7
v -10 4 -11
v -10 9 -11
v -9 5 -11
v -9 6 -11
v -9 7 -11
v -8 5 -11
v -8 6 -11
v -8 7 -11
v 0 5 -11
v 0 6 -11
v 0 7 -11
v 1 5 -11
v 1 6 -11
v 1 7 -11
v 2 4 -11
v 2 9 -11
v -11 2 12
v -10 2 12
v 2 2 12
v 3 2 12
v -11 2 9
v -10 2 9
v 2 2 9
v 3 2 9
v -11 2 -3
v -10 2 -3
v 2 2 -3
v 3 2 -3
v -11 2 -6
v -10 2 -6
v 2 2 -6
v 3 2 -6
v -11 3 13
v -10 3 13
v 2 3 13
v 3 3 13
v -11 3 12
v -10 3 12
v 2 3 12
v 3 3 12
v -11 3 9
v -10 3 9
v 2 3 9
v 3 3 9
v -11 3 8
v -10 3 8
v 2 3 8
v 3 3 8
v -11 3 -2
v -10 3 -2
v 2 3 -2
v 3 3 -2
v -11 3 -3
v -10 3 -3
v 2 3 -3
v 3 3 -3
v -11 3 -6
v -10 3 -6
v 2 3 -6
v 3 3 -6
v -11 3 -7
v -10 3 -7
v 2 3 -7
v 3 3 -7
v -10 4 17
v 2 4 17
v -10 4 13
v 2 4 13
v -10 4 8
v 2 4 8
v -10 4 -2
v 2 4 -2
v -10 4 -7
v 2 4 -7
v -10 4 -11
v 2 4 -11
v -11 5 11
v -10 5 11
v 2 5 11
v 3 5 11
v -11 5 10
v -10 5 10
v 2 5 10
v 3 5 10
v -11 5 -4
v -10 5 -4
v 2 5 -4
v 3 5 -4
v -11 5 -5
v -10 5 -5
v 2 5 -5
v 3 5 -5
v -10 11 10
v -9 11 10
v 1 11 10
v 2 11 10
v -10 11 9
v -9 11 9
v 1 11 9
v 2 11 9
v -10 13 9
v -9 13 9
v 1 13 9
v 2 13 9
v -10 13 8
v -9 13 8
v 1 13 8
v 2 13 8
v -10 15 8
v -9 15 8
v 1 15 8
v 2 15 8
v -10 15 4
v -9 15 4
v 1 15 4
v 2 15 4
v -10 15 3
v -9 15 3
v 1 15 3
v 2 15 3
v -10 15 -4
v -9 15 -4
v 1 15 -4
v 2 15 -4
v -9 15 -5
v 1 15 -5
v -9 15 -6
v 1 15 -6
v -4 17 5
v -3 17 5
v -4 17 4
v -3 17 4
v -4 18 4
v -3 18 4
v -4 18 3
v -3 18 3
v -4 19 3
v -3 19 3
v -4 19 2
v -3 19 2
v -11 4 11
v -10 4 11
v 2 4 11
v 3 4 11
v -11 4 10
v -10 4 10
v 2 4 10
v 3 4 10
v -11 4 -4
v -10 4 -4
v 2 4 -4
v 3 4 -4
v -11 4 -5
v -10 4 -5
v 2 4 -5
v 3 4 -5
v -11 6 13
v -10 6 13
v 2 6 13
v 3 6 13
v -11 6 12
v -10 6 12
v 2 6 12
v 3 6 12
v -11 6 9
v -10 6 9
v 2 6 9
v 3 6 9
v -11 6 8
v -10 6 8
v 2 6 8
v 3 6 8
v -11 6 -2
v -10 6 -2
v 2 6 -2
v 3 6 -2
v -11 6 -3
v -10 6 -3
v 2 6 -3
v 3 6 -3
v -11 6 -6
v -10 6 -6
v 2 6 -6
v 3 6 -6
v -11 6 -7
v -10 6 -7
v 2 6 -7
v 3 6 -7
v -11 7 12
v -10 7 12
v 2 7 12
v 3 7 12
v -11 7 9
v -10 7 9
v 2 7 9
v 3 7 9
v -11 7 -3
v -10 7 -3
v 2 7 -3
v 3 7 -3
v -11 7 -6
v -10 7 -6
v 2 7 -6
v 3 7 -6
v -10 9 17
v 2 9 17
v -10 9 12
v -9 9 12
v 1 9 12
v 2 9 12
v -10 9 10
v -9 9 10
v 1 9 10
v 2 9 10
v -10 9 4
v -9 9 4
v 1 9 4
v 2 9 4
v -10 9 3
v -9 9 3
v 1 9 3
v 2 9 3
v -10 9 -4
v -9 9 -4
v 1 9 -4
v 2 9 -4
v -9 9 -5
v 1 9 -5
v -10 9 -6
v -9 9 -6
v 1 9 -6
v 2 9 -6
v -10 9 -11
v 2 9 -11
v -10 10 12
v -9 10 12
v 1 10 12
v 2 10 12
v -10 10 11
v -9 10 11
v 1 10 11
v 2 10 11
v -10 11 11
v -9 11 11
v 1 11 11
v 2 11 11
v -10 11 10
v -9 11 10
v 1 11 10
v 2 11 10
v -10 13 10
v -9 13 10
v 1 13 10
v 2 13 10
v -10 13 9
v -9 13 9
v 1 13 9
v 2 13 9
v -10 15 9
v -9 15 9
v 1 15 9
v 2 15 9
v -10 15 8
v -9 15 8
v 1 15 8
v 2 15 8
v -10 16 8
v 2 16 8
v -4 16 6
v -3 16 6
v -4 16 5
v -3 16 5
v -10 16 -6
v 2 16 -6
v -4 17 6
v -3 17 6
v -4 17 5
v -3 17 5
v -4 18 5
v -3 18 5
v -4 18 4
v -3 18 4
v -4 19 4
v -3 19 4
v -4 19 3
v -3 19 3
v -4 20 3
v -3 20 3
v -4 20 2
v -3 20 2

# faces
f 6/7/1 2/7/1 1/7/1
f 7/7/1 2/7/1 6/7/1
f 10/7/1 4/7/1 3/7/1
f 11/7/1 4/7/1 10/7/1
f 13/7/1 8/7/1 7/7/1
f 13/7/1 6/7/1 5/7/1
f 13/7/1 7/7/1 6/7/1
f 14/7/1 8/7/1 13/7/1
f 15/7/1 12/7/1 11/7/1
f 15/7/1 11/7/1 10/7/1
f 15/7/1 10/7/1 9/7/1
f 16/7/1 12/7/1 15/7/1
f 17/7/1 13/7/1 5/7/1
f 18/7/1 8/7/1 14/7/1
f 19/7/1 15/7/1 9/7/1
f 20/7/1 12/7/1 16/7/1
f 21/7/1 17/7/1 5/7/1
f 21/7/1 18/7/1 17/7/1
f 22/7/1 18/7/1 21/7/1
f 23/7/1 8/7/1 18/7/1
f 23/7/1 18/7/1 22/7/1
f 24/7/1 8/7/1 23/7/1
f 25/7/1 20/7/1 19/7/1
f 25/7/1 19/7/1 9/7/1
f 26/7/1 20/7/1 25/7/1
f 27/7/1 12/7/1 20/7/1
f 27/7/1 20/7/1 26/7/1
f 28/7/1 12/7/1 27/7/1
f 29/7/1 23/7/1 22/7/1
f 30/7/1 23/7/1 29/7/1
f 31/7/1 27/7/1 26/7/1
f 32/7/1 27/7/1 31/7/1
f 43/6/1 36/6/1 35/6/1
f 44/6/1 36/6/1 43/6/1
f 45/6/1 40/6/1 39/6/1
f 46/6/1 40/6/1 45/6/1
f 47/6/1 34/6/1 33/6/1
f 50/6/1 38/6/1 37/6/1
f 51/6/1 38/6/1 50/6/1
f 54/6/1 42/6/1 41/6/1
f 55/6/1 48/6/1 47/6/1
f 56/6/1 52/6/1 51/6/1
f 56/6/1 51/6/1 50/6/1
f 56/6/1 50/6/1 49/6/1
f 57/6/1 52/6/1 56/6/1
f 58/6/1 54/6/1 53/6/1
f 59/6/1 55/6/1 47/6/1
f 59/6/1 58/6/1 57/6/1
f 59/6/1 57/6/1 56/6/1
f 59/6/1 47/6/1 33/6/1
f 59/6/1 56/6/1 55/6/1
f 60/6/1 58/6/1 59/6/1
f 61/6/1 58/6/1 60/6/1
f 62/6/1 58/6/1 61/6/1
f 63/6/1 58/6/1 62/6/1
f 64/6/1 58/6/1 63/6/1
f 65/6/1 54/6/1 58/6/1
f 65/6/1 58/6/1 64/6/1
f 66/6/1 42/6/1 54/6/1
f 66/6/1 54/6/1 65/6/1
f 67/6/1 61/6/1 60/6/1
f 68/6/1 61/6/1 67/6/1
f 69/6/1 61/6/1 68/6/1
f 70/6/1 61/6/1 69/6/1
f 72/6/1 71/6/1 70/6/1
f 73/6/1 71/6/1 72/6/1
f 75/6/1 74/6/1 73/6/1
f 76/6/1 74/6/1 75/6/1
f 77/6/1 63/6/1 62/6/1
f 78/6/1 63/6/1 77/6/1
f 79/6/1 65/6/1 64/6/1
f 80/6/1 78/6/1 77/6/1
f 80/6/1 79/6/1 78/6/1
f 80/6/1 77/6/1 76/6/1
f 81/6/1 65/6/1 79/6/1
f 81/6/1 79/6/1 80/6/1
f 86/4/1 83/4/1 82/4/1
f 87/4/1 83/4/1 86/4/1
f 88/4/1 83/4/1 87/4/1
f 89/4/1 83/4/1 88/4/1
f 90/4/1 83/4/1 89/4/1
f 91/4/1 83/4/1 90/4/1
f 92/4/1 85/4/1 84/4/1
f 93/4/1 85/4/1 92/4/1
f 96/7/1 95/7/1 94/7/1
f 97/7/1 95/7/1 96/7/1
f 99/7/1 98/7/1 97/7/1
f 100/7/1 98/7/1 99/7/1
f 102/7/1 101/7/1 100/7/1
f 103/7/1 101/7/1 102/7/1
f 105/7/1 104/7/1 103/7/1
f 106/7/1 104/7/1 105/7/1
f 109/6/1 108/6/1 107/6/1
f 110/6/1 108/6/1 109/6/1
f 116/7/1 112/7/1 111/7/1
f 117/7/1 112/7/1 116/7/1
f 120/7/1 114/7/1 113/7/1
f 121/7/1 114/7/1 120/7/1
f 123/7/1 118/7/1 117/7/1
f 123/7/1 116/7/1 115/7/1
f 123/7/1 117/7/1 116/7/1
f 124/7/1 118/7/1 123/7/1
f 125/7/1 122/7/1 121/7/1
f 125/7/1 121/7/1 120/7/1
f 125/7/1 120/7/1 119/7/1
f 126/7/1 122/7/1 125/7/1
f 127/7/2 128/7/2 132/7/2
f 132/7/2 128/7/2 133/7/2
f 129/7/2 130/7/2 136/7/2
f 136/7/2 130/7/2 137/7/2
f 133/7/2 134/7/2 139/7/2
f 131/7/2 132/7/2 139/7/2
f 132/7/2 133/7/2 139/7/2
f 139/7/2 134/7/2 140/7/2
f 137/7/2 138/7/2 141/7/2
f 136/7/2 137/7/2 141/7/2
f 135/7/2 136/7/2 141/7/2
f 141/7/2 138/7/2 142/7/2
f 143/6/2 144/6/2 145/6/2
f 145/6/2 144/6/2 146/6/2
f 147/7/2 148/7/2 149/7/2
f 149/7/2 148/7/2 150/7/2
f 150/7/2 151/7/2 152/7/2
f 152/7/2 151/7/2 153/7/2
f 153/7/2 154/7/2 155/7/2
f 155/7/2 154/7/2 156/7/2
f 156/7/2 157/7/2 158/7/2
f 158/7/2 157/7/2 159/7/2
f 160/4/2 161/4/2 164/4/2
f 164/4/2 161/4/2 165/4/2
f 165/4/2 161/4/2 166/4/2
f 166/4/2 161/4/2 167/4/2
f 167/4/2 161/4/2 168/4/2
f 168/4/2 161/4/2 169/4/2
f 162/4/2 163/4/2 170/4/2
f 170/4/2 163/4/2 171/4/2
f 174/6/2 175/6/2 182/6/2
f 182/6/2 175/6/2 183/6/2
f 178/6/2 179/6/2 184/6/2
f 184/6/2 179/6/2 185/6/2
f 172/6/2 173/6/2 186/6/2
f 176/6/2 177/6/2 189/6/2
f 189/6/2 177/6/2 190/6/2
f 180/6/2 181/6/2 193/6/2
f 186/6/2 187/6/2 194/6/2
f 190/6/2 191/6/2 195/6/2
f 189/6/2 190/6/2 195/6/2
f 188/6/2 189/6/2 195/6/2
f 195/6/2 191/6/2 196/6/2
f 192/6/2 193/6/2 197/6/2
f 186/6/2 194/6/2 198/6/2
f 196/6/2 197/6/2 198/6/2
f 195/6/2 196/6/2 198/6/2
f 172/6/2 186/6/2 198/6/2
f 194/6/2 195/6/2 198/6/2
f 198/6/2 197/6/2 199/6/2
f 199/6/2 197/6/2 200/6/2
f 200/6/2 197/6/2 201/6/2
f 201/6/2 197/6/2 202/6/2
f 202/6/2 197/6/2 203/6/2
f 197/6/2 193/6/2 204/6/2
f 203/6/2 197/6/2 204/6/2
f 193/6/2 181/6/2 205/6/2
f 204/6/2 193/6/2 205/6/2
f 199/6/2 200/6/2 206/6/2
f 206/6/2 200/6/2 207/6/2
f 207/6/2 200/6/2 208/6/2
f 208/6/2 200/6/2 209/6/2
f 209/6/2 210/6/2 211/6/2
f 211/6/2 210/6/2 212/6/2
f 212/6/2 213/6/2 214/6/2
f 214/6/2 213/6/2 215/6/2
f 201/6/2 202/6/2 216/6/2
f 216/6/2 202/6/2 217/6/2
f 203/6/2 204/6/2 218/6/2
f 216/6/2 217/6/2 219/6/2
f 217/6/2 218/6/2 219/6/2
f 215/6/2 216/6/2 219/6/2
f 218/6/2 204/6/2 220/6/2
f 219/6/2 218/6/2 220/6/2
f 221/7/2 222/7/2 226/7/2
f 226/7/2 222/7/2 227/7/2
f 223/7/2 224/7/2 230/7/2
f 230/7/2 224/7/2 231/7/2
f 227/7/2 228/7/2 233/7/2
f 225/7/2 226/7/2 233/7/2
f 226/7/2 227/7/2 233/7/2
f 233/7/2 228/7/2 234/7/2
f 231/7/2 232/7/2 235/7/2
f 230/7/2 231/7/2 235/7/2
f 229/7/2 230/7/2 235/7/2
f 235/7/2 232/7/2 236/7/2
f 225/7/2 233/7/2 237/7/2
f 234/7/2 228/7/2 238/7/2
f 229/7/2 235/7/2 239/7/2
f 236/7/2 232/7/2 240/7/2
f 225/7/2 237/7/2 241/7/2
f 237/7/2 238/7/2 241/7/2
f 241/7/2 238/7/2 242/7/2
f 238/7/2 228/7/2 243/7/2
f 242/7/2 238/7/2 243/7/2
f 243/7/2 228/7/2 244/7/2
f 239/7/2 240/7/2 245/7/2
f 229/7/2 239/7/2 245/7/2
f 245/7/2 240/7/2 246/7/2
f 240/7/2 232/7/2 247/7/2
f 246/7/2 240/7/2 247/7/2
f 247/7/2 232/7/2 248/7/2
f 242/7/2 243/7/2 249/7/2
f 249/7/2 243/7/2 250/7/2
f 246/7/2 247/7/2 251/7/2
f 251/7/2 247/7/2 252/7/2
f 255/6/3 254/6/3 253/6/3
f 256/6/3 254/6/3 255/6/3
f 257/6/3 255/6/3 253/6/3
f 257/2/3 256/2/3 255/2/3
f 258/6/3 254/6/3 256/6/3
f 258/2/3 256/2/3 257/2/3
f 259/6/3 257/6/3 253/6/3
f 259/6/3 258/6/3 257/6/3
f 260/6/3 254/6/3 258/6/3
f 260/6/3 258/6/3 259/6/3
f 261/6/3 259/6/3 253/6/3
f 261/7/3 260/7/3 259/7/3
f 262/6/3 254/6/3 260/6/3
f 262/7/3 260/7/3 261/7/3
f 263/6/3 261/6/3 253/6/3
f 263/6/3 262/6/3 261/6/3
f 264/6/3 254/6/3 262/6/3
f 264/6/3 262/6/3 263/6/3
f 265/6/3 263/6/3 253/6/3
f 265/2/3 264/2/3 263/2/3
f 266/6/3 254/6/3 264/6/3
f 266/2/3 264/2/3 265/2/3
f 267/6/3 265/6/3 253/6/3
f 267/6/3 266/6/3 265/6/3
f 268/6/3 254/6/3 266/6/3
f 268/6/3 266/6/3 267/6/3
f 271/7/3 270/7/3 269/7/3
f 272/7/3 270/7/3 271/7/3
f 273/7/3 270/7/3 272/7/3
f 277/7/3 275/7/3 274/7/3
f 277/7/3 276/7/3 275/7/3
f 278/7/3 276/7/3 277/7/3
f 283/7/3 280/7/3 279/7/3
f 284/7/3 280/7/3 283/7/3
f 285/7/3 282/7/3 281/7/3
f 286/7/3 282/7/3 285/7/3
f 289/6/3 288/6/3 287/6/3
f 290/6/3 288/6/3 289/6/3
f 291/7/3 290/7/3 289/7/3
f 292/7/3 290/7/3 291/7/3
f 297/6/3 292/6/3 291/6/3
f 298/6/3 292/6/3 297/6/3
f 299/7/3 294/7/3 293/7/3
f 300/7/3 294/7/3 299/7/3
f 301/7/3 296/7/3 295/7/3
f 302/7/3 296/7/3 301/7/3
f 305/6/3 304/6/3 303/6/3
f 306/6/3 304/6/3 305/6/3
f 307/4/3 306/4/3 305/4/3
f 308/4/3 306/4/3 307/4/3
f 309/6/3 308/6/3 307/6/3
f 310/6/3 308/6/3 309/6/3
f 313/7/3 312/7/3 311/7/3
f 314/7/3 312/7/3 313/7/3
f 317/6/3 316/6/3 315/6/3
f 318/6/3 316/6/3 317/6/3
f 319/4/3 318/4/3 317/4/3
f 320/4/3 318/4/3 319/4/3
f 323/6/3 320/6/3 319/6/3
f 324/6/3 320/6/3 323/6/3
f 325/7/3 322/7/3 321/7/3
f 326/7/3 322/7/3 325/7/3
f 329/6/3 328/6/3 327/6/3
f 330/6/3 328/6/3 329/6/3
f 331/4/3 330/4/3 329/4/3
f 332/4/3 330/4/3 331/4/3
f 333/6/3 332/6/3 331/6/3
f 334/6/3 332/6/3 333/6/3
f 337/6/3 336/6/3 335/6/3
f 338/6/3 336/6/3 337/6/3
f 339/6/3 336/6/3 338/6/3
f 340/6/3 336/6/3 339/6/3
f 343/7/3 342/7/3 341/7/3
f 344/7/3 342/7/3 343/7/3
f 347/7/3 346/7/3 345/7/3
f 348/7/3 346/7/3 347/7/3
f 351/6/3 350/6/3 349/6/3
f 352/6/3 350/6/3 351/6/3
f 355/7/3 354/7/3 353/7/3
f 356/7/3 354/7/3 355/7/3
f 359/6/3 358/6/3 357/6/3
f 360/6/3 358/6/3 359/6/3
f 363/7/3 362/7/3 361/7/3
f 364/7/3 362/7/3 363/7/3
f 367/7/3 366/7/3 365/7/3
f 368/7/3 366/7/3 367/7/3
f 369/7/3 366/7/3 368/7/3
f 373/7/3 371/7/3 370/7/3
f 373/7/3 372/7/3 371/7/3
f 374/7/3 372/7/3 373/7/3
f 379/7/3 376/7/3 375/7/3
f 380/7/3 376/7/3 379/7/3
f 381/7/3 378/7/3 377/7/3
f 382/7/3 378/7/3 381/7/3
f 387/7/3 384/7/3 383/7/3
f 388/7/3 384/7/3 387/7/3
f 389/7/3 386/7/3 385/7/3
f 390/7/3 386/7/3 389/7/3
f 393/6/3 392/6/3 391/6/3
f 394/6/3 392/6/3 393/6/3
f 397/6/3 396/6/3 395/6/3
f 398/6/3 396/6/3 397/6/3
f 401/7/3 400/7/3 399/7/3
f 402/7/3 400/7/3 401/7/3
f 405/7/3 404/7/3 403/7/3
f 406/7/3 404/7/3 405/7/3
f 407/7/4 408/7/4 409/7/4
f 409/7/4 408/7/4 410/7/4
f 411/7/4 412/7/4 413/7/4
f 413/7/4 412/7/4 414/7/4
f 415/6/4 416/6/4 417/6/4
f 417/6/4 416/6/4 418/6/4
f 419/6/4 420/6/4 421/6/4
f 421/6/4 420/6/4 422/6/4
f 423/7/4 424/7/4 427/7/4
f 427/7/4 424/7/4 428/7/4
f 425/7/4 426/7/4 429/7/4
f 429/7/4 426/7/4 430/7/4
f 431/6/4 432/6/4 433/6/4
f 433/6/4 432/6/4 434/6/4
f 435/6/4 436/6/4 441/6/4
f 441/6/4 436/6/4 442/6/4
f 437/7/4 438/7/4 443/7/4
f 443/7/4 438/7/4 444/7/4
f 439/7/4 440/7/4 445/7/4
f 445/7/4 440/7/4 446/7/4
f 447/7/4 448/7/4 449/7/4
f 449/7/4 448/7/4 450/7/4
f 450/7/4 448/7/4 451/7/4
f 452/6/4 453/6/4 454/6/4
f 454/6/4 453/6/4 455/6/4
f 456/6/4 457/6/4 461/6/4
f 461/6/4 457/6/4 462/6/4
f 459/7/4 460/7/4 463/7/4
f 458/7/4 459/7/4 463/7/4
f 463/7/4 460/7/4 464/7/4
f 465/7/4 466/7/4 467/7/4
f 467/7/4 466/7/4 468/7/4
f 469/7/4 470/7/4 471/7/4
f 471/7/4 470/7/4 472/7/4
f 473/6/4 474/6/4 475/6/4
f 475/6/4 474/6/4 476/6/4
f 477/7/4 478/7/4 479/7/4
f 479/7/4 478/7/4 480/7/4
f 481/6/4 482/6/4 483/6/4
f 483/6/4 482/6/4 484/6/4
f 485/7/4 486/7/4 487/7/4
f 487/7/4 486/7/4 488/7/4
f 489/7/4 490/7/4 491/7/4
f 491/7/4 490/7/4 492/7/4
f 493/7/4 494/7/4 495/7/4
f 495/7/4 494/7/4 496/7/4
f 497/4/4 498/4/4 499/4/4
f 499/4/4 498/4/4 500/4/4
f 501/7/4 502/7/4 505/7/4
f 505/7/4 502/7/4 506/7/4
f 503/7/4 504/7/4 507/7/4
f 507/7/4 504/7/4 508/7/4
f 509/6/4 510/6/4 511/6/4
f 511/6/4 510/6/4 512/6/4
f 512/6/4 510/6/4 514/6/4
f 513/6/4 514/6/4 519/6/4
f 514/6/4 510/6/4 520/6/4
f 519/6/4 514/6/4 520/6/4
f 515/7/4 516/7/4 521/7/4
f 521/7/4 516/7/4 522/7/4
f 517/7/4 518/7/4 523/7/4
f 523/7/4 518/7/4 524/7/4
f 525/7/4 526/7/4 527/7/4
f 527/7/4 526/7/4 528/7/4
f 528/7/4 526/7/4 529/7/4
f 530/7/4 531/7/4 533/7/4
f 531/7/4 532/7/4 533/7/4
f 533/7/4 532/7/4 534/7/4
f 535/6/4 536/6/4 537/6/4
f 537/6/4 536/6/4 538/6/4
f 538/6/4 536/6/4 539/6/4
f 535/6/4 537/6/4 540/6/4
f 537/1/4 538/1/4 540/1/4
f 538/2/4 539/2/4 541/2/4
f 540/1/4 538/1/4 541/1/4
f 539/6/4 536/6/4 542/6/4
f 541/2/4 539/2/4 542/2/4
f 540/6/4 541/6/4 543/6/4
f 535/6/4 540/6/4 543/6/4
f 541/6/4 542/6/4 543/6/4
f 543/6/4 542/6/4 544/6/4
f 542/6/4 536/6/4 545/6/4
f 544/6/4 542/6/4 545/6/4
f 543/1/4 544/1/4 546/1/4
f 535/6/4 543/6/4 546/6/4
f 544/2/4 545/2/4 547/2/4
f 546/1/4 544/1/4 547/1/4
f 545/6/4 536/6/4 548/6/4
f 547/2/4 545/2/4 548/2/4
f 546/6/4 547/6/4 549/6/4
f 535/6/4 546/6/4 549/6/4
f 547/6/4 548/6/4 549/6/4
f 548/6/4 536/6/4 550/6/4
f 549/6/4 548/6/4 550/6/4
f 555/7/5 552/7/5 551/7/5
f 556/7/5 552/7/5 555/7/5
f 557/7/5 554/7/5 553/7/5
f 558/7/5 554/7/5 557/7/5
f 563/7/5 560/7/5 559/7/5
f 564/7/5 560/7/5 563/7/5
f 565/7/5 562/7/5 561/7/5
f 566/7/5 562/7/5 565/7/5
f 571/7/5 568/7/5 567/7/5
f 572/7/5 568/7/5 571/7/5
f 573/7/5 570/7/5 569/7/5
f 574/7/5 570/7/5 573/7/5
f 579/7/5 576/7/5 575/7/5
f 580/7/5 576/7/5 579/7/5
f 581/7/5 578/7/5 577/7/5
f 582/7/5 578/7/5 581/7/5
f 587/7/5 584/7/5 583/7/5
f 588/7/5 584/7/5 587/7/5
f 589/7/5 586/7/5 585/7/5
f 590/7/5 586/7/5 589/7/5
f 595/7/5 592/7/5 591/7/5
f 596/7/5 592/7/5 595/7/5
f 597/7/5 594/7/5 593/7/5
f 598/7/5 594/7/5 597/7/5
f 601/6/5 600/6/5 599/6/5
f 602/6/5 600/6/5 601/6/5
f 603/6/5 602/6/5 601/6/5
f 604/6/5 602/6/5 603/6/5
f 605/6/5 604/6/5 603/6/5
f 606/6/5 604/6/5 605/6/5
f 607/6/5 606/6/5 605/6/5
f 608/6/5 606/6/5 607/6/5
f 609/6/5 608/6/5 607/6/5
f 610/6/5 608/6/5 609/6/5
f 615/7/5 612/7/5 611/7/5
f 616/7/5 612/7/5 615/7/5
f 617/7/5 614/7/5 613/7/5
f 618/7/5 614/7/5 617/7/5
f 623/7/5 620/7/5 619/7/5
f 624/7/5 620/7/5 623/7/5
f 625/7/5 622/7/5 621/7/5
f 626/7/5 622/7/5 625/7/5
f 631/6/5 628/6/5 627/6/5
f 632/6/5 628/6/5 631/6/5
f 633/6/5 630/6/5 629/6/5
f 634/6/5 630/6/5 633/6/5
f 639/6/5 636/6/5 635/6/5
f 640/6/5 636/6/5 639/6/5
f 641/6/5 638/6/5 637/6/5
f 642/6/5 638/6/5 641/6/5
f 647/6/5 644/6/5 643/6/5
f 648/6/5 644/6/5 647/6/5
f 649/6/5 646/6/5 645/6/5
f 650/6/5 646/6/5 649/6/5
f 655/6/5 652/6/5 651/6/5
f 656/6/5 652/6/5 655/6/5
f 657/6/5 654/6/5 653/6/5
f 658/6/5 654/6/5 657/6/5
f 661/6/5 660/6/5 659/6/5
f 662/6/5 660/6/5 661/6/5
f 665/7/5 664/7/5 663/7/5
f 666/7/5 664/7/5 665/7/5
f 669/7/5 668/7/5 667/7/5
f 670/7/5 668/7/5 669/7/5
f 673/7/5 672/7/5 671/7/5
f 674/7/5 672/7/5 673/7/5
f 675/7/6 676/7/6 679/7/6
f 679/7/6 676/7/6 680/7/6
f 677/7/6 678/7/6 681/7/6
f 681/7/6 678/7/6 682/7/6
f 683/7/6 684/7/6 687/7/6
f 687/7/6 684/7/6 688/7/6
f 685/7/6 686/7/6 689/7/6
f 689/7/6 686/7/6 690/7/6
f 691/7/6 692/7/6 695/7/6
f 695/7/6 692/7/6 696/7/6
f 693/7/6 694/7/6 697/7/6
f 697/7/6 694/7/6 698/7/6
f 699/7/6 700/7/6 703/7/6
f 703/7/6 700/7/6 704/7/6
f 701/7/6 702/7/6 705/7/6
f 705/7/6 702/7/6 706/7/6
f 707/7/6 708/7/6 711/7/6
f 711/7/6 708/7/6 712/7/6
f 709/7/6 710/7/6 713/7/6
f 713/7/6 710/7/6 714/7/6
f 715/7/6 716/7/6 719/7/6
f 719/7/6 716/7/6 720/7/6
f 717/7/6 718/7/6 721/7/6
f 721/7/6 718/7/6 722/7/6
f 723/7/6 724/7/6 727/7/6
f 727/7/6 724/7/6 728/7/6
f 725/7/6 726/7/6 729/7/6
f 729/7/6 726/7/6 730/7/6
f 731/7/6 732/7/6 735/7/6
f 735/7/6 732/7/6 736/7/6
f 733/7/6 734/7/6 737/7/6
f 737/7/6 734/7/6 738/7/6
f 739/6/6 740/6/6 741/6/6
f 741/6/6 740/6/6 742/6/6
f 742/6/6 740/6/6 743/6/6
f 743/6/6 740/6/6 744/6/6
f 745/6/6 746/6/6 749/6/6
f 749/6/6 746/6/6 750/6/6
f 747/6/6 748/6/6 751/6/6
f 751/6/6 748/6/6 752/6/6
f 753/6/6 754/6/6 757/6/6
f 757/6/6 754/6/6 758/6/6
f 755/6/6 756/6/6 759/6/6
f 759/6/6 756/6/6 760/6/6
f 761/6/6 762/6/6 764/6/6
f 764/6/6 762/6/6 765/6/6
f 763/6/6 764/6/6 767/6/6
f 765/6/6 766/6/6 767/6/6
f 764/6/6 765/6/6 767/6/6
f 767/6/6 766/6/6 768/6/6
f 769/6/6 770/6/6 773/6/6
f 770/7/6 771/7/6 774/7/6
f 773/6/6 770/6/6 774/6/6
f 771/6/6 772/6/6 775/6/6
f 774/7/6 771/7/6 775/7/6
f 775/6/6 772/6/6 776/6/6
f 777/6/6 778/6/6 781/6/6
f 778/4/6 779/4/6 782/4/6
f 781/6/6 778/6/6 782/6/6
f 779/6/6 780/6/6 783/6/6
f 782/4/6 779/4/6 783/4/6
f 783/6/6 780/6/6 784/6/6
f 785/6/6 786/6/6 789/6/6
f 786/4/6 787/4/6 790/4/6
f 789/6/6 786/6/6 790/6/6
f 787/6/6 788/6/6 791/6/6
f 790/4/6 787/4/6 791/4/6
f 791/6/6 788/6/6 792/6/6
f 793/6/6 794/6/6 797/6/6
f 794/4/6 795/4/6 798/4/6
f 797/6/6 794/6/6 798/6/6
f 795/6/6 796/6/6 799/6/6
f 798/4/6 795/4/6 799/4/6
f 799/6/6 796/6/6 800/6/6
f 801/6/6 802/6/6 803/6/6
f 803/6/6 802/6/6 804/6/6
f 801/6/6 803/6/6 805/6/6
f 804/6/6 802/6/6 806/6/6
f 801/6/6 805/6/6 807/6/6
f 805/6/6 806/6/6 807/6/6
f 806/6/6 802/6/6 808/6/6
f 807/6/6 806/6/6 808/6/6
f 809/7/6 810/7/6 811/7/6
f 811/7/6 810/7/6 812/7/6
f 813/7/6 814/7/6 815/7/6
f 815/7/6 814/7/6 816/7/6
f 817/7/6 818/7/6 819/7/6
f 819/7/6 818/7/6 820/7/6
f 821/7/6 822/7/6 823/7/6
f 823/7/6 822/7/6 824/7/6
