# MagicaVoxel @ Ephtracy

# group
g trees and bushes-4

# material
mtllib trees and bushes-4.mtl
usemtl palette

# normals
vn -1 0 0
vn 1 0 0
vn 0 0 1
vn 0 0 -1
vn 0 -1 0
vn 0 1 0

# texcoords
vt 0.982422 0.5
vt 0.986328 0.5

# verts
v 0 0 -0
v 0 0 -1
v 0 0 -2
v 0 0 -4
v 0 0 -5
v 0 1 -1
v 0 1 -2
v 0 1 -4
v 0 1 -5
v 0 2 -1
v 0 2 -2
v 0 2 -3
v 0 3 -1
v 0 3 -2
v 0 3 -3
v 0 3 -4
v 0 4 -0
v 0 4 -1
v 0 4 -2
v 0 4 -4
v 0 5 -0
v 0 5 -1
v 0 5 -2
v 0 5 -4
v 0 6 -0
v 0 6 -1
v 0 6 -4
v 0 6 -5
v 0 7 -0
v 0 7 -1
v 0 7 -4
v 0 7 -5
v 12 0 -0
v 12 0 -1
v 12 0 -2
v 12 0 -5
v 12 1 -1
v 12 1 -2
v 12 1 -3
v 12 2 -0
v 12 2 -1
v 12 2 -2
v 12 2 -3
v 12 3 -0
v 12 3 -1
v 12 3 -2
v 12 3 -3
v 12 3 -4
v 12 3 -5
v 12 4 -1
v 12 4 -2
v 12 4 -3
v 12 4 -4
v 12 4 -5
v 12 5 -4
v 12 5 -5
v 12 6 -1
v 12 6 -2
v 12 6 -3
v 12 6 -4
v 12 6 -5
v 12 7 -0
v 12 7 -2
v 12 7 -3
v 12 7 -5
v 0 0 -0
v 0 4 -0
v 0 5 -0
v 0 6 -0
v 0 7 -0
v 1 1 -0
v 1 2 -0
v 1 4 -0
v 1 5 -0
v 1 6 -0
v 1 7 -0
v 2 4 -0
v 2 5 -0
v 2 6 -0
v 3 1 -0
v 3 2 -0
v 4 0 -0
v 4 1 -0
v 4 3 -0
v 4 4 -0
v 4 5 -0
v 5 0 -0
v 5 1 -0
v 5 2 -0
v 5 3 -0
v 5 4 -0
v 6 1 -0
v 6 2 -0
v 6 3 -0
v 6 4 -0
v 6 5 -0
v 6 6 -0
v 7 5 -0
v 7 6 -0
v 8 1 -0
v 8 3 -0
v 8 4 -0
v 9 1 -0
v 9 3 -0
v 10 1 -0
v 10 2 -0
v 10 4 -0
v 10 5 -0
v 10 6 -0
v 10 7 -0
v 11 1 -0
v 11 2 -0
v 11 3 -0
v 11 4 -0
v 11 5 -0
v 11 6 -0
v 11 7 -0
v 12 0 -0
v 12 2 -0
v 12 3 -0
v 12 7 -0
v 0 0 -5
v 0 1 -5
v 0 6 -5
v 0 7 -5
v 1 1 -5
v 1 2 -5
v 1 3 -5
v 1 4 -5
v 1 6 -5
v 1 7 -5
v 2 0 -5
v 2 2 -5
v 2 3 -5
v 2 4 -5
v 3 0 -5
v 3 1 -5
v 3 4 -5
v 3 5 -5
v 4 0 -5
v 4 1 -5
v 4 3 -5
v 4 4 -5
v 4 5 -5
v 5 3 -5
v 5 4 -5
v 5 5 -5
v 5 6 -5
v 6 2 -5
v 6 3 -5
v 6 5 -5
v 6 6 -5
v 7 2 -5
v 7 3 -5
v 7 4 -5
v 7 6 -5
v 8 4 -5
v 8 6 -5
v 8 7 -5
v 9 0 -5
v 9 2 -5
v 9 5 -5
v 9 6 -5
v 9 7 -5
v 10 0 -5
v 10 2 -5
v 11 3 -5
v 11 4 -5
v 12 0 -5
v 12 3 -5
v 12 4 -5
v 12 5 -5
v 12 6 -5
v 12 7 -5
v 0 0 -0
v 4 0 -0
v 5 0 -0
v 12 0 -0
v 0 0 -1
v 1 0 -1
v 4 0 -1
v 5 0 -1
v 11 0 -1
v 12 0 -1
v 0 0 -2
v 1 0 -2
v 11 0 -2
v 12 0 -2
v 0 0 -4
v 2 0 -4
v 3 0 -4
v 4 0 -4
v 9 0 -4
v 10 0 -4
v 0 0 -5
v 2 0 -5
v 3 0 -5
v 4 0 -5
v 9 0 -5
v 10 0 -5
v 12 0 -5
v 0 7 -0
v 1 7 -0
v 10 7 -0
v 11 7 -0
v 12 7 -0
v 0 7 -1
v 1 7 -1
v 2 7 -1
v 3 7 -1
v 4 7 -1
v 5 7 -1
v 7 7 -1
v 8 7 -1
v 2 7 -2
v 3 7 -2
v 4 7 -2
v 5 7 -2
v 6 7 -2
v 7 7 -2
v 8 7 -2
v 9 7 -2
v 10 7 -2
v 11 7 -2
v 12 7 -2
v 2 7 -3
v 4 7 -3
v 8 7 -3
v 9 7 -3
v 10 7 -3
v 11 7 -3
v 12 7 -3
v 0 7 -4
v 1 7 -4
v 2 7 -4
v 4 7 -4
v 6 7 -4
v 7 7 -4
v 10 7 -4
v 11 7 -4
v 0 7 -5
v 1 7 -5
v 8 7 -5
v 9 7 -5
v 12 7 -5

# faces
f 6/1/1 2/1/1 1/1/1
f 6/2/1 3/2/1 2/2/1
f 7/1/1 4/1/1 3/1/1
f 7/2/1 3/2/1 6/2/1
f 8/2/1 5/2/1 4/2/1
f 8/1/1 4/1/1 7/1/1
f 9/2/1 5/2/1 8/2/1
f 10/1/1 7/1/1 6/1/1
f 10/1/1 6/1/1 1/1/1
f 11/2/1 8/2/1 7/2/1
f 11/1/1 7/1/1 10/1/1
f 12/2/1 8/2/1 11/2/1
f 13/1/1 10/1/1 1/1/1
f 13/2/1 11/2/1 10/2/1
f 14/1/1 12/1/1 11/1/1
f 14/2/1 11/2/1 13/2/1
f 15/2/1 8/2/1 12/2/1
f 15/1/1 12/1/1 14/1/1
f 16/1/1 9/1/1 8/1/1
f 16/2/1 8/2/1 15/2/1
f 17/1/1 15/1/1 14/1/1
f 17/1/1 14/1/1 13/1/1
f 17/1/1 16/1/1 15/1/1
f 17/1/1 13/1/1 1/1/1
f 18/1/1 16/1/1 17/1/1
f 19/1/1 16/1/1 18/1/1
f 20/1/1 9/1/1 16/1/1
f 20/1/1 16/1/1 19/1/1
f 21/2/1 18/2/1 17/2/1
f 22/1/1 19/1/1 18/1/1
f 22/2/1 18/2/1 21/2/1
f 23/2/1 20/2/1 19/2/1
f 23/1/1 19/1/1 22/1/1
f 24/1/1 9/1/1 20/1/1
f 24/2/1 20/2/1 23/2/1
f 25/1/1 23/1/1 22/1/1
f 25/1/1 22/1/1 21/1/1
f 25/1/1 24/1/1 23/1/1
f 26/1/1 24/1/1 25/1/1
f 27/1/1 9/1/1 24/1/1
f 27/1/1 24/1/1 26/1/1
f 28/1/1 9/1/1 27/1/1
f 29/2/1 26/2/1 25/2/1
f 30/1/1 27/1/1 26/1/1
f 30/2/1 26/2/1 29/2/1
f 31/2/1 28/2/1 27/2/1
f 31/1/1 27/1/1 30/1/1
f 32/2/1 28/2/1 31/2/1
f 33/1/2 34/1/2 37/1/2
f 34/2/2 35/2/2 37/2/2
f 35/1/2 36/1/2 38/1/2
f 37/2/2 35/2/2 38/2/2
f 38/1/2 36/1/2 39/1/2
f 33/1/2 37/1/2 40/1/2
f 37/1/2 38/1/2 40/1/2
f 40/1/2 38/1/2 41/1/2
f 38/2/2 39/2/2 42/2/2
f 41/1/2 38/1/2 42/1/2
f 39/1/2 36/1/2 43/1/2
f 42/2/2 39/2/2 43/2/2
f 40/2/2 41/2/2 44/2/2
f 41/1/2 42/1/2 45/1/2
f 44/2/2 41/2/2 45/2/2
f 42/1/2 43/1/2 45/1/2
f 45/1/2 43/1/2 46/1/2
f 43/1/2 36/1/2 47/1/2
f 46/1/2 43/1/2 47/1/2
f 47/1/2 36/1/2 48/1/2
f 48/1/2 36/1/2 49/1/2
f 45/1/2 46/1/2 50/1/2
f 44/1/2 45/1/2 50/1/2
f 46/2/2 47/2/2 51/2/2
f 50/1/2 46/1/2 51/1/2
f 47/1/2 48/1/2 52/1/2
f 51/2/2 47/2/2 52/2/2
f 48/2/2 49/2/2 53/2/2
f 52/1/2 48/1/2 53/1/2
f 53/2/2 49/2/2 54/2/2
f 51/1/2 52/1/2 55/1/2
f 52/1/2 53/1/2 55/1/2
f 53/1/2 54/1/2 55/1/2
f 55/1/2 54/1/2 56/1/2
f 44/1/2 50/1/2 57/1/2
f 50/2/2 51/2/2 57/2/2
f 51/1/2 55/1/2 58/1/2
f 57/2/2 51/2/2 58/2/2
f 58/1/2 55/1/2 59/1/2
f 55/2/2 56/2/2 60/2/2
f 59/1/2 55/1/2 60/1/2
f 60/2/2 56/2/2 61/2/2
f 44/1/2 57/1/2 62/1/2
f 57/1/2 58/1/2 62/1/2
f 58/2/2 59/2/2 63/2/2
f 62/1/2 58/1/2 63/1/2
f 60/1/2 61/1/2 64/1/2
f 63/2/2 59/2/2 64/2/2
f 59/1/2 60/1/2 64/1/2
f 64/1/2 61/1/2 65/1/2
f 71/1/3 67/1/3 66/1/3
f 72/1/3 67/1/3 71/1/3
f 73/2/3 68/2/3 67/2/3
f 73/1/3 67/1/3 72/1/3
f 74/1/3 69/1/3 68/1/3
f 74/2/3 68/2/3 73/2/3
f 75/2/3 70/2/3 69/2/3
f 75/1/3 69/1/3 74/1/3
f 76/2/3 70/2/3 75/2/3
f 77/1/3 74/1/3 73/1/3
f 77/1/3 73/1/3 72/1/3
f 78/2/3 75/2/3 74/2/3
f 78/1/3 74/1/3 77/1/3
f 79/1/3 76/1/3 75/1/3
f 79/2/3 75/2/3 78/2/3
f 80/2/3 72/2/3 71/2/3
f 80/1/3 71/1/3 66/1/3
f 81/1/3 77/1/3 72/1/3
f 81/2/3 72/2/3 80/2/3
f 82/1/3 80/1/3 66/1/3
f 82/1/3 81/1/3 80/1/3
f 83/1/3 81/1/3 82/1/3
f 84/1/3 77/1/3 81/1/3
f 84/1/3 81/1/3 83/1/3
f 85/2/3 78/2/3 77/2/3
f 85/1/3 77/1/3 84/1/3
f 86/1/3 79/1/3 78/1/3
f 86/2/3 78/2/3 85/2/3
f 87/2/3 83/2/3 82/2/3
f 88/1/3 84/1/3 83/1/3
f 88/2/3 83/2/3 87/2/3
f 89/1/3 84/1/3 88/1/3
f 90/2/3 85/2/3 84/2/3
f 90/1/3 84/1/3 89/1/3
f 91/1/3 86/1/3 85/1/3
f 91/2/3 85/2/3 90/2/3
f 92/2/3 89/2/3 88/2/3
f 92/1/3 88/1/3 87/1/3
f 93/1/3 90/1/3 89/1/3
f 93/2/3 89/2/3 92/2/3
f 93/1/3 91/1/3 90/1/3
f 94/1/3 91/1/3 93/1/3
f 95/1/3 86/1/3 91/1/3
f 95/1/3 91/1/3 94/1/3
f 96/1/3 79/1/3 86/1/3
f 96/1/3 86/1/3 95/1/3
f 97/1/3 76/1/3 79/1/3
f 97/1/3 79/1/3 96/1/3
f 98/1/3 96/1/3 95/1/3
f 98/2/3 97/2/3 96/2/3
f 99/1/3 76/1/3 97/1/3
f 99/2/3 97/2/3 98/2/3
f 100/1/3 94/1/3 93/1/3
f 100/1/3 92/1/3 87/1/3
f 100/1/3 93/1/3 92/1/3
f 101/2/3 95/2/3 94/2/3
f 101/1/3 94/1/3 100/1/3
f 102/1/3 98/1/3 95/1/3
f 102/2/3 95/2/3 101/2/3
f 102/1/3 99/1/3 98/1/3
f 103/2/3 101/2/3 100/2/3
f 103/1/3 100/1/3 87/1/3
f 104/1/3 102/1/3 101/1/3
f 104/2/3 101/2/3 103/2/3
f 105/1/3 103/1/3 87/1/3
f 105/1/3 104/1/3 103/1/3
f 106/1/3 104/1/3 105/1/3
f 107/1/3 99/1/3 102/1/3
f 107/1/3 104/1/3 106/1/3
f 107/1/3 102/1/3 104/1/3
f 108/1/3 99/1/3 107/1/3
f 109/1/3 76/1/3 99/1/3
f 109/1/3 99/1/3 108/1/3
f 110/1/3 76/1/3 109/1/3
f 111/2/3 106/2/3 105/2/3
f 111/1/3 105/1/3 87/1/3
f 112/1/3 107/1/3 106/1/3
f 112/2/3 106/2/3 111/2/3
f 113/1/3 107/1/3 112/1/3
f 114/2/3 108/2/3 107/2/3
f 114/1/3 107/1/3 113/1/3
f 115/1/3 109/1/3 108/1/3
f 115/2/3 108/2/3 114/2/3
f 116/2/3 110/2/3 109/2/3
f 116/1/3 109/1/3 115/1/3
f 117/2/3 110/2/3 116/2/3
f 118/1/3 111/1/3 87/1/3
f 118/1/3 112/1/3 111/1/3
f 119/2/3 113/2/3 112/2/3
f 119/1/3 112/1/3 118/1/3
f 120/1/3 115/1/3 114/1/3
f 120/2/3 113/2/3 119/2/3
f 120/1/3 114/1/3 113/1/3
f 120/1/3 116/1/3 115/1/3
f 120/1/3 117/1/3 116/1/3
f 121/1/3 117/1/3 120/1/3
f 122/2/4 123/2/4 126/2/4
f 123/1/4 124/1/4 126/1/4
f 126/1/4 124/1/4 127/1/4
f 127/1/4 124/1/4 128/1/4
f 128/1/4 124/1/4 129/1/4
f 124/2/4 125/2/4 130/2/4
f 129/1/4 124/1/4 130/1/4
f 130/2/4 125/2/4 131/2/4
f 122/2/4 126/2/4 132/2/4
f 126/2/4 127/2/4 132/2/4
f 127/1/4 128/1/4 133/1/4
f 132/2/4 127/2/4 133/2/4
f 128/2/4 129/2/4 134/2/4
f 133/1/4 128/1/4 134/1/4
f 130/1/4 131/1/4 135/1/4
f 134/2/4 129/2/4 135/2/4
f 129/1/4 130/1/4 135/1/4
f 132/1/4 133/1/4 136/1/4
f 133/1/4 134/1/4 136/1/4
f 134/1/4 135/1/4 136/1/4
f 136/1/4 135/1/4 137/1/4
f 135/1/4 131/1/4 138/1/4
f 137/1/4 135/1/4 138/1/4
f 138/1/4 131/1/4 139/1/4
f 136/2/4 137/2/4 140/2/4
f 137/1/4 138/1/4 141/1/4
f 140/2/4 137/2/4 141/2/4
f 141/1/4 138/1/4 142/1/4
f 138/2/4 139/2/4 143/2/4
f 142/1/4 138/1/4 143/1/4
f 139/1/4 131/1/4 144/1/4
f 143/2/4 139/2/4 144/2/4
f 142/2/4 143/2/4 145/2/4
f 141/1/4 142/1/4 145/1/4
f 140/1/4 141/1/4 145/1/4
f 143/1/4 144/1/4 146/1/4
f 145/2/4 143/2/4 146/2/4
f 144/1/4 131/1/4 147/1/4
f 146/1/4 144/1/4 147/1/4
f 147/1/4 131/1/4 148/1/4
f 145/1/4 146/1/4 149/1/4
f 140/1/4 145/1/4 149/1/4
f 146/1/4 147/1/4 149/1/4
f 149/1/4 147/1/4 150/1/4
f 147/2/4 148/2/4 151/2/4
f 150/1/4 147/1/4 151/1/4
f 148/1/4 131/1/4 152/1/4
f 151/2/4 148/2/4 152/2/4
f 149/2/4 150/2/4 153/2/4
f 140/1/4 149/1/4 153/1/4
f 150/1/4 151/1/4 154/1/4
f 153/2/4 150/2/4 154/2/4
f 151/1/4 152/1/4 154/1/4
f 154/1/4 152/1/4 155/1/4
f 152/1/4 131/1/4 156/1/4
f 155/1/4 152/1/4 156/1/4
f 154/1/4 155/1/4 157/1/4
f 153/1/4 154/1/4 157/1/4
f 155/2/4 156/2/4 157/2/4
f 156/1/4 131/1/4 158/1/4
f 157/2/4 156/2/4 158/2/4
f 158/1/4 131/1/4 159/1/4
f 140/1/4 153/1/4 160/1/4
f 153/1/4 157/1/4 160/1/4
f 157/1/4 158/1/4 160/1/4
f 160/1/4 158/1/4 161/1/4
f 161/1/4 158/1/4 162/1/4
f 158/2/4 159/2/4 163/2/4
f 162/1/4 158/1/4 163/1/4
f 163/2/4 159/2/4 164/2/4
f 160/2/4 161/2/4 165/2/4
f 161/1/4 162/1/4 166/1/4
f 165/2/4 161/2/4 166/2/4
f 165/1/4 166/1/4 167/1/4
f 166/1/4 162/1/4 167/1/4
f 167/1/4 162/1/4 168/1/4
f 165/1/4 167/1/4 169/1/4
f 167/2/4 168/2/4 170/2/4
f 169/1/4 167/1/4 170/1/4
f 168/1/4 162/1/4 171/1/4
f 170/2/4 168/2/4 171/2/4
f 162/2/4 163/2/4 172/2/4
f 171/1/4 162/1/4 172/1/4
f 163/1/4 164/1/4 173/1/4
f 172/2/4 163/2/4 173/2/4
f 173/1/4 164/1/4 174/1/4
f 179/1/5 176/1/5 175/1/5
f 180/1/5 176/1/5 179/1/5
f 181/2/5 177/2/5 176/2/5
f 181/1/5 176/1/5 180/1/5
f 182/1/5 178/1/5 177/1/5
f 182/2/5 177/2/5 181/2/5
f 183/1/5 178/1/5 182/1/5
f 184/1/5 178/1/5 183/1/5
f 185/2/5 180/2/5 179/2/5
f 186/1/5 181/1/5 180/1/5
f 186/2/5 180/2/5 185/2/5
f 186/1/5 182/1/5 181/1/5
f 186/1/5 183/1/5 182/1/5
f 187/2/5 184/2/5 183/2/5
f 187/1/5 183/1/5 186/1/5
f 188/2/5 184/2/5 187/2/5
f 189/1/5 186/1/5 185/1/5
f 189/1/5 187/1/5 186/1/5
f 189/1/5 188/1/5 187/1/5
f 190/1/5 188/1/5 189/1/5
f 191/1/5 188/1/5 190/1/5
f 192/1/5 188/1/5 191/1/5
f 193/1/5 188/1/5 192/1/5
f 194/1/5 188/1/5 193/1/5
f 195/2/5 190/2/5 189/2/5
f 196/1/5 191/1/5 190/1/5
f 196/2/5 190/2/5 195/2/5
f 197/2/5 192/2/5 191/2/5
f 197/1/5 191/1/5 196/1/5
f 198/1/5 193/1/5 192/1/5
f 198/2/5 192/2/5 197/2/5
f 199/2/5 194/2/5 193/2/5
f 199/1/5 193/1/5 198/1/5
f 200/1/5 188/1/5 194/1/5
f 200/2/5 194/2/5 199/2/5
f 201/1/5 188/1/5 200/1/5
f 202/2/6 203/2/6 207/2/6
f 203/1/6 204/1/6 208/1/6
f 207/2/6 203/2/6 208/2/6
f 208/1/6 204/1/6 209/1/6
f 209/1/6 204/1/6 210/1/6
f 210/1/6 204/1/6 211/1/6
f 211/1/6 204/1/6 212/1/6
f 212/1/6 204/1/6 213/1/6
f 213/1/6 204/1/6 214/1/6
f 207/1/6 208/1/6 215/1/6
f 208/1/6 209/1/6 215/1/6
f 209/2/6 210/2/6 215/2/6
f 210/1/6 211/1/6 216/1/6
f 215/2/6 210/2/6 216/2/6
f 211/2/6 212/2/6 217/2/6
f 216/1/6 211/1/6 217/1/6
f 212/1/6 213/1/6 218/1/6
f 217/2/6 212/2/6 218/2/6
f 218/1/6 213/1/6 219/1/6
f 213/2/6 214/2/6 220/2/6
f 219/1/6 213/1/6 220/1/6
f 214/1/6 204/1/6 221/1/6
f 220/2/6 214/2/6 221/2/6
f 221/1/6 204/1/6 222/1/6
f 204/2/6 205/2/6 223/2/6
f 222/1/6 204/1/6 223/1/6
f 205/1/6 206/1/6 224/1/6
f 223/2/6 205/2/6 224/2/6
f 224/1/6 206/1/6 225/1/6
f 218/1/6 219/1/6 226/1/6
f 216/1/6 217/1/6 226/1/6
f 207/1/6 215/1/6 226/1/6
f 215/1/6 216/1/6 226/1/6
f 217/1/6 218/1/6 226/1/6
f 226/1/6 219/1/6 227/1/6
f 221/1/6 222/1/6 228/1/6
f 220/1/6 221/1/6 228/1/6
f 222/2/6 223/2/6 229/2/6
f 228/1/6 222/1/6 229/1/6
f 224/2/6 225/2/6 229/2/6
f 223/2/6 224/2/6 229/2/6
f 229/2/6 225/2/6 230/2/6
f 230/2/6 225/2/6 231/2/6
f 231/2/6 225/2/6 232/2/6
f 207/1/6 226/1/6 233/1/6
f 233/1/6 226/1/6 234/1/6
f 226/2/6 227/2/6 235/2/6
f 234/1/6 226/1/6 235/1/6
f 227/1/6 219/1/6 236/1/6
f 235/2/6 227/2/6 236/2/6
f 219/2/6 220/2/6 237/2/6
f 236/1/6 219/1/6 237/1/6
f 220/1/6 228/1/6 238/1/6
f 237/2/6 220/2/6 238/2/6
f 229/1/6 230/1/6 239/1/6
f 230/2/6 231/2/6 239/2/6
f 231/1/6 232/1/6 240/1/6
f 239/2/6 231/2/6 240/2/6
f 233/2/6 234/2/6 241/2/6
f 236/1/6 237/1/6 242/1/6
f 241/2/6 234/2/6 242/2/6
f 234/1/6 235/1/6 242/1/6
f 235/1/6 236/1/6 242/1/6
f 237/1/6 238/1/6 242/1/6
f 228/2/6 229/2/6 243/2/6
f 242/1/6 238/1/6 243/1/6
f 238/1/6 228/1/6 243/1/6
f 239/1/6 240/1/6 244/1/6
f 243/2/6 229/2/6 244/2/6
f 229/1/6 239/1/6 244/1/6
f 240/1/6 232/1/6 245/1/6
f 244/1/6 240/1/6 245/1/6
