# MagicaVoxel @ Ephtracy

# group
g trees and bushes-5

# material
mtllib trees and bushes-5.mtl
usemtl palette

# normals
vn -1 0 0
vn 1 0 0
vn 0 0 1
vn 0 0 -1
vn 0 -1 0
vn 0 1 0

# texcoords
vt 0.896484 0.5
vt 0.900391 0.5
vt 0.982422 0.5
vt 0.986328 0.5

# verts
v -1 0 -3
v -1 0 -4
v -1 0 -5
v -1 1 -3
v -1 1 -4
v -1 1 -5
v -1 3 -3
v -1 3 -4
v 0 0 -0
v 0 0 -1
v 0 0 -2
v 0 0 -3
v 0 1 -1
v 0 1 -2
v 0 1 -3
v 0 1 -4
v 0 1 -5
v 0 2 -1
v 0 2 -2
v 0 2 -3
v 0 3 -1
v 0 3 -2
v 0 3 -3
v 0 3 -4
v 0 4 -0
v 0 4 -1
v 0 4 -2
v 0 4 -4
v 0 5 -0
v 0 5 -1
v 0 5 -2
v 0 5 -4
v 0 6 -0
v 0 6 -1
v 0 6 -4
v 0 6 -5
v 0 7 -0
v 0 7 -1
v 0 7 -4
v 0 7 -5
v 2 6 1
v 2 6 -0
v 2 7 1
v 2 7 -0
v 3 0 -5
v 3 0 -6
v 3 1 -5
v 3 1 -6
v 3 7 -0
v 3 7 -1
v 3 8 -0
v 3 8 -1
v 4 1 -5
v 4 1 -6
v 4 2 -5
v 4 2 -6
v 4 7 1
v 4 7 -0
v 4 8 1
v 4 8 -0
v 4 8 -1
v 4 9 -0
v 4 9 -1
v 8 0 -5
v 8 0 -6
v 8 1 -5
v 8 1 -6
v 9 0 1
v 9 0 -0
v 9 1 1
v 9 1 -0
v 10 1 1
v 10 1 -0
v 10 2 1
v 10 2 -0
v 11 0 2
v 11 0 1
v 11 1 2
v 11 1 1
v 11 2 2
v 11 2 1
v 11 2 -0
v 11 3 1
v 11 3 -0
v 5 1 -5
v 5 1 -6
v 5 2 -5
v 5 2 -6
v 5 6 1
v 5 6 -0
v 5 7 1
v 5 7 -0
v 5 8 1
v 5 8 -0
v 5 8 -1
v 5 9 -0
v 5 9 -1
v 6 0 -5
v 6 0 -6
v 6 1 -5
v 6 1 -6
v 6 7 -0
v 6 7 -1
v 6 8 -0
v 6 8 -1
v 9 0 -5
v 9 0 -6
v 9 1 -5
v 9 1 -6
v 12 0 2
v 12 0 1
v 12 0 -0
v 12 0 -1
v 12 0 -2
v 12 0 -5
v 12 1 2
v 12 1 1
v 12 1 -0
v 12 1 -1
v 12 1 -2
v 12 1 -3
v 12 2 2
v 12 2 1
v 12 2 -0
v 12 2 -1
v 12 2 -2
v 12 2 -3
v 12 3 1
v 12 3 -0
v 12 3 -1
v 12 3 -2
v 12 3 -3
v 12 3 -4
v 12 3 -5
v 12 4 -1
v 12 4 -2
v 12 4 -3
v 12 4 -4
v 12 4 -5
v 12 5 -4
v 12 5 -5
v 12 6 -1
v 12 6 -2
v 12 6 -3
v 12 6 -4
v 12 6 -5
v 12 7 -0
v 12 7 -2
v 12 7 -3
v 12 7 -5
v 13 0 1
v 13 0 -0
v 13 1 1
v 13 1 -0
v 13 2 1
v 13 2 -0
v 11 0 2
v 11 1 2
v 11 2 2
v 12 0 2
v 12 1 2
v 12 2 2
v 2 6 1
v 2 7 1
v 3 6 1
v 3 7 1
v 4 6 1
v 4 7 1
v 4 8 1
v 5 6 1
v 5 7 1
v 5 8 1
v 9 0 1
v 9 1 1
v 10 0 1
v 10 1 1
v 10 2 1
v 11 0 1
v 11 1 1
v 11 2 1
v 11 3 1
v 12 0 1
v 12 1 1
v 12 2 1
v 12 3 1
v 13 0 1
v 13 1 1
v 13 2 1
v 0 0 -0
v 0 4 -0
v 0 5 -0
v 0 6 -0
v 0 7 -0
v 1 1 -0
v 1 2 -0
v 1 4 -0
v 1 5 -0
v 1 6 -0
v 1 7 -0
v 2 4 -0
v 2 5 -0
v 2 6 -0
v 2 7 -0
v 3 1 -0
v 3 2 -0
v 3 6 -0
v 3 7 -0
v 3 8 -0
v 4 0 -0
v 4 1 -0
v 4 3 -0
v 4 4 -0
v 4 5 -0
v 4 6 -0
v 4 7 -0
v 4 8 -0
v 4 9 -0
v 5 0 -0
v 5 1 -0
v 5 2 -0
v 5 3 -0
v 5 4 -0
v 5 6 -0
v 5 7 -0
v 5 8 -0
v 5 9 -0
v 6 1 -0
v 6 2 -0
v 6 3 -0
v 6 4 -0
v 6 5 -0
v 6 6 -0
v 6 7 -0
v 6 8 -0
v 7 5 -0
v 7 6 -0
v 8 1 -0
v 8 3 -0
v 8 4 -0
v 9 0 -0
v 9 1 -0
v 9 3 -0
v 10 1 -0
v 10 2 -0
v 10 4 -0
v 10 5 -0
v 10 6 -0
v 10 7 -0
v 11 2 -0
v 11 3 -0
v 11 4 -0
v 11 5 -0
v 11 6 -0
v 11 7 -0
v 12 3 -0
v 12 7 -0
v -1 0 -3
v -1 1 -3
v -1 3 -3
v 0 0 -3
v 0 1 -3
v 0 2 -3
v 0 3 -3
v 12 0 -0
v 12 1 -0
v 12 2 -0
v 13 0 -0
v 13 1 -0
v 13 2 -0
v 3 7 -1
v 3 8 -1
v 4 7 -1
v 4 8 -1
v 4 9 -1
v 5 7 -1
v 5 8 -1
v 5 9 -1
v 6 7 -1
v 6 8 -1
v -1 1 -4
v -1 3 -4
v 0 1 -4
v 0 3 -4
v -1 0 -5
v -1 1 -5
v 0 0 -5
v 0 1 -5
v 0 6 -5
v 0 7 -5
v 1 1 -5
v 1 2 -5
v 1 3 -5
v 1 4 -5
v 1 6 -5
v 1 7 -5
v 2 0 -5
v 2 2 -5
v 2 3 -5
v 2 4 -5
v 3 0 -5
v 3 1 -5
v 3 4 -5
v 3 5 -5
v 4 1 -5
v 4 2 -5
v 4 3 -5
v 4 4 -5
v 4 5 -5
v 5 1 -5
v 5 2 -5
v 5 3 -5
v 5 4 -5
v 5 5 -5
v 5 6 -5
v 6 0 -5
v 6 1 -5
v 6 2 -5
v 6 3 -5
v 6 5 -5
v 6 6 -5
v 7 2 -5
v 7 3 -5
v 7 4 -5
v 7 6 -5
v 8 0 -5
v 8 1 -5
v 8 4 -5
v 8 6 -5
v 8 7 -5
v 9 0 -5
v 9 1 -5
v 9 2 -5
v 9 5 -5
v 9 6 -5
v 9 7 -5
v 10 0 -5
v 10 2 -5
v 11 3 -5
v 11 4 -5
v 12 0 -5
v 12 3 -5
v 12 4 -5
v 12 5 -5
v 12 6 -5
v 12 7 -5
v 3 0 -6
v 3 1 -6
v 4 1 -6
v 4 2 -6
v 5 0 -6
v 5 1 -6
v 5 2 -6
v 6 0 -6
v 6 1 -6
v 8 0 -6
v 8 1 -6
v 9 0 -6
v 9 1 -6
v 11 0 2
v 12 0 2
v 9 0 1
v 10 0 1
v 11 0 1
v 12 0 1
v 13 0 1
v 0 0 -0
v 4 0 -0
v 5 0 -0
v 9 0 -0
v 10 0 -0
v 11 0 -0
v 12 0 -0
v 13 0 -0
v 0 0 -1
v 1 0 -1
v 4 0 -1
v 5 0 -1
v 11 0 -1
v 12 0 -1
v 0 0 -2
v 1 0 -2
v 11 0 -2
v 12 0 -2
v -1 0 -3
v 0 0 -3
v -1 0 -4
v 0 0 -4
v 2 0 -4
v 3 0 -4
v 4 0 -4
v 9 0 -4
v 10 0 -4
v -1 0 -5
v 0 0 -5
v 2 0 -5
v 3 0 -5
v 4 0 -5
v 5 0 -5
v 6 0 -5
v 8 0 -5
v 9 0 -5
v 10 0 -5
v 12 0 -5
v 3 0 -6
v 5 0 -6
v 6 0 -6
v 8 0 -6
v 9 0 -6
v 2 6 1
v 3 6 1
v 4 6 1
v 5 6 1
v 2 6 -0
v 3 6 -0
v 4 6 -0
v 5 6 -0
v 9 1 1
v 10 1 1
v 9 1 -0
v 10 1 -0
v -1 1 -4
v 0 1 -4
v -1 1 -5
v 0 1 -5
v 3 1 -5
v 4 1 -5
v 5 1 -5
v 6 1 -5
v 8 1 -5
v 9 1 -5
v 3 1 -6
v 4 1 -6
v 5 1 -6
v 6 1 -6
v 8 1 -6
v 9 1 -6
v 11 2 2
v 12 2 2
v 10 2 1
v 11 2 1
v 12 2 1
v 13 2 1
v 10 2 -0
v 11 2 -0
v 12 2 -0
v 13 2 -0
v 4 2 -5
v 5 2 -5
v 4 2 -6
v 5 2 -6
v 11 3 1
v 12 3 1
v 11 3 -0
v 12 3 -0
v -1 3 -3
v 0 3 -3
v -1 3 -4
v 0 3 -4
v 2 7 1
v 3 7 1
v 4 7 1
v 0 7 -0
v 1 7 -0
v 2 7 -0
v 3 7 -0
v 4 7 -0
v 6 7 -0
v 10 7 -0
v 11 7 -0
v 12 7 -0
v 0 7 -1
v 1 7 -1
v 2 7 -1
v 3 7 -1
v 4 7 -1
v 5 7 -1
v 6 7 -1
v 7 7 -1
v 8 7 -1
v 2 7 -2
v 3 7 -2
v 4 7 -2
v 5 7 -2
v 6 7 -2
v 7 7 -2
v 8 7 -2
v 9 7 -2
v 10 7 -2
v 11 7 -2
v 12 7 -2
v 2 7 -3
v 4 7 -3
v 8 7 -3
v 9 7 -3
v 10 7 -3
v 11 7 -3
v 12 7 -3
v 0 7 -4
v 1 7 -4
v 2 7 -4
v 4 7 -4
v 6 7 -4
v 7 7 -4
v 10 7 -4
v 11 7 -4
v 0 7 -5
v 1 7 -5
v 8 7 -5
v 9 7 -5
v 12 7 -5
v 4 8 1
v 5 8 1
v 3 8 -0
v 4 8 -0
v 5 8 -0
v 6 8 -0
v 3 8 -1
v 4 8 -1
v 5 8 -1
v 6 8 -1
v 4 9 -0
v 5 9 -0
v 4 9 -1
v 5 9 -1

# faces
f 4/1/1 2/1/1 1/1/1
f 5/2/1 3/2/1 2/2/1
f 5/1/1 2/1/1 4/1/1
f 6/2/1 3/2/1 5/2/1
f 7/2/1 5/2/1 4/2/1
f 8/2/1 5/2/1 7/2/1
f 13/3/1 10/3/1 9/3/1
f 13/4/1 11/4/1 10/4/1
f 14/3/1 12/3/1 11/3/1
f 14/4/1 11/4/1 13/4/1
f 15/3/1 12/3/1 14/3/1
f 18/3/1 13/3/1 9/3/1
f 18/3/1 14/3/1 13/3/1
f 19/4/1 15/4/1 14/4/1
f 19/3/1 14/3/1 18/3/1
f 20/4/1 15/4/1 19/4/1
f 21/3/1 18/3/1 9/3/1
f 21/4/1 19/4/1 18/4/1
f 22/3/1 20/3/1 19/3/1
f 22/4/1 19/4/1 21/4/1
f 23/3/1 20/3/1 22/3/1
f 24/3/1 17/3/1 16/3/1
f 25/3/1 23/3/1 22/3/1
f 25/3/1 24/3/1 23/3/1
f 25/3/1 22/3/1 21/3/1
f 25/3/1 21/3/1 9/3/1
f 26/3/1 24/3/1 25/3/1
f 27/3/1 24/3/1 26/3/1
f 28/3/1 17/3/1 24/3/1
f 28/3/1 24/3/1 27/3/1
f 29/4/1 26/4/1 25/4/1
f 30/3/1 27/3/1 26/3/1
f 30/4/1 26/4/1 29/4/1
f 31/4/1 28/4/1 27/4/1
f 31/3/1 27/3/1 30/3/1
f 32/3/1 17/3/1 28/3/1
f 32/4/1 28/4/1 31/4/1
f 33/3/1 31/3/1 30/3/1
f 33/3/1 30/3/1 29/3/1
f 33/3/1 32/3/1 31/3/1
f 34/3/1 32/3/1 33/3/1
f 35/3/1 17/3/1 32/3/1
f 35/3/1 32/3/1 34/3/1
f 36/3/1 17/3/1 35/3/1
f 37/4/1 34/4/1 33/4/1
f 38/3/1 35/3/1 34/3/1
f 38/4/1 34/4/1 37/4/1
f 39/4/1 36/4/1 35/4/1
f 39/3/1 35/3/1 38/3/1
f 40/4/1 36/4/1 39/4/1
f 43/1/1 42/1/1 41/1/1
f 44/1/1 42/1/1 43/1/1
f 47/1/1 46/1/1 45/1/1
f 48/1/1 46/1/1 47/1/1
f 51/2/1 50/2/1 49/2/1
f 52/2/1 50/2/1 51/2/1
f 55/2/1 54/2/1 53/2/1
f 56/2/1 54/2/1 55/2/1
f 59/2/1 58/2/1 57/2/1
f 60/2/1 58/2/1 59/2/1
f 62/2/1 61/2/1 60/2/1
f 63/2/1 61/2/1 62/2/1
f 66/2/1 65/2/1 64/2/1
f 67/2/1 65/2/1 66/2/1
f 70/1/1 69/1/1 68/1/1
f 71/1/1 69/1/1 70/1/1
f 74/1/1 73/1/1 72/1/1
f 75/1/1 73/1/1 74/1/1
f 78/1/1 77/1/1 76/1/1
f 79/1/1 77/1/1 78/1/1
f 80/2/1 79/2/1 78/2/1
f 81/2/1 79/2/1 80/2/1
f 83/2/1 82/2/1 81/2/1
f 84/2/1 82/2/1 83/2/1
f 85/2/2 86/2/2 87/2/2
f 87/2/2 86/2/2 88/2/2
f 89/1/2 90/1/2 91/1/2
f 91/1/2 90/1/2 92/1/2
f 91/2/2 92/2/2 93/2/2
f 93/2/2 92/2/2 94/2/2
f 94/2/2 95/2/2 96/2/2
f 96/2/2 95/2/2 97/2/2
f 98/2/2 99/2/2 100/2/2
f 100/2/2 99/2/2 101/2/2
f 102/1/2 103/1/2 104/1/2
f 104/1/2 103/1/2 105/1/2
f 106/2/2 107/2/2 108/2/2
f 108/2/2 107/2/2 109/2/2
f 110/1/2 111/1/2 116/1/2
f 116/1/2 111/1/2 117/1/2
f 112/3/2 113/3/2 118/3/2
f 113/4/2 114/4/2 119/4/2
f 118/3/2 113/3/2 119/3/2
f 114/3/2 115/3/2 120/3/2
f 119/4/2 114/4/2 120/4/2
f 120/3/2 115/3/2 121/3/2
f 116/2/2 117/2/2 122/2/2
f 122/2/2 117/2/2 123/2/2
f 118/3/2 119/3/2 124/3/2
f 119/3/2 120/3/2 124/3/2
f 124/3/2 120/3/2 125/3/2
f 120/4/2 121/4/2 126/4/2
f 125/3/2 120/3/2 126/3/2
f 121/3/2 115/3/2 127/3/2
f 126/4/2 121/4/2 127/4/2
f 123/2/2 124/2/2 128/2/2
f 124/4/2 125/4/2 129/4/2
f 128/2/2 124/2/2 129/2/2
f 125/3/2 126/3/2 130/3/2
f 129/4/2 125/4/2 130/4/2
f 126/3/2 127/3/2 130/3/2
f 130/3/2 127/3/2 131/3/2
f 127/3/2 115/3/2 132/3/2
f 131/3/2 127/3/2 132/3/2
f 132/3/2 115/3/2 133/3/2
f 133/3/2 115/3/2 134/3/2
f 130/3/2 131/3/2 135/3/2
f 129/3/2 130/3/2 135/3/2
f 131/4/2 132/4/2 136/4/2
f 135/3/2 131/3/2 136/3/2
f 132/3/2 133/3/2 137/3/2
f 136/4/2 132/4/2 137/4/2
f 133/4/2 134/4/2 138/4/2
f 137/3/2 133/3/2 138/3/2
f 138/4/2 134/4/2 139/4/2
f 136/3/2 137/3/2 140/3/2
f 137/3/2 138/3/2 140/3/2
f 138/3/2 139/3/2 140/3/2
f 140/3/2 139/3/2 141/3/2
f 135/4/2 136/4/2 142/4/2
f 129/3/2 135/3/2 142/3/2
f 136/3/2 140/3/2 143/3/2
f 142/4/2 136/4/2 143/4/2
f 143/3/2 140/3/2 144/3/2
f 140/4/2 141/4/2 145/4/2
f 144/3/2 140/3/2 145/3/2
f 145/4/2 141/4/2 146/4/2
f 129/3/2 142/3/2 147/3/2
f 142/3/2 143/3/2 147/3/2
f 143/4/2 144/4/2 148/4/2
f 147/3/2 143/3/2 148/3/2
f 145/3/2 146/3/2 149/3/2
f 148/4/2 144/4/2 149/4/2
f 144/3/2 145/3/2 149/3/2
f 149/3/2 146/3/2 150/3/2
f 151/1/2 152/1/2 153/1/2
f 153/1/2 152/1/2 154/1/2
f 153/2/2 154/2/2 155/2/2
f 155/2/2 154/2/2 156/2/2
f 160/1/3 158/1/3 157/1/3
f 161/2/3 159/2/3 158/2/3
f 161/1/3 158/1/3 160/1/3
f 162/2/3 159/2/3 161/2/3
f 165/1/3 164/1/3 163/1/3
f 166/1/3 164/1/3 165/1/3
f 167/2/3 166/2/3 165/2/3
f 168/2/3 166/2/3 167/2/3
f 170/1/3 168/1/3 167/1/3
f 171/2/3 169/2/3 168/2/3
f 171/1/3 168/1/3 170/1/3
f 172/2/3 169/2/3 171/2/3
f 175/1/3 174/1/3 173/1/3
f 176/1/3 174/1/3 175/1/3
f 178/2/3 176/2/3 175/2/3
f 179/1/3 177/1/3 176/1/3
f 179/2/3 176/2/3 178/2/3
f 180/1/3 177/1/3 179/1/3
f 184/2/3 181/2/3 180/2/3
f 185/2/3 181/2/3 184/2/3
f 186/1/3 183/1/3 182/1/3
f 187/2/3 184/2/3 183/2/3
f 187/1/3 183/1/3 186/1/3
f 188/2/3 184/2/3 187/2/3
f 194/3/3 190/3/3 189/3/3
f 195/3/3 190/3/3 194/3/3
f 196/4/3 191/4/3 190/4/3
f 196/3/3 190/3/3 195/3/3
f 197/3/3 192/3/3 191/3/3
f 197/4/3 191/4/3 196/4/3
f 198/4/3 193/4/3 192/4/3
f 198/3/3 192/3/3 197/3/3
f 199/4/3 193/4/3 198/4/3
f 200/3/3 197/3/3 196/3/3
f 200/3/3 196/3/3 195/3/3
f 201/4/3 198/4/3 197/4/3
f 201/3/3 197/3/3 200/3/3
f 202/3/3 199/3/3 198/3/3
f 202/4/3 198/4/3 201/4/3
f 203/3/3 199/3/3 202/3/3
f 204/4/3 195/4/3 194/4/3
f 204/3/3 194/3/3 189/3/3
f 205/3/3 200/3/3 195/3/3
f 205/4/3 195/4/3 204/4/3
f 206/3/3 202/3/3 201/3/3
f 209/3/3 205/3/3 204/3/3
f 209/3/3 204/3/3 189/3/3
f 210/3/3 205/3/3 209/3/3
f 211/3/3 200/3/3 205/3/3
f 211/3/3 205/3/3 210/3/3
f 212/4/3 201/4/3 200/4/3
f 212/3/3 200/3/3 211/3/3
f 213/3/3 206/3/3 201/3/3
f 213/4/3 201/4/3 212/4/3
f 214/3/3 206/3/3 213/3/3
f 215/2/3 208/2/3 207/2/3
f 216/2/3 208/2/3 215/2/3
f 218/4/3 210/4/3 209/4/3
f 219/3/3 211/3/3 210/3/3
f 219/4/3 210/4/3 218/4/3
f 220/3/3 211/3/3 219/3/3
f 221/4/3 212/4/3 211/4/3
f 221/3/3 211/3/3 220/3/3
f 222/3/3 214/3/3 213/3/3
f 222/4/3 212/4/3 221/4/3
f 222/3/3 213/3/3 212/3/3
f 223/3/3 214/3/3 222/3/3
f 225/2/3 217/2/3 216/2/3
f 226/2/3 217/2/3 225/2/3
f 227/4/3 220/4/3 219/4/3
f 227/3/3 219/3/3 218/3/3
f 228/3/3 221/3/3 220/3/3
f 228/4/3 220/4/3 227/4/3
f 228/3/3 224/3/3 223/3/3
f 228/3/3 222/3/3 221/3/3
f 228/3/3 223/3/3 222/3/3
f 229/3/3 224/3/3 228/3/3
f 230/3/3 224/3/3 229/3/3
f 231/3/3 224/3/3 230/3/3
f 232/3/3 224/3/3 231/3/3
f 233/1/3 225/1/3 224/1/3
f 233/3/3 224/3/3 232/3/3
f 234/1/3 225/1/3 233/1/3
f 235/4/3 232/4/3 231/4/3
f 235/3/3 231/3/3 230/3/3
f 236/3/3 233/3/3 232/3/3
f 236/4/3 232/4/3 235/4/3
f 237/3/3 227/3/3 218/3/3
f 237/3/3 228/3/3 227/3/3
f 237/3/3 229/3/3 228/3/3
f 238/4/3 230/4/3 229/4/3
f 238/3/3 229/3/3 237/3/3
f 239/3/3 236/3/3 235/3/3
f 239/4/3 230/4/3 238/4/3
f 239/3/3 235/3/3 230/3/3
f 240/3/3 237/3/3 218/3/3
f 241/4/3 238/4/3 237/4/3
f 241/3/3 237/3/3 240/3/3
f 242/3/3 239/3/3 238/3/3
f 242/4/3 238/4/3 241/4/3
f 243/3/3 242/3/3 241/3/3
f 244/3/3 242/3/3 243/3/3
f 245/3/3 236/3/3 239/3/3
f 245/3/3 242/3/3 244/3/3
f 245/3/3 239/3/3 242/3/3
f 246/3/3 236/3/3 245/3/3
f 247/3/3 233/3/3 236/3/3
f 247/3/3 236/3/3 246/3/3
f 248/3/3 233/3/3 247/3/3
f 249/3/3 245/3/3 244/3/3
f 250/3/3 245/3/3 249/3/3
f 251/4/3 246/4/3 245/4/3
f 251/3/3 245/3/3 250/3/3
f 252/3/3 247/3/3 246/3/3
f 252/4/3 246/4/3 251/4/3
f 253/4/3 248/4/3 247/4/3
f 253/3/3 247/3/3 252/3/3
f 254/4/3 248/4/3 253/4/3
f 255/3/3 252/3/3 251/3/3
f 255/3/3 254/3/3 253/3/3
f 255/3/3 253/3/3 252/3/3
f 255/3/3 251/3/3 250/3/3
f 256/3/3 254/3/3 255/3/3
f 260/1/3 258/1/3 257/1/3
f 261/2/3 259/2/3 258/2/3
f 261/1/3 258/1/3 260/1/3
f 262/2/3 259/2/3 261/2/3
f 263/2/3 259/2/3 262/2/3
f 264/1/4 265/1/4 267/1/4
f 265/2/4 266/2/4 268/2/4
f 267/1/4 265/1/4 268/1/4
f 268/2/4 266/2/4 269/2/4
f 270/2/4 271/2/4 272/2/4
f 272/2/4 271/2/4 273/2/4
f 272/1/4 273/1/4 275/1/4
f 273/2/4 274/2/4 276/2/4
f 275/1/4 273/1/4 276/1/4
f 276/2/4 274/2/4 277/2/4
f 275/1/4 276/1/4 278/1/4
f 278/1/4 276/1/4 279/1/4
f 280/2/4 281/2/4 282/2/4
f 282/2/4 281/2/4 283/2/4
f 284/2/4 285/2/4 286/2/4
f 286/2/4 285/2/4 287/2/4
f 286/4/4 287/4/4 290/4/4
f 287/3/4 288/3/4 290/3/4
f 290/3/4 288/3/4 291/3/4
f 291/3/4 288/3/4 292/3/4
f 292/3/4 288/3/4 293/3/4
f 288/4/4 289/4/4 294/4/4
f 293/3/4 288/3/4 294/3/4
f 294/4/4 289/4/4 295/4/4
f 286/4/4 290/4/4 296/4/4
f 290/4/4 291/4/4 296/4/4
f 291/3/4 292/3/4 297/3/4
f 296/4/4 291/4/4 297/4/4
f 292/4/4 293/4/4 298/4/4
f 297/3/4 292/3/4 298/3/4
f 294/3/4 295/3/4 299/3/4
f 298/4/4 293/4/4 299/4/4
f 293/3/4 294/3/4 299/3/4
f 296/3/4 297/3/4 300/3/4
f 297/3/4 298/3/4 300/3/4
f 298/3/4 299/3/4 300/3/4
f 300/3/4 299/3/4 301/3/4
f 299/3/4 295/3/4 302/3/4
f 301/3/4 299/3/4 302/3/4
f 302/3/4 295/3/4 303/3/4
f 301/3/4 302/3/4 304/3/4
f 304/3/4 302/3/4 305/3/4
f 305/3/4 302/3/4 306/3/4
f 302/4/4 303/4/4 307/4/4
f 306/3/4 302/3/4 307/3/4
f 303/3/4 295/3/4 308/3/4
f 307/4/4 303/4/4 308/4/4
f 305/3/4 306/3/4 310/3/4
f 306/4/4 307/4/4 311/4/4
f 310/3/4 306/3/4 311/3/4
f 307/3/4 308/3/4 312/3/4
f 311/4/4 307/4/4 312/4/4
f 308/3/4 295/3/4 313/3/4
f 312/3/4 308/3/4 313/3/4
f 313/3/4 295/3/4 314/3/4
f 309/3/4 310/3/4 316/3/4
f 310/3/4 311/3/4 316/3/4
f 311/3/4 312/3/4 316/3/4
f 312/3/4 313/3/4 316/3/4
f 316/3/4 313/3/4 317/3/4
f 317/3/4 313/3/4 318/3/4
f 313/4/4 314/4/4 319/4/4
f 318/3/4 313/3/4 319/3/4
f 314/3/4 295/3/4 320/3/4
f 319/4/4 314/4/4 320/4/4
f 317/4/4 318/4/4 321/4/4
f 315/3/4 316/3/4 321/3/4
f 316/3/4 317/3/4 321/3/4
f 318/3/4 319/3/4 322/3/4
f 321/4/4 318/4/4 322/4/4
f 319/3/4 320/3/4 322/3/4
f 322/3/4 320/3/4 323/3/4
f 320/3/4 295/3/4 324/3/4
f 323/3/4 320/3/4 324/3/4
f 315/3/4 321/3/4 325/3/4
f 322/3/4 323/3/4 325/3/4
f 321/3/4 322/3/4 325/3/4
f 325/3/4 323/3/4 326/3/4
f 323/4/4 324/4/4 327/4/4
f 326/3/4 323/3/4 327/3/4
f 324/3/4 295/3/4 328/3/4
f 327/4/4 324/4/4 328/4/4
f 328/3/4 295/3/4 329/3/4
f 326/3/4 327/3/4 331/3/4
f 327/3/4 328/3/4 331/3/4
f 331/3/4 328/3/4 332/3/4
f 332/3/4 328/3/4 333/3/4
f 328/4/4 329/4/4 334/4/4
f 333/3/4 328/3/4 334/3/4
f 334/4/4 329/4/4 335/4/4
f 330/4/4 331/4/4 336/4/4
f 331/4/4 332/4/4 336/4/4
f 332/3/4 333/3/4 337/3/4
f 336/4/4 332/4/4 337/4/4
f 336/3/4 337/3/4 338/3/4
f 337/3/4 333/3/4 338/3/4
f 338/3/4 333/3/4 339/3/4
f 336/3/4 338/3/4 340/3/4
f 338/4/4 339/4/4 341/4/4
f 340/3/4 338/3/4 341/3/4
f 339/3/4 333/3/4 342/3/4
f 341/4/4 339/4/4 342/4/4
f 333/4/4 334/4/4 343/4/4
f 342/3/4 333/3/4 343/3/4
f 334/3/4 335/3/4 344/3/4
f 343/4/4 334/4/4 344/4/4
f 344/3/4 335/3/4 345/3/4
f 346/1/4 347/1/4 348/1/4
f 346/1/4 348/1/4 350/1/4
f 348/2/4 349/2/4 351/2/4
f 350/1/4 348/1/4 351/1/4
f 351/2/4 349/2/4 352/2/4
f 350/2/4 351/2/4 353/2/4
f 353/2/4 351/2/4 354/2/4
f 355/2/4 356/2/4 357/2/4
f 357/2/4 356/2/4 358/2/4
f 363/1/5 360/1/5 359/1/5
f 364/1/5 360/1/5 363/1/5
f 369/1/5 362/1/5 361/1/5
f 370/2/5 363/2/5 362/2/5
f 370/1/5 362/1/5 369/1/5
f 371/1/5 364/1/5 363/1/5
f 371/2/5 363/2/5 370/2/5
f 371/1/5 365/1/5 364/1/5
f 372/1/5 365/1/5 371/1/5
f 373/1/5 365/1/5 372/1/5
f 374/3/5 367/3/5 366/3/5
f 375/3/5 367/3/5 374/3/5
f 376/4/5 368/4/5 367/4/5
f 376/3/5 367/3/5 375/3/5
f 377/3/5 369/3/5 368/3/5
f 377/4/5 368/4/5 376/4/5
f 377/3/5 370/3/5 369/3/5
f 377/3/5 371/3/5 370/3/5
f 377/3/5 372/3/5 371/3/5
f 378/3/5 372/3/5 377/3/5
f 379/3/5 372/3/5 378/3/5
f 380/4/5 375/4/5 374/4/5
f 381/3/5 376/3/5 375/3/5
f 381/4/5 375/4/5 380/4/5
f 381/3/5 377/3/5 376/3/5
f 381/3/5 378/3/5 377/3/5
f 382/4/5 379/4/5 378/4/5
f 382/3/5 378/3/5 381/3/5
f 383/4/5 379/4/5 382/4/5
f 385/3/5 381/3/5 380/3/5
f 385/3/5 382/3/5 381/3/5
f 385/3/5 383/3/5 382/3/5
f 386/1/5 385/1/5 384/1/5
f 387/3/5 383/3/5 385/3/5
f 387/1/5 385/1/5 386/1/5
f 388/3/5 383/3/5 387/3/5
f 389/3/5 383/3/5 388/3/5
f 390/3/5 383/3/5 389/3/5
f 391/3/5 383/3/5 390/3/5
f 392/3/5 383/3/5 391/3/5
f 393/2/5 387/2/5 386/2/5
f 394/4/5 388/4/5 387/4/5
f 394/2/5 387/2/5 393/2/5
f 395/3/5 389/3/5 388/3/5
f 395/4/5 388/4/5 394/4/5
f 396/4/5 390/4/5 389/4/5
f 396/3/5 389/3/5 395/3/5
f 397/3/5 391/3/5 390/3/5
f 397/4/5 390/4/5 396/4/5
f 398/3/5 391/3/5 397/3/5
f 399/3/5 391/3/5 398/3/5
f 400/3/5 391/3/5 399/3/5
f 401/4/5 392/4/5 391/4/5
f 401/3/5 391/3/5 400/3/5
f 402/3/5 383/3/5 392/3/5
f 402/4/5 392/4/5 401/4/5
f 403/3/5 383/3/5 402/3/5
f 404/1/5 398/1/5 397/1/5
f 404/1/5 397/1/5 396/1/5
f 405/2/5 399/2/5 398/2/5
f 405/1/5 398/1/5 404/1/5
f 406/2/5 399/2/5 405/2/5
f 407/2/5 401/2/5 400/2/5
f 408/2/5 401/2/5 407/2/5
f 413/1/5 410/1/5 409/1/5
f 414/2/5 411/2/5 410/2/5
f 414/1/5 410/1/5 413/1/5
f 415/1/5 412/1/5 411/1/5
f 415/2/5 411/2/5 414/2/5
f 416/1/5 412/1/5 415/1/5
f 417/1/6 418/1/6 419/1/6
f 419/1/6 418/1/6 420/1/6
f 421/2/6 422/2/6 423/2/6
f 423/2/6 422/2/6 424/2/6
f 425/1/6 426/1/6 431/1/6
f 431/1/6 426/1/6 432/1/6
f 427/2/6 428/2/6 433/2/6
f 433/2/6 428/2/6 434/2/6
f 429/2/6 430/2/6 435/2/6
f 435/2/6 430/2/6 436/2/6
f 437/2/6 438/2/6 440/2/6
f 440/2/6 438/2/6 441/2/6
f 439/1/6 440/1/6 443/1/6
f 443/1/6 440/1/6 444/1/6
f 441/2/6 442/2/6 445/2/6
f 445/2/6 442/2/6 446/2/6
f 447/2/6 448/2/6 449/2/6
f 449/2/6 448/2/6 450/2/6
f 451/2/6 452/2/6 453/2/6
f 453/2/6 452/2/6 454/2/6
f 455/2/6 456/2/6 457/2/6
f 457/2/6 456/2/6 458/2/6
f 459/1/6 460/1/6 464/1/6
f 460/2/6 461/2/6 465/2/6
f 464/1/6 460/1/6 465/1/6
f 465/2/6 461/2/6 466/2/6
f 462/4/6 463/4/6 471/4/6
f 463/3/6 464/3/6 472/3/6
f 471/4/6 463/4/6 472/4/6
f 464/3/6 465/3/6 472/3/6
f 472/3/6 465/3/6 473/3/6
f 473/3/6 465/3/6 474/3/6
f 467/3/6 468/3/6 477/3/6
f 477/3/6 468/3/6 478/3/6
f 478/3/6 468/3/6 479/3/6
f 471/3/6 472/3/6 480/3/6
f 472/3/6 473/3/6 480/3/6
f 473/4/6 474/4/6 480/4/6
f 474/3/6 475/3/6 481/3/6
f 480/4/6 474/4/6 481/4/6
f 475/4/6 476/4/6 482/4/6
f 481/3/6 475/3/6 482/3/6
f 477/3/6 478/3/6 483/3/6
f 482/4/6 476/4/6 483/4/6
f 476/3/6 477/3/6 483/3/6
f 483/3/6 478/3/6 484/3/6
f 478/4/6 479/4/6 485/4/6
f 484/3/6 478/3/6 485/3/6
f 479/3/6 468/3/6 486/3/6
f 485/4/6 479/4/6 486/4/6
f 486/3/6 468/3/6 487/3/6
f 468/4/6 469/4/6 488/4/6
f 487/3/6 468/3/6 488/3/6
f 469/3/6 470/3/6 489/3/6
f 488/4/6 469/4/6 489/4/6
f 489/3/6 470/3/6 490/3/6
f 480/3/6 481/3/6 491/3/6
f 483/3/6 484/3/6 491/3/6
f 481/3/6 482/3/6 491/3/6
f 471/3/6 480/3/6 491/3/6
f 482/3/6 483/3/6 491/3/6
f 491/3/6 484/3/6 492/3/6
f 486/3/6 487/3/6 493/3/6
f 485/3/6 486/3/6 493/3/6
f 487/4/6 488/4/6 494/4/6
f 493/3/6 487/3/6 494/3/6
f 489/4/6 490/4/6 494/4/6
f 488/4/6 489/4/6 494/4/6
f 494/4/6 490/4/6 495/4/6
f 495/4/6 490/4/6 496/4/6
f 496/4/6 490/4/6 497/4/6
f 471/3/6 491/3/6 498/3/6
f 498/3/6 491/3/6 499/3/6
f 491/4/6 492/4/6 500/4/6
f 499/3/6 491/3/6 500/3/6
f 492/3/6 484/3/6 501/3/6
f 500/4/6 492/4/6 501/4/6
f 484/4/6 485/4/6 502/4/6
f 501/3/6 484/3/6 502/3/6
f 485/3/6 493/3/6 503/3/6
f 502/4/6 485/4/6 503/4/6
f 494/3/6 495/3/6 504/3/6
f 495/4/6 496/4/6 504/4/6
f 496/3/6 497/3/6 505/3/6
f 504/4/6 496/4/6 505/4/6
f 498/4/6 499/4/6 506/4/6
f 501/3/6 502/3/6 507/3/6
f 506/4/6 499/4/6 507/4/6
f 499/3/6 500/3/6 507/3/6
f 500/3/6 501/3/6 507/3/6
f 502/3/6 503/3/6 507/3/6
f 493/4/6 494/4/6 508/4/6
f 507/3/6 503/3/6 508/3/6
f 503/3/6 493/3/6 508/3/6
f 504/3/6 505/3/6 509/3/6
f 508/4/6 494/4/6 509/4/6
f 494/3/6 504/3/6 509/3/6
f 505/3/6 497/3/6 510/3/6
f 509/3/6 505/3/6 510/3/6
f 511/2/6 512/2/6 514/2/6
f 514/2/6 512/2/6 515/2/6
f 513/2/6 514/2/6 517/2/6
f 517/2/6 514/2/6 518/2/6
f 515/1/6 516/1/6 519/1/6
f 519/1/6 516/1/6 520/1/6
f 521/2/6 522/2/6 523/2/6
f 523/2/6 522/2/6 524/2/6
