# MagicaVoxel @ Ephtracy

# group
g trafficlight

# material
mtllib trafficlight.mtl
usemtl palette

# normals
vn -1 0 0
vn 1 0 0
vn 0 0 1
vn 0 0 -1
vn 0 -1 0
vn 0 1 0

# texcoords
vt 0.0214844 0.5
vt 0.748047 0.5
vt 0.841797 0.5
vt 0.986328 0.5

# verts
v -4 22 10
v -4 22 9
v -4 33 10
v -4 33 9
v -3 0 10
v -3 0 6
v -3 1 10
v -3 1 6
v -3 21 10
v -3 21 9
v -3 22 10
v -3 22 9
v -3 22 8
v -3 25 11
v -3 25 10
v -3 26 11
v -3 26 10
v -3 29 11
v -3 29 10
v -3 30 11
v -3 30 10
v -3 33 11
v -3 33 10
v -3 33 9
v -3 33 8
v -3 34 11
v -3 34 9
v -2 1 9
v -2 1 7
v -2 21 9
v -2 22 9
v -2 22 8
v -2 32 8
v -2 32 7
v -1 1 9
v -1 1 7
v -1 21 9
v -1 22 9
v -1 22 8
v -1 32 8
v -1 32 7
v 0 0 10
v 0 0 6
v 0 1 10
v 0 1 6
v 0 21 10
v 0 21 9
v 0 22 10
v 0 22 9
v 0 22 8
v 0 25 11
v 0 25 10
v 0 26 11
v 0 26 10
v 0 29 11
v 0 29 10
v 0 30 11
v 0 30 10
v 0 33 11
v 0 33 10
v 0 33 9
v 0 33 8
v 0 34 11
v 0 34 9
v 1 22 10
v 1 22 9
v 1 33 10
v 1 33 9
v -3 25 11
v -3 26 11
v -3 29 11
v -3 30 11
v -3 33 11
v -3 34 11
v 0 25 11
v 0 26 11
v 0 29 11
v 0 30 11
v 0 33 11
v 0 34 11
v -4 22 10
v -4 33 10
v -3 0 10
v -3 1 10
v -3 21 10
v -3 22 10
v -3 25 10
v -3 26 10
v -3 29 10
v -3 30 10
v -3 33 10
v 0 0 10
v 0 1 10
v 0 21 10
v 0 22 10
v 0 25 10
v 0 26 10
v 0 29 10
v 0 30 10
v 0 33 10
v 1 22 10
v 1 33 10
v -2 1 9
v -2 21 9
v -1 1 9
v -1 21 9
v -4 22 9
v -4 33 9
v -3 21 9
v -3 22 9
v -3 33 9
v -3 34 9
v -2 21 9
v -2 22 9
v -1 21 9
v -1 22 9
v 0 21 9
v 0 22 9
v 0 33 9
v 0 34 9
v 1 22 9
v 1 33 9
v -3 22 8
v -3 33 8
v -2 22 8
v -2 32 8
v -1 22 8
v -1 32 8
v 0 22 8
v 0 33 8
v -2 1 7
v -2 32 7
v -1 1 7
v -1 32 7
v -3 0 6
v -3 1 6
v 0 0 6
v 0 1 6
v -3 0 10
v 0 0 10
v -3 0 6
v 0 0 6
v -3 21 10
v 0 21 10
v -3 21 9
v -2 21 9
v -1 21 9
v 0 21 9
v -4 22 10
v -3 22 10
v 0 22 10
v 1 22 10
v -4 22 9
v -3 22 9
v -2 22 9
v -1 22 9
v 0 22 9
v 1 22 9
v -3 22 8
v -2 22 8
v -1 22 8
v 0 22 8
v -3 25 11
v 0 25 11
v -3 25 10
v 0 25 10
v -3 29 11
v 0 29 11
v -3 29 10
v 0 29 10
v -3 33 11
v 0 33 11
v -3 33 10
v 0 33 10
v -3 1 10
v 0 1 10
v -2 1 9
v -1 1 9
v -2 1 7
v -1 1 7
v -3 1 6
v 0 1 6
v -3 26 11
v 0 26 11
v -3 26 10
v 0 26 10
v -3 30 11
v 0 30 11
v -3 30 10
v 0 30 10
v -2 32 8
v -1 32 8
v -2 32 7
v -1 32 7
v -4 33 10
v -3 33 10
v 0 33 10
v 1 33 10
v -4 33 9
v -3 33 9
v 0 33 9
v 1 33 9
v -3 33 8
v 0 33 8
v -3 34 11
v 0 34 11
v -3 34 9
v 0 34 9

# faces
f 3/4/1 2/4/1 1/4/1
f 4/4/1 2/4/1 3/4/1
f 7/4/1 6/4/1 5/4/1
f 8/4/1 6/4/1 7/4/1
f 11/4/1 10/4/1 9/4/1
f 12/4/1 10/4/1 11/4/1
f 16/4/1 15/4/1 14/4/1
f 17/4/1 15/4/1 16/4/1
f 20/4/1 19/4/1 18/4/1
f 21/4/1 19/4/1 20/4/1
f 24/4/1 13/4/1 12/4/1
f 25/4/1 13/4/1 24/4/1
f 26/4/1 23/4/1 22/4/1
f 26/4/1 24/4/1 23/4/1
f 27/4/1 24/4/1 26/4/1
f 30/4/1 29/4/1 28/4/1
f 31/4/1 29/4/1 30/4/1
f 32/4/1 29/4/1 31/4/1
f 33/4/1 29/4/1 32/4/1
f 34/4/1 29/4/1 33/4/1
f 35/4/2 36/4/2 37/4/2
f 37/4/2 36/4/2 38/4/2
f 38/4/2 36/4/2 39/4/2
f 39/4/2 36/4/2 40/4/2
f 40/4/2 36/4/2 41/4/2
f 42/4/2 43/4/2 44/4/2
f 44/4/2 43/4/2 45/4/2
f 46/4/2 47/4/2 48/4/2
f 48/4/2 47/4/2 49/4/2
f 51/4/2 52/4/2 53/4/2
f 53/4/2 52/4/2 54/4/2
f 55/4/2 56/4/2 57/4/2
f 57/4/2 56/4/2 58/4/2
f 49/4/2 50/4/2 61/4/2
f 61/4/2 50/4/2 62/4/2
f 59/4/2 60/4/2 63/4/2
f 60/4/2 61/4/2 63/4/2
f 63/4/2 61/4/2 64/4/2
f 65/4/2 66/4/2 67/4/2
f 67/4/2 66/4/2 68/4/2
f 75/4/3 70/4/3 69/4/3
f 76/4/3 70/4/3 75/4/3
f 77/4/3 72/4/3 71/4/3
f 78/4/3 72/4/3 77/4/3
f 79/4/3 74/4/3 73/4/3
f 80/4/3 74/4/3 79/4/3
f 86/4/3 82/4/3 81/4/3
f 87/4/3 82/4/3 86/4/3
f 88/4/3 82/4/3 87/4/3
f 89/4/3 82/4/3 88/4/3
f 90/4/3 82/4/3 89/4/3
f 91/4/3 82/4/3 90/4/3
f 92/4/3 84/4/3 83/4/3
f 93/4/3 84/4/3 92/4/3
f 94/4/3 86/4/3 85/4/3
f 95/2/3 87/2/3 86/2/3
f 95/4/3 86/4/3 94/4/3
f 96/2/3 87/2/3 95/2/3
f 97/1/3 89/1/3 88/1/3
f 98/1/3 89/1/3 97/1/3
f 99/3/3 91/3/3 90/3/3
f 100/3/3 91/3/3 99/3/3
f 101/4/3 98/4/3 97/4/3
f 101/4/3 100/4/3 99/4/3
f 101/4/3 99/4/3 98/4/3
f 101/4/3 96/4/3 95/4/3
f 101/4/3 97/4/3 96/4/3
f 102/4/3 100/4/3 101/4/3
f 105/4/3 104/4/3 103/4/3
f 106/4/3 104/4/3 105/4/3
f 107/4/4 108/4/4 110/4/4
f 110/4/4 108/4/4 111/4/4
f 109/4/4 110/4/4 113/4/4
f 113/4/4 110/4/4 114/4/4
f 115/4/4 116/4/4 117/4/4
f 117/4/4 116/4/4 118/4/4
f 111/4/4 112/4/4 119/4/4
f 119/4/4 112/4/4 120/4/4
f 118/4/4 119/4/4 121/4/4
f 121/4/4 119/4/4 122/4/4
f 123/4/4 124/4/4 125/4/4
f 125/4/4 124/4/4 126/4/4
f 126/4/4 124/4/4 128/4/4
f 127/4/4 128/4/4 129/4/4
f 128/4/4 124/4/4 130/4/4
f 129/4/4 128/4/4 130/4/4
f 131/4/4 132/4/4 133/4/4
f 133/4/4 132/4/4 134/4/4
f 135/4/4 136/4/4 137/4/4
f 137/4/4 136/4/4 138/4/4
f 141/4/5 140/4/5 139/4/5
f 142/4/5 140/4/5 141/4/5
f 145/4/5 144/4/5 143/4/5
f 146/4/5 144/4/5 145/4/5
f 147/4/5 144/4/5 146/4/5
f 148/4/5 144/4/5 147/4/5
f 153/4/5 150/4/5 149/4/5
f 154/4/5 150/4/5 153/4/5
f 157/4/5 152/4/5 151/4/5
f 158/4/5 152/4/5 157/4/5
f 159/4/5 155/4/5 154/4/5
f 160/4/5 155/4/5 159/4/5
f 161/4/5 157/4/5 156/4/5
f 162/4/5 157/4/5 161/4/5
f 165/4/5 164/4/5 163/4/5
f 166/4/5 164/4/5 165/4/5
f 169/4/5 168/4/5 167/4/5
f 170/4/5 168/4/5 169/4/5
f 173/4/5 172/4/5 171/4/5
f 174/4/5 172/4/5 173/4/5
f 175/4/6 176/4/6 177/4/6
f 177/4/6 176/4/6 178/4/6
f 175/4/6 177/4/6 179/4/6
f 178/4/6 176/4/6 180/4/6
f 175/4/6 179/4/6 181/4/6
f 179/4/6 180/4/6 181/4/6
f 180/4/6 176/4/6 182/4/6
f 181/4/6 180/4/6 182/4/6
f 183/4/6 184/4/6 185/4/6
f 185/4/6 184/4/6 186/4/6
f 187/4/6 188/4/6 189/4/6
f 189/4/6 188/4/6 190/4/6
f 191/4/6 192/4/6 193/4/6
f 193/4/6 192/4/6 194/4/6
f 195/4/6 196/4/6 199/4/6
f 199/4/6 196/4/6 200/4/6
f 197/4/6 198/4/6 201/4/6
f 201/4/6 198/4/6 202/4/6
f 200/4/6 201/4/6 203/4/6
f 203/4/6 201/4/6 204/4/6
f 205/4/6 206/4/6 207/4/6
f 207/4/6 206/4/6 208/4/6
