# MagicaVoxel @ Ephtracy

# group
g test

# material
mtllib test.mtl
usemtl palette

# normals
vn -1 0 0
vn 1 0 0
vn 0 0 1
vn 0 0 -1
vn 0 -1 0
vn 0 1 0

# texcoords
vt 0.373047 0.5
vt 0.607422 0.5
vt 0.751953 0.5
vt 0.892578 0.5
vt 0.900391 0.5
vt 0.958984 0.5
vt 0.966797 0.5

# verts
v -20 0 20
v -20 0 -20
v -20 2 20
v -20 2 -20
v -20 3 20
v -20 3 -20
v -17 3 -9
v -17 3 -16
v -17 14 -9
v -17 14 -16
v -6 3 4
v -6 3 1
v -6 4 4
v -6 4 3
v -6 4 2
v -6 4 1
v -6 5 3
v -6 5 2
v -5 8 13
v -5 8 9
v -5 11 13
v -5 11 9
v -4 8 14
v -4 8 13
v -4 8 9
v -4 8 8
v -4 11 14
v -4 11 13
v -4 11 9
v -4 11 8
v -4 13 13
v -4 13 9
v -3 8 8
v -3 8 7
v -3 11 14
v -3 11 13
v -3 11 9
v -3 11 8
v -3 11 7
v -3 12 14
v -3 12 13
v -3 13 12
v -3 13 9
v -3 13 8
v -3 14 12
v -3 14 9
v -2 3 11
v -2 3 9
v -2 8 15
v -2 8 14
v -2 8 11
v -2 8 9
v -2 11 15
v -2 11 14
v -1 3 -3
v -1 3 -6
v -1 4 -3
v -1 4 -4
v -1 4 -5
v -1 4 -6
v -1 5 -4
v -1 5 -5
v 1 8 11
v 1 8 8
v 1 9 11
v 1 9 8
v 8 3 8
v 8 3 5
v 8 4 8
v 8 4 7
v 8 4 6
v 8 4 5
v 8 5 7
v 8 5 6
v 12 3 -5
v 12 3 -8
v 12 4 -5
v 12 4 -6
v 12 4 -7
v 12 4 -8
v 12 5 -6
v 12 5 -7
v 14 3 17
v 14 3 14
v 14 4 17
v 14 4 16
v 14 4 15
v 14 4 14
v 14 5 16
v 14 5 15
v -8 3 -9
v -8 3 -16
v -8 7 -10
v -8 7 -11
v -8 7 -12
v -8 7 -15
v -8 8 -10
v -8 8 -11
v -8 8 -12
v -8 9 -10
v -8 9 -11
v -8 9 -15
v -8 10 -10
v -8 10 -11
v -8 10 -12
v -8 10 -15
v -8 11 -10
v -8 11 -11
v -8 11 -12
v -8 12 -10
v -8 12 -11
v -8 12 -15
v -8 14 -9
v -8 14 -16
v -5 3 4
v -5 3 1
v -5 4 4
v -5 4 3
v -5 4 2
v -5 4 1
v -5 5 3
v -5 5 2
v -2 8 9
v -2 8 8
v -2 9 9
v -2 9 8
v 0 3 11
v 0 3 9
v 0 3 -3
v 0 3 -6
v 0 4 -3
v 0 4 -4
v 0 4 -5
v 0 4 -6
v 0 5 -4
v 0 5 -5
v 0 8 15
v 0 8 14
v 0 8 11
v 0 8 9
v 0 9 11
v 0 9 9
v 0 11 15
v 0 11 14
v 0 11 13
v 0 12 14
v 0 12 13
v 0 13 11
v 0 13 9
v 0 14 11
v 0 14 9
v 1 8 14
v 1 8 13
v 1 8 8
v 1 8 7
v 1 9 14
v 1 9 13
v 1 10 14
v 1 10 13
v 1 11 14
v 1 11 13
v 1 11 8
v 1 11 7
v 1 12 10
v 1 12 8
v 1 13 12
v 1 13 11
v 1 13 10
v 1 13 8
v 1 14 12
v 1 14 11
v 2 8 13
v 2 8 11
v 2 8 9
v 2 8 8
v 2 9 14
v 2 9 13
v 2 10 14
v 2 10 13
v 2 10 12
v 2 10 11
v 2 12 12
v 2 12 10
v 2 12 9
v 2 12 8
v 2 13 13
v 2 13 10
v 3 8 11
v 3 8 9
v 3 10 12
v 3 10 11
v 3 12 12
v 3 12 9
v 9 3 8
v 9 3 5
v 9 4 8
v 9 4 7
v 9 4 6
v 9 4 5
v 9 5 7
v 9 5 6
v 13 3 -5
v 13 3 -8
v 13 4 -5
v 13 4 -6
v 13 4 -7
v 13 4 -8
v 13 5 -6
v 13 5 -7
v 15 3 17
v 15 3 14
v 15 4 17
v 15 4 16
v 15 4 15
v 15 4 14
v 15 5 16
v 15 5 15
v 20 0 20
v 20 0 -20
v 20 2 20
v 20 2 -20
v 20 3 20
v 20 3 -20
v -20 0 20
v -20 2 20
v -20 3 20
v 20 0 20
v 20 2 20
v 20 3 20
v 14 3 17
v 14 4 17
v 15 3 17
v 15 4 17
v 14 4 16
v 14 5 16
v 15 4 16
v 15 5 16
v -2 8 15
v -2 11 15
v 0 8 15
v 0 11 15
v -4 8 14
v -4 11 14
v -3 11 14
v -3 12 14
v -2 8 14
v -2 11 14
v 0 8 14
v 0 11 14
v 0 12 14
v 1 8 14
v 1 9 14
v 1 10 14
v 1 11 14
v 2 9 14
v 2 10 14
v -5 8 13
v -5 11 13
v -4 8 13
v -4 11 13
v -4 13 13
v -3 11 13
v -3 12 13
v 0 11 13
v 0 12 13
v 1 8 13
v 1 9 13
v 1 10 13
v 1 11 13
v 2 8 13
v 2 9 13
v 2 10 13
v 2 13 13
v -3 13 12
v -3 14 12
v 1 13 12
v 1 14 12
v 2 10 12
v 2 12 12
v 3 10 12
v 3 12 12
v -2 3 11
v -2 8 11
v 0 3 11
v 0 8 11
v 2 8 11
v 2 10 11
v 3 8 11
v 3 10 11
v -2 8 8
v -2 9 8
v 1 8 8
v 1 9 8
v 8 3 8
v 8 4 8
v 9 3 8
v 9 4 8
v 8 4 7
v 8 5 7
v 9 4 7
v 9 5 7
v -6 3 4
v -6 4 4
v -5 3 4
v -5 4 4
v -6 4 3
v -6 5 3
v -5 4 3
v -5 5 3
v -1 3 -3
v -1 4 -3
v 0 3 -3
v 0 4 -3
v -1 4 -4
v -1 5 -4
v 0 4 -4
v 0 5 -4
v 12 3 -5
v 12 4 -5
v 13 3 -5
v 13 4 -5
v 12 4 -6
v 12 5 -6
v 13 4 -6
v 13 5 -6
v -17 3 -9
v -17 14 -9
v -8 3 -9
v -8 14 -9
v 14 4 15
v 14 5 15
v 15 4 15
v 15 5 15
v 14 3 14
v 14 4 14
v 15 3 14
v 15 4 14
v 0 8 11
v 0 9 11
v 0 13 11
v 0 14 11
v 1 8 11
v 1 9 11
v 1 13 11
v 1 14 11
v 1 12 10
v 1 13 10
v 2 12 10
v 2 13 10
v -5 8 9
v -5 11 9
v -4 8 9
v -4 11 9
v -4 13 9
v -3 11 9
v -3 13 9
v -3 14 9
v -2 3 9
v -2 8 9
v -2 9 9
v 0 3 9
v 0 8 9
v 0 9 9
v 0 13 9
v 0 14 9
v 2 8 9
v 2 12 9
v 3 8 9
v 3 12 9
v -4 8 8
v -4 11 8
v -3 8 8
v -3 11 8
v -3 13 8
v 1 8 8
v 1 11 8
v 1 12 8
v 1 13 8
v 2 8 8
v 2 12 8
v -3 8 7
v -3 11 7
v 1 8 7
v 1 11 7
v 8 4 6
v 8 5 6
v 9 4 6
v 9 5 6
v 8 3 5
v 8 4 5
v 9 3 5
v 9 4 5
v -6 4 2
v -6 5 2
v -5 4 2
v -5 5 2
v -6 3 1
v -6 4 1
v -5 3 1
v -5 4 1
v -1 4 -5
v -1 5 -5
v 0 4 -5
v 0 5 -5
v -1 3 -6
v -1 4 -6
v 0 3 -6
v 0 4 -6
v 12 4 -7
v 12 5 -7
v 13 4 -7
v 13 5 -7
v 12 3 -8
v 12 4 -8
v 13 3 -8
v 13 4 -8
v -17 3 -16
v -17 14 -16
v -8 3 -16
v -8 14 -16
v -20 0 -20
v -20 2 -20
v -20 3 -20
v 20 0 -20
v 20 2 -20
v 20 3 -20
v -20 0 20
v 20 0 20
v -20 0 -20
v 20 0 -20
v -2 8 15
v 0 8 15
v -4 8 14
v -2 8 14
v 0 8 14
v 1 8 14
v -5 8 13
v -4 8 13
v 1 8 13
v 2 8 13
v -2 8 11
v 0 8 11
v 1 8 11
v 2 8 11
v 3 8 11
v -5 8 9
v -4 8 9
v -2 8 9
v 2 8 9
v 3 8 9
v -4 8 8
v -3 8 8
v -2 8 8
v 1 8 8
v 2 8 8
v -3 8 7
v 1 8 7
v 1 9 14
v 2 9 14
v 1 9 13
v 2 9 13
v 0 9 11
v 1 9 11
v -2 9 9
v 0 9 9
v -2 9 8
v 1 9 8
v 2 10 12
v 3 10 12
v 2 10 11
v 3 10 11
v -20 3 20
v 20 3 20
v 14 3 17
v 15 3 17
v 14 3 14
v 15 3 14
v -2 3 11
v 0 3 11
v -2 3 9
v 0 3 9
v 8 3 8
v 9 3 8
v 8 3 5
v 9 3 5
v -6 3 4
v -5 3 4
v -6 3 1
v -5 3 1
v -1 3 -3
v 0 3 -3
v 12 3 -5
v 13 3 -5
v -1 3 -6
v 0 3 -6
v 12 3 -8
v 13 3 -8
v -17 3 -9
v -8 3 -9
v -17 3 -16
v -8 3 -16
v -20 3 -20
v 20 3 -20
v 14 4 17
v 15 4 17
v 14 4 16
v 15 4 16
v 14 4 15
v 15 4 15
v 14 4 14
v 15 4 14
v 8 4 8
v 9 4 8
v 8 4 7
v 9 4 7
v 8 4 6
v 9 4 6
v 8 4 5
v 9 4 5
v -6 4 4
v -5 4 4
v -6 4 3
v -5 4 3
v -6 4 2
v -5 4 2
v -6 4 1
v -5 4 1
v -1 4 -3
v 0 4 -3
v -1 4 -4
v 0 4 -4
v -1 4 -5
v 0 4 -5
v 12 4 -5
v 13 4 -5
v -1 4 -6
v 0 4 -6
v 12 4 -6
v 13 4 -6
v 12 4 -7
v 13 4 -7
v 12 4 -8
v 13 4 -8
v 14 5 16
v 15 5 16
v 14 5 15
v 15 5 15
v 8 5 7
v 9 5 7
v 8 5 6
v 9 5 6
v -6 5 3
v -5 5 3
v -6 5 2
v -5 5 2
v -1 5 -4
v 0 5 -4
v -1 5 -5
v 0 5 -5
v 12 5 -6
v 13 5 -6
v 12 5 -7
v 13 5 -7
v 1 10 14
v 2 10 14
v 1 10 13
v 2 10 13
v -2 11 15
v 0 11 15
v -4 11 14
v -3 11 14
v -2 11 14
v 0 11 14
v 1 11 14
v -5 11 13
v -4 11 13
v -3 11 13
v 0 11 13
v 1 11 13
v -5 11 9
v -4 11 9
v -3 11 9
v -4 11 8
v -3 11 8
v 1 11 8
v -3 11 7
v 1 11 7
v -3 12 14
v 0 12 14
v -3 12 13
v 0 12 13
v 2 12 12
v 3 12 12
v 1 12 10
v 2 12 10
v 2 12 9
v 3 12 9
v 1 12 8
v 2 12 8
v -4 13 13
v 2 13 13
v -3 13 12
v 1 13 12
v 0 13 11
v 1 13 11
v 1 13 10
v 2 13 10
v -4 13 9
v -3 13 9
v 0 13 9
v -3 13 8
v 1 13 8
v -3 14 12
v 1 14 12
v 0 14 11
v 1 14 11
v -3 14 9
v 0 14 9
v -17 14 -9
v -8 14 -9
v -17 14 -16
v -8 14 -16

# faces
f 3/2/1 2/2/1 1/2/1
f 4/2/1 2/2/1 3/2/1
f 5/4/1 4/4/1 3/4/1
f 6/4/1 4/4/1 5/4/1
f 9/7/1 8/7/1 7/7/1
f 10/7/1 8/7/1 9/7/1
f 13/4/1 12/4/1 11/4/1
f 14/4/1 12/4/1 13/4/1
f 15/4/1 12/4/1 14/4/1
f 16/4/1 12/4/1 15/4/1
f 17/4/1 15/4/1 14/4/1
f 18/4/1 15/4/1 17/4/1
f 21/5/1 20/5/1 19/5/1
f 22/5/1 20/5/1 21/5/1
f 27/5/1 24/5/1 23/5/1
f 28/5/1 24/5/1 27/5/1
f 29/5/1 26/5/1 25/5/1
f 30/5/1 26/5/1 29/5/1
f 31/5/1 29/5/1 28/5/1
f 32/5/1 29/5/1 31/5/1
f 38/5/1 34/5/1 33/5/1
f 39/5/1 34/5/1 38/5/1
f 40/5/1 36/5/1 35/5/1
f 41/5/1 36/5/1 40/5/1
f 43/5/1 38/5/1 37/5/1
f 44/5/1 38/5/1 43/5/1
f 45/5/1 43/5/1 42/5/1
f 46/5/1 43/5/1 45/5/1
f 51/1/1 48/1/1 47/1/1
f 52/1/1 48/1/1 51/1/1
f 53/5/1 50/5/1 49/5/1
f 54/5/1 50/5/1 53/5/1
f 57/4/1 56/4/1 55/4/1
f 58/4/1 56/4/1 57/4/1
f 59/4/1 56/4/1 58/4/1
f 60/4/1 56/4/1 59/4/1
f 61/4/1 59/4/1 58/4/1
f 62/4/1 59/4/1 61/4/1
f 65/5/1 64/5/1 63/5/1
f 66/5/1 64/5/1 65/5/1
f 69/4/1 68/4/1 67/4/1
f 70/4/1 68/4/1 69/4/1
f 71/4/1 68/4/1 70/4/1
f 72/4/1 68/4/1 71/4/1
f 73/4/1 71/4/1 70/4/1
f 74/4/1 71/4/1 73/4/1
f 77/4/1 76/4/1 75/4/1
f 78/4/1 76/4/1 77/4/1
f 79/4/1 76/4/1 78/4/1
f 80/4/1 76/4/1 79/4/1
f 81/4/1 79/4/1 78/4/1
f 82/4/1 79/4/1 81/4/1
f 85/4/1 84/4/1 83/4/1
f 86/4/1 84/4/1 85/4/1
f 87/4/1 84/4/1 86/4/1
f 88/4/1 84/4/1 87/4/1
f 89/4/1 87/4/1 86/4/1
f 90/4/1 87/4/1 89/4/1
f 91/7/2 92/7/2 93/7/2
f 93/7/2 92/7/2 94/7/2
f 94/7/2 92/7/2 95/7/2
f 95/7/2 92/7/2 96/7/2
f 91/7/2 93/7/2 97/7/2
f 93/3/2 94/3/2 97/3/2
f 94/6/2 95/6/2 98/6/2
f 97/3/2 94/3/2 98/3/2
f 95/3/2 96/3/2 99/3/2
f 98/6/2 95/6/2 99/6/2
f 97/6/2 98/6/2 100/6/2
f 91/7/2 97/7/2 100/7/2
f 98/3/2 99/3/2 101/3/2
f 100/6/2 98/6/2 101/6/2
f 96/7/2 92/7/2 102/7/2
f 101/3/2 99/3/2 102/3/2
f 99/3/2 96/3/2 102/3/2
f 100/7/2 101/7/2 103/7/2
f 91/7/2 100/7/2 103/7/2
f 101/7/2 102/7/2 103/7/2
f 103/7/2 102/7/2 104/7/2
f 104/7/2 102/7/2 105/7/2
f 102/7/2 92/7/2 106/7/2
f 105/7/2 102/7/2 106/7/2
f 91/7/2 103/7/2 107/7/2
f 103/3/2 104/3/2 107/3/2
f 104/6/2 105/6/2 108/6/2
f 107/3/2 104/3/2 108/3/2
f 105/3/2 106/3/2 109/3/2
f 108/6/2 105/6/2 109/6/2
f 91/7/2 107/7/2 110/7/2
f 107/6/2 108/6/2 110/6/2
f 108/3/2 109/3/2 111/3/2
f 110/6/2 108/6/2 111/6/2
f 109/3/2 106/3/2 112/3/2
f 111/3/2 109/3/2 112/3/2
f 106/7/2 92/7/2 112/7/2
f 110/7/2 111/7/2 113/7/2
f 91/7/2 110/7/2 113/7/2
f 111/7/2 112/7/2 113/7/2
f 112/7/2 92/7/2 114/7/2
f 113/7/2 112/7/2 114/7/2
f 115/4/2 116/4/2 117/4/2
f 117/4/2 116/4/2 118/4/2
f 118/4/2 116/4/2 119/4/2
f 119/4/2 116/4/2 120/4/2
f 118/4/2 119/4/2 121/4/2
f 121/4/2 119/4/2 122/4/2
f 123/5/2 124/5/2 125/5/2
f 125/5/2 124/5/2 126/5/2
f 129/4/2 130/4/2 131/4/2
f 131/4/2 130/4/2 132/4/2
f 132/4/2 130/4/2 133/4/2
f 133/4/2 130/4/2 134/4/2
f 132/4/2 133/4/2 135/4/2
f 135/4/2 133/4/2 136/4/2
f 127/1/2 128/1/2 139/1/2
f 139/1/2 128/1/2 140/1/2
f 139/5/2 140/5/2 141/5/2
f 141/5/2 140/5/2 142/5/2
f 137/5/2 138/5/2 143/5/2
f 143/5/2 138/5/2 144/5/2
f 144/5/2 145/5/2 146/5/2
f 146/5/2 145/5/2 147/5/2
f 148/5/2 149/5/2 150/5/2
f 150/5/2 149/5/2 151/5/2
f 152/5/2 153/5/2 156/5/2
f 156/5/2 153/5/2 157/5/2
f 158/5/2 159/5/2 160/5/2
f 160/5/2 159/5/2 161/5/2
f 154/5/2 155/5/2 162/5/2
f 162/5/2 155/5/2 163/5/2
f 164/5/2 165/5/2 168/5/2
f 168/5/2 165/5/2 169/5/2
f 166/5/2 167/5/2 170/5/2
f 170/5/2 167/5/2 171/5/2
f 172/5/2 173/5/2 177/5/2
f 176/5/2 177/5/2 178/5/2
f 177/5/2 173/5/2 179/5/2
f 178/5/2 177/5/2 179/5/2
f 179/5/2 173/5/2 180/5/2
f 180/5/2 173/5/2 181/5/2
f 179/5/2 180/5/2 182/5/2
f 174/5/2 175/5/2 184/5/2
f 184/5/2 175/5/2 185/5/2
f 182/5/2 183/5/2 186/5/2
f 179/5/2 182/5/2 186/5/2
f 186/5/2 183/5/2 187/5/2
f 188/5/2 189/5/2 191/5/2
f 190/5/2 191/5/2 192/5/2
f 191/5/2 189/5/2 193/5/2
f 192/5/2 191/5/2 193/5/2
f 194/4/2 195/4/2 196/4/2
f 196/4/2 195/4/2 197/4/2
f 197/4/2 195/4/2 198/4/2
f 198/4/2 195/4/2 199/4/2
f 197/4/2 198/4/2 200/4/2
f 200/4/2 198/4/2 201/4/2
f 202/4/2 203/4/2 204/4/2
f 204/4/2 203/4/2 205/4/2
f 205/4/2 203/4/2 206/4/2
f 206/4/2 203/4/2 207/4/2
f 205/4/2 206/4/2 208/4/2
f 208/4/2 206/4/2 209/4/2
f 210/4/2 211/4/2 212/4/2
f 212/4/2 211/4/2 213/4/2
f 213/4/2 211/4/2 214/4/2
f 214/4/2 211/4/2 215/4/2
f 213/4/2 214/4/2 216/4/2
f 216/4/2 214/4/2 217/4/2
f 218/2/2 219/2/2 220/2/2
f 220/2/2 219/2/2 221/2/2
f 220/4/2 221/4/2 222/4/2
f 222/4/2 221/4/2 223/4/2
f 227/2/3 225/2/3 224/2/3
f 228/4/3 226/4/3 225/4/3
f 228/2/3 225/2/3 227/2/3
f 229/4/3 226/4/3 228/4/3
f 232/4/3 231/4/3 230/4/3
f 233/4/3 231/4/3 232/4/3
f 236/4/3 235/4/3 234/4/3
f 237/4/3 235/4/3 236/4/3
f 240/5/3 239/5/3 238/5/3
f 241/5/3 239/5/3 240/5/3
f 244/5/3 243/5/3 242/5/3
f 246/5/3 244/5/3 242/5/3
f 246/5/3 245/5/3 244/5/3
f 247/5/3 245/5/3 246/5/3
f 249/5/3 245/5/3 247/5/3
f 250/5/3 245/5/3 249/5/3
f 251/5/3 249/5/3 248/5/3
f 252/5/3 249/5/3 251/5/3
f 253/5/3 249/5/3 252/5/3
f 254/5/3 249/5/3 253/5/3
f 255/5/3 253/5/3 252/5/3
f 256/5/3 253/5/3 255/5/3
f 259/5/3 258/5/3 257/5/3
f 260/5/3 258/5/3 259/5/3
f 262/5/3 261/5/3 260/5/3
f 263/5/3 261/5/3 262/5/3
f 265/5/3 261/5/3 263/5/3
f 269/5/3 265/5/3 264/5/3
f 270/5/3 267/5/3 266/5/3
f 271/5/3 267/5/3 270/5/3
f 272/5/3 269/5/3 268/5/3
f 273/5/3 261/5/3 265/5/3
f 273/5/3 269/5/3 272/5/3
f 273/5/3 265/5/3 269/5/3
f 276/5/3 275/5/3 274/5/3
f 277/5/3 275/5/3 276/5/3
f 280/5/3 279/5/3 278/5/3
f 281/5/3 279/5/3 280/5/3
f 284/1/3 283/1/3 282/1/3
f 285/1/3 283/1/3 284/1/3
f 288/5/3 287/5/3 286/5/3
f 289/5/3 287/5/3 288/5/3
f 292/5/3 291/5/3 290/5/3
f 293/5/3 291/5/3 292/5/3
f 296/4/3 295/4/3 294/4/3
f 297/4/3 295/4/3 296/4/3
f 300/4/3 299/4/3 298/4/3
f 301/4/3 299/4/3 300/4/3
f 304/4/3 303/4/3 302/4/3
f 305/4/3 303/4/3 304/4/3
f 308/4/3 307/4/3 306/4/3
f 309/4/3 307/4/3 308/4/3
f 312/4/3 311/4/3 310/4/3
f 313/4/3 311/4/3 312/4/3
f 316/4/3 315/4/3 314/4/3
f 317/4/3 315/4/3 316/4/3
f 320/4/3 319/4/3 318/4/3
f 321/4/3 319/4/3 320/4/3
f 324/4/3 323/4/3 322/4/3
f 325/4/3 323/4/3 324/4/3
f 328/7/3 327/7/3 326/7/3
f 329/7/3 327/7/3 328/7/3
f 330/4/4 331/4/4 332/4/4
f 332/4/4 331/4/4 333/4/4
f 334/4/4 335/4/4 336/4/4
f 336/4/4 335/4/4 337/4/4
f 338/5/4 339/5/4 342/5/4
f 342/5/4 339/5/4 343/5/4
f 340/5/4 341/5/4 344/5/4
f 344/5/4 341/5/4 345/5/4
f 346/5/4 347/5/4 348/5/4
f 348/5/4 347/5/4 349/5/4
f 350/5/4 351/5/4 352/5/4
f 352/5/4 351/5/4 353/5/4
f 353/5/4 354/5/4 355/5/4
f 355/5/4 354/5/4 356/5/4
f 358/1/4 359/1/4 361/1/4
f 359/5/4 360/5/4 362/5/4
f 361/1/4 359/1/4 362/1/4
f 362/5/4 360/5/4 363/5/4
f 356/5/4 357/5/4 364/5/4
f 364/5/4 357/5/4 365/5/4
f 366/5/4 367/5/4 368/5/4
f 368/5/4 367/5/4 369/5/4
f 370/5/4 371/5/4 372/5/4
f 372/5/4 371/5/4 373/5/4
f 373/5/4 374/5/4 376/5/4
f 376/5/4 374/5/4 377/5/4
f 377/5/4 374/5/4 378/5/4
f 375/5/4 376/5/4 379/5/4
f 376/5/4 377/5/4 379/5/4
f 379/5/4 377/5/4 380/5/4
f 381/5/4 382/5/4 383/5/4
f 383/5/4 382/5/4 384/5/4
f 385/4/4 386/4/4 387/4/4
f 387/4/4 386/4/4 388/4/4
f 389/4/4 390/4/4 391/4/4
f 391/4/4 390/4/4 392/4/4
f 393/4/4 394/4/4 395/4/4
f 395/4/4 394/4/4 396/4/4
f 397/4/4 398/4/4 399/4/4
f 399/4/4 398/4/4 400/4/4
f 401/4/4 402/4/4 403/4/4
f 403/4/4 402/4/4 404/4/4
f 405/4/4 406/4/4 407/4/4
f 407/4/4 406/4/4 408/4/4
f 409/4/4 410/4/4 411/4/4
f 411/4/4 410/4/4 412/4/4
f 413/4/4 414/4/4 415/4/4
f 415/4/4 414/4/4 416/4/4
f 417/7/4 418/7/4 419/7/4
f 419/7/4 418/7/4 420/7/4
f 421/2/4 422/2/4 424/2/4
f 422/4/4 423/4/4 425/4/4
f 424/2/4 422/2/4 425/2/4
f 425/4/4 423/4/4 426/4/4
f 429/2/5 428/2/5 427/2/5
f 430/2/5 428/2/5 429/2/5
f 434/5/5 432/5/5 431/5/5
f 435/5/5 432/5/5 434/5/5
f 438/5/5 434/5/5 433/5/5
f 438/5/5 436/5/5 435/5/5
f 438/5/5 435/5/5 434/5/5
f 439/5/5 436/5/5 438/5/5
f 441/5/5 438/5/5 437/5/5
f 441/5/5 440/5/5 439/5/5
f 441/5/5 439/5/5 438/5/5
f 442/5/5 440/5/5 441/5/5
f 443/5/5 440/5/5 442/5/5
f 444/5/5 440/5/5 443/5/5
f 446/5/5 441/5/5 437/5/5
f 447/5/5 441/5/5 446/5/5
f 448/5/5 441/5/5 447/5/5
f 449/5/5 445/5/5 444/5/5
f 449/5/5 444/5/5 443/5/5
f 450/5/5 445/5/5 449/5/5
f 451/5/5 448/5/5 447/5/5
f 452/5/5 448/5/5 451/5/5
f 453/5/5 448/5/5 452/5/5
f 454/5/5 449/5/5 443/5/5
f 455/5/5 449/5/5 454/5/5
f 456/5/5 453/5/5 452/5/5
f 456/5/5 454/5/5 453/5/5
f 457/5/5 454/5/5 456/5/5
f 460/5/5 459/5/5 458/5/5
f 461/5/5 459/5/5 460/5/5
f 465/5/5 463/5/5 462/5/5
f 466/5/5 465/5/5 464/5/5
f 467/5/5 463/5/5 465/5/5
f 467/5/5 465/5/5 466/5/5
f 470/5/5 469/5/5 468/5/5
f 471/5/5 469/5/5 470/5/5
f 472/4/6 473/4/6 474/4/6
f 474/4/6 473/4/6 475/4/6
f 472/4/6 474/4/6 476/4/6
f 475/4/6 473/4/6 477/4/6
f 472/4/6 476/4/6 478/4/6
f 476/4/6 477/4/6 478/4/6
f 478/4/6 477/4/6 479/4/6
f 472/4/6 478/4/6 480/4/6
f 479/4/6 477/4/6 481/4/6
f 481/4/6 477/4/6 482/4/6
f 480/4/6 481/4/6 482/4/6
f 482/4/6 477/4/6 483/4/6
f 480/4/6 482/4/6 484/4/6
f 483/4/6 477/4/6 485/4/6
f 472/4/6 480/4/6 486/4/6
f 484/4/6 485/4/6 486/4/6
f 480/4/6 484/4/6 486/4/6
f 486/4/6 485/4/6 487/4/6
f 472/4/6 486/4/6 488/4/6
f 487/4/6 485/4/6 489/4/6
f 489/4/6 485/4/6 490/4/6
f 488/4/6 489/4/6 490/4/6
f 490/4/6 485/4/6 491/4/6
f 485/4/6 477/4/6 492/4/6
f 491/4/6 485/4/6 492/4/6
f 492/4/6 477/4/6 493/4/6
f 488/4/6 490/4/6 494/4/6
f 491/4/6 492/4/6 495/4/6
f 495/4/6 492/4/6 496/4/6
f 494/4/6 495/4/6 496/4/6
f 493/4/6 477/4/6 497/4/6
f 494/4/6 496/4/6 498/4/6
f 496/4/6 497/4/6 498/4/6
f 472/4/6 488/4/6 498/4/6
f 488/4/6 494/4/6 498/4/6
f 498/4/6 497/4/6 499/4/6
f 472/4/6 498/4/6 500/4/6
f 499/4/6 497/4/6 501/4/6
f 472/4/6 500/4/6 502/4/6
f 500/4/6 501/4/6 502/4/6
f 477/4/6 473/4/6 503/4/6
f 502/4/6 501/4/6 503/4/6
f 497/4/6 477/4/6 503/4/6
f 501/4/6 497/4/6 503/4/6
f 504/4/6 505/4/6 506/4/6
f 506/4/6 505/4/6 507/4/6
f 508/4/6 509/4/6 510/4/6
f 510/4/6 509/4/6 511/4/6
f 512/4/6 513/4/6 514/4/6
f 514/4/6 513/4/6 515/4/6
f 516/4/6 517/4/6 518/4/6
f 518/4/6 517/4/6 519/4/6
f 520/4/6 521/4/6 522/4/6
f 522/4/6 521/4/6 523/4/6
f 524/4/6 525/4/6 526/4/6
f 526/4/6 525/4/6 527/4/6
f 528/4/6 529/4/6 530/4/6
f 530/4/6 529/4/6 531/4/6
f 532/4/6 533/4/6 536/4/6
f 536/4/6 533/4/6 537/4/6
f 534/4/6 535/4/6 538/4/6
f 538/4/6 535/4/6 539/4/6
f 540/4/6 541/4/6 542/4/6
f 542/4/6 541/4/6 543/4/6
f 544/4/6 545/4/6 546/4/6
f 546/4/6 545/4/6 547/4/6
f 548/4/6 549/4/6 550/4/6
f 550/4/6 549/4/6 551/4/6
f 552/4/6 553/4/6 554/4/6
f 554/4/6 553/4/6 555/4/6
f 556/4/6 557/4/6 558/4/6
f 558/4/6 557/4/6 559/4/6
f 560/4/6 561/4/6 562/4/6
f 562/4/6 561/4/6 563/4/6
f 564/5/6 565/5/6 566/5/6
f 566/5/6 565/5/6 567/5/6
f 568/5/6 569/5/6 572/5/6
f 572/5/6 569/5/6 573/5/6
f 570/5/6 571/5/6 576/5/6
f 576/5/6 571/5/6 577/5/6
f 573/5/6 574/5/6 578/5/6
f 578/5/6 574/5/6 579/5/6
f 575/5/6 576/5/6 580/5/6
f 580/5/6 576/5/6 581/5/6
f 581/5/6 582/5/6 583/5/6
f 583/5/6 582/5/6 584/5/6
f 584/5/6 585/5/6 586/5/6
f 586/5/6 585/5/6 587/5/6
f 588/5/6 589/5/6 590/5/6
f 590/5/6 589/5/6 591/5/6
f 592/5/6 593/5/6 595/5/6
f 595/5/6 593/5/6 596/5/6
f 594/5/6 595/5/6 596/5/6
f 596/5/6 593/5/6 597/5/6
f 594/5/6 596/5/6 598/5/6
f 598/5/6 596/5/6 599/5/6
f 600/5/6 601/5/6 602/5/6
f 602/5/6 601/5/6 603/5/6
f 603/5/6 601/5/6 605/5/6
f 605/5/6 601/5/6 606/5/6
f 604/5/6 605/5/6 606/5/6
f 606/5/6 601/5/6 607/5/6
f 600/5/6 602/5/6 608/5/6
f 608/5/6 602/5/6 609/5/6
f 604/5/6 606/5/6 610/5/6
f 609/5/6 610/5/6 611/5/6
f 610/5/6 606/5/6 612/5/6
f 611/5/6 610/5/6 612/5/6
f 613/5/6 614/5/6 615/5/6
f 615/5/6 614/5/6 616/5/6
f 613/5/6 615/5/6 617/5/6
f 617/5/6 615/5/6 618/5/6
f 619/7/6 620/7/6 621/7/6
f 621/7/6 620/7/6 622/7/6
