# MagicaVoxel @ Ephtracy

# group
g predio6

# material
mtllib predio6.mtl
usemtl palette

# normals
vn -1 0 0
vn 1 0 0
vn 0 0 1
vn 0 0 -1
vn 0 -1 0
vn 0 1 0

# texcoords
vt 0.0136719 0.5
vt 0.548828 0.5
vt 0.748047 0.5
vt 0.986328 0.5

# verts
v -15 0 3
v -15 0 -11
v -15 2 2
v -15 2 -9
v -15 4 2
v -15 4 -9
v -15 6 2
v -15 6 -9
v -15 9 2
v -15 9 -9
v -15 13 3
v -15 13 -9
v -15 16 3
v -15 16 -9
v -15 18 3
v -15 18 -9
v -15 21 3
v -15 21 -9
v -15 23 3
v -15 23 -9
v -15 26 3
v -15 26 -9
v -15 28 3
v -15 28 -9
v -15 31 3
v -15 31 -9
v -15 34 3
v -15 34 -11
v -14 2 2
v -14 2 -9
v -14 4 2
v -14 4 -9
v -14 6 2
v -14 6 -9
v -14 9 2
v -14 9 -9
v -14 13 2
v -14 13 -9
v -14 16 2
v -14 16 -9
v -14 18 2
v -14 18 -9
v -14 21 2
v -14 21 -9
v -14 23 2
v -14 23 -9
v -14 26 2
v -14 26 -9
v -14 28 2
v -14 28 -9
v -14 31 2
v -14 31 -9
v -11 33 -2
v -11 33 -7
v -11 35 -2
v -11 35 -7
v -8 2 3
v -8 2 2
v -8 4 3
v -8 4 2
v -8 6 3
v -8 6 2
v -8 9 3
v -8 9 2
v -7 0 10
v -7 0 3
v -7 13 10
v -7 13 3
v -7 16 10
v -7 16 3
v -7 18 10
v -7 18 3
v -7 21 10
v -7 21 3
v -7 23 10
v -7 23 3
v -7 26 10
v -7 26 3
v -7 28 10
v -7 28 3
v -7 31 10
v -7 31 3
v -7 34 10
v -7 34 3
v -6 13 9
v -6 13 2
v -6 16 9
v -6 16 2
v -6 18 9
v -6 18 2
v -6 21 9
v -6 21 2
v -6 23 9
v -6 23 2
v -6 26 9
v -6 26 2
v -6 28 9
v -6 28 2
v -6 31 9
v -6 31 2
v -3 1 10
v -3 1 9
v -3 9 10
v -3 9 9
v 4 0 10
v 4 0 9
v 4 9 10
v 4 9 9
v 7 33 8
v 7 33 1
v 7 34 8
v 7 34 1
v 8 1 10
v 8 1 9
v 8 9 10
v 8 9 9
v 8 10 10
v 8 10 9
v 8 12 10
v 8 12 9
v 10 33 -2
v 10 33 -7
v 10 35 -2
v 10 35 -7
v 15 33 1
v 15 33 -9
v 15 34 1
v 15 34 -9
v 16 2 3
v 16 2 2
v 16 4 3
v 16 4 2
v 16 6 3
v 16 6 2
v 16 9 3
v 16 9 2
v -14 2 3
v -14 2 2
v -14 4 3
v -14 4 2
v -14 6 3
v -14 6 2
v -14 9 3
v -14 9 2
v -13 33 1
v -13 33 -9
v -13 34 1
v -13 34 -9
v -8 33 -2
v -8 33 -7
v -8 35 -2
v -8 35 -7
v -6 1 10
v -6 1 9
v -6 9 10
v -6 9 9
v -6 10 10
v -6 10 9
v -6 12 10
v -6 12 9
v -5 33 8
v -5 33 1
v -5 34 8
v -5 34 1
v -2 0 10
v -2 0 9
v -2 9 10
v -2 9 9
v 5 1 10
v 5 1 9
v 5 9 10
v 5 9 9
v 8 13 9
v 8 13 2
v 8 16 9
v 8 16 2
v 8 18 9
v 8 18 2
v 8 21 9
v 8 21 2
v 8 23 9
v 8 23 2
v 8 26 9
v 8 26 2
v 8 28 9
v 8 28 2
v 8 31 9
v 8 31 2
v 9 0 10
v 9 0 3
v 9 13 10
v 9 13 3
v 9 16 10
v 9 16 3
v 9 18 10
v 9 18 3
v 9 21 10
v 9 21 3
v 9 23 10
v 9 23 3
v 9 26 10
v 9 26 3
v 9 28 10
v 9 28 3
v 9 31 10
v 9 31 3
v 9 34 10
v 9 34 3
v 10 2 3
v 10 2 2
v 10 4 3
v 10 4 2
v 10 6 3
v 10 6 2
v 10 9 3
v 10 9 2
v 13 33 -2
v 13 33 -7
v 13 35 -2
v 13 35 -7
v 16 2 2
v 16 2 -9
v 16 4 2
v 16 4 -9
v 16 6 2
v 16 6 -9
v 16 9 2
v 16 9 -9
v 16 13 2
v 16 13 -9
v 16 16 2
v 16 16 -9
v 16 18 2
v 16 18 -9
v 16 21 2
v 16 21 -9
v 16 23 2
v 16 23 -9
v 16 26 2
v 16 26 -9
v 16 28 2
v 16 28 -9
v 16 31 2
v 16 31 -9
v 17 0 3
v 17 0 -11
v 17 2 2
v 17 2 -9
v 17 4 2
v 17 4 -9
v 17 6 2
v 17 6 -9
v 17 9 2
v 17 9 -9
v 17 13 3
v 17 13 -9
v 17 16 3
v 17 16 -9
v 17 18 3
v 17 18 -9
v 17 21 3
v 17 21 -9
v 17 23 3
v 17 23 -9
v 17 26 3
v 17 26 -9
v 17 28 3
v 17 28 -9
v 17 31 3
v 17 31 -9
v 17 34 3
v 17 34 -11
v -7 0 10
v -7 13 10
v -7 16 10
v -7 18 10
v -7 21 10
v -7 23 10
v -7 26 10
v -7 28 10
v -7 31 10
v -7 34 10
v -6 1 10
v -6 9 10
v -6 10 10
v -6 12 10
v -3 1 10
v -3 9 10
v -2 0 10
v -2 9 10
v 4 0 10
v 4 9 10
v 5 1 10
v 5 9 10
v 8 1 10
v 8 9 10
v 8 10 10
v 8 12 10
v 9 0 10
v 9 13 10
v 9 16 10
v 9 18 10
v 9 21 10
v 9 23 10
v 9 26 10
v 9 28 10
v 9 31 10
v 9 34 10
v -6 1 9
v -6 9 9
v -6 10 9
v -6 12 9
v -6 13 9
v -6 16 9
v -6 18 9
v -6 21 9
v -6 23 9
v -6 26 9
v -6 28 9
v -6 31 9
v -3 1 9
v -3 9 9
v -2 0 9
v -2 9 9
v 4 0 9
v 4 9 9
v 5 1 9
v 5 9 9
v 8 1 9
v 8 9 9
v 8 10 9
v 8 12 9
v 8 13 9
v 8 16 9
v 8 18 9
v 8 21 9
v 8 23 9
v 8 26 9
v 8 28 9
v 8 31 9
v -15 0 3
v -15 13 3
v -15 16 3
v -15 18 3
v -15 21 3
v -15 23 3
v -15 26 3
v -15 28 3
v -15 31 3
v -15 34 3
v -14 2 3
v -14 4 3
v -14 6 3
v -14 9 3
v -8 2 3
v -8 4 3
v -8 6 3
v -8 9 3
v -7 0 3
v -7 13 3
v -7 16 3
v -7 18 3
v -7 21 3
v -7 23 3
v -7 26 3
v -7 28 3
v -7 31 3
v -7 34 3
v 9 0 3
v 9 13 3
v 9 16 3
v 9 18 3
v 9 21 3
v 9 23 3
v 9 26 3
v 9 28 3
v 9 31 3
v 9 34 3
v 10 2 3
v 10 4 3
v 10 6 3
v 10 9 3
v 16 2 3
v 16 4 3
v 16 6 3
v 16 9 3
v 17 0 3
v 17 13 3
v 17 16 3
v 17 18 3
v 17 21 3
v 17 23 3
v 17 26 3
v 17 28 3
v 17 31 3
v 17 34 3
v -14 2 2
v -14 4 2
v -14 6 2
v -14 9 2
v -14 13 2
v -14 16 2
v -14 18 2
v -14 21 2
v -14 23 2
v -14 26 2
v -14 28 2
v -14 31 2
v -8 2 2
v -8 4 2
v -8 6 2
v -8 9 2
v -6 13 2
v -6 16 2
v -6 18 2
v -6 21 2
v -6 23 2
v -6 26 2
v -6 28 2
v -6 31 2
v 8 13 2
v 8 16 2
v 8 18 2
v 8 21 2
v 8 23 2
v 8 26 2
v 8 28 2
v 8 31 2
v 10 2 2
v 10 4 2
v 10 6 2
v 10 9 2
v 16 2 2
v 16 4 2
v 16 6 2
v 16 9 2
v 16 13 2
v 16 16 2
v 16 18 2
v 16 21 2
v 16 23 2
v 16 26 2
v 16 28 2
v 16 31 2
v -11 33 -2
v -11 35 -2
v -8 33 -2
v -8 35 -2
v 10 33 -2
v 10 35 -2
v 13 33 -2
v 13 35 -2
v -15 2 -9
v -15 4 -9
v -15 6 -9
v -15 9 -9
v -15 13 -9
v -15 16 -9
v -15 18 -9
v -15 21 -9
v -15 23 -9
v -15 26 -9
v -15 28 -9
v -15 31 -9
v -14 2 -9
v -14 4 -9
v -14 6 -9
v -14 9 -9
v -14 13 -9
v -14 16 -9
v -14 18 -9
v -14 21 -9
v -14 23 -9
v -14 26 -9
v -14 28 -9
v -14 31 -9
v -13 33 -9
v -13 34 -9
v 15 33 -9
v 15 34 -9
v 16 2 -9
v 16 4 -9
v 16 6 -9
v 16 9 -9
v 16 13 -9
v 16 16 -9
v 16 18 -9
v 16 21 -9
v 16 23 -9
v 16 26 -9
v 16 28 -9
v 16 31 -9
v 17 2 -9
v 17 4 -9
v 17 6 -9
v 17 9 -9
v 17 13 -9
v 17 16 -9
v 17 18 -9
v 17 21 -9
v 17 23 -9
v 17 26 -9
v 17 28 -9
v 17 31 -9
v -5 33 8
v -5 34 8
v 7 33 8
v 7 34 8
v -15 2 2
v -15 4 2
v -15 6 2
v -15 9 2
v -14 2 2
v -14 4 2
v -14 6 2
v -14 9 2
v 16 2 2
v 16 4 2
v 16 6 2
v 16 9 2
v 17 2 2
v 17 4 2
v 17 6 2
v 17 9 2
v -13 33 1
v -13 34 1
v -5 33 1
v -5 34 1
v 7 33 1
v 7 34 1
v 15 33 1
v 15 34 1
v -11 33 -7
v -11 35 -7
v -8 33 -7
v -8 35 -7
v 10 33 -7
v 10 35 -7
v 13 33 -7
v 13 35 -7
v -15 0 -11
v -15 34 -11
v 17 0 -11
v 17 34 -11
v -7 0 10
v -2 0 10
v 4 0 10
v 9 0 10
v -2 0 9
v 4 0 9
v -2 0 8
v 4 0 8
v -15 0 3
v -7 0 3
v 9 0 3
v 17 0 3
v -15 0 -11
v 17 0 -11
v -14 4 3
v -8 4 3
v 10 4 3
v 16 4 3
v -15 4 2
v -14 4 2
v -8 4 2
v 10 4 2
v 16 4 2
v 17 4 2
v -15 4 -9
v -14 4 -9
v 16 4 -9
v 17 4 -9
v -6 9 10
v -3 9 10
v -2 9 10
v 4 9 10
v 5 9 10
v 8 9 10
v -6 9 9
v -3 9 9
v -2 9 9
v 4 9 9
v 5 9 9
v 8 9 9
v -14 9 3
v -8 9 3
v 10 9 3
v 16 9 3
v -15 9 2
v -14 9 2
v -8 9 2
v 10 9 2
v 16 9 2
v 17 9 2
v -15 9 -9
v -14 9 -9
v 16 9 -9
v 17 9 -9
v -6 12 10
v 8 12 10
v -6 12 9
v 8 12 9
v -7 16 10
v 9 16 10
v -6 16 9
v 8 16 9
v -15 16 3
v -7 16 3
v 9 16 3
v 17 16 3
v -14 16 2
v -6 16 2
v 8 16 2
v 16 16 2
v -15 16 -9
v -14 16 -9
v 16 16 -9
v 17 16 -9
v -7 21 10
v 9 21 10
v -6 21 9
v 8 21 9
v -15 21 3
v -7 21 3
v 9 21 3
v 17 21 3
v -14 21 2
v -6 21 2
v 8 21 2
v 16 21 2
v -15 21 -9
v -14 21 -9
v 16 21 -9
v 17 21 -9
v -7 26 10
v 9 26 10
v -6 26 9
v 8 26 9
v -15 26 3
v -7 26 3
v 9 26 3
v 17 26 3
v -14 26 2
v -6 26 2
v 8 26 2
v 16 26 2
v -15 26 -9
v -14 26 -9
v 16 26 -9
v 17 26 -9
v -7 31 10
v 9 31 10
v -6 31 9
v 8 31 9
v -15 31 3
v -7 31 3
v 9 31 3
v 17 31 3
v -14 31 2
v -6 31 2
v 8 31 2
v 16 31 2
v -15 31 -9
v -14 31 -9
v 16 31 -9
v 17 31 -9
v -6 1 10
v -3 1 10
v 5 1 10
v 8 1 10
v -6 1 9
v -3 1 9
v 5 1 9
v 8 1 9
v -14 2 3
v -8 2 3
v 10 2 3
v 16 2 3
v -15 2 2
v -14 2 2
v -8 2 2
v 10 2 2
v 16 2 2
v 17 2 2
v -15 2 -9
v -14 2 -9
v 16 2 -9
v 17 2 -9
v -14 6 3
v -8 6 3
v 10 6 3
v 16 6 3
v -15 6 2
v -14 6 2
v -8 6 2
v 10 6 2
v 16 6 2
v 17 6 2
v -15 6 -9
v -14 6 -9
v 16 6 -9
v 17 6 -9
v -6 10 10
v 8 10 10
v -6 10 9
v 8 10 9
v -7 13 10
v 9 13 10
v -6 13 9
v 8 13 9
v -15 13 3
v -7 13 3
v 9 13 3
v 17 13 3
v -14 13 2
v -6 13 2
v 8 13 2
v 16 13 2
v -15 13 -9
v -14 13 -9
v 16 13 -9
v 17 13 -9
v -7 18 10
v 9 18 10
v -6 18 9
v 8 18 9
v -15 18 3
v -7 18 3
v 9 18 3
v 17 18 3
v -14 18 2
v -6 18 2
v 8 18 2
v 16 18 2
v -15 18 -9
v -14 18 -9
v 16 18 -9
v 17 18 -9
v -7 23 10
v 9 23 10
v -6 23 9
v 8 23 9
v -15 23 3
v -7 23 3
v 9 23 3
v 17 23 3
v -14 23 2
v -6 23 2
v 8 23 2
v 16 23 2
v -15 23 -9
v -14 23 -9
v 16 23 -9
v 17 23 -9
v -7 28 10
v 9 28 10
v -6 28 9
v 8 28 9
v -15 28 3
v -7 28 3
v 9 28 3
v 17 28 3
v -14 28 2
v -6 28 2
v 8 28 2
v 16 28 2
v -15 28 -9
v -14 28 -9
v 16 28 -9
v 17 28 -9
v -5 33 8
v 7 33 8
v -13 33 1
v -5 33 1
v 7 33 1
v 15 33 1
v -11 33 -2
v -8 33 -2
v 10 33 -2
v 13 33 -2
v -11 33 -7
v -8 33 -7
v 10 33 -7
v 13 33 -7
v -13 33 -9
v 15 33 -9
v -7 34 10
v 9 34 10
v -5 34 8
v 7 34 8
v -15 34 3
v -7 34 3
v 9 34 3
v 17 34 3
v -13 34 1
v -5 34 1
v 7 34 1
v 15 34 1
v -13 34 -9
v 15 34 -9
v -15 34 -11
v 17 34 -11
v -11 35 -2
v -8 35 -2
v 10 35 -2
v 13 35 -2
v -11 35 -7
v -8 35 -7
v 10 35 -7
v 13 35 -7

# faces
f 3/2/1 2/2/1 1/2/1
f 4/2/1 2/2/1 3/2/1
f 5/2/1 3/2/1 1/2/1
f 6/2/1 2/2/1 4/2/1
f 7/2/1 5/2/1 1/2/1
f 7/2/1 6/2/1 5/2/1
f 8/2/1 2/2/1 6/2/1
f 8/2/1 6/2/1 7/2/1
f 9/2/1 7/2/1 1/2/1
f 10/2/1 2/2/1 8/2/1
f 11/2/1 9/2/1 1/2/1
f 11/2/1 10/2/1 9/2/1
f 12/2/1 2/2/1 10/2/1
f 12/2/1 10/2/1 11/2/1
f 14/2/1 2/2/1 12/2/1
f 15/2/1 14/2/1 13/2/1
f 16/2/1 2/2/1 14/2/1
f 16/2/1 14/2/1 15/2/1
f 18/2/1 2/2/1 16/2/1
f 19/2/1 18/2/1 17/2/1
f 20/2/1 2/2/1 18/2/1
f 20/2/1 18/2/1 19/2/1
f 22/2/1 2/2/1 20/2/1
f 23/2/1 22/2/1 21/2/1
f 24/2/1 2/2/1 22/2/1
f 24/2/1 22/2/1 23/2/1
f 26/2/1 2/2/1 24/2/1
f 27/2/1 26/2/1 25/2/1
f 28/2/1 2/2/1 26/2/1
f 28/2/1 26/2/1 27/2/1
f 31/3/1 30/3/1 29/3/1
f 32/3/1 30/3/1 31/3/1
f 35/3/1 34/3/1 33/3/1
f 36/3/1 34/3/1 35/3/1
f 39/3/1 38/3/1 37/3/1
f 40/3/1 38/3/1 39/3/1
f 43/3/1 42/3/1 41/3/1
f 44/3/1 42/3/1 43/3/1
f 47/3/1 46/3/1 45/3/1
f 48/3/1 46/3/1 47/3/1
f 51/3/1 50/3/1 49/3/1
f 52/3/1 50/3/1 51/3/1
f 55/4/1 54/4/1 53/4/1
f 56/4/1 54/4/1 55/4/1
f 59/2/1 58/2/1 57/2/1
f 60/2/1 58/2/1 59/2/1
f 63/2/1 62/2/1 61/2/1
f 64/2/1 62/2/1 63/2/1
f 67/2/1 66/2/1 65/2/1
f 68/2/1 66/2/1 67/2/1
f 71/2/1 70/2/1 69/2/1
f 72/2/1 70/2/1 71/2/1
f 75/2/1 74/2/1 73/2/1
f 76/2/1 74/2/1 75/2/1
f 79/2/1 78/2/1 77/2/1
f 80/2/1 78/2/1 79/2/1
f 83/2/1 82/2/1 81/2/1
f 84/2/1 82/2/1 83/2/1
f 87/3/1 86/3/1 85/3/1
f 88/3/1 86/3/1 87/3/1
f 91/3/1 90/3/1 89/3/1
f 92/3/1 90/3/1 91/3/1
f 95/3/1 94/3/1 93/3/1
f 96/3/1 94/3/1 95/3/1
f 99/3/1 98/3/1 97/3/1
f 100/3/1 98/3/1 99/3/1
f 103/2/1 102/2/1 101/2/1
f 104/2/1 102/2/1 103/2/1
f 107/2/1 106/2/1 105/2/1
f 108/2/1 106/2/1 107/2/1
f 111/2/1 110/2/1 109/2/1
f 112/2/1 110/2/1 111/2/1
f 115/2/1 114/2/1 113/2/1
f 116/2/1 114/2/1 115/2/1
f 119/2/1 118/2/1 117/2/1
f 120/2/1 118/2/1 119/2/1
f 123/4/1 122/4/1 121/4/1
f 124/4/1 122/4/1 123/4/1
f 127/2/1 126/2/1 125/2/1
f 128/2/1 126/2/1 127/2/1
f 131/2/1 130/2/1 129/2/1
f 132/2/1 130/2/1 131/2/1
f 135/2/1 134/2/1 133/2/1
f 136/2/1 134/2/1 135/2/1
f 137/2/2 138/2/2 139/2/2
f 139/2/2 138/2/2 140/2/2
f 141/2/2 142/2/2 143/2/2
f 143/2/2 142/2/2 144/2/2
f 145/2/2 146/2/2 147/2/2
f 147/2/2 146/2/2 148/2/2
f 149/4/2 150/4/2 151/4/2
f 151/4/2 150/4/2 152/4/2
f 153/2/2 154/2/2 155/2/2
f 155/2/2 154/2/2 156/2/2
f 157/2/2 158/2/2 159/2/2
f 159/2/2 158/2/2 160/2/2
f 161/2/2 162/2/2 163/2/2
f 163/2/2 162/2/2 164/2/2
f 165/2/2 166/2/2 167/2/2
f 167/2/2 166/2/2 168/2/2
f 169/2/2 170/2/2 171/2/2
f 171/2/2 170/2/2 172/2/2
f 173/3/2 174/3/2 175/3/2
f 175/3/2 174/3/2 176/3/2
f 177/3/2 178/3/2 179/3/2
f 179/3/2 178/3/2 180/3/2
f 181/3/2 182/3/2 183/3/2
f 183/3/2 182/3/2 184/3/2
f 185/3/2 186/3/2 187/3/2
f 187/3/2 186/3/2 188/3/2
f 189/2/2 190/2/2 191/2/2
f 191/2/2 190/2/2 192/2/2
f 193/2/2 194/2/2 195/2/2
f 195/2/2 194/2/2 196/2/2
f 197/2/2 198/2/2 199/2/2
f 199/2/2 198/2/2 200/2/2
f 201/2/2 202/2/2 203/2/2
f 203/2/2 202/2/2 204/2/2
f 205/2/2 206/2/2 207/2/2
f 207/2/2 206/2/2 208/2/2
f 209/2/2 210/2/2 211/2/2
f 211/2/2 210/2/2 212/2/2
f 213/2/2 214/2/2 215/2/2
f 215/2/2 214/2/2 216/2/2
f 217/4/2 218/4/2 219/4/2
f 219/4/2 218/4/2 220/4/2
f 221/3/2 222/3/2 223/3/2
f 223/3/2 222/3/2 224/3/2
f 225/3/2 226/3/2 227/3/2
f 227/3/2 226/3/2 228/3/2
f 229/3/2 230/3/2 231/3/2
f 231/3/2 230/3/2 232/3/2
f 233/3/2 234/3/2 235/3/2
f 235/3/2 234/3/2 236/3/2
f 237/3/2 238/3/2 239/3/2
f 239/3/2 238/3/2 240/3/2
f 241/3/2 242/3/2 243/3/2
f 243/3/2 242/3/2 244/3/2
f 245/2/2 246/2/2 247/2/2
f 247/2/2 246/2/2 248/2/2
f 245/2/2 247/2/2 249/2/2
f 248/2/2 246/2/2 250/2/2
f 245/2/2 249/2/2 251/2/2
f 249/2/2 250/2/2 251/2/2
f 250/2/2 246/2/2 252/2/2
f 251/2/2 250/2/2 252/2/2
f 245/2/2 251/2/2 253/2/2
f 252/2/2 246/2/2 254/2/2
f 245/2/2 253/2/2 255/2/2
f 253/2/2 254/2/2 255/2/2
f 254/2/2 246/2/2 256/2/2
f 255/2/2 254/2/2 256/2/2
f 256/2/2 246/2/2 258/2/2
f 257/2/2 258/2/2 259/2/2
f 258/2/2 246/2/2 260/2/2
f 259/2/2 258/2/2 260/2/2
f 260/2/2 246/2/2 262/2/2
f 261/2/2 262/2/2 263/2/2
f 262/2/2 246/2/2 264/2/2
f 263/2/2 262/2/2 264/2/2
f 264/2/2 246/2/2 266/2/2
f 265/2/2 266/2/2 267/2/2
f 266/2/2 246/2/2 268/2/2
f 267/2/2 266/2/2 268/2/2
f 268/2/2 246/2/2 270/2/2
f 269/2/2 270/2/2 271/2/2
f 270/2/2 246/2/2 272/2/2
f 271/2/2 270/2/2 272/2/2
f 283/2/3 274/2/3 273/2/3
f 284/2/3 274/2/3 283/2/3
f 285/2/3 274/2/3 284/2/3
f 286/2/3 274/2/3 285/2/3
f 287/2/3 283/2/3 273/2/3
f 288/2/3 285/2/3 284/2/3
f 289/2/3 287/2/3 273/2/3
f 289/2/3 288/2/3 287/2/3
f 290/2/3 285/2/3 288/2/3
f 290/2/3 288/2/3 289/2/3
f 292/2/3 285/2/3 290/2/3
f 293/2/3 292/2/3 291/2/3
f 294/2/3 285/2/3 292/2/3
f 294/2/3 292/2/3 293/2/3
f 295/2/3 293/2/3 291/2/3
f 296/2/3 285/2/3 294/2/3
f 297/2/3 285/2/3 296/2/3
f 298/2/3 274/2/3 286/2/3
f 299/2/3 297/2/3 296/2/3
f 299/2/3 298/2/3 297/2/3
f 299/2/3 295/2/3 291/2/3
f 299/2/3 296/2/3 295/2/3
f 300/2/3 274/2/3 298/2/3
f 300/2/3 298/2/3 299/2/3
f 301/2/3 276/2/3 275/2/3
f 302/2/3 276/2/3 301/2/3
f 303/2/3 278/2/3 277/2/3
f 304/2/3 278/2/3 303/2/3
f 305/2/3 280/2/3 279/2/3
f 306/2/3 280/2/3 305/2/3
f 307/2/3 282/2/3 281/2/3
f 308/2/3 282/2/3 307/2/3
f 321/3/3 310/3/3 309/3/3
f 322/3/3 310/3/3 321/3/3
f 325/1/3 324/1/3 323/1/3
f 326/1/3 324/1/3 325/1/3
f 329/3/3 328/3/3 327/3/3
f 330/3/3 328/3/3 329/3/3
f 331/3/3 312/3/3 311/3/3
f 332/3/3 312/3/3 331/3/3
f 333/3/3 314/3/3 313/3/3
f 334/3/3 314/3/3 333/3/3
f 335/3/3 316/3/3 315/3/3
f 336/3/3 316/3/3 335/3/3
f 337/3/3 318/3/3 317/3/3
f 338/3/3 318/3/3 337/3/3
f 339/3/3 320/3/3 319/3/3
f 340/3/3 320/3/3 339/3/3
f 351/2/3 342/2/3 341/2/3
f 352/2/3 342/2/3 351/2/3
f 353/2/3 342/2/3 352/2/3
f 354/2/3 342/2/3 353/2/3
f 355/2/3 351/2/3 341/2/3
f 356/2/3 353/2/3 352/2/3
f 357/2/3 353/2/3 356/2/3
f 358/2/3 342/2/3 354/2/3
f 359/2/3 357/2/3 356/2/3
f 359/2/3 358/2/3 357/2/3
f 359/2/3 355/2/3 341/2/3
f 359/2/3 356/2/3 355/2/3
f 360/2/3 342/2/3 358/2/3
f 360/2/3 358/2/3 359/2/3
f 361/2/3 344/2/3 343/2/3
f 362/2/3 344/2/3 361/2/3
f 363/2/3 346/2/3 345/2/3
f 364/2/3 346/2/3 363/2/3
f 365/2/3 348/2/3 347/2/3
f 366/2/3 348/2/3 365/2/3
f 367/2/3 350/2/3 349/2/3
f 368/2/3 350/2/3 367/2/3
f 379/2/3 370/2/3 369/2/3
f 380/2/3 370/2/3 379/2/3
f 381/2/3 370/2/3 380/2/3
f 382/2/3 370/2/3 381/2/3
f 383/2/3 379/2/3 369/2/3
f 384/2/3 381/2/3 380/2/3
f 385/2/3 381/2/3 384/2/3
f 386/2/3 370/2/3 382/2/3
f 387/2/3 385/2/3 384/2/3
f 387/2/3 386/2/3 385/2/3
f 387/2/3 383/2/3 369/2/3
f 387/2/3 384/2/3 383/2/3
f 388/2/3 370/2/3 386/2/3
f 388/2/3 386/2/3 387/2/3
f 389/2/3 372/2/3 371/2/3
f 390/2/3 372/2/3 389/2/3
f 391/2/3 374/2/3 373/2/3
f 392/2/3 374/2/3 391/2/3
f 393/2/3 376/2/3 375/2/3
f 394/2/3 376/2/3 393/2/3
f 395/2/3 378/2/3 377/2/3
f 396/2/3 378/2/3 395/2/3
f 409/3/3 398/3/3 397/3/3
f 410/3/3 398/3/3 409/3/3
f 411/3/3 400/3/3 399/3/3
f 412/3/3 400/3/3 411/3/3
f 413/3/3 402/3/3 401/3/3
f 414/3/3 402/3/3 413/3/3
f 415/3/3 404/3/3 403/3/3
f 416/3/3 404/3/3 415/3/3
f 417/3/3 406/3/3 405/3/3
f 418/3/3 406/3/3 417/3/3
f 419/3/3 408/3/3 407/3/3
f 420/3/3 408/3/3 419/3/3
f 433/3/3 430/3/3 429/3/3
f 434/3/3 430/3/3 433/3/3
f 435/3/3 432/3/3 431/3/3
f 436/3/3 432/3/3 435/3/3
f 437/3/3 422/3/3 421/3/3
f 438/3/3 422/3/3 437/3/3
f 439/3/3 424/3/3 423/3/3
f 440/3/3 424/3/3 439/3/3
f 441/3/3 426/3/3 425/3/3
f 442/3/3 426/3/3 441/3/3
f 443/3/3 428/3/3 427/3/3
f 444/3/3 428/3/3 443/3/3
f 447/4/3 446/4/3 445/4/3
f 448/4/3 446/4/3 447/4/3
f 451/4/3 450/4/3 449/4/3
f 452/4/3 450/4/3 451/4/3
f 465/2/3 454/2/3 453/2/3
f 466/2/3 454/2/3 465/2/3
f 467/2/3 456/2/3 455/2/3
f 468/2/3 456/2/3 467/2/3
f 469/2/3 458/2/3 457/2/3
f 470/2/3 458/2/3 469/2/3
f 471/2/3 460/2/3 459/2/3
f 472/2/3 460/2/3 471/2/3
f 473/2/3 462/2/3 461/2/3
f 474/2/3 462/2/3 473/2/3
f 475/2/3 464/2/3 463/2/3
f 476/2/3 464/2/3 475/2/3
f 479/2/3 478/2/3 477/2/3
f 480/2/3 478/2/3 479/2/3
f 493/2/3 482/2/3 481/2/3
f 494/2/3 482/2/3 493/2/3
f 495/2/3 484/2/3 483/2/3
f 496/2/3 484/2/3 495/2/3
f 497/2/3 486/2/3 485/2/3
f 498/2/3 486/2/3 497/2/3
f 499/2/3 488/2/3 487/2/3
f 500/2/3 488/2/3 499/2/3
f 501/2/3 490/2/3 489/2/3
f 502/2/3 490/2/3 501/2/3
f 503/2/3 492/2/3 491/2/3
f 504/2/3 492/2/3 503/2/3
f 505/2/4 506/2/4 507/2/4
f 507/2/4 506/2/4 508/2/4
f 509/2/4 510/2/4 513/2/4
f 513/2/4 510/2/4 514/2/4
f 511/2/4 512/2/4 515/2/4
f 515/2/4 512/2/4 516/2/4
f 517/2/4 518/2/4 521/2/4
f 521/2/4 518/2/4 522/2/4
f 519/2/4 520/2/4 523/2/4
f 523/2/4 520/2/4 524/2/4
f 525/2/4 526/2/4 527/2/4
f 527/2/4 526/2/4 528/2/4
f 529/2/4 530/2/4 531/2/4
f 531/2/4 530/2/4 532/2/4
f 533/4/4 534/4/4 535/4/4
f 535/4/4 534/4/4 536/4/4
f 537/4/4 538/4/4 539/4/4
f 539/4/4 538/4/4 540/4/4
f 541/2/4 542/2/4 543/2/4
f 543/2/4 542/2/4 544/2/4
f 549/2/5 546/2/5 545/2/5
f 550/2/5 548/2/5 547/2/5
f 551/2/5 549/2/5 545/2/5
f 551/1/5 550/1/5 549/1/5
f 552/2/5 548/2/5 550/2/5
f 552/1/5 550/1/5 551/1/5
f 554/2/5 551/2/5 545/2/5
f 554/2/5 552/2/5 551/2/5
f 555/2/5 548/2/5 552/2/5
f 555/2/5 552/2/5 554/2/5
f 557/2/5 554/2/5 553/2/5
f 557/2/5 556/2/5 555/2/5
f 557/2/5 555/2/5 554/2/5
f 558/2/5 556/2/5 557/2/5
f 564/2/5 560/2/5 559/2/5
f 565/2/5 560/2/5 564/2/5
f 566/2/5 562/2/5 561/2/5
f 567/2/5 562/2/5 566/2/5
f 569/2/5 564/2/5 563/2/5
f 570/2/5 564/2/5 569/2/5
f 571/2/5 568/2/5 567/2/5
f 572/2/5 568/2/5 571/2/5
f 579/2/5 574/2/5 573/2/5
f 580/2/5 574/2/5 579/2/5
f 581/2/5 576/2/5 575/2/5
f 582/2/5 576/2/5 581/2/5
f 583/2/5 578/2/5 577/2/5
f 584/2/5 578/2/5 583/2/5
f 590/2/5 586/2/5 585/2/5
f 591/2/5 586/2/5 590/2/5
f 592/2/5 588/2/5 587/2/5
f 593/2/5 588/2/5 592/2/5
f 595/2/5 590/2/5 589/2/5
f 596/2/5 590/2/5 595/2/5
f 597/2/5 594/2/5 593/2/5
f 598/2/5 594/2/5 597/2/5
f 601/2/5 600/2/5 599/2/5
f 602/2/5 600/2/5 601/2/5
f 605/2/5 604/2/5 603/2/5
f 606/2/5 604/2/5 605/2/5
f 608/2/5 605/2/5 603/2/5
f 609/2/5 604/2/5 606/2/5
f 611/2/5 608/2/5 607/2/5
f 612/2/5 605/2/5 608/2/5
f 612/2/5 608/2/5 611/2/5
f 613/2/5 610/2/5 609/2/5
f 613/2/5 609/2/5 606/2/5
f 614/2/5 610/2/5 613/2/5
f 615/2/5 611/2/5 607/2/5
f 616/2/5 611/2/5 615/2/5
f 617/2/5 610/2/5 614/2/5
f 618/2/5 610/2/5 617/2/5
f 621/2/5 620/2/5 619/2/5
f 622/2/5 620/2/5 621/2/5
f 624/2/5 621/2/5 619/2/5
f 625/2/5 620/2/5 622/2/5
f 627/2/5 624/2/5 623/2/5
f 628/2/5 621/2/5 624/2/5
f 628/2/5 624/2/5 627/2/5
f 629/2/5 626/2/5 625/2/5
f 629/2/5 625/2/5 622/2/5
f 630/2/5 626/2/5 629/2/5
f 631/2/5 627/2/5 623/2/5
f 632/2/5 627/2/5 631/2/5
f 633/2/5 626/2/5 630/2/5
f 634/2/5 626/2/5 633/2/5
f 637/2/5 636/2/5 635/2/5
f 638/2/5 636/2/5 637/2/5
f 640/2/5 637/2/5 635/2/5
f 641/2/5 636/2/5 638/2/5
f 643/2/5 640/2/5 639/2/5
f 644/2/5 637/2/5 640/2/5
f 644/2/5 640/2/5 643/2/5
f 645/2/5 642/2/5 641/2/5
f 645/2/5 641/2/5 638/2/5
f 646/2/5 642/2/5 645/2/5
f 647/2/5 643/2/5 639/2/5
f 648/2/5 643/2/5 647/2/5
f 649/2/5 642/2/5 646/2/5
f 650/2/5 642/2/5 649/2/5
f 653/2/5 652/2/5 651/2/5
f 654/2/5 652/2/5 653/2/5
f 656/2/5 653/2/5 651/2/5
f 657/2/5 652/2/5 654/2/5
f 659/2/5 656/2/5 655/2/5
f 660/2/5 653/2/5 656/2/5
f 660/2/5 656/2/5 659/2/5
f 661/2/5 658/2/5 657/2/5
f 661/2/5 657/2/5 654/2/5
f 662/2/5 658/2/5 661/2/5
f 663/2/5 659/2/5 655/2/5
f 664/2/5 659/2/5 663/2/5
f 665/2/5 658/2/5 662/2/5
f 666/2/5 658/2/5 665/2/5
f 667/2/6 668/2/6 671/2/6
f 671/2/6 668/2/6 672/2/6
f 669/2/6 670/2/6 673/2/6
f 673/2/6 670/2/6 674/2/6
f 675/2/6 676/2/6 680/2/6
f 680/2/6 676/2/6 681/2/6
f 677/2/6 678/2/6 682/2/6
f 682/2/6 678/2/6 683/2/6
f 679/2/6 680/2/6 685/2/6
f 685/2/6 680/2/6 686/2/6
f 683/2/6 684/2/6 687/2/6
f 687/2/6 684/2/6 688/2/6
f 689/2/6 690/2/6 694/2/6
f 694/2/6 690/2/6 695/2/6
f 691/2/6 692/2/6 696/2/6
f 696/2/6 692/2/6 697/2/6
f 693/2/6 694/2/6 699/2/6
f 699/2/6 694/2/6 700/2/6
f 697/2/6 698/2/6 701/2/6
f 701/2/6 698/2/6 702/2/6
f 703/2/6 704/2/6 705/2/6
f 705/2/6 704/2/6 706/2/6
f 707/2/6 708/2/6 709/2/6
f 709/2/6 708/2/6 710/2/6
f 707/2/6 709/2/6 712/2/6
f 710/2/6 708/2/6 713/2/6
f 711/2/6 712/2/6 715/2/6
f 712/2/6 709/2/6 716/2/6
f 715/2/6 712/2/6 716/2/6
f 713/2/6 714/2/6 717/2/6
f 710/2/6 713/2/6 717/2/6
f 717/2/6 714/2/6 718/2/6
f 711/2/6 715/2/6 719/2/6
f 719/2/6 715/2/6 720/2/6
f 718/2/6 714/2/6 721/2/6
f 721/2/6 714/2/6 722/2/6
f 723/2/6 724/2/6 725/2/6
f 725/2/6 724/2/6 726/2/6
f 723/2/6 725/2/6 728/2/6
f 726/2/6 724/2/6 729/2/6
f 727/2/6 728/2/6 731/2/6
f 728/2/6 725/2/6 732/2/6
f 731/2/6 728/2/6 732/2/6
f 729/2/6 730/2/6 733/2/6
f 726/2/6 729/2/6 733/2/6
f 733/2/6 730/2/6 734/2/6
f 727/2/6 731/2/6 735/2/6
f 735/2/6 731/2/6 736/2/6
f 734/2/6 730/2/6 737/2/6
f 737/2/6 730/2/6 738/2/6
f 739/2/6 740/2/6 741/2/6
f 741/2/6 740/2/6 742/2/6
f 739/2/6 741/2/6 744/2/6
f 742/2/6 740/2/6 745/2/6
f 743/2/6 744/2/6 747/2/6
f 744/2/6 741/2/6 748/2/6
f 747/2/6 744/2/6 748/2/6
f 745/2/6 746/2/6 749/2/6
f 742/2/6 745/2/6 749/2/6
f 749/2/6 746/2/6 750/2/6
f 743/2/6 747/2/6 751/2/6
f 751/2/6 747/2/6 752/2/6
f 750/2/6 746/2/6 753/2/6
f 753/2/6 746/2/6 754/2/6
f 755/2/6 756/2/6 757/2/6
f 757/2/6 756/2/6 758/2/6
f 755/2/6 757/2/6 760/2/6
f 758/2/6 756/2/6 761/2/6
f 759/2/6 760/2/6 763/2/6
f 760/2/6 757/2/6 764/2/6
f 763/2/6 760/2/6 764/2/6
f 761/2/6 762/2/6 765/2/6
f 758/2/6 761/2/6 765/2/6
f 765/2/6 762/2/6 766/2/6
f 759/2/6 763/2/6 767/2/6
f 767/2/6 763/2/6 768/2/6
f 766/2/6 762/2/6 769/2/6
f 769/2/6 762/2/6 770/2/6
f 771/2/6 772/2/6 774/2/6
f 774/2/6 772/2/6 775/2/6
f 773/2/6 774/2/6 777/2/6
f 775/2/6 776/2/6 777/2/6
f 774/2/6 775/2/6 777/2/6
f 777/2/6 776/2/6 778/2/6
f 778/2/6 776/2/6 779/2/6
f 779/2/6 776/2/6 780/2/6
f 773/2/6 777/2/6 781/2/6
f 778/2/6 779/2/6 782/2/6
f 782/2/6 779/2/6 783/2/6
f 780/2/6 776/2/6 784/2/6
f 782/2/6 783/2/6 785/2/6
f 783/2/6 784/2/6 785/2/6
f 773/2/6 781/2/6 785/2/6
f 781/2/6 782/2/6 785/2/6
f 784/2/6 776/2/6 786/2/6
f 785/2/6 784/2/6 786/2/6
f 787/2/6 788/2/6 789/2/6
f 789/2/6 788/2/6 790/2/6
f 787/2/6 789/2/6 792/2/6
f 790/2/6 788/2/6 793/2/6
f 791/2/6 792/2/6 795/2/6
f 792/2/6 789/2/6 796/2/6
f 795/2/6 792/2/6 796/2/6
f 793/2/6 794/2/6 797/2/6
f 790/2/6 793/2/6 797/2/6
f 797/2/6 794/2/6 798/2/6
f 791/2/6 795/2/6 799/2/6
f 798/2/6 794/2/6 800/2/6
f 791/2/6 799/2/6 801/2/6
f 799/2/6 800/2/6 801/2/6
f 800/2/6 794/2/6 802/2/6
f 801/2/6 800/2/6 802/2/6
f 803/4/6 804/4/6 807/4/6
f 807/4/6 804/4/6 808/4/6
f 805/4/6 806/4/6 809/4/6
f 809/4/6 806/4/6 810/4/6
