# MagicaVoxel @ Ephtracy

# group
g casa2

# material
mtllib casa2.mtl
usemtl palette

# normals
vn -1 0 0
vn 1 0 0
vn 0 0 1
vn 0 0 -1
vn 0 -1 0
vn 0 1 0

# texcoords
vt 0.970703 0.5
vt 0.974609 0.5
vt 0.990234 0.5

# verts
v -10 0 13
v -10 0 -6
v -10 16 13
v -10 16 -6
v 2 1 -5
v 2 1 -6
v 2 6 -5
v 2 6 -6
v 5 1 13
v 5 1 12
v 5 6 13
v 5 6 12
v 5 8 13
v 5 8 12
v 5 12 13
v 5 12 12
v 6 0 -5
v 6 0 -6
v 6 6 -5
v 6 6 -6
v 6 8 -5
v 6 8 -6
v 6 12 -5
v 6 12 -6
v 6 15 12
v 6 15 -5
v 6 16 12
v 6 16 -5
v -9 8 -5
v -9 8 -6
v -9 12 -5
v -9 12 -6
v -9 15 12
v -9 15 -5
v -9 16 12
v -9 16 -5
v -8 1 13
v -8 1 12
v -8 1 -5
v -8 1 -6
v -8 6 13
v -8 6 12
v -8 6 -5
v -8 6 -6
v -8 8 13
v -8 8 12
v -8 12 13
v -8 12 12
v 3 0 -5
v 3 0 -6
v 3 6 -5
v 3 6 -6
v 7 0 13
v 7 0 -6
v 7 16 13
v 7 16 -6
v -10 0 13
v -10 16 13
v -8 1 13
v -8 6 13
v -8 8 13
v -8 12 13
v 5 1 13
v 5 6 13
v 5 8 13
v 5 12 13
v 7 0 13
v 7 16 13
v -8 1 12
v -8 6 12
v -8 8 12
v -8 12 12
v 5 1 12
v 5 6 12
v 5 8 12
v 5 12 12
v -9 15 -5
v -9 16 -5
v 6 15 -5
v 6 16 -5
v -9 15 12
v -9 16 12
v 6 15 12
v 6 16 12
v -9 8 -5
v -9 12 -5
v -8 1 -5
v -8 6 -5
v 2 1 -5
v 2 6 -5
v 3 0 -5
v 3 6 -5
v 6 0 -5
v 6 6 -5
v 6 8 -5
v 6 12 -5
v -10 0 -6
v -10 16 -6
v -9 8 -6
v -9 12 -6
v -8 1 -6
v -8 6 -6
v 2 1 -6
v 2 6 -6
v 3 0 -6
v 3 6 -6
v 6 0 -6
v 6 6 -6
v 6 8 -6
v 6 12 -6
v 7 0 -6
v 7 16 -6
v -10 0 13
v 7 0 13
v 3 0 -4
v 6 0 -4
v 3 0 -5
v 6 0 -5
v -10 0 -6
v 3 0 -6
v 6 0 -6
v 7 0 -6
v -8 6 13
v 5 6 13
v -8 6 12
v 5 6 12
v -8 6 -5
v 2 6 -5
v 3 6 -5
v 6 6 -5
v -8 6 -6
v 2 6 -6
v 3 6 -6
v 6 6 -6
v -8 12 13
v 5 12 13
v -8 12 12
v 5 12 12
v -9 12 -5
v 6 12 -5
v -9 12 -6
v 6 12 -6
v -8 1 13
v 5 1 13
v -8 1 12
v 5 1 12
v -8 1 -5
v 2 1 -5
v -8 1 -6
v 2 1 -6
v -8 8 13
v 5 8 13
v -8 8 12
v 5 8 12
v -9 8 -5
v 6 8 -5
v -9 8 -6
v 6 8 -6
v -9 15 12
v 6 15 12
v -9 15 -5
v 6 15 -5
v -10 16 13
v 7 16 13
v -9 16 12
v 6 16 12
v -9 16 -5
v 6 16 -5
v -10 16 -6
v 7 16 -6

# faces
f 3/3/1 2/3/1 1/3/1
f 4/3/1 2/3/1 3/3/1
f 7/3/1 6/3/1 5/3/1
f 8/3/1 6/3/1 7/3/1
f 11/3/1 10/3/1 9/3/1
f 12/3/1 10/3/1 11/3/1
f 15/3/1 14/3/1 13/3/1
f 16/3/1 14/3/1 15/3/1
f 19/3/1 18/3/1 17/3/1
f 20/3/1 18/3/1 19/3/1
f 23/3/1 22/3/1 21/3/1
f 24/3/1 22/3/1 23/3/1
f 27/3/1 26/3/1 25/3/1
f 28/3/1 26/3/1 27/3/1
f 29/3/2 30/3/2 31/3/2
f 31/3/2 30/3/2 32/3/2
f 33/3/2 34/3/2 35/3/2
f 35/3/2 34/3/2 36/3/2
f 37/3/2 38/3/2 41/3/2
f 41/3/2 38/3/2 42/3/2
f 39/3/2 40/3/2 43/3/2
f 43/3/2 40/3/2 44/3/2
f 45/3/2 46/3/2 47/3/2
f 47/3/2 46/3/2 48/3/2
f 49/3/2 50/3/2 51/3/2
f 51/3/2 50/3/2 52/3/2
f 53/3/2 54/3/2 55/3/2
f 55/3/2 54/3/2 56/3/2
f 59/3/3 58/3/3 57/3/3
f 60/3/3 58/3/3 59/3/3
f 61/3/3 58/3/3 60/3/3
f 62/3/3 58/3/3 61/3/3
f 63/3/3 59/3/3 57/3/3
f 64/3/3 61/3/3 60/3/3
f 65/3/3 61/3/3 64/3/3
f 66/3/3 58/3/3 62/3/3
f 67/3/3 65/3/3 64/3/3
f 67/3/3 66/3/3 65/3/3
f 67/3/3 63/3/3 57/3/3
f 67/3/3 64/3/3 63/3/3
f 68/3/3 58/3/3 66/3/3
f 68/3/3 66/3/3 67/3/3
f 73/1/3 70/1/3 69/1/3
f 74/1/3 70/1/3 73/1/3
f 75/1/3 72/1/3 71/1/3
f 76/1/3 72/1/3 75/1/3
f 79/3/3 78/3/3 77/3/3
f 80/3/3 78/3/3 79/3/3
f 81/3/4 82/3/4 83/3/4
f 83/3/4 82/3/4 84/3/4
f 87/1/4 88/1/4 89/1/4
f 89/1/4 88/1/4 90/1/4
f 91/2/4 92/2/4 93/2/4
f 93/2/4 92/2/4 94/2/4
f 85/1/4 86/1/4 95/1/4
f 95/1/4 86/1/4 96/1/4
f 97/3/4 98/3/4 99/3/4
f 99/3/4 98/3/4 100/3/4
f 97/3/4 99/3/4 101/3/4
f 101/3/4 99/3/4 102/3/4
f 97/3/4 101/3/4 103/3/4
f 102/3/4 99/3/4 104/3/4
f 97/3/4 103/3/4 105/3/4
f 103/3/4 104/3/4 105/3/4
f 104/3/4 99/3/4 106/3/4
f 105/3/4 104/3/4 106/3/4
f 106/3/4 99/3/4 108/3/4
f 108/3/4 99/3/4 109/3/4
f 100/3/4 98/3/4 110/3/4
f 108/3/4 109/3/4 111/3/4
f 109/3/4 110/3/4 111/3/4
f 107/3/4 108/3/4 111/3/4
f 110/3/4 98/3/4 112/3/4
f 111/3/4 110/3/4 112/3/4
f 115/3/5 114/3/5 113/3/5
f 116/3/5 114/3/5 115/3/5
f 117/3/5 115/3/5 113/3/5
f 117/2/5 116/2/5 115/2/5
f 118/3/5 114/3/5 116/3/5
f 118/2/5 116/2/5 117/2/5
f 119/3/5 117/3/5 113/3/5
f 120/3/5 117/3/5 119/3/5
f 121/3/5 114/3/5 118/3/5
f 122/3/5 114/3/5 121/3/5
f 125/3/5 124/3/5 123/3/5
f 126/3/5 124/3/5 125/3/5
f 131/3/5 128/3/5 127/3/5
f 132/3/5 128/3/5 131/3/5
f 133/3/5 130/3/5 129/3/5
f 134/3/5 130/3/5 133/3/5
f 137/3/5 136/3/5 135/3/5
f 138/3/5 136/3/5 137/3/5
f 141/3/5 140/3/5 139/3/5
f 142/3/5 140/3/5 141/3/5
f 143/3/6 144/3/6 145/3/6
f 145/3/6 144/3/6 146/3/6
f 147/3/6 148/3/6 149/3/6
f 149/3/6 148/3/6 150/3/6
f 151/3/6 152/3/6 153/3/6
f 153/3/6 152/3/6 154/3/6
f 155/3/6 156/3/6 157/3/6
f 157/3/6 156/3/6 158/3/6
f 159/3/6 160/3/6 161/3/6
f 161/3/6 160/3/6 162/3/6
f 163/3/6 164/3/6 165/3/6
f 165/3/6 164/3/6 166/3/6
f 163/3/6 165/3/6 167/3/6
f 166/3/6 164/3/6 168/3/6
f 163/3/6 167/3/6 169/3/6
f 167/3/6 168/3/6 169/3/6
f 168/3/6 164/3/6 170/3/6
f 169/3/6 168/3/6 170/3/6
