# MagicaVoxel @ Ephtracy

# group
g roadintersection-3

# material
mtllib roadintersection-3.mtl
usemtl palette

# normals
vn -1 0 0
vn 1 0 0
vn 0 0 1
vn 0 0 -1
vn 0 -1 0
vn 0 1 0

# texcoords
vt 0.498047 0.5
vt 0.884766 0.5
vt 0.888672 0.5
vt 0.931641 0.5
vt 0.958984 0.5
vt 0.974609 0.5
vt 0.990234 0.5

# verts
v -28 0 13
v -28 0 -12
v -28 1 10
v -28 1 9
v -28 1 8
v -28 1 1
v -28 1 -0
v -28 1 -7
v -28 1 -8
v -28 1 -9
v -28 2 10
v -28 2 9
v -28 2 8
v -28 2 1
v -28 2 -0
v -28 2 -7
v -28 2 -8
v -28 2 -9
v -28 3 13
v -28 3 10
v -28 3 -9
v -28 3 -12
v -13 0 28
v -13 0 13
v -13 0 -12
v -13 0 -27
v -13 3 28
v -13 3 15
v -13 3 14
v -13 3 13
v -13 3 -12
v -13 3 -27
v -13 4 15
v -13 4 14
v -13 4 12
v -13 4 11
v -13 5 12
v -13 5 11
v -12 3 16
v -12 3 15
v -12 3 14
v -12 3 13
v -12 3 12
v -12 3 11
v -12 4 16
v -12 4 15
v -12 4 14
v -12 4 13
v -12 4 12
v -12 4 11
v -12 4 10
v -12 5 15
v -12 5 14
v -12 5 13
v -12 5 12
v -12 5 11
v -12 5 10
v -12 6 12
v -12 6 11
v -11 4 12
v -11 4 11
v -11 5 12
v -11 5 11
v -2 0 29
v -2 0 28
v -2 1 28
v -2 2 29
v -2 2 28
v 9 2 28
v 9 2 10
v 9 2 -9
v 9 2 -27
v 9 3 28
v 9 3 10
v 9 3 -9
v 9 3 -27
v -12 4 12
v -12 4 11
v -12 5 12
v -12 5 11
v -11 3 16
v -11 3 15
v -11 3 14
v -11 3 13
v -11 3 12
v -11 3 11
v -11 4 16
v -11 4 15
v -11 4 14
v -11 4 13
v -11 4 12
v -11 4 11
v -11 4 10
v -11 5 15
v -11 5 14
v -11 5 13
v -11 5 12
v -11 5 11
v -11 5 10
v -11 6 12
v -11 6 11
v -10 2 28
v -10 2 10
v -10 2 -9
v -10 2 -27
v -10 3 28
v -10 3 15
v -10 3 14
v -10 3 10
v -10 3 -9
v -10 3 -27
v -10 4 15
v -10 4 14
v -10 4 12
v -10 4 11
v -10 5 12
v -10 5 11
v -1 0 29
v -1 0 28
v -1 1 28
v -1 2 29
v -1 2 28
v 12 0 28
v 12 0 13
v 12 0 -12
v 12 0 -27
v 12 3 28
v 12 3 13
v 12 3 -12
v 12 3 -27
v 27 0 13
v 27 0 -12
v 27 1 10
v 27 1 9
v 27 1 8
v 27 1 1
v 27 1 -0
v 27 1 -7
v 27 1 -8
v 27 1 -9
v 27 2 10
v 27 2 9
v 27 2 8
v 27 2 1
v 27 2 -0
v 27 2 -7
v 27 2 -8
v 27 2 -9
v 27 3 13
v 27 3 10
v 27 3 -9
v 27 3 -12
v -2 0 29
v -2 2 29
v -1 0 29
v -1 2 29
v -13 0 28
v -13 3 28
v -10 1 28
v -10 2 28
v -10 3 28
v -9 1 28
v -9 2 28
v -8 1 28
v -8 2 28
v -2 0 28
v -2 1 28
v -2 2 28
v -1 0 28
v -1 1 28
v -1 2 28
v 0 1 28
v 0 2 28
v 7 1 28
v 7 2 28
v 8 1 28
v 8 2 28
v 9 1 28
v 9 2 28
v 9 3 28
v 12 0 28
v 12 3 28
v -12 3 16
v -12 4 16
v -11 3 16
v -11 4 16
v -13 3 15
v -13 4 15
v -12 3 15
v -12 4 15
v -12 5 15
v -11 3 15
v -11 4 15
v -11 5 15
v -10 3 15
v -10 4 15
v -28 0 13
v -28 3 13
v -13 0 13
v -13 3 13
v -12 4 13
v -12 5 13
v -11 4 13
v -11 5 13
v 12 0 13
v 12 3 13
v 27 0 13
v 27 3 13
v -13 4 12
v -13 5 12
v -12 3 12
v -12 4 12
v -12 5 12
v -12 6 12
v -11 3 12
v -11 4 12
v -11 5 12
v -11 6 12
v -10 4 12
v -10 5 12
v -12 4 11
v -12 5 11
v -11 4 11
v -11 5 11
v -28 2 -9
v -28 3 -9
v -10 2 -9
v -10 3 -9
v 9 2 -9
v 9 3 -9
v 27 2 -9
v 27 3 -9
v -13 3 14
v -13 4 14
v -12 3 14
v -12 4 14
v -12 5 14
v -11 3 14
v -11 4 14
v -11 5 14
v -10 3 14
v -10 4 14
v -12 3 13
v -12 4 13
v -11 3 13
v -11 4 13
v -12 4 12
v -12 5 12
v -11 4 12
v -11 5 12
v -13 4 11
v -13 5 11
v -12 3 11
v -12 4 11
v -12 5 11
v -12 6 11
v -11 3 11
v -11 4 11
v -11 5 11
v -11 6 11
v -10 4 11
v -10 5 11
v -28 2 10
v -28 3 10
v -12 4 10
v -12 5 10
v -11 4 10
v -11 5 10
v -10 2 10
v -10 3 10
v 9 2 10
v 9 3 10
v 27 2 10
v 27 3 10
v -28 0 -12
v -28 3 -12
v -13 0 -12
v -13 3 -12
v 12 0 -12
v 12 3 -12
v 27 0 -12
v 27 3 -12
v -13 0 -27
v -13 3 -27
v -10 1 -27
v -10 2 -27
v -10 3 -27
v -9 1 -27
v -9 2 -27
v -8 1 -27
v -8 2 -27
v -1 1 -27
v -1 2 -27
v 0 1 -27
v 0 2 -27
v 7 1 -27
v 7 2 -27
v 8 1 -27
v 8 2 -27
v 9 1 -27
v 9 2 -27
v 9 3 -27
v 12 0 -27
v 12 3 -27
v -2 0 29
v -1 0 29
v -13 0 28
v -2 0 28
v -1 0 28
v 12 0 28
v -10 0 15
v 9 0 15
v -28 0 13
v -13 0 13
v 12 0 13
v 27 0 13
v -10 0 -9
v 9 0 -9
v -28 0 -12
v -13 0 -12
v -10 0 -12
v 9 0 -12
v 12 0 -12
v 27 0 -12
v -10 0 -14
v 9 0 -14
v -13 0 -27
v 12 0 -27
v -12 4 13
v -11 4 13
v -13 4 12
v -12 4 12
v -11 4 12
v -10 4 12
v -13 4 11
v -12 4 11
v -11 4 11
v -10 4 11
v -12 4 10
v -11 4 10
v -12 5 12
v -11 5 12
v -12 5 11
v -11 5 11
v -2 2 29
v -1 2 29
v -10 2 28
v -9 2 28
v -8 2 28
v -2 2 28
v -1 2 28
v 0 2 28
v 7 2 28
v 8 2 28
v 9 2 28
v -1 2 27
v 0 2 27
v -1 2 23
v 0 2 23
v -1 2 19
v 0 2 19
v -1 2 15
v 0 2 15
v -1 2 11
v 0 2 11
v -28 2 10
v -10 2 10
v 9 2 10
v 27 2 10
v -28 2 9
v -9 2 9
v 8 2 9
v 27 2 9
v -28 2 8
v -8 2 8
v 7 2 8
v 27 2 8
v -1 2 7
v 0 2 7
v -1 2 3
v 0 2 3
v -28 2 1
v -26 2 1
v -22 2 1
v -18 2 1
v -14 2 1
v -10 2 1
v -6 2 1
v -2 2 1
v 1 2 1
v 5 2 1
v 9 2 1
v 13 2 1
v 17 2 1
v 21 2 1
v 25 2 1
v 27 2 1
v -28 2 -0
v -26 2 -0
v -22 2 -0
v -18 2 -0
v -14 2 -0
v -10 2 -0
v -6 2 -0
v -2 2 -0
v 1 2 -0
v 5 2 -0
v 9 2 -0
v 13 2 -0
v 17 2 -0
v 21 2 -0
v 25 2 -0
v 27 2 -0
v -1 2 -2
v 0 2 -2
v -1 2 -6
v 0 2 -6
v -28 2 -7
v -8 2 -7
v 7 2 -7
v 27 2 -7
v -28 2 -8
v -9 2 -8
v 8 2 -8
v 27 2 -8
v -28 2 -9
v -10 2 -9
v 9 2 -9
v 27 2 -9
v -1 2 -10
v 0 2 -10
v -1 2 -14
v 0 2 -14
v -1 2 -18
v 0 2 -18
v -1 2 -22
v 0 2 -22
v -1 2 -26
v 0 2 -26
v -10 2 -27
v -9 2 -27
v -8 2 -27
v -1 2 -27
v 0 2 -27
v 7 2 -27
v 8 2 -27
v 9 2 -27
v -13 3 28
v -10 3 28
v 9 3 28
v 12 3 28
v -12 3 16
v -11 3 16
v -13 3 15
v -12 3 15
v -11 3 15
v -10 3 15
v -13 3 14
v -12 3 14
v -11 3 14
v -10 3 14
v -28 3 13
v -13 3 13
v -12 3 13
v -11 3 13
v 12 3 13
v 27 3 13
v -12 3 12
v -11 3 12
v -12 3 11
v -11 3 11
v -28 3 10
v -10 3 10
v 9 3 10
v 27 3 10
v -28 3 -9
v -10 3 -9
v 9 3 -9
v 27 3 -9
v -28 3 -12
v -13 3 -12
v 12 3 -12
v 27 3 -12
v -13 3 -27
v -10 3 -27
v 9 3 -27
v 12 3 -27
v -12 4 16
v -11 4 16
v -13 4 15
v -12 4 15
v -11 4 15
v -10 4 15
v -13 4 14
v -12 4 14
v -11 4 14
v -10 4 14
v -12 4 13
v -11 4 13
v -12 4 12
v -11 4 12
v -12 4 11
v -11 4 11
v -12 5 15
v -11 5 15
v -12 5 14
v -11 5 14
v -12 5 13
v -11 5 13
v -13 5 12
v -12 5 12
v -11 5 12
v -10 5 12
v -13 5 11
v -12 5 11
v -11 5 11
v -10 5 11
v -12 5 10
v -11 5 10
v -12 6 12
v -11 6 12
v -12 6 11
v -11 6 11

# faces
f 3/6/1 2/6/1 1/6/1
f 4/6/1 2/6/1 3/6/1
f 5/6/1 2/6/1 4/6/1
f 6/6/1 2/6/1 5/6/1
f 7/6/1 2/6/1 6/6/1
f 8/6/1 2/6/1 7/6/1
f 9/6/1 2/6/1 8/6/1
f 10/6/1 2/6/1 9/6/1
f 11/6/1 3/6/1 1/6/1
f 11/7/1 4/7/1 3/7/1
f 12/5/1 5/5/1 4/5/1
f 12/7/1 4/7/1 11/7/1
f 13/7/1 6/7/1 5/7/1
f 13/5/1 5/5/1 12/5/1
f 14/5/1 7/5/1 6/5/1
f 14/7/1 6/7/1 13/7/1
f 15/7/1 8/7/1 7/7/1
f 15/5/1 7/5/1 14/5/1
f 16/5/1 9/5/1 8/5/1
f 16/7/1 8/7/1 15/7/1
f 17/7/1 10/7/1 9/7/1
f 17/5/1 9/5/1 16/5/1
f 18/6/1 2/6/1 10/6/1
f 18/7/1 10/7/1 17/7/1
f 19/6/1 11/6/1 1/6/1
f 20/6/1 11/6/1 19/6/1
f 21/6/1 2/6/1 18/6/1
f 22/6/1 2/6/1 21/6/1
f 27/6/1 24/6/1 23/6/1
f 28/6/1 24/6/1 27/6/1
f 29/6/1 24/6/1 28/6/1
f 30/6/1 24/6/1 29/6/1
f 31/6/1 26/6/1 25/6/1
f 32/6/1 26/6/1 31/6/1
f 33/3/1 29/3/1 28/3/1
f 34/3/1 29/3/1 33/3/1
f 37/2/1 36/2/1 35/2/1
f 38/2/1 36/2/1 37/2/1
f 45/3/1 40/3/1 39/3/1
f 46/3/1 40/3/1 45/3/1
f 47/3/1 42/3/1 41/3/1
f 48/3/1 42/3/1 47/3/1
f 49/2/1 44/2/1 43/2/1
f 50/2/1 44/2/1 49/2/1
f 52/4/1 47/4/1 46/4/1
f 53/4/1 47/4/1 52/4/1
f 54/2/1 49/2/1 48/2/1
f 55/2/1 49/2/1 54/2/1
f 56/2/1 51/2/1 50/2/1
f 57/2/1 51/2/1 56/2/1
f 58/1/1 56/1/1 55/1/1
f 59/1/1 56/1/1 58/1/1
f 62/2/1 61/2/1 60/2/1
f 63/2/1 61/2/1 62/2/1
f 66/7/1 65/7/1 64/7/1
f 67/7/1 66/7/1 64/7/1
f 68/7/1 66/7/1 67/7/1
f 73/6/1 70/6/1 69/6/1
f 74/6/1 70/6/1 73/6/1
f 75/6/1 72/6/1 71/6/1
f 76/6/1 72/6/1 75/6/1
f 77/2/2 78/2/2 79/2/2
f 79/2/2 78/2/2 80/2/2
f 81/3/2 82/3/2 87/3/2
f 87/3/2 82/3/2 88/3/2
f 83/3/2 84/3/2 89/3/2
f 89/3/2 84/3/2 90/3/2
f 85/2/2 86/2/2 91/2/2
f 91/2/2 86/2/2 92/2/2
f 88/4/2 89/4/2 94/4/2
f 94/4/2 89/4/2 95/4/2
f 90/2/2 91/2/2 96/2/2
f 96/2/2 91/2/2 97/2/2
f 92/2/2 93/2/2 98/2/2
f 98/2/2 93/2/2 99/2/2
f 97/1/2 98/1/2 100/1/2
f 100/1/2 98/1/2 101/1/2
f 102/6/2 103/6/2 106/6/2
f 106/6/2 103/6/2 107/6/2
f 107/6/2 103/6/2 108/6/2
f 108/6/2 103/6/2 109/6/2
f 104/6/2 105/6/2 110/6/2
f 110/6/2 105/6/2 111/6/2
f 107/3/2 108/3/2 112/3/2
f 112/3/2 108/3/2 113/3/2
f 114/2/2 115/2/2 116/2/2
f 116/2/2 115/2/2 117/2/2
f 118/7/2 119/7/2 120/7/2
f 118/7/2 120/7/2 121/7/2
f 121/7/2 120/7/2 122/7/2
f 123/6/2 124/6/2 127/6/2
f 127/6/2 124/6/2 128/6/2
f 125/6/2 126/6/2 129/6/2
f 129/6/2 126/6/2 130/6/2
f 131/6/2 132/6/2 133/6/2
f 133/6/2 132/6/2 134/6/2
f 134/6/2 132/6/2 135/6/2
f 135/6/2 132/6/2 136/6/2
f 136/6/2 132/6/2 137/6/2
f 137/6/2 132/6/2 138/6/2
f 138/6/2 132/6/2 139/6/2
f 139/6/2 132/6/2 140/6/2
f 131/6/2 133/6/2 141/6/2
f 133/7/2 134/7/2 141/7/2
f 134/5/2 135/5/2 142/5/2
f 141/7/2 134/7/2 142/7/2
f 135/7/2 136/7/2 143/7/2
f 142/5/2 135/5/2 143/5/2
f 136/5/2 137/5/2 144/5/2
f 143/7/2 136/7/2 144/7/2
f 137/7/2 138/7/2 145/7/2
f 144/5/2 137/5/2 145/5/2
f 138/5/2 139/5/2 146/5/2
f 145/7/2 138/7/2 146/7/2
f 139/7/2 140/7/2 147/7/2
f 146/5/2 139/5/2 147/5/2
f 140/6/2 132/6/2 148/6/2
f 147/7/2 140/7/2 148/7/2
f 131/6/2 141/6/2 149/6/2
f 149/6/2 141/6/2 150/6/2
f 148/6/2 132/6/2 151/6/2
f 151/6/2 132/6/2 152/6/2
f 155/7/3 154/7/3 153/7/3
f 156/7/3 154/7/3 155/7/3
f 159/6/3 158/6/3 157/6/3
f 160/6/3 158/6/3 159/6/3
f 161/6/3 158/6/3 160/6/3
f 162/6/3 159/6/3 157/6/3
f 162/7/3 160/7/3 159/7/3
f 163/7/3 160/7/3 162/7/3
f 164/6/3 162/6/3 157/6/3
f 164/5/3 163/5/3 162/5/3
f 165/5/3 163/5/3 164/5/3
f 166/6/3 164/6/3 157/6/3
f 167/7/3 165/7/3 164/7/3
f 167/6/3 164/6/3 166/6/3
f 168/7/3 165/7/3 167/7/3
f 172/6/3 170/6/3 169/6/3
f 172/5/3 171/5/3 170/5/3
f 173/5/3 171/5/3 172/5/3
f 174/6/3 172/6/3 169/6/3
f 174/7/3 173/7/3 172/7/3
f 175/7/3 173/7/3 174/7/3
f 176/6/3 174/6/3 169/6/3
f 176/5/3 175/5/3 174/5/3
f 177/5/3 175/5/3 176/5/3
f 178/6/3 176/6/3 169/6/3
f 178/7/3 177/7/3 176/7/3
f 179/7/3 177/7/3 178/7/3
f 181/6/3 179/6/3 178/6/3
f 181/6/3 180/6/3 179/6/3
f 181/6/3 178/6/3 169/6/3
f 182/6/3 180/6/3 181/6/3
f 185/3/3 184/3/3 183/3/3
f 186/3/3 184/3/3 185/3/3
f 189/3/3 188/3/3 187/3/3
f 190/3/3 188/3/3 189/3/3
f 193/4/3 191/4/3 190/4/3
f 194/4/3 191/4/3 193/4/3
f 195/3/3 193/3/3 192/3/3
f 196/3/3 193/3/3 195/3/3
f 199/6/3 198/6/3 197/6/3
f 200/6/3 198/6/3 199/6/3
f 203/2/3 202/2/3 201/2/3
f 204/2/3 202/2/3 203/2/3
f 207/6/3 206/6/3 205/6/3
f 208/6/3 206/6/3 207/6/3
f 212/2/3 210/2/3 209/2/3
f 213/2/3 210/2/3 212/2/3
f 215/2/3 212/2/3 211/2/3
f 216/2/3 212/2/3 215/2/3
f 217/1/3 214/1/3 213/1/3
f 218/1/3 214/1/3 217/1/3
f 219/2/3 217/2/3 216/2/3
f 220/2/3 217/2/3 219/2/3
f 223/2/3 222/2/3 221/2/3
f 224/2/3 222/2/3 223/2/3
f 227/6/3 226/6/3 225/6/3
f 228/6/3 226/6/3 227/6/3
f 231/6/3 230/6/3 229/6/3
f 232/6/3 230/6/3 231/6/3
f 233/3/4 234/3/4 235/3/4
f 235/3/4 234/3/4 236/3/4
f 236/4/4 237/4/4 239/4/4
f 239/4/4 237/4/4 240/4/4
f 238/3/4 239/3/4 241/3/4
f 241/3/4 239/3/4 242/3/4
f 243/3/4 244/3/4 245/3/4
f 245/3/4 244/3/4 246/3/4
f 247/2/4 248/2/4 249/2/4
f 249/2/4 248/2/4 250/2/4
f 251/2/4 252/2/4 254/2/4
f 254/2/4 252/2/4 255/2/4
f 253/2/4 254/2/4 257/2/4
f 257/2/4 254/2/4 258/2/4
f 255/1/4 256/1/4 259/1/4
f 259/1/4 256/1/4 260/1/4
f 258/2/4 259/2/4 261/2/4
f 261/2/4 259/2/4 262/2/4
f 265/2/4 266/2/4 267/2/4
f 267/2/4 266/2/4 268/2/4
f 263/6/4 264/6/4 269/6/4
f 269/6/4 264/6/4 270/6/4
f 271/6/4 272/6/4 273/6/4
f 273/6/4 272/6/4 274/6/4
f 275/6/4 276/6/4 277/6/4
f 277/6/4 276/6/4 278/6/4
f 279/6/4 280/6/4 281/6/4
f 281/6/4 280/6/4 282/6/4
f 283/6/4 284/6/4 285/6/4
f 285/6/4 284/6/4 286/6/4
f 286/6/4 284/6/4 287/6/4
f 283/6/4 285/6/4 288/6/4
f 285/7/4 286/7/4 288/7/4
f 288/7/4 286/7/4 289/7/4
f 283/6/4 288/6/4 290/6/4
f 288/5/4 289/5/4 290/5/4
f 290/5/4 289/5/4 291/5/4
f 283/6/4 290/6/4 292/6/4
f 290/7/4 291/7/4 292/7/4
f 292/7/4 291/7/4 293/7/4
f 283/6/4 292/6/4 294/6/4
f 292/5/4 293/5/4 294/5/4
f 294/5/4 293/5/4 295/5/4
f 283/6/4 294/6/4 296/6/4
f 294/7/4 295/7/4 296/7/4
f 296/7/4 295/7/4 297/7/4
f 283/6/4 296/6/4 298/6/4
f 296/5/4 297/5/4 298/5/4
f 298/5/4 297/5/4 299/5/4
f 283/6/4 298/6/4 300/6/4
f 298/7/4 299/7/4 300/7/4
f 300/7/4 299/7/4 301/7/4
f 300/6/4 301/6/4 303/6/4
f 301/6/4 302/6/4 303/6/4
f 283/6/4 300/6/4 303/6/4
f 303/6/4 302/6/4 304/6/4
f 308/7/5 306/7/5 305/7/5
f 309/7/5 306/7/5 308/7/5
f 311/6/5 308/6/5 307/6/5
f 311/6/5 310/6/5 309/6/5
f 311/6/5 309/6/5 308/6/5
f 312/6/5 310/6/5 311/6/5
f 314/6/5 311/6/5 307/6/5
f 315/6/5 310/6/5 312/6/5
f 317/6/5 314/6/5 313/6/5
f 317/7/5 312/7/5 311/7/5
f 317/6/5 311/6/5 314/6/5
f 318/6/5 316/6/5 315/6/5
f 318/7/5 312/7/5 317/7/5
f 318/6/5 315/6/5 312/6/5
f 319/6/5 317/6/5 313/6/5
f 319/6/5 318/6/5 317/6/5
f 320/6/5 318/6/5 319/6/5
f 321/6/5 318/6/5 320/6/5
f 322/6/5 316/6/5 318/6/5
f 322/6/5 318/6/5 321/6/5
f 323/6/5 316/6/5 322/6/5
f 324/6/5 316/6/5 323/6/5
f 325/6/5 321/6/5 320/6/5
f 325/7/5 322/7/5 321/7/5
f 326/6/5 323/6/5 322/6/5
f 326/7/5 322/7/5 325/7/5
f 327/6/5 325/6/5 320/6/5
f 327/6/5 326/6/5 325/6/5
f 328/6/5 323/6/5 326/6/5
f 328/6/5 326/6/5 327/6/5
f 332/2/5 330/2/5 329/2/5
f 333/2/5 330/2/5 332/2/5
f 335/2/5 332/2/5 331/2/5
f 336/2/5 332/2/5 335/2/5
f 337/2/5 334/2/5 333/2/5
f 338/2/5 334/2/5 337/2/5
f 339/2/5 337/2/5 336/2/5
f 340/2/5 337/2/5 339/2/5
f 343/1/5 342/1/5 341/1/5
f 344/1/5 342/1/5 343/1/5
f 345/7/6 346/7/6 350/7/6
f 350/7/6 346/7/6 351/7/6
f 349/7/6 350/7/6 356/7/6
f 350/7/6 351/7/6 356/7/6
f 351/5/6 352/5/6 356/5/6
f 352/7/6 353/7/6 357/7/6
f 356/5/6 352/5/6 357/5/6
f 349/7/6 356/7/6 358/7/6
f 356/7/6 357/7/6 358/7/6
f 357/7/6 353/7/6 359/7/6
f 358/7/6 357/7/6 359/7/6
f 349/7/6 358/7/6 360/7/6
f 358/5/6 359/5/6 360/5/6
f 359/7/6 353/7/6 361/7/6
f 360/5/6 359/5/6 361/5/6
f 349/7/6 360/7/6 362/7/6
f 360/7/6 361/7/6 362/7/6
f 361/7/6 353/7/6 363/7/6
f 362/7/6 361/7/6 363/7/6
f 349/7/6 362/7/6 364/7/6
f 362/5/6 363/5/6 364/5/6
f 363/7/6 353/7/6 365/7/6
f 364/5/6 363/5/6 365/5/6
f 347/7/6 348/7/6 367/7/6
f 354/7/6 355/7/6 368/7/6
f 366/7/6 367/7/6 370/7/6
f 348/5/6 349/5/6 371/5/6
f 370/7/6 367/7/6 371/7/6
f 367/7/6 348/7/6 371/7/6
f 368/7/6 369/7/6 372/7/6
f 353/5/6 354/5/6 372/5/6
f 354/7/6 368/7/6 372/7/6
f 372/7/6 369/7/6 373/7/6
f 370/5/6 371/5/6 374/5/6
f 371/5/6 349/5/6 375/5/6
f 374/5/6 371/5/6 375/5/6
f 349/7/6 364/7/6 375/7/6
f 364/7/6 365/7/6 375/7/6
f 365/7/6 353/7/6 376/7/6
f 375/7/6 365/7/6 376/7/6
f 372/5/6 373/5/6 376/5/6
f 353/5/6 372/5/6 376/5/6
f 376/5/6 373/5/6 377/5/6
f 374/7/6 375/7/6 378/7/6
f 375/7/6 376/7/6 378/7/6
f 376/7/6 377/7/6 378/7/6
f 378/7/6 377/7/6 379/7/6
f 374/7/6 378/7/6 380/7/6
f 378/5/6 379/5/6 380/5/6
f 379/7/6 377/7/6 381/7/6
f 380/5/6 379/5/6 381/5/6
f 374/7/6 380/7/6 382/7/6
f 380/7/6 381/7/6 382/7/6
f 382/7/6 381/7/6 383/7/6
f 383/7/6 381/7/6 384/7/6
f 384/7/6 381/7/6 385/7/6
f 385/7/6 381/7/6 386/7/6
f 386/7/6 381/7/6 387/7/6
f 387/7/6 381/7/6 388/7/6
f 388/7/6 381/7/6 389/7/6
f 381/7/6 377/7/6 390/7/6
f 389/7/6 381/7/6 390/7/6
f 390/7/6 377/7/6 391/7/6
f 391/7/6 377/7/6 392/7/6
f 392/7/6 377/7/6 393/7/6
f 393/7/6 377/7/6 394/7/6
f 394/7/6 377/7/6 395/7/6
f 395/7/6 377/7/6 396/7/6
f 396/7/6 377/7/6 397/7/6
f 382/5/6 383/5/6 398/5/6
f 383/7/6 384/7/6 399/7/6
f 398/5/6 383/5/6 399/5/6
f 384/5/6 385/5/6 400/5/6
f 399/7/6 384/7/6 400/7/6
f 385/7/6 386/7/6 401/7/6
f 400/5/6 385/5/6 401/5/6
f 386/5/6 387/5/6 402/5/6
f 401/7/6 386/7/6 402/7/6
f 387/7/6 388/7/6 403/7/6
f 402/5/6 387/5/6 403/5/6
f 388/5/6 389/5/6 404/5/6
f 403/7/6 388/7/6 404/7/6
f 389/7/6 390/7/6 405/7/6
f 404/5/6 389/5/6 405/5/6
f 390/5/6 391/5/6 406/5/6
f 405/7/6 390/7/6 406/7/6
f 391/7/6 392/7/6 407/7/6
f 406/5/6 391/5/6 407/5/6
f 392/5/6 393/5/6 408/5/6
f 407/7/6 392/7/6 408/7/6
f 393/7/6 394/7/6 409/7/6
f 408/5/6 393/5/6 409/5/6
f 394/5/6 395/5/6 410/5/6
f 409/7/6 394/7/6 410/7/6
f 395/7/6 396/7/6 411/7/6
f 410/5/6 395/5/6 411/5/6
f 396/5/6 397/5/6 412/5/6
f 411/7/6 396/7/6 412/7/6
f 412/5/6 397/5/6 413/5/6
f 402/7/6 403/7/6 414/7/6
f 398/7/6 399/7/6 414/7/6
f 412/7/6 413/7/6 414/7/6
f 411/7/6 412/7/6 414/7/6
f 410/7/6 411/7/6 414/7/6
f 409/7/6 410/7/6 414/7/6
f 408/7/6 409/7/6 414/7/6
f 407/7/6 408/7/6 414/7/6
f 406/7/6 407/7/6 414/7/6
f 405/7/6 406/7/6 414/7/6
f 404/7/6 405/7/6 414/7/6
f 403/7/6 404/7/6 414/7/6
f 401/7/6 402/7/6 414/7/6
f 400/7/6 401/7/6 414/7/6
f 399/7/6 400/7/6 414/7/6
f 414/7/6 413/7/6 415/7/6
f 398/7/6 414/7/6 416/7/6
f 414/5/6 415/5/6 416/5/6
f 415/7/6 413/7/6 417/7/6
f 416/5/6 415/5/6 417/5/6
f 398/7/6 416/7/6 418/7/6
f 416/7/6 417/7/6 418/7/6
f 418/7/6 417/7/6 419/7/6
f 417/7/6 413/7/6 420/7/6
f 419/7/6 417/7/6 420/7/6
f 420/7/6 413/7/6 421/7/6
f 418/5/6 419/5/6 422/5/6
f 422/5/6 419/5/6 423/5/6
f 420/5/6 421/5/6 424/5/6
f 424/5/6 421/5/6 425/5/6
f 422/7/6 423/7/6 426/7/6
f 426/7/6 423/7/6 427/7/6
f 424/7/6 425/7/6 428/7/6
f 428/7/6 425/7/6 429/7/6
f 419/7/6 420/7/6 430/7/6
f 430/7/6 420/7/6 431/7/6
f 419/7/6 430/7/6 432/7/6
f 430/5/6 431/5/6 432/5/6
f 431/7/6 420/7/6 433/7/6
f 432/5/6 431/5/6 433/5/6
f 419/7/6 432/7/6 434/7/6
f 432/7/6 433/7/6 434/7/6
f 433/7/6 420/7/6 435/7/6
f 434/7/6 433/7/6 435/7/6
f 419/7/6 434/7/6 436/7/6
f 434/5/6 435/5/6 436/5/6
f 435/7/6 420/7/6 437/7/6
f 436/5/6 435/5/6 437/5/6
f 419/7/6 436/7/6 438/7/6
f 436/7/6 437/7/6 438/7/6
f 437/7/6 420/7/6 439/7/6
f 438/7/6 437/7/6 439/7/6
f 427/7/6 423/7/6 440/7/6
f 423/5/6 419/5/6 441/5/6
f 440/7/6 423/7/6 441/7/6
f 419/7/6 438/7/6 442/7/6
f 441/5/6 419/5/6 442/5/6
f 438/5/6 439/5/6 443/5/6
f 442/7/6 438/7/6 443/7/6
f 439/7/6 420/7/6 444/7/6
f 443/5/6 439/5/6 444/5/6
f 420/5/6 424/5/6 445/5/6
f 444/7/6 420/7/6 445/7/6
f 424/7/6 428/7/6 446/7/6
f 445/5/6 424/5/6 446/5/6
f 446/7/6 428/7/6 447/7/6
f 448/6/6 449/6/6 452/6/6
f 452/6/6 449/6/6 453/6/6
f 448/6/6 452/6/6 454/6/6
f 454/6/6 452/6/6 455/6/6
f 453/6/6 449/6/6 456/6/6
f 456/6/6 449/6/6 457/6/6
f 458/6/6 459/6/6 463/6/6
f 463/6/6 459/6/6 464/6/6
f 460/6/6 461/6/6 465/6/6
f 450/6/6 451/6/6 466/6/6
f 464/6/6 465/6/6 468/6/6
f 463/6/6 464/6/6 468/6/6
f 462/6/6 463/6/6 468/6/6
f 465/6/6 461/6/6 469/6/6
f 468/6/6 465/6/6 469/6/6
f 462/6/6 468/6/6 470/6/6
f 469/6/6 461/6/6 471/6/6
f 462/6/6 470/6/6 472/6/6
f 470/6/6 471/6/6 472/6/6
f 471/6/6 461/6/6 473/6/6
f 472/6/6 471/6/6 473/6/6
f 466/6/6 467/6/6 474/6/6
f 450/6/6 466/6/6 474/6/6
f 474/6/6 467/6/6 475/6/6
f 476/6/6 477/6/6 480/6/6
f 480/6/6 477/6/6 481/6/6
f 478/6/6 479/6/6 482/6/6
f 482/6/6 479/6/6 483/6/6
f 481/6/6 477/6/6 484/6/6
f 484/6/6 477/6/6 485/6/6
f 478/6/6 482/6/6 486/6/6
f 486/6/6 482/6/6 487/6/6
f 488/3/6 489/3/6 491/3/6
f 491/3/6 489/3/6 492/3/6
f 490/3/6 491/3/6 494/3/6
f 494/3/6 491/3/6 495/3/6
f 492/3/6 493/3/6 496/3/6
f 496/3/6 493/3/6 497/3/6
f 495/3/6 496/3/6 498/3/6
f 498/3/6 496/3/6 499/3/6
f 500/2/6 501/2/6 502/2/6
f 502/2/6 501/2/6 503/2/6
f 504/4/6 505/4/6 506/4/6
f 506/4/6 505/4/6 507/4/6
f 508/2/6 509/2/6 511/2/6
f 511/2/6 509/2/6 512/2/6
f 510/2/6 511/2/6 514/2/6
f 514/2/6 511/2/6 515/2/6
f 512/2/6 513/2/6 516/2/6
f 516/2/6 513/2/6 517/2/6
f 515/2/6 516/2/6 518/2/6
f 518/2/6 516/2/6 519/2/6
f 520/1/6 521/1/6 522/1/6
f 522/1/6 521/1/6 523/1/6
