# MagicaVoxel @ Ephtracy

# group
g street lamp

# material
mtllib street lamp.mtl
usemtl palette

# normals
vn -1 0 0
vn 1 0 0
vn 0 0 1
vn 0 0 -1
vn 0 -1 0
vn 0 1 0

# texcoords
vt 0.0214844 0.5
vt 0.986328 0.5

# verts
v -5 0 5
v -5 0 -0
v -5 1 5
v -5 1 -0
v -4 0 6
v -4 0 5
v -4 0 -0
v -4 0 -1
v -4 1 6
v -4 1 5
v -4 1 -0
v -4 1 -1
v -3 0 7
v -3 0 6
v -3 0 -1
v -3 0 -2
v -3 1 7
v -3 1 6
v -3 1 4
v -3 1 1
v -3 1 -1
v -3 1 -2
v -3 2 4
v -3 2 1
v -3 24 4
v -3 24 1
v -3 25 4
v -3 25 1
v -3 26 3
v -3 26 2
v -3 27 4
v -3 27 3
v -3 27 2
v -3 27 1
v -3 28 4
v -3 28 3
v -3 28 2
v -3 28 1
v -3 29 3
v -3 29 2
v -3 30 4
v -3 30 1
v -3 31 4
v -3 31 1
v -2 1 5
v -2 1 4
v -2 1 1
v -2 1 -0
v -2 2 5
v -2 2 4
v -2 2 3
v -2 2 2
v -2 2 1
v -2 2 -0
v -2 3 3
v -2 3 2
v -2 24 5
v -2 24 4
v -2 24 1
v -2 24 -0
v -2 25 5
v -2 25 4
v -2 25 3
v -2 25 2
v -2 25 1
v -2 25 -0
v -2 26 4
v -2 26 3
v -2 26 2
v -2 26 1
v -2 27 5
v -2 27 4
v -2 27 3
v -2 27 2
v -2 27 1
v -2 27 -0
v -2 28 5
v -2 28 4
v -2 28 3
v -2 28 2
v -2 28 1
v -2 28 -0
v -2 29 4
v -2 29 3
v -2 29 2
v -2 29 1
v -2 30 5
v -2 30 4
v -2 30 3
v -2 30 2
v -2 30 1
v -2 30 -0
v -2 31 5
v -2 31 4
v -2 31 1
v -2 31 -0
v -2 32 4
v -2 32 1
v -1 2 4
v -1 2 3
v -1 2 2
v -1 2 1
v -1 3 4
v -1 3 3
v -1 3 2
v -1 3 1
v -1 24 3
v -1 24 2
v -1 25 4
v -1 25 3
v -1 25 2
v -1 25 1
v -1 26 5
v -1 26 4
v -1 26 3
v -1 26 2
v -1 26 1
v -1 26 -0
v -1 27 5
v -1 27 4
v -1 27 1
v -1 27 -0
v -1 28 5
v -1 28 4
v -1 28 1
v -1 28 -0
v -1 29 5
v -1 29 4
v -1 29 3
v -1 29 2
v -1 29 1
v -1 29 -0
v -1 30 4
v -1 30 3
v -1 30 2
v -1 30 1
v -1 32 3
v -1 32 2
v -1 33 3
v -1 33 2
v 0 2 4
v 0 2 3
v 0 2 2
v 0 2 1
v 0 3 4
v 0 3 3
v 0 3 2
v 0 3 1
v 0 24 3
v 0 24 2
v 0 25 4
v 0 25 3
v 0 25 2
v 0 25 1
v 0 26 5
v 0 26 4
v 0 26 3
v 0 26 2
v 0 26 1
v 0 26 -0
v 0 27 5
v 0 27 4
v 0 27 1
v 0 27 -0
v 0 28 5
v 0 28 4
v 0 28 1
v 0 28 -0
v 0 29 5
v 0 29 4
v 0 29 3
v 0 29 2
v 0 29 1
v 0 29 -0
v 0 30 4
v 0 30 3
v 0 30 2
v 0 30 1
v 0 32 3
v 0 32 2
v 0 33 3
v 0 33 2
v 1 1 5
v 1 1 4
v 1 1 1
v 1 1 -0
v 1 2 5
v 1 2 4
v 1 2 3
v 1 2 2
v 1 2 1
v 1 2 -0
v 1 3 3
v 1 3 2
v 1 24 5
v 1 24 4
v 1 24 1
v 1 24 -0
v 1 25 5
v 1 25 4
v 1 25 3
v 1 25 2
v 1 25 1
v 1 25 -0
v 1 26 4
v 1 26 3
v 1 26 2
v 1 26 1
v 1 27 5
v 1 27 4
v 1 27 3
v 1 27 2
v 1 27 1
v 1 27 -0
v 1 28 5
v 1 28 4
v 1 28 3
v 1 28 2
v 1 28 1
v 1 28 -0
v 1 29 4
v 1 29 3
v 1 29 2
v 1 29 1
v 1 30 5
v 1 30 4
v 1 30 3
v 1 30 2
v 1 30 1
v 1 30 -0
v 1 31 5
v 1 31 4
v 1 31 1
v 1 31 -0
v 1 32 4
v 1 32 1
v 2 0 7
v 2 0 6
v 2 0 -1
v 2 0 -2
v 2 1 7
v 2 1 6
v 2 1 4
v 2 1 1
v 2 1 -1
v 2 1 -2
v 2 2 4
v 2 2 1
v 2 24 4
v 2 24 1
v 2 25 4
v 2 25 1
v 2 26 3
v 2 26 2
v 2 27 4
v 2 27 3
v 2 27 2
v 2 27 1
v 2 28 4
v 2 28 3
v 2 28 2
v 2 28 1
v 2 29 3
v 2 29 2
v 2 30 4
v 2 30 1
v 2 31 4
v 2 31 1
v 3 0 6
v 3 0 5
v 3 0 -0
v 3 0 -1
v 3 1 6
v 3 1 5
v 3 1 -0
v 3 1 -1
v 4 0 5
v 4 0 -0
v 4 1 5
v 4 1 -0
v -3 0 7
v -3 1 7
v 2 0 7
v 2 1 7
v -4 0 6
v -4 1 6
v -3 0 6
v -3 1 6
v 2 0 6
v 2 1 6
v 3 0 6
v 3 1 6
v -5 0 5
v -5 1 5
v -4 0 5
v -4 1 5
v -2 1 5
v -2 2 5
v -2 24 5
v -2 25 5
v -2 27 5
v -2 28 5
v -2 30 5
v -2 31 5
v -1 26 5
v -1 27 5
v -1 28 5
v -1 29 5
v 0 26 5
v 0 27 5
v 0 28 5
v 0 29 5
v 1 1 5
v 1 2 5
v 1 24 5
v 1 25 5
v 1 27 5
v 1 28 5
v 1 30 5
v 1 31 5
v 3 0 5
v 3 1 5
v 4 0 5
v 4 1 5
v -3 1 4
v -3 2 4
v -3 24 4
v -3 25 4
v -3 27 4
v -3 28 4
v -3 30 4
v -3 31 4
v -2 1 4
v -2 2 4
v -2 24 4
v -2 25 4
v -2 26 4
v -2 27 4
v -2 28 4
v -2 29 4
v -2 30 4
v -2 31 4
v -2 32 4
v -1 2 4
v -1 3 4
v -1 25 4
v -1 26 4
v -1 27 4
v -1 28 4
v -1 29 4
v -1 30 4
v 0 2 4
v 0 3 4
v 0 25 4
v 0 26 4
v 0 27 4
v 0 28 4
v 0 29 4
v 0 30 4
v 1 1 4
v 1 2 4
v 1 24 4
v 1 25 4
v 1 26 4
v 1 27 4
v 1 28 4
v 1 29 4
v 1 30 4
v 1 31 4
v 1 32 4
v 2 1 4
v 2 2 4
v 2 24 4
v 2 25 4
v 2 27 4
v 2 28 4
v 2 30 4
v 2 31 4
v -3 26 3
v -3 27 3
v -3 28 3
v -3 29 3
v -2 2 3
v -2 3 3
v -2 25 3
v -2 26 3
v -2 27 3
v -2 28 3
v -2 29 3
v -2 30 3
v -1 2 3
v -1 3 3
v -1 24 3
v -1 25 3
v -1 26 3
v -1 29 3
v -1 30 3
v -1 32 3
v -1 33 3
v 0 2 3
v 0 3 3
v 0 24 3
v 0 25 3
v 0 26 3
v 0 29 3
v 0 30 3
v 0 32 3
v 0 33 3
v 1 2 3
v 1 3 3
v 1 25 3
v 1 26 3
v 1 27 3
v 1 28 3
v 1 29 3
v 1 30 3
v 2 26 3
v 2 27 3
v 2 28 3
v 2 29 3
v -3 26 2
v -3 27 2
v -3 28 2
v -3 29 2
v -2 2 2
v -2 3 2
v -2 25 2
v -2 26 2
v -2 27 2
v -2 28 2
v -2 29 2
v -2 30 2
v -1 2 2
v -1 3 2
v -1 24 2
v -1 25 2
v -1 26 2
v -1 29 2
v -1 30 2
v -1 32 2
v -1 33 2
v 0 2 2
v 0 3 2
v 0 24 2
v 0 25 2
v 0 26 2
v 0 29 2
v 0 30 2
v 0 32 2
v 0 33 2
v 1 2 2
v 1 3 2
v 1 25 2
v 1 26 2
v 1 27 2
v 1 28 2
v 1 29 2
v 1 30 2
v 2 26 2
v 2 27 2
v 2 28 2
v 2 29 2
v -3 1 1
v -3 2 1
v -3 24 1
v -3 25 1
v -3 27 1
v -3 28 1
v -3 30 1
v -3 31 1
v -2 1 1
v -2 2 1
v -2 24 1
v -2 25 1
v -2 26 1
v -2 27 1
v -2 28 1
v -2 29 1
v -2 30 1
v -2 31 1
v -2 32 1
v -1 2 1
v -1 3 1
v -1 25 1
v -1 26 1
v -1 27 1
v -1 28 1
v -1 29 1
v -1 30 1
v 0 2 1
v 0 3 1
v 0 25 1
v 0 26 1
v 0 27 1
v 0 28 1
v 0 29 1
v 0 30 1
v 1 1 1
v 1 2 1
v 1 24 1
v 1 25 1
v 1 26 1
v 1 27 1
v 1 28 1
v 1 29 1
v 1 30 1
v 1 31 1
v 1 32 1
v 2 1 1
v 2 2 1
v 2 24 1
v 2 25 1
v 2 27 1
v 2 28 1
v 2 30 1
v 2 31 1
v -5 0 -0
v -5 1 -0
v -4 0 -0
v -4 1 -0
v -2 1 -0
v -2 2 -0
v -2 24 -0
v -2 25 -0
v -2 27 -0
v -2 28 -0
v -2 30 -0
v -2 31 -0
v -1 26 -0
v -1 27 -0
v -1 28 -0
v -1 29 -0
v 0 26 -0
v 0 27 -0
v 0 28 -0
v 0 29 -0
v 1 1 -0
v 1 2 -0
v 1 24 -0
v 1 25 -0
v 1 27 -0
v 1 28 -0
v 1 30 -0
v 1 31 -0
v 3 0 -0
v 3 1 -0
v 4 0 -0
v 4 1 -0
v -4 0 -1
v -4 1 -1
v -3 0 -1
v -3 1 -1
v 2 0 -1
v 2 1 -1
v 3 0 -1
v 3 1 -1
v -3 0 -2
v -3 1 -2
v 2 0 -2
v 2 1 -2
v -3 0 7
v 2 0 7
v -4 0 6
v -3 0 6
v 2 0 6
v 3 0 6
v -5 0 5
v -4 0 5
v 3 0 5
v 4 0 5
v -5 0 -0
v -4 0 -0
v 3 0 -0
v 4 0 -0
v -4 0 -1
v -3 0 -1
v 2 0 -1
v 3 0 -1
v -3 0 -2
v 2 0 -2
v -2 24 5
v 1 24 5
v -3 24 4
v -2 24 4
v 1 24 4
v 2 24 4
v -1 24 3
v 0 24 3
v -1 24 2
v 0 24 2
v -3 24 1
v -2 24 1
v 1 24 1
v 2 24 1
v -2 24 -0
v 1 24 -0
v -1 26 5
v 0 26 5
v -2 26 4
v -1 26 4
v 0 26 4
v 1 26 4
v -3 26 3
v -2 26 3
v -1 26 3
v 0 26 3
v 1 26 3
v 2 26 3
v -3 26 2
v -2 26 2
v -1 26 2
v 0 26 2
v 1 26 2
v 2 26 2
v -2 26 1
v -1 26 1
v 0 26 1
v 1 26 1
v -1 26 -0
v 0 26 -0
v -2 27 5
v -1 27 5
v 0 27 5
v 1 27 5
v -3 27 4
v -2 27 4
v -1 27 4
v 0 27 4
v 1 27 4
v 2 27 4
v -3 27 3
v -2 27 3
v 1 27 3
v 2 27 3
v -3 27 2
v -2 27 2
v 1 27 2
v 2 27 2
v -3 27 1
v -2 27 1
v -1 27 1
v 0 27 1
v 1 27 1
v 2 27 1
v -2 27 -0
v -1 27 -0
v 0 27 -0
v 1 27 -0
v -2 30 5
v 1 30 5
v -3 30 4
v -2 30 4
v -1 30 4
v 0 30 4
v 1 30 4
v 2 30 4
v -2 30 3
v -1 30 3
v 0 30 3
v 1 30 3
v -2 30 2
v -1 30 2
v 0 30 2
v 1 30 2
v -3 30 1
v -2 30 1
v -1 30 1
v 0 30 1
v 1 30 1
v 2 30 1
v -2 30 -0
v 1 30 -0
v -3 1 7
v 2 1 7
v -4 1 6
v -3 1 6
v 2 1 6
v 3 1 6
v -5 1 5
v -4 1 5
v -2 1 5
v 1 1 5
v 3 1 5
v 4 1 5
v -3 1 4
v -2 1 4
v 1 1 4
v 2 1 4
v -3 1 1
v -2 1 1
v 1 1 1
v 2 1 1
v -5 1 -0
v -4 1 -0
v -2 1 -0
v 1 1 -0
v 3 1 -0
v 4 1 -0
v -4 1 -1
v -3 1 -1
v 2 1 -1
v 3 1 -1
v -3 1 -2
v 2 1 -2
v -2 2 5
v 1 2 5
v -3 2 4
v -2 2 4
v -1 2 4
v 0 2 4
v 1 2 4
v 2 2 4
v -2 2 3
v -1 2 3
v 0 2 3
v 1 2 3
v -2 2 2
v -1 2 2
v 0 2 2
v 1 2 2
v -3 2 1
v -2 2 1
v -1 2 1
v 0 2 1
v 1 2 1
v 2 2 1
v -2 2 -0
v 1 2 -0
v -1 3 4
v 0 3 4
v -2 3 3
v -1 3 3
v 0 3 3
v 1 3 3
v -2 3 2
v -1 3 2
v 0 3 2
v 1 3 2
v -1 3 1
v 0 3 1
v -2 25 5
v 1 25 5
v -3 25 4
v -2 25 4
v -1 25 4
v 0 25 4
v 1 25 4
v 2 25 4
v -2 25 3
v -1 25 3
v 0 25 3
v 1 25 3
v -2 25 2
v -1 25 2
v 0 25 2
v 1 25 2
v -3 25 1
v -2 25 1
v -1 25 1
v 0 25 1
v 1 25 1
v 2 25 1
v -2 25 -0
v 1 25 -0
v -2 28 5
v -1 28 5
v 0 28 5
v 1 28 5
v -3 28 4
v -2 28 4
v -1 28 4
v 0 28 4
v 1 28 4
v 2 28 4
v -3 28 3
v -2 28 3
v 1 28 3
v 2 28 3
v -3 28 2
v -2 28 2
v 1 28 2
v 2 28 2
v -3 28 1
v -2 28 1
v -1 28 1
v 0 28 1
v 1 28 1
v 2 28 1
v -2 28 -0
v -1 28 -0
v 0 28 -0
v 1 28 -0
v -1 29 5
v 0 29 5
v -2 29 4
v -1 29 4
v 0 29 4
v 1 29 4
v -3 29 3
v -2 29 3
v -1 29 3
v 0 29 3
v 1 29 3
v 2 29 3
v -3 29 2
v -2 29 2
v -1 29 2
v 0 29 2
v 1 29 2
v 2 29 2
v -2 29 1
v -1 29 1
v 0 29 1
v 1 29 1
v -1 29 -0
v 0 29 -0
v -2 31 5
v 1 31 5
v -3 31 4
v -2 31 4
v 1 31 4
v 2 31 4
v -3 31 1
v -2 31 1
v 1 31 1
v 2 31 1
v -2 31 -0
v 1 31 -0
v -2 32 4
v 1 32 4
v -1 32 3
v 0 32 3
v -1 32 2
v 0 32 2
v -2 32 1
v 1 32 1
v -1 33 3
v 0 33 3
v -1 33 2
v 0 33 2

# faces
f 3/2/1 2/2/1 1/2/1
f 4/2/1 2/2/1 3/2/1
f 9/2/1 6/2/1 5/2/1
f 10/2/1 6/2/1 9/2/1
f 11/2/1 8/2/1 7/2/1
f 12/2/1 8/2/1 11/2/1
f 17/2/1 14/2/1 13/2/1
f 18/2/1 14/2/1 17/2/1
f 21/2/1 16/2/1 15/2/1
f 22/2/1 16/2/1 21/2/1
f 23/2/1 20/2/1 19/2/1
f 24/2/1 20/2/1 23/2/1
f 27/2/1 26/2/1 25/2/1
f 28/2/1 26/2/1 27/2/1
f 32/1/1 30/1/1 29/1/1
f 33/1/1 30/1/1 32/1/1
f 35/1/1 32/1/1 31/1/1
f 35/1/1 34/1/1 33/1/1
f 35/1/1 33/1/1 32/1/1
f 36/1/1 34/1/1 35/1/1
f 37/1/1 34/1/1 36/1/1
f 38/1/1 34/1/1 37/1/1
f 39/1/1 37/1/1 36/1/1
f 40/1/1 37/1/1 39/1/1
f 43/2/1 42/2/1 41/2/1
f 44/2/1 42/2/1 43/2/1
f 49/2/1 46/2/1 45/2/1
f 50/2/1 46/2/1 49/2/1
f 53/2/1 48/2/1 47/2/1
f 54/2/1 48/2/1 53/2/1
f 55/2/1 52/2/1 51/2/1
f 56/2/1 52/2/1 55/2/1
f 61/2/1 58/2/1 57/2/1
f 62/2/1 58/2/1 61/2/1
f 65/2/1 60/2/1 59/2/1
f 66/2/1 60/2/1 65/2/1
f 68/1/1 64/1/1 63/1/1
f 69/1/1 64/1/1 68/1/1
f 72/1/1 68/1/1 67/1/1
f 73/1/1 68/1/1 72/1/1
f 74/1/1 70/1/1 69/1/1
f 75/1/1 70/1/1 74/1/1
f 77/1/1 72/1/1 71/1/1
f 78/1/1 72/1/1 77/1/1
f 81/1/1 76/1/1 75/1/1
f 82/1/1 76/1/1 81/1/1
f 83/1/1 79/1/1 78/1/1
f 84/1/1 79/1/1 83/1/1
f 85/1/1 81/1/1 80/1/1
f 86/1/1 81/1/1 85/1/1
f 89/1/1 85/1/1 84/1/1
f 90/1/1 85/1/1 89/1/1
f 93/2/1 88/2/1 87/2/1
f 94/2/1 88/2/1 93/2/1
f 95/2/1 92/2/1 91/2/1
f 96/2/1 92/2/1 95/2/1
f 97/2/1 95/2/1 94/2/1
f 98/2/1 95/2/1 97/2/1
f 103/2/1 100/2/1 99/2/1
f 104/2/1 100/2/1 103/2/1
f 105/2/1 102/2/1 101/2/1
f 106/2/1 102/2/1 105/2/1
f 107/2/1 105/2/1 104/2/1
f 108/2/1 105/2/1 107/2/1
f 114/1/1 110/1/1 109/1/1
f 115/1/1 110/1/1 114/1/1
f 116/1/1 112/1/1 111/1/1
f 117/1/1 112/1/1 116/1/1
f 119/1/1 114/1/1 113/1/1
f 120/1/1 114/1/1 119/1/1
f 121/1/1 118/1/1 117/1/1
f 122/1/1 118/1/1 121/1/1
f 127/1/1 124/1/1 123/1/1
f 128/1/1 124/1/1 127/1/1
f 131/1/1 126/1/1 125/1/1
f 132/1/1 126/1/1 131/1/1
f 133/1/1 129/1/1 128/1/1
f 134/1/1 129/1/1 133/1/1
f 135/1/1 131/1/1 130/1/1
f 136/1/1 131/1/1 135/1/1
f 139/2/1 138/2/1 137/2/1
f 140/2/1 138/2/1 139/2/1
f 141/2/2 142/2/2 145/2/2
f 145/2/2 142/2/2 146/2/2
f 143/2/2 144/2/2 147/2/2
f 147/2/2 144/2/2 148/2/2
f 146/2/2 147/2/2 149/2/2
f 149/2/2 147/2/2 150/2/2
f 151/1/2 152/1/2 156/1/2
f 156/1/2 152/1/2 157/1/2
f 153/1/2 154/1/2 158/1/2
f 158/1/2 154/1/2 159/1/2
f 155/1/2 156/1/2 161/1/2
f 161/1/2 156/1/2 162/1/2
f 159/1/2 160/1/2 163/1/2
f 163/1/2 160/1/2 164/1/2
f 165/1/2 166/1/2 169/1/2
f 169/1/2 166/1/2 170/1/2
f 167/1/2 168/1/2 173/1/2
f 173/1/2 168/1/2 174/1/2
f 170/1/2 171/1/2 175/1/2
f 175/1/2 171/1/2 176/1/2
f 172/1/2 173/1/2 177/1/2
f 177/1/2 173/1/2 178/1/2
f 179/2/2 180/2/2 181/2/2
f 181/2/2 180/2/2 182/2/2
f 183/2/2 184/2/2 187/2/2
f 187/2/2 184/2/2 188/2/2
f 185/2/2 186/2/2 191/2/2
f 191/2/2 186/2/2 192/2/2
f 189/2/2 190/2/2 193/2/2
f 193/2/2 190/2/2 194/2/2
f 195/2/2 196/2/2 199/2/2
f 199/2/2 196/2/2 200/2/2
f 197/2/2 198/2/2 203/2/2
f 203/2/2 198/2/2 204/2/2
f 201/1/2 202/1/2 206/1/2
f 206/1/2 202/1/2 207/1/2
f 205/1/2 206/1/2 210/1/2
f 210/1/2 206/1/2 211/1/2
f 207/1/2 208/1/2 212/1/2
f 212/1/2 208/1/2 213/1/2
f 209/1/2 210/1/2 215/1/2
f 215/1/2 210/1/2 216/1/2
f 213/1/2 214/1/2 219/1/2
f 219/1/2 214/1/2 220/1/2
f 216/1/2 217/1/2 221/1/2
f 221/1/2 217/1/2 222/1/2
f 218/1/2 219/1/2 223/1/2
f 223/1/2 219/1/2 224/1/2
f 222/1/2 223/1/2 227/1/2
f 227/1/2 223/1/2 228/1/2
f 225/2/2 226/2/2 231/2/2
f 231/2/2 226/2/2 232/2/2
f 229/2/2 230/2/2 233/2/2
f 233/2/2 230/2/2 234/2/2
f 232/2/2 233/2/2 235/2/2
f 235/2/2 233/2/2 236/2/2
f 237/2/2 238/2/2 241/2/2
f 241/2/2 238/2/2 242/2/2
f 239/2/2 240/2/2 245/2/2
f 245/2/2 240/2/2 246/2/2
f 243/2/2 244/2/2 247/2/2
f 247/2/2 244/2/2 248/2/2
f 249/2/2 250/2/2 251/2/2
f 251/2/2 250/2/2 252/2/2
f 253/1/2 254/1/2 256/1/2
f 256/1/2 254/1/2 257/1/2
f 255/1/2 256/1/2 259/1/2
f 257/1/2 258/1/2 259/1/2
f 256/1/2 257/1/2 259/1/2
f 259/1/2 258/1/2 260/1/2
f 260/1/2 258/1/2 261/1/2
f 261/1/2 258/1/2 262/1/2
f 260/1/2 261/1/2 263/1/2
f 263/1/2 261/1/2 264/1/2
f 265/2/2 266/2/2 267/2/2
f 267/2/2 266/2/2 268/2/2
f 269/2/2 270/2/2 273/2/2
f 273/2/2 270/2/2 274/2/2
f 271/2/2 272/2/2 275/2/2
f 275/2/2 272/2/2 276/2/2
f 277/2/2 278/2/2 279/2/2
f 279/2/2 278/2/2 280/2/2
f 283/2/3 282/2/3 281/2/3
f 284/2/3 282/2/3 283/2/3
f 287/2/3 286/2/3 285/2/3
f 288/2/3 286/2/3 287/2/3
f 291/2/3 290/2/3 289/2/3
f 292/2/3 290/2/3 291/2/3
f 295/2/3 294/2/3 293/2/3
f 296/2/3 294/2/3 295/2/3
f 306/1/3 302/1/3 301/1/3
f 307/1/3 302/1/3 306/1/3
f 309/1/3 306/1/3 305/1/3
f 309/1/3 308/1/3 307/1/3
f 309/1/3 307/1/3 306/1/3
f 310/1/3 308/1/3 309/1/3
f 311/1/3 308/1/3 310/1/3
f 312/1/3 308/1/3 311/1/3
f 313/2/3 298/2/3 297/2/3
f 314/2/3 298/2/3 313/2/3
f 315/2/3 300/2/3 299/2/3
f 316/2/3 300/2/3 315/2/3
f 317/1/3 311/1/3 310/1/3
f 318/1/3 311/1/3 317/1/3
f 319/2/3 304/2/3 303/2/3
f 320/2/3 304/2/3 319/2/3
f 323/2/3 322/2/3 321/2/3
f 324/2/3 322/2/3 323/2/3
f 333/2/3 326/2/3 325/2/3
f 334/2/3 326/2/3 333/2/3
f 335/2/3 328/2/3 327/2/3
f 336/2/3 328/2/3 335/2/3
f 338/1/3 330/1/3 329/1/3
f 339/1/3 330/1/3 338/1/3
f 341/2/3 332/2/3 331/2/3
f 342/2/3 332/2/3 341/2/3
f 347/1/3 338/1/3 337/1/3
f 348/1/3 338/1/3 347/1/3
f 349/1/3 340/1/3 339/1/3
f 350/1/3 340/1/3 349/1/3
f 352/2/3 345/2/3 344/2/3
f 353/2/3 345/2/3 352/2/3
f 354/1/3 347/1/3 346/1/3
f 355/1/3 347/1/3 354/1/3
f 358/1/3 351/1/3 350/1/3
f 359/1/3 351/1/3 358/1/3
f 364/1/3 356/1/3 355/1/3
f 365/1/3 356/1/3 364/1/3
f 366/1/3 358/1/3 357/1/3
f 367/1/3 358/1/3 366/1/3
f 369/2/3 343/2/3 342/2/3
f 370/2/3 343/2/3 369/2/3
f 371/2/3 361/2/3 360/2/3
f 372/2/3 361/2/3 371/2/3
f 373/2/3 363/2/3 362/2/3
f 374/2/3 363/2/3 373/2/3
f 375/1/3 366/1/3 365/1/3
f 376/1/3 366/1/3 375/1/3
f 377/2/3 369/2/3 368/2/3
f 378/2/3 369/2/3 377/2/3
f 386/1/3 380/1/3 379/1/3
f 387/1/3 380/1/3 386/1/3
f 388/1/3 382/1/3 381/1/3
f 389/1/3 382/1/3 388/1/3
f 391/2/3 384/2/3 383/2/3
f 392/2/3 384/2/3 391/2/3
f 394/1/3 386/1/3 385/1/3
f 395/1/3 386/1/3 394/1/3
f 396/1/3 390/1/3 389/1/3
f 397/1/3 390/1/3 396/1/3
f 401/2/3 393/2/3 392/2/3
f 402/2/3 393/2/3 401/2/3
f 407/2/3 399/2/3 398/2/3
f 408/2/3 399/2/3 407/2/3
f 409/2/3 401/2/3 400/2/3
f 410/2/3 401/2/3 409/2/3
f 411/1/3 404/1/3 403/1/3
f 412/1/3 404/1/3 411/1/3
f 415/1/3 406/1/3 405/1/3
f 416/1/3 406/1/3 415/1/3
f 417/1/3 413/1/3 412/1/3
f 418/1/3 413/1/3 417/1/3
f 419/1/3 415/1/3 414/1/3
f 420/1/3 415/1/3 419/1/3
f 421/1/4 422/1/4 428/1/4
f 428/1/4 422/1/4 429/1/4
f 423/1/4 424/1/4 430/1/4
f 430/1/4 424/1/4 431/1/4
f 425/2/4 426/2/4 433/2/4
f 433/2/4 426/2/4 434/2/4
f 427/1/4 428/1/4 436/1/4
f 436/1/4 428/1/4 437/1/4
f 431/1/4 432/1/4 438/1/4
f 438/1/4 432/1/4 439/1/4
f 434/2/4 435/2/4 443/2/4
f 443/2/4 435/2/4 444/2/4
f 440/2/4 441/2/4 449/2/4
f 449/2/4 441/2/4 450/2/4
f 442/2/4 443/2/4 451/2/4
f 451/2/4 443/2/4 452/2/4
f 445/1/4 446/1/4 453/1/4
f 453/1/4 446/1/4 454/1/4
f 447/1/4 448/1/4 457/1/4
f 457/1/4 448/1/4 458/1/4
f 454/1/4 455/1/4 459/1/4
f 459/1/4 455/1/4 460/1/4
f 456/1/4 457/1/4 461/1/4
f 461/1/4 457/1/4 462/1/4
f 463/2/4 464/2/4 471/2/4
f 471/2/4 464/2/4 472/2/4
f 465/2/4 466/2/4 473/2/4
f 473/2/4 466/2/4 474/2/4
f 467/1/4 468/1/4 476/1/4
f 476/1/4 468/1/4 477/1/4
f 469/2/4 470/2/4 479/2/4
f 479/2/4 470/2/4 480/2/4
f 475/1/4 476/1/4 485/1/4
f 485/1/4 476/1/4 486/1/4
f 477/1/4 478/1/4 487/1/4
f 487/1/4 478/1/4 488/1/4
f 482/2/4 483/2/4 490/2/4
f 490/2/4 483/2/4 491/2/4
f 484/1/4 485/1/4 492/1/4
f 492/1/4 485/1/4 493/1/4
f 488/1/4 489/1/4 496/1/4
f 496/1/4 489/1/4 497/1/4
f 493/1/4 494/1/4 502/1/4
f 502/1/4 494/1/4 503/1/4
f 495/1/4 496/1/4 504/1/4
f 504/1/4 496/1/4 505/1/4
f 480/2/4 481/2/4 507/2/4
f 507/2/4 481/2/4 508/2/4
f 498/2/4 499/2/4 509/2/4
f 509/2/4 499/2/4 510/2/4
f 500/2/4 501/2/4 511/2/4
f 511/2/4 501/2/4 512/2/4
f 503/1/4 504/1/4 513/1/4
f 513/1/4 504/1/4 514/1/4
f 506/2/4 507/2/4 515/2/4
f 515/2/4 507/2/4 516/2/4
f 517/2/4 518/2/4 519/2/4
f 519/2/4 518/2/4 520/2/4
f 525/1/4 526/1/4 530/1/4
f 530/1/4 526/1/4 531/1/4
f 529/1/4 530/1/4 533/1/4
f 531/1/4 532/1/4 533/1/4
f 530/1/4 531/1/4 533/1/4
f 533/1/4 532/1/4 534/1/4
f 534/1/4 532/1/4 535/1/4
f 535/1/4 532/1/4 536/1/4
f 521/2/4 522/2/4 537/2/4
f 537/2/4 522/2/4 538/2/4
f 523/2/4 524/2/4 539/2/4
f 539/2/4 524/2/4 540/2/4
f 534/1/4 535/1/4 541/1/4
f 541/1/4 535/1/4 542/1/4
f 527/2/4 528/2/4 543/2/4
f 543/2/4 528/2/4 544/2/4
f 545/2/4 546/2/4 547/2/4
f 547/2/4 546/2/4 548/2/4
f 549/2/4 550/2/4 551/2/4
f 551/2/4 550/2/4 552/2/4
f 553/2/4 554/2/4 555/2/4
f 555/2/4 554/2/4 556/2/4
f 557/2/4 558/2/4 559/2/4
f 559/2/4 558/2/4 560/2/4
f 564/2/5 562/2/5 561/2/5
f 565/2/5 562/2/5 564/2/5
f 568/2/5 564/2/5 563/2/5
f 568/2/5 566/2/5 565/2/5
f 568/2/5 565/2/5 564/2/5
f 569/2/5 566/2/5 568/2/5
f 571/2/5 568/2/5 567/2/5
f 571/2/5 570/2/5 569/2/5
f 571/2/5 569/2/5 568/2/5
f 572/2/5 570/2/5 571/2/5
f 573/2/5 570/2/5 572/2/5
f 574/2/5 570/2/5 573/2/5
f 575/2/5 573/2/5 572/2/5
f 576/2/5 573/2/5 575/2/5
f 577/2/5 573/2/5 576/2/5
f 578/2/5 573/2/5 577/2/5
f 579/2/5 577/2/5 576/2/5
f 580/2/5 577/2/5 579/2/5
f 584/2/5 582/2/5 581/2/5
f 585/2/5 582/2/5 584/2/5
f 587/2/5 584/2/5 583/2/5
f 587/2/5 586/2/5 585/2/5
f 587/2/5 585/2/5 584/2/5
f 588/2/5 586/2/5 587/2/5
f 589/2/5 587/2/5 583/2/5
f 590/2/5 586/2/5 588/2/5
f 591/2/5 589/2/5 583/2/5
f 591/2/5 590/2/5 589/2/5
f 592/2/5 590/2/5 591/2/5
f 593/2/5 586/2/5 590/2/5
f 593/2/5 590/2/5 592/2/5
f 594/2/5 586/2/5 593/2/5
f 595/2/5 593/2/5 592/2/5
f 596/2/5 593/2/5 595/2/5
f 600/1/5 598/1/5 597/1/5
f 601/1/5 598/1/5 600/1/5
f 604/1/5 600/1/5 599/1/5
f 605/1/5 600/1/5 604/1/5
f 606/1/5 602/1/5 601/1/5
f 607/1/5 602/1/5 606/1/5
f 609/1/5 604/1/5 603/1/5
f 610/1/5 604/1/5 609/1/5
f 613/1/5 608/1/5 607/1/5
f 614/1/5 608/1/5 613/1/5
f 615/1/5 611/1/5 610/1/5
f 616/1/5 611/1/5 615/1/5
f 617/1/5 613/1/5 612/1/5
f 618/1/5 613/1/5 617/1/5
f 619/1/5 617/1/5 616/1/5
f 620/1/5 617/1/5 619/1/5
f 626/1/5 622/1/5 621/1/5
f 627/1/5 622/1/5 626/1/5
f 628/1/5 624/1/5 623/1/5
f 629/1/5 624/1/5 628/1/5
f 631/1/5 626/1/5 625/1/5
f 632/1/5 626/1/5 631/1/5
f 633/1/5 630/1/5 629/1/5
f 634/1/5 630/1/5 633/1/5
f 639/1/5 636/1/5 635/1/5
f 640/1/5 636/1/5 639/1/5
f 643/1/5 638/1/5 637/1/5
f 644/1/5 638/1/5 643/1/5
f 645/1/5 641/1/5 640/1/5
f 646/1/5 641/1/5 645/1/5
f 647/1/5 643/1/5 642/1/5
f 648/1/5 643/1/5 647/1/5
f 652/2/5 650/2/5 649/2/5
f 653/2/5 650/2/5 652/2/5
f 654/2/5 650/2/5 653/2/5
f 655/2/5 650/2/5 654/2/5
f 657/2/5 652/2/5 651/2/5
f 657/2/5 653/2/5 652/2/5
f 658/2/5 653/2/5 657/2/5
f 659/2/5 656/2/5 655/2/5
f 659/2/5 655/2/5 654/2/5
f 660/2/5 656/2/5 659/2/5
f 661/2/5 657/2/5 651/2/5
f 664/2/5 656/2/5 660/2/5
f 665/2/5 662/2/5 661/2/5
f 665/2/5 661/2/5 651/2/5
f 666/2/5 662/2/5 665/2/5
f 667/2/5 662/2/5 666/2/5
f 668/2/5 664/2/5 663/2/5
f 669/2/5 656/2/5 664/2/5
f 669/2/5 664/2/5 668/2/5
f 670/2/5 656/2/5 669/2/5
f 671/2/5 667/2/5 666/2/5
f 671/2/5 668/2/5 667/2/5
f 671/2/5 669/2/5 668/2/5
f 672/2/5 669/2/5 671/2/5
f 673/2/6 674/2/6 676/2/6
f 676/2/6 674/2/6 677/2/6
f 675/2/6 676/2/6 680/2/6
f 677/2/6 678/2/6 680/2/6
f 676/2/6 677/2/6 680/2/6
f 680/2/6 678/2/6 681/2/6
f 681/2/6 678/2/6 682/2/6
f 682/2/6 678/2/6 683/2/6
f 679/2/6 680/2/6 685/2/6
f 680/2/6 681/2/6 685/2/6
f 685/2/6 681/2/6 686/2/6
f 683/2/6 684/2/6 687/2/6
f 682/2/6 683/2/6 687/2/6
f 687/2/6 684/2/6 688/2/6
f 679/2/6 685/2/6 689/2/6
f 688/2/6 684/2/6 692/2/6
f 689/2/6 690/2/6 693/2/6
f 679/2/6 689/2/6 693/2/6
f 693/2/6 690/2/6 694/2/6
f 694/2/6 690/2/6 695/2/6
f 691/2/6 692/2/6 696/2/6
f 692/2/6 684/2/6 697/2/6
f 696/2/6 692/2/6 697/2/6
f 697/2/6 684/2/6 698/2/6
f 694/2/6 695/2/6 699/2/6
f 695/2/6 696/2/6 699/2/6
f 696/2/6 697/2/6 699/2/6
f 699/2/6 697/2/6 700/2/6
f 700/2/6 697/2/6 701/2/6
f 701/2/6 697/2/6 702/2/6
f 700/2/6 701/2/6 703/2/6
f 703/2/6 701/2/6 704/2/6
f 705/2/6 706/2/6 708/2/6
f 708/2/6 706/2/6 709/2/6
f 709/2/6 706/2/6 710/2/6
f 710/2/6 706/2/6 711/2/6
f 707/2/6 708/2/6 713/2/6
f 708/2/6 709/2/6 713/2/6
f 713/2/6 709/2/6 714/2/6
f 711/2/6 712/2/6 715/2/6
f 710/2/6 711/2/6 715/2/6
f 715/2/6 712/2/6 716/2/6
f 707/2/6 713/2/6 717/2/6
f 716/2/6 712/2/6 720/2/6
f 717/2/6 718/2/6 721/2/6
f 707/2/6 717/2/6 721/2/6
f 721/2/6 718/2/6 722/2/6
f 722/2/6 718/2/6 723/2/6
f 719/2/6 720/2/6 724/2/6
f 720/2/6 712/2/6 725/2/6
f 724/2/6 720/2/6 725/2/6
f 725/2/6 712/2/6 726/2/6
f 722/2/6 723/2/6 727/2/6
f 723/2/6 724/2/6 727/2/6
f 724/2/6 725/2/6 727/2/6
f 727/2/6 725/2/6 728/2/6
f 729/2/6 730/2/6 732/2/6
f 732/2/6 730/2/6 733/2/6
f 731/2/6 732/2/6 735/2/6
f 735/2/6 732/2/6 736/2/6
f 733/2/6 734/2/6 737/2/6
f 737/2/6 734/2/6 738/2/6
f 736/2/6 737/2/6 739/2/6
f 739/2/6 737/2/6 740/2/6
f 741/2/6 742/2/6 744/2/6
f 744/2/6 742/2/6 745/2/6
f 745/2/6 742/2/6 746/2/6
f 746/2/6 742/2/6 747/2/6
f 743/2/6 744/2/6 749/2/6
f 744/2/6 745/2/6 749/2/6
f 749/2/6 745/2/6 750/2/6
f 747/2/6 748/2/6 751/2/6
f 746/2/6 747/2/6 751/2/6
f 751/2/6 748/2/6 752/2/6
f 743/2/6 749/2/6 753/2/6
f 752/2/6 748/2/6 756/2/6
f 753/2/6 754/2/6 757/2/6
f 743/2/6 753/2/6 757/2/6
f 757/2/6 754/2/6 758/2/6
f 758/2/6 754/2/6 759/2/6
f 755/2/6 756/2/6 760/2/6
f 756/2/6 748/2/6 761/2/6
f 760/2/6 756/2/6 761/2/6
f 761/2/6 748/2/6 762/2/6
f 758/2/6 759/2/6 763/2/6
f 759/2/6 760/2/6 763/2/6
f 760/2/6 761/2/6 763/2/6
f 763/2/6 761/2/6 764/2/6
f 765/1/6 766/1/6 770/1/6
f 770/1/6 766/1/6 771/1/6
f 767/1/6 768/1/6 772/1/6
f 772/1/6 768/1/6 773/1/6
f 769/1/6 770/1/6 775/1/6
f 775/1/6 770/1/6 776/1/6
f 773/1/6 774/1/6 777/1/6
f 777/1/6 774/1/6 778/1/6
f 779/1/6 780/1/6 783/1/6
f 783/1/6 780/1/6 784/1/6
f 781/1/6 782/1/6 787/1/6
f 787/1/6 782/1/6 788/1/6
f 784/1/6 785/1/6 789/1/6
f 789/1/6 785/1/6 790/1/6
f 786/1/6 787/1/6 791/1/6
f 791/1/6 787/1/6 792/1/6
f 793/1/6 794/1/6 796/1/6
f 796/1/6 794/1/6 797/1/6
f 795/1/6 796/1/6 800/1/6
f 800/1/6 796/1/6 801/1/6
f 797/1/6 798/1/6 802/1/6
f 802/1/6 798/1/6 803/1/6
f 799/1/6 800/1/6 805/1/6
f 805/1/6 800/1/6 806/1/6
f 803/1/6 804/1/6 809/1/6
f 809/1/6 804/1/6 810/1/6
f 806/1/6 807/1/6 811/1/6
f 811/1/6 807/1/6 812/1/6
f 808/1/6 809/1/6 813/1/6
f 813/1/6 809/1/6 814/1/6
f 812/1/6 813/1/6 815/1/6
f 815/1/6 813/1/6 816/1/6
f 817/2/6 818/2/6 820/2/6
f 820/2/6 818/2/6 821/2/6
f 819/2/6 820/2/6 823/2/6
f 823/2/6 820/2/6 824/2/6
f 821/2/6 822/2/6 825/2/6
f 825/2/6 822/2/6 826/2/6
f 824/2/6 825/2/6 827/2/6
f 827/2/6 825/2/6 828/2/6
f 829/2/6 830/2/6 831/2/6
f 831/2/6 830/2/6 832/2/6
f 829/2/6 831/2/6 833/2/6
f 832/2/6 830/2/6 834/2/6
f 829/2/6 833/2/6 835/2/6
f 833/2/6 834/2/6 835/2/6
f 834/2/6 830/2/6 836/2/6
f 835/2/6 834/2/6 836/2/6
f 837/2/6 838/2/6 839/2/6
f 839/2/6 838/2/6 840/2/6
