# MagicaVoxel @ Ephtracy

# group
g casa1

# material
mtllib casa1.mtl
usemtl palette

# normals
vn -1 0 0
vn 1 0 0
vn 0 0 1
vn 0 0 -1
vn 0 -1 0
vn 0 1 0

# texcoords
vt 0.0644531 0.5
vt 0.416016 0.5
vt 0.970703 0.5
vt 0.974609 0.5
vt 0.978516 0.5
vt 0.982422 0.5

# verts
v -7 9 6
v -7 9 4
v -7 9 -5
v -7 9 -7
v -7 10 6
v -7 10 5
v -7 10 -6
v -7 10 -7
v -7 11 5
v -7 11 4
v -7 11 3
v -7 11 -4
v -7 11 -5
v -7 11 -6
v -7 12 4
v -7 12 3
v -7 12 2
v -7 12 -3
v -7 12 -4
v -7 12 -5
v -7 13 3
v -7 13 2
v -7 13 1
v -7 13 -2
v -7 13 -3
v -7 13 -4
v -7 14 2
v -7 14 1
v -7 14 -0
v -7 14 -1
v -7 14 -2
v -7 14 -3
v -7 15 1
v -7 15 -0
v -7 15 -1
v -7 15 -2
v -7 16 -0
v -7 16 -1
v -6 0 5
v -6 0 -3
v -6 0 -5
v -6 0 -6
v -6 2 3
v -6 2 -2
v -6 4 3
v -6 4 -2
v -6 4 -3
v -6 4 -5
v -6 6 3
v -6 6 -2
v -6 6 -3
v -6 6 -5
v -6 8 3
v -6 8 2
v -6 8 -1
v -6 8 -2
v -6 8 -3
v -6 8 -5
v -6 9 5
v -6 9 4
v -6 9 2
v -6 9 1
v -6 9 -0
v -6 9 -1
v -6 9 -5
v -6 9 -6
v -6 10 1
v -6 10 -0
v -6 11 4
v -6 11 3
v -6 11 -4
v -6 11 -5
v -6 12 3
v -6 12 2
v -6 12 -3
v -6 12 -4
v -6 13 2
v -6 13 1
v -6 13 -2
v -6 13 -3
v -6 14 1
v -6 14 -0
v -6 14 -1
v -6 14 -2
v -6 15 -0
v -6 15 -1
v -5 0 -3
v -5 0 -5
v -5 2 3
v -5 2 -2
v -5 4 3
v -5 4 -2
v -5 4 -3
v -5 4 -5
v -5 6 3
v -5 6 -2
v -5 6 -3
v -5 6 -5
v -5 8 3
v -5 8 2
v -5 8 -1
v -5 8 -2
v -5 8 -3
v -5 8 -5
v -5 9 2
v -5 9 1
v -5 9 -0
v -5 9 -1
v -5 10 1
v -5 10 -0
v -3 12 4
v -3 12 3
v -3 13 3
v -3 13 2
v -3 14 2
v -3 16 4
v -3 16 2
v 3 10 1
v 3 10 -2
v 3 11 1
v 3 11 -2
v 4 10 4
v 4 10 2
v 4 10 1
v 4 10 -2
v 4 10 -3
v 4 10 -5
v 4 11 4
v 4 11 3
v 4 11 1
v 4 11 -2
v 4 11 -4
v 4 11 -5
v -5 10 4
v -5 10 1
v -5 10 -0
v -5 10 -5
v -5 11 4
v -5 11 3
v -5 11 -4
v -5 11 -5
v -1 12 4
v -1 12 3
v -1 13 3
v -1 13 2
v -1 14 2
v -1 16 4
v -1 16 2
v 4 3 3
v 4 3 -4
v 4 5 3
v 4 5 -4
v 4 8 3
v 4 8 -4
v 4 9 3
v 4 9 2
v 4 9 -3
v 4 9 -4
v 4 10 2
v 4 10 1
v 4 10 -2
v 4 10 -3
v 4 11 1
v 4 11 -0
v 4 11 -1
v 4 11 -2
v 4 12 -0
v 4 12 -1
v 5 0 5
v 5 0 -6
v 5 3 3
v 5 3 -4
v 5 5 3
v 5 5 -4
v 5 8 3
v 5 8 -4
v 5 9 5
v 5 9 4
v 5 9 3
v 5 9 2
v 5 9 -3
v 5 9 -4
v 5 9 -5
v 5 9 -6
v 5 10 2
v 5 10 1
v 5 10 -2
v 5 10 -3
v 5 11 4
v 5 11 3
v 5 11 1
v 5 11 -0
v 5 11 -1
v 5 11 -2
v 5 11 -4
v 5 11 -5
v 5 12 3
v 5 12 2
v 5 12 -0
v 5 12 -1
v 5 12 -3
v 5 12 -4
v 5 13 2
v 5 13 1
v 5 13 -2
v 5 13 -3
v 5 14 1
v 5 14 -0
v 5 14 -1
v 5 14 -2
v 5 15 -0
v 5 15 -1
v 6 9 6
v 6 9 4
v 6 9 -5
v 6 9 -7
v 6 10 6
v 6 10 5
v 6 10 -6
v 6 10 -7
v 6 11 5
v 6 11 4
v 6 11 3
v 6 11 -4
v 6 11 -5
v 6 11 -6
v 6 12 4
v 6 12 3
v 6 12 2
v 6 12 -3
v 6 12 -4
v 6 12 -5
v 6 13 3
v 6 13 2
v 6 13 1
v 6 13 -2
v 6 13 -3
v 6 13 -4
v 6 14 2
v 6 14 1
v 6 14 -0
v 6 14 -1
v 6 14 -2
v 6 14 -3
v 6 15 1
v 6 15 -0
v 6 15 -1
v 6 15 -2
v 6 16 -0
v 6 16 -1
v -7 9 6
v -7 10 6
v 6 9 6
v 6 10 6
v -7 10 5
v -7 11 5
v -6 0 5
v -6 9 5
v 5 0 5
v 5 9 5
v 6 10 5
v 6 11 5
v -7 11 4
v -7 12 4
v -3 12 4
v -3 16 4
v -1 12 4
v -1 16 4
v 6 11 4
v 6 12 4
v -7 12 3
v -7 13 3
v -3 12 3
v -3 13 3
v -1 12 3
v -1 13 3
v 6 12 3
v 6 13 3
v -7 13 2
v -7 14 2
v -3 13 2
v -3 14 2
v -1 13 2
v -1 14 2
v 6 13 2
v 6 14 2
v -7 14 1
v -7 15 1
v 3 10 1
v 3 11 1
v 4 10 1
v 4 11 1
v 6 14 1
v 6 15 1
v -7 15 -0
v -7 16 -0
v -6 9 -0
v -6 10 -0
v -5 9 -0
v -5 10 -0
v 6 15 -0
v 6 16 -0
v -7 14 -1
v -7 15 -1
v -6 8 -1
v -6 9 -1
v -6 14 -1
v -6 15 -1
v -5 8 -1
v -5 9 -1
v 4 11 -1
v 4 12 -1
v 5 11 -1
v 5 12 -1
v 5 14 -1
v 5 15 -1
v 6 14 -1
v 6 15 -1
v -7 13 -2
v -7 14 -2
v -6 2 -2
v -6 4 -2
v -6 6 -2
v -6 8 -2
v -6 13 -2
v -6 14 -2
v -5 2 -2
v -5 4 -2
v -5 6 -2
v -5 8 -2
v 4 10 -2
v 4 11 -2
v 5 10 -2
v 5 11 -2
v 5 13 -2
v 5 14 -2
v 6 13 -2
v 6 14 -2
v -7 12 -3
v -7 13 -3
v -6 12 -3
v -6 13 -3
v 4 9 -3
v 4 10 -3
v 5 9 -3
v 5 10 -3
v 5 12 -3
v 5 13 -3
v 6 12 -3
v 6 13 -3
v -7 11 -4
v -7 12 -4
v -6 11 -4
v -6 12 -4
v 4 3 -4
v 4 5 -4
v 4 8 -4
v 4 9 -4
v 5 3 -4
v 5 5 -4
v 5 8 -4
v 5 9 -4
v 5 11 -4
v 5 12 -4
v 6 11 -4
v 6 12 -4
v -7 9 -5
v -7 11 -5
v -6 0 -5
v -6 4 -5
v -6 6 -5
v -6 8 -5
v -6 9 -5
v -6 11 -5
v -5 0 -5
v -5 4 -5
v -5 6 -5
v -5 8 -5
v -5 10 -5
v -5 11 -5
v 4 10 -5
v 4 11 -5
v 5 9 -5
v 5 11 -5
v 6 9 -5
v 6 11 -5
v -7 9 4
v -7 11 4
v -6 9 4
v -6 11 4
v -5 10 4
v -5 11 4
v 4 10 4
v 4 11 4
v 5 9 4
v 5 11 4
v 6 9 4
v 6 11 4
v -7 11 3
v -7 12 3
v -6 2 3
v -6 4 3
v -6 6 3
v -6 8 3
v -6 11 3
v -6 12 3
v -5 2 3
v -5 4 3
v -5 6 3
v -5 8 3
v 4 3 3
v 4 5 3
v 4 8 3
v 4 9 3
v 5 3 3
v 5 5 3
v 5 8 3
v 5 9 3
v 5 11 3
v 5 12 3
v 6 11 3
v 6 12 3
v -7 12 2
v -7 13 2
v -6 8 2
v -6 9 2
v -6 12 2
v -6 13 2
v -5 8 2
v -5 9 2
v -3 14 2
v -3 16 2
v -1 14 2
v -1 16 2
v 4 9 2
v 4 10 2
v 5 9 2
v 5 10 2
v 5 12 2
v 5 13 2
v 6 12 2
v 6 13 2
v -7 13 1
v -7 14 1
v -6 9 1
v -6 10 1
v -6 13 1
v -6 14 1
v -5 9 1
v -5 10 1
v 4 10 1
v 4 11 1
v 5 10 1
v 5 11 1
v 5 13 1
v 5 14 1
v 6 13 1
v 6 14 1
v -7 14 -0
v -7 15 -0
v -6 14 -0
v -6 15 -0
v 4 11 -0
v 4 12 -0
v 5 11 -0
v 5 12 -0
v 5 14 -0
v 5 15 -0
v 6 14 -0
v 6 15 -0
v -7 15 -1
v -7 16 -1
v 6 15 -1
v 6 16 -1
v -7 14 -2
v -7 15 -2
v 3 10 -2
v 3 11 -2
v 4 10 -2
v 4 11 -2
v 6 14 -2
v 6 15 -2
v -7 13 -3
v -7 14 -3
v -6 0 -3
v -6 4 -3
v -6 6 -3
v -6 8 -3
v -5 0 -3
v -5 4 -3
v -5 6 -3
v -5 8 -3
v 6 13 -3
v 6 14 -3
v -7 12 -4
v -7 13 -4
v 6 12 -4
v 6 13 -4
v -7 11 -5
v -7 12 -5
v 6 11 -5
v 6 12 -5
v -7 10 -6
v -7 11 -6
v -6 0 -6
v -6 9 -6
v 5 0 -6
v 5 9 -6
v 6 10 -6
v 6 11 -6
v -7 9 -7
v -7 10 -7
v 6 9 -7
v 6 10 -7
v -6 0 5
v 5 0 5
v -5 0 4
v 4 0 4
v -6 0 -3
v -5 0 -3
v -4 0 -3
v -6 0 -5
v -5 0 -5
v -4 0 -5
v 4 0 -5
v -6 0 -6
v 5 0 -6
v -6 4 3
v -5 4 3
v -6 4 -2
v -5 4 -2
v -6 4 -3
v -5 4 -3
v -6 4 -5
v -5 4 -5
v 4 5 3
v 5 5 3
v 4 5 -4
v 5 5 -4
v -6 8 3
v -5 8 3
v -6 8 2
v -5 8 2
v -6 8 -1
v -5 8 -1
v -6 8 -2
v -5 8 -2
v -6 8 -3
v -5 8 -3
v -6 8 -5
v -5 8 -5
v -7 9 6
v 6 9 6
v -6 9 5
v 5 9 5
v -7 9 4
v -6 9 4
v 5 9 4
v 6 9 4
v 4 9 3
v 5 9 3
v -6 9 2
v -5 9 2
v 4 9 2
v 5 9 2
v -6 9 1
v -5 9 1
v -6 9 -0
v -5 9 -0
v -6 9 -1
v -5 9 -1
v 4 9 -3
v 5 9 -3
v 4 9 -4
v 5 9 -4
v -7 9 -5
v -6 9 -5
v 5 9 -5
v 6 9 -5
v -6 9 -6
v 5 9 -6
v -7 9 -7
v 6 9 -7
v 4 10 2
v 5 10 2
v -6 10 1
v -5 10 1
v 4 10 1
v 5 10 1
v -6 10 -0
v -5 10 -0
v 4 10 -2
v 5 10 -2
v 4 10 -3
v 5 10 -3
v -7 11 4
v -6 11 4
v -5 11 4
v 4 11 4
v 5 11 4
v 6 11 4
v -7 11 3
v -6 11 3
v -5 11 3
v 4 11 3
v 5 11 3
v 6 11 3
v 3 11 1
v 4 11 1
v 5 11 1
v 4 11 -0
v 5 11 -0
v 4 11 -1
v 5 11 -1
v 3 11 -2
v 4 11 -2
v 5 11 -2
v -7 11 -4
v -6 11 -4
v -5 11 -4
v 4 11 -4
v 5 11 -4
v 6 11 -4
v -7 11 -5
v -6 11 -5
v -5 11 -5
v 4 11 -5
v 5 11 -5
v 6 11 -5
v -7 12 3
v -6 12 3
v 5 12 3
v 6 12 3
v -7 12 2
v -6 12 2
v 5 12 2
v 6 12 2
v 4 12 -0
v 5 12 -0
v 4 12 -1
v 5 12 -1
v -7 12 -3
v -6 12 -3
v 5 12 -3
v 6 12 -3
v -7 12 -4
v -6 12 -4
v 5 12 -4
v 6 12 -4
v -7 13 2
v -6 13 2
v 5 13 2
v 6 13 2
v -7 13 1
v -6 13 1
v 5 13 1
v 6 13 1
v -7 13 -2
v -6 13 -2
v 5 13 -2
v 6 13 -2
v -7 13 -3
v -6 13 -3
v 5 13 -3
v 6 13 -3
v -7 14 1
v -6 14 1
v 5 14 1
v 6 14 1
v -7 14 -0
v -6 14 -0
v 5 14 -0
v 6 14 -0
v -7 14 -1
v -6 14 -1
v 5 14 -1
v 6 14 -1
v -7 14 -2
v -6 14 -2
v 5 14 -2
v 6 14 -2
v -7 15 -0
v -6 15 -0
v 5 15 -0
v 6 15 -0
v -7 15 -1
v -6 15 -1
v 5 15 -1
v 6 15 -1
v -6 2 3
v -5 2 3
v -6 2 -2
v -5 2 -2
v 4 3 3
v 5 3 3
v 4 3 -4
v 5 3 -4
v -6 6 3
v -5 6 3
v -6 6 -2
v -5 6 -2
v -6 6 -3
v -5 6 -3
v -6 6 -5
v -5 6 -5
v 4 8 3
v 5 8 3
v 4 8 -4
v 5 8 -4
v -7 10 6
v 6 10 6
v -7 10 5
v 6 10 5
v -5 10 4
v 4 10 4
v 3 10 2
v 4 10 2
v -5 10 1
v -4 10 1
v 3 10 1
v 4 10 1
v -5 10 -0
v -4 10 -0
v 3 10 -2
v 4 10 -2
v 3 10 -3
v 4 10 -3
v -5 10 -5
v 4 10 -5
v -7 10 -6
v 6 10 -6
v -7 10 -7
v 6 10 -7
v -7 11 5
v 6 11 5
v -7 11 4
v 6 11 4
v -7 11 -5
v 6 11 -5
v -7 11 -6
v 6 11 -6
v -7 12 4
v -3 12 4
v -1 12 4
v 6 12 4
v -7 12 3
v -3 12 3
v -1 12 3
v 6 12 3
v -7 12 -4
v 6 12 -4
v -7 12 -5
v 6 12 -5
v -7 13 3
v -3 13 3
v -1 13 3
v 6 13 3
v -7 13 2
v -3 13 2
v -1 13 2
v 6 13 2
v -7 13 -3
v 6 13 -3
v -7 13 -4
v 6 13 -4
v -7 14 2
v -3 14 2
v -1 14 2
v 6 14 2
v -7 14 1
v 6 14 1
v -7 14 -2
v 6 14 -2
v -7 14 -3
v 6 14 -3
v -7 15 1
v 6 15 1
v -7 15 -0
v 6 15 -0
v -7 15 -1
v 6 15 -1
v -7 15 -2
v 6 15 -2
v -3 16 4
v -1 16 4
v -3 16 2
v -1 16 2
v -7 16 -0
v 6 16 -0
v -7 16 -1
v 6 16 -1

# faces
f 5/6/1 2/6/1 1/6/1
f 6/6/1 2/6/1 5/6/1
f 7/6/1 4/6/1 3/6/1
f 8/6/1 4/6/1 7/6/1
f 9/6/1 2/6/1 6/6/1
f 10/6/1 2/6/1 9/6/1
f 13/6/1 7/6/1 3/6/1
f 14/6/1 7/6/1 13/6/1
f 15/6/1 11/6/1 10/6/1
f 16/6/1 11/6/1 15/6/1
f 19/6/1 13/6/1 12/6/1
f 20/6/1 13/6/1 19/6/1
f 21/6/1 17/6/1 16/6/1
f 22/6/1 17/6/1 21/6/1
f 25/6/1 19/6/1 18/6/1
f 26/6/1 19/6/1 25/6/1
f 27/6/1 23/6/1 22/6/1
f 28/6/1 23/6/1 27/6/1
f 31/6/1 25/6/1 24/6/1
f 32/6/1 25/6/1 31/6/1
f 33/6/1 29/6/1 28/6/1
f 34/6/1 29/6/1 33/6/1
f 35/6/1 31/6/1 30/6/1
f 36/6/1 31/6/1 35/6/1
f 37/6/1 35/6/1 34/6/1
f 38/6/1 35/6/1 37/6/1
f 43/4/1 40/4/1 39/4/1
f 44/4/1 40/4/1 43/4/1
f 45/4/1 43/4/1 39/4/1
f 46/4/1 40/4/1 44/4/1
f 47/4/1 40/4/1 46/4/1
f 48/4/1 42/4/1 41/4/1
f 49/4/1 47/4/1 46/4/1
f 49/4/1 48/4/1 47/4/1
f 49/4/1 45/4/1 39/4/1
f 49/4/1 46/4/1 45/4/1
f 50/4/1 48/4/1 49/4/1
f 51/4/1 48/4/1 50/4/1
f 52/4/1 42/4/1 48/4/1
f 52/4/1 48/4/1 51/4/1
f 53/4/1 49/4/1 39/4/1
f 56/4/1 51/4/1 50/4/1
f 57/4/1 51/4/1 56/4/1
f 58/4/1 42/4/1 52/4/1
f 59/4/1 54/4/1 53/4/1
f 59/4/1 53/4/1 39/4/1
f 60/4/1 54/4/1 59/4/1
f 61/4/1 54/4/1 60/4/1
f 64/4/1 58/4/1 57/4/1
f 64/4/1 57/4/1 56/4/1
f 64/4/1 56/4/1 55/4/1
f 65/4/1 42/4/1 58/4/1
f 65/4/1 58/4/1 64/4/1
f 66/4/1 42/4/1 65/4/1
f 67/4/1 62/4/1 61/4/1
f 67/4/1 61/4/1 60/4/1
f 68/4/1 65/4/1 64/4/1
f 68/4/1 64/4/1 63/4/1
f 69/4/1 67/4/1 60/4/1
f 69/4/1 68/4/1 67/4/1
f 70/4/1 68/4/1 69/4/1
f 71/4/1 65/4/1 68/4/1
f 71/4/1 68/4/1 70/4/1
f 72/4/1 65/4/1 71/4/1
f 73/4/1 71/4/1 70/4/1
f 74/4/1 71/4/1 73/4/1
f 75/4/1 71/4/1 74/4/1
f 76/4/1 71/4/1 75/4/1
f 77/4/1 75/4/1 74/4/1
f 78/4/1 75/4/1 77/4/1
f 79/4/1 75/4/1 78/4/1
f 80/4/1 75/4/1 79/4/1
f 81/4/1 79/4/1 78/4/1
f 82/4/1 79/4/1 81/4/1
f 83/4/1 79/4/1 82/4/1
f 84/4/1 79/4/1 83/4/1
f 85/4/1 83/4/1 82/4/1
f 86/4/1 83/4/1 85/4/1
f 91/3/1 90/3/1 89/3/1
f 92/3/1 90/3/1 91/3/1
f 93/5/1 88/5/1 87/5/1
f 94/5/1 88/5/1 93/5/1
f 99/3/1 96/3/1 95/3/1
f 100/3/1 96/3/1 99/3/1
f 101/3/1 96/3/1 100/3/1
f 102/3/1 96/3/1 101/3/1
f 103/3/1 98/3/1 97/3/1
f 104/3/1 98/3/1 103/3/1
f 105/3/1 101/3/1 100/3/1
f 106/3/1 101/3/1 105/3/1
f 107/3/1 101/3/1 106/3/1
f 108/3/1 101/3/1 107/3/1
f 109/3/1 107/3/1 106/3/1
f 110/3/1 107/3/1 109/3/1
f 113/5/1 112/5/1 111/5/1
f 115/5/1 114/5/1 113/5/1
f 116/5/1 113/5/1 111/5/1
f 116/5/1 115/5/1 113/5/1
f 117/5/1 115/5/1 116/5/1
f 120/3/1 119/3/1 118/3/1
f 121/3/1 119/3/1 120/3/1
f 128/4/1 123/4/1 122/4/1
f 128/4/1 124/4/1 123/4/1
f 129/4/1 124/4/1 128/4/1
f 130/4/1 124/4/1 129/4/1
f 131/4/1 127/4/1 126/4/1
f 131/4/1 126/4/1 125/4/1
f 132/4/1 127/4/1 131/4/1
f 133/4/1 127/4/1 132/4/1
f 134/4/2 135/4/2 138/4/2
f 136/4/2 137/4/2 138/4/2
f 135/4/2 136/4/2 138/4/2
f 138/4/2 137/4/2 139/4/2
f 139/4/2 137/4/2 140/4/2
f 140/4/2 137/4/2 141/4/2
f 142/5/2 143/5/2 144/5/2
f 144/5/2 145/5/2 146/5/2
f 142/5/2 144/5/2 147/5/2
f 144/5/2 146/5/2 147/5/2
f 147/5/2 146/5/2 148/5/2
f 149/3/2 150/3/2 151/3/2
f 151/3/2 150/3/2 152/3/2
f 153/3/2 154/3/2 155/3/2
f 155/3/2 154/3/2 156/3/2
f 156/3/2 154/3/2 157/3/2
f 157/3/2 154/3/2 158/3/2
f 156/3/2 157/3/2 159/3/2
f 159/3/2 157/3/2 160/3/2
f 160/3/2 157/3/2 161/3/2
f 161/3/2 157/3/2 162/3/2
f 160/3/2 161/3/2 163/3/2
f 163/3/2 161/3/2 164/3/2
f 164/3/2 161/3/2 165/3/2
f 165/3/2 161/3/2 166/3/2
f 164/3/2 165/3/2 167/3/2
f 167/3/2 165/3/2 168/3/2
f 169/4/2 170/4/2 171/4/2
f 171/4/2 170/4/2 172/4/2
f 169/4/2 171/4/2 173/4/2
f 172/4/2 170/4/2 174/4/2
f 169/4/2 173/4/2 175/4/2
f 173/4/2 174/4/2 175/4/2
f 174/4/2 170/4/2 176/4/2
f 175/4/2 174/4/2 176/4/2
f 169/4/2 175/4/2 177/4/2
f 177/4/2 175/4/2 178/4/2
f 178/4/2 175/4/2 179/4/2
f 176/4/2 170/4/2 182/4/2
f 182/4/2 170/4/2 183/4/2
f 183/4/2 170/4/2 184/4/2
f 179/4/2 180/4/2 185/4/2
f 178/4/2 179/4/2 185/4/2
f 182/4/2 183/4/2 188/4/2
f 181/4/2 182/4/2 188/4/2
f 185/4/2 186/4/2 189/4/2
f 178/4/2 185/4/2 189/4/2
f 189/4/2 186/4/2 190/4/2
f 190/4/2 186/4/2 191/4/2
f 187/4/2 188/4/2 194/4/2
f 188/4/2 183/4/2 195/4/2
f 194/4/2 188/4/2 195/4/2
f 195/4/2 183/4/2 196/4/2
f 191/4/2 192/4/2 197/4/2
f 190/4/2 191/4/2 197/4/2
f 197/4/2 192/4/2 198/4/2
f 198/4/2 192/4/2 199/4/2
f 193/4/2 194/4/2 200/4/2
f 194/4/2 195/4/2 200/4/2
f 200/4/2 195/4/2 201/4/2
f 201/4/2 195/4/2 202/4/2
f 198/4/2 199/4/2 203/4/2
f 200/4/2 201/4/2 203/4/2
f 199/4/2 200/4/2 203/4/2
f 203/4/2 201/4/2 204/4/2
f 204/4/2 201/4/2 205/4/2
f 205/4/2 201/4/2 206/4/2
f 204/4/2 205/4/2 207/4/2
f 207/4/2 205/4/2 208/4/2
f 208/4/2 205/4/2 209/4/2
f 209/4/2 205/4/2 210/4/2
f 208/4/2 209/4/2 211/4/2
f 211/4/2 209/4/2 212/4/2
f 213/6/2 214/6/2 217/6/2
f 217/6/2 214/6/2 218/6/2
f 215/6/2 216/6/2 219/6/2
f 219/6/2 216/6/2 220/6/2
f 218/6/2 214/6/2 221/6/2
f 221/6/2 214/6/2 222/6/2
f 215/6/2 219/6/2 225/6/2
f 225/6/2 219/6/2 226/6/2
f 222/6/2 223/6/2 227/6/2
f 227/6/2 223/6/2 228/6/2
f 224/6/2 225/6/2 231/6/2
f 231/6/2 225/6/2 232/6/2
f 228/6/2 229/6/2 233/6/2
f 233/6/2 229/6/2 234/6/2
f 230/6/2 231/6/2 237/6/2
f 237/6/2 231/6/2 238/6/2
f 234/6/2 235/6/2 239/6/2
f 239/6/2 235/6/2 240/6/2
f 236/6/2 237/6/2 243/6/2
f 243/6/2 237/6/2 244/6/2
f 240/6/2 241/6/2 245/6/2
f 245/6/2 241/6/2 246/6/2
f 242/6/2 243/6/2 247/6/2
f 247/6/2 243/6/2 248/6/2
f 246/6/2 247/6/2 249/6/2
f 249/6/2 247/6/2 250/6/2
f 253/6/3 252/6/3 251/6/3
f 254/6/3 252/6/3 253/6/3
f 259/4/3 258/4/3 257/4/3
f 260/4/3 258/4/3 259/4/3
f 261/6/3 256/6/3 255/6/3
f 262/6/3 256/6/3 261/6/3
f 265/6/3 264/6/3 263/6/3
f 267/6/3 265/6/3 263/6/3
f 267/5/3 266/5/3 265/5/3
f 268/5/3 266/5/3 267/5/3
f 269/6/3 267/6/3 263/6/3
f 270/6/3 267/6/3 269/6/3
f 273/6/3 272/6/3 271/6/3
f 274/6/3 272/6/3 273/6/3
f 277/6/3 276/6/3 275/6/3
f 278/6/3 276/6/3 277/6/3
f 281/6/3 280/6/3 279/6/3
f 282/6/3 280/6/3 281/6/3
f 285/6/3 284/6/3 283/6/3
f 286/6/3 284/6/3 285/6/3
f 291/3/3 290/3/3 289/3/3
f 292/3/3 290/3/3 291/3/3
f 293/6/3 288/6/3 287/6/3
f 294/6/3 288/6/3 293/6/3
f 299/4/3 298/4/3 297/4/3
f 300/4/3 298/4/3 299/4/3
f 301/6/3 296/6/3 295/6/3
f 302/6/3 296/6/3 301/6/3
f 307/6/3 304/6/3 303/6/3
f 308/6/3 304/6/3 307/6/3
f 309/4/3 306/4/3 305/4/3
f 310/4/3 306/4/3 309/4/3
f 313/4/3 312/4/3 311/4/3
f 314/4/3 312/4/3 313/4/3
f 317/6/3 316/6/3 315/6/3
f 318/6/3 316/6/3 317/6/3
f 325/6/3 320/6/3 319/6/3
f 326/6/3 320/6/3 325/6/3
f 327/4/3 322/4/3 321/4/3
f 328/4/3 322/4/3 327/4/3
f 329/4/3 324/4/3 323/4/3
f 330/4/3 324/4/3 329/4/3
f 333/4/3 332/4/3 331/4/3
f 334/4/3 332/4/3 333/4/3
f 337/6/3 336/6/3 335/6/3
f 338/6/3 336/6/3 337/6/3
f 341/6/3 340/6/3 339/6/3
f 342/6/3 340/6/3 341/6/3
f 345/4/3 344/4/3 343/4/3
f 346/4/3 344/4/3 345/4/3
f 349/6/3 348/6/3 347/6/3
f 350/6/3 348/6/3 349/6/3
f 353/6/3 352/6/3 351/6/3
f 354/6/3 352/6/3 353/6/3
f 359/4/3 356/4/3 355/4/3
f 360/4/3 356/4/3 359/4/3
f 361/4/3 358/4/3 357/4/3
f 362/4/3 358/4/3 361/4/3
f 365/6/3 364/6/3 363/6/3
f 366/6/3 364/6/3 365/6/3
f 373/6/3 368/6/3 367/6/3
f 374/6/3 368/6/3 373/6/3
f 375/4/3 370/4/3 369/4/3
f 376/4/3 370/4/3 375/4/3
f 377/4/3 372/4/3 371/4/3
f 378/4/3 372/4/3 377/4/3
f 381/6/3 380/6/3 379/6/3
f 382/6/3 380/6/3 381/6/3
f 385/6/3 384/6/3 383/6/3
f 386/6/3 384/6/3 385/6/3
f 387/6/4 388/6/4 389/6/4
f 389/6/4 388/6/4 390/6/4
f 391/6/4 392/6/4 393/6/4
f 393/6/4 392/6/4 394/6/4
f 395/6/4 396/6/4 397/6/4
f 397/6/4 396/6/4 398/6/4
f 399/6/4 400/6/4 405/6/4
f 405/6/4 400/6/4 406/6/4
f 401/4/4 402/4/4 407/4/4
f 407/4/4 402/4/4 408/4/4
f 403/4/4 404/4/4 409/4/4
f 409/4/4 404/4/4 410/4/4
f 411/4/4 412/4/4 415/4/4
f 415/4/4 412/4/4 416/4/4
f 413/4/4 414/4/4 417/4/4
f 417/4/4 414/4/4 418/4/4
f 419/6/4 420/6/4 421/6/4
f 421/6/4 420/6/4 422/6/4
f 423/6/4 424/6/4 427/6/4
f 427/6/4 424/6/4 428/6/4
f 425/4/4 426/4/4 429/4/4
f 429/4/4 426/4/4 430/4/4
f 431/5/4 432/5/4 433/5/4
f 433/5/4 432/5/4 434/5/4
f 435/4/4 436/4/4 437/4/4
f 437/4/4 436/4/4 438/4/4
f 439/6/4 440/6/4 441/6/4
f 441/6/4 440/6/4 442/6/4
f 443/6/4 444/6/4 447/6/4
f 447/6/4 444/6/4 448/6/4
f 445/4/4 446/4/4 449/4/4
f 449/4/4 446/4/4 450/4/4
f 451/4/4 452/4/4 453/4/4
f 453/4/4 452/4/4 454/4/4
f 455/6/4 456/6/4 457/6/4
f 457/6/4 456/6/4 458/6/4
f 459/6/4 460/6/4 461/6/4
f 461/6/4 460/6/4 462/6/4
f 463/4/4 464/4/4 465/4/4
f 465/4/4 464/4/4 466/4/4
f 467/6/4 468/6/4 469/6/4
f 469/6/4 468/6/4 470/6/4
f 471/6/4 472/6/4 473/6/4
f 473/6/4 472/6/4 474/6/4
f 477/3/4 478/3/4 479/3/4
f 479/3/4 478/3/4 480/3/4
f 475/6/4 476/6/4 481/6/4
f 481/6/4 476/6/4 482/6/4
f 485/4/4 486/4/4 489/4/4
f 489/4/4 486/4/4 490/4/4
f 487/4/4 488/4/4 491/4/4
f 491/4/4 488/4/4 492/4/4
f 483/6/4 484/6/4 493/6/4
f 493/6/4 484/6/4 494/6/4
f 495/6/4 496/6/4 497/6/4
f 497/6/4 496/6/4 498/6/4
f 499/6/4 500/6/4 501/6/4
f 501/6/4 500/6/4 502/6/4
f 505/4/4 506/4/4 507/4/4
f 507/4/4 506/4/4 508/4/4
f 503/6/4 504/6/4 509/6/4
f 509/6/4 504/6/4 510/6/4
f 511/6/4 512/6/4 513/6/4
f 513/6/4 512/6/4 514/6/4
f 517/4/5 516/4/5 515/4/5
f 518/4/5 516/4/5 517/4/5
f 519/4/5 517/4/5 515/4/5
f 520/2/5 518/2/5 517/2/5
f 520/4/5 517/4/5 519/4/5
f 521/2/5 518/2/5 520/2/5
f 523/5/5 521/5/5 520/5/5
f 524/2/5 518/2/5 521/2/5
f 524/5/5 521/5/5 523/5/5
f 525/4/5 516/4/5 518/4/5
f 525/2/5 518/2/5 524/2/5
f 526/4/5 524/4/5 523/4/5
f 526/4/5 523/4/5 522/4/5
f 526/4/5 525/4/5 524/4/5
f 527/4/5 516/4/5 525/4/5
f 527/4/5 525/4/5 526/4/5
f 530/4/5 529/4/5 528/4/5
f 531/4/5 529/4/5 530/4/5
f 534/4/5 533/4/5 532/4/5
f 535/4/5 533/4/5 534/4/5
f 538/4/5 537/4/5 536/4/5
f 539/4/5 537/4/5 538/4/5
f 542/4/5 541/4/5 540/4/5
f 543/4/5 541/4/5 542/4/5
f 546/4/5 545/4/5 544/4/5
f 547/4/5 545/4/5 546/4/5
f 550/4/5 549/4/5 548/4/5
f 551/4/5 549/4/5 550/4/5
f 554/6/5 553/6/5 552/6/5
f 555/6/5 553/6/5 554/6/5
f 556/6/5 554/6/5 552/6/5
f 557/6/5 554/6/5 556/6/5
f 558/6/5 553/6/5 555/6/5
f 559/6/5 553/6/5 558/6/5
f 564/4/5 561/4/5 560/4/5
f 565/4/5 561/4/5 564/4/5
f 566/4/5 563/4/5 562/4/5
f 567/4/5 563/4/5 566/4/5
f 570/4/5 569/4/5 568/4/5
f 571/4/5 569/4/5 570/4/5
f 574/4/5 573/4/5 572/4/5
f 575/4/5 573/4/5 574/4/5
f 580/6/5 577/6/5 576/6/5
f 581/6/5 579/6/5 578/6/5
f 582/6/5 580/6/5 576/6/5
f 582/6/5 581/6/5 580/6/5
f 583/6/5 579/6/5 581/6/5
f 583/6/5 581/6/5 582/6/5
f 588/4/5 585/4/5 584/4/5
f 589/4/5 585/4/5 588/4/5
f 590/4/5 587/4/5 586/4/5
f 591/4/5 587/4/5 590/4/5
f 594/4/5 593/4/5 592/4/5
f 595/4/5 593/4/5 594/4/5
f 602/6/5 597/6/5 596/6/5
f 603/6/5 597/6/5 602/6/5
f 604/6/5 599/6/5 598/6/5
f 605/6/5 599/6/5 604/6/5
f 606/6/5 601/6/5 600/6/5
f 607/6/5 601/6/5 606/6/5
f 608/1/5 605/1/5 604/1/5
f 609/1/5 605/1/5 608/1/5
f 611/4/5 610/4/5 609/4/5
f 612/4/5 610/4/5 611/4/5
f 615/1/5 608/1/5 604/1/5
f 616/4/5 614/4/5 613/4/5
f 617/4/5 614/4/5 616/4/5
f 620/1/5 615/1/5 604/1/5
f 620/1/5 616/1/5 615/1/5
f 621/1/5 616/1/5 620/1/5
f 624/6/5 619/6/5 618/6/5
f 625/6/5 619/6/5 624/6/5
f 626/6/5 621/6/5 620/6/5
f 627/6/5 621/6/5 626/6/5
f 628/6/5 623/6/5 622/6/5
f 629/6/5 623/6/5 628/6/5
f 634/6/5 631/6/5 630/6/5
f 635/6/5 631/6/5 634/6/5
f 636/6/5 633/6/5 632/6/5
f 637/6/5 633/6/5 636/6/5
f 640/4/5 639/4/5 638/4/5
f 641/4/5 639/4/5 640/4/5
f 646/6/5 643/6/5 642/6/5
f 647/6/5 643/6/5 646/6/5
f 648/6/5 645/6/5 644/6/5
f 649/6/5 645/6/5 648/6/5
f 654/6/5 651/6/5 650/6/5
f 655/6/5 651/6/5 654/6/5
f 656/6/5 653/6/5 652/6/5
f 657/6/5 653/6/5 656/6/5
f 662/6/5 659/6/5 658/6/5
f 663/6/5 659/6/5 662/6/5
f 664/6/5 661/6/5 660/6/5
f 665/6/5 661/6/5 664/6/5
f 670/6/5 667/6/5 666/6/5
f 671/6/5 667/6/5 670/6/5
f 672/6/5 669/6/5 668/6/5
f 673/6/5 669/6/5 672/6/5
f 678/6/5 675/6/5 674/6/5
f 679/6/5 675/6/5 678/6/5
f 680/6/5 677/6/5 676/6/5
f 681/6/5 677/6/5 680/6/5
f 686/6/5 683/6/5 682/6/5
f 687/6/5 683/6/5 686/6/5
f 688/6/5 685/6/5 684/6/5
f 689/6/5 685/6/5 688/6/5
f 690/4/6 691/4/6 692/4/6
f 692/4/6 691/4/6 693/4/6
f 694/4/6 695/4/6 696/4/6
f 696/4/6 695/4/6 697/4/6
f 698/4/6 699/4/6 700/4/6
f 700/4/6 699/4/6 701/4/6
f 702/4/6 703/4/6 704/4/6
f 704/4/6 703/4/6 705/4/6
f 706/4/6 707/4/6 708/4/6
f 708/4/6 707/4/6 709/4/6
f 710/6/6 711/6/6 712/6/6
f 712/6/6 711/6/6 713/6/6
f 714/1/6 715/1/6 716/1/6
f 716/1/6 715/1/6 717/1/6
f 714/1/6 716/1/6 718/1/6
f 718/1/6 716/1/6 719/1/6
f 716/3/6 717/3/6 720/3/6
f 719/1/6 716/1/6 720/1/6
f 720/3/6 717/3/6 721/3/6
f 718/3/6 719/3/6 722/3/6
f 719/1/6 720/1/6 723/1/6
f 722/3/6 719/3/6 723/3/6
f 722/1/6 723/1/6 724/1/6
f 723/1/6 720/1/6 724/1/6
f 722/1/6 724/1/6 726/1/6
f 724/3/6 725/3/6 726/3/6
f 726/3/6 725/3/6 727/3/6
f 722/1/6 726/1/6 728/1/6
f 726/1/6 727/1/6 728/1/6
f 728/1/6 727/1/6 729/1/6
f 730/6/6 731/6/6 732/6/6
f 732/6/6 731/6/6 733/6/6
f 734/6/6 735/6/6 736/6/6
f 736/6/6 735/6/6 737/6/6
f 738/6/6 739/6/6 740/6/6
f 740/6/6 739/6/6 741/6/6
f 742/6/6 743/6/6 746/6/6
f 746/6/6 743/6/6 747/6/6
f 744/6/6 745/6/6 748/6/6
f 748/6/6 745/6/6 749/6/6
f 750/6/6 751/6/6 752/6/6
f 752/6/6 751/6/6 753/6/6
f 754/6/6 755/6/6 758/6/6
f 758/6/6 755/6/6 759/6/6
f 756/6/6 757/6/6 760/6/6
f 760/6/6 757/6/6 761/6/6
f 762/6/6 763/6/6 764/6/6
f 764/6/6 763/6/6 765/6/6
f 766/6/6 767/6/6 770/6/6
f 768/6/6 769/6/6 770/6/6
f 767/6/6 768/6/6 770/6/6
f 770/6/6 769/6/6 771/6/6
f 772/6/6 773/6/6 774/6/6
f 774/6/6 773/6/6 775/6/6
f 776/6/6 777/6/6 778/6/6
f 778/6/6 777/6/6 779/6/6
f 780/6/6 781/6/6 782/6/6
f 782/6/6 781/6/6 783/6/6
f 784/5/6 785/5/6 786/5/6
f 786/5/6 785/5/6 787/5/6
f 788/6/6 789/6/6 790/6/6
f 790/6/6 789/6/6 791/6/6
