# MagicaVoxel @ Ephtracy

# group
g untitled

# material
mtllib untitled.mtl
usemtl palette

# normals
vn -1 0 0
vn 1 0 0
vn 0 0 1
vn 0 0 -1
vn 0 -1 0
vn 0 1 0

# texcoords
vt 0.748047 0.5
vt 0.962891 0.5
vt 0.982422 0.5

# verts
v -16 0 14
v -16 0 -11
v -16 1 13
v -16 1 -11
v -16 2 13
v -16 2 -11
v -16 3 14
v -16 3 -11
v -16 4 14
v -16 4 -11
v -16 6 14
v -16 6 -11
v -16 7 14
v -16 7 -11
v -16 9 14
v -16 9 -11
v -16 10 14
v -16 10 -11
v -16 12 14
v -16 12 -11
v -16 13 14
v -16 13 -11
v -16 15 14
v -16 15 -11
v -16 16 14
v -16 16 -11
v -16 18 14
v -16 18 -11
v -15 1 13
v -15 1 -10
v -15 2 13
v -15 2 -10
v -15 3 13
v -15 3 -10
v -15 4 13
v -15 4 -10
v -15 6 13
v -15 6 -10
v -15 7 13
v -15 7 -10
v -15 9 13
v -15 9 -10
v -15 10 13
v -15 10 -10
v -15 12 13
v -15 12 -10
v -15 13 13
v -15 13 -10
v -15 15 13
v -15 15 -10
v -15 16 13
v -15 16 -10
v -12 0 14
v -12 0 13
v -12 2 14
v -12 2 13
v -10 17 6
v -10 17 -1
v -10 19 6
v -10 19 -1
v 8 17 9
v 8 17 6
v 8 19 9
v 8 19 6
v 17 17 13
v 17 17 -10
v 17 18 13
v 17 18 -10
v -15 17 13
v -15 17 -10
v -15 18 13
v -15 18 -10
v -14 0 14
v -14 0 13
v -14 2 14
v -14 2 13
v -11 1 14
v -11 1 13
v -11 2 14
v -11 2 13
v -6 17 6
v -6 17 -1
v -6 19 6
v -6 19 -1
v 14 17 9
v 14 17 6
v 14 19 9
v 14 19 6
v 18 0 14
v 18 0 -11
v 18 1 14
v 18 1 13
v 18 1 -10
v 18 1 -11
v 18 2 14
v 18 2 13
v 18 2 -10
v 18 2 -11
v 18 3 14
v 18 3 13
v 18 3 -10
v 18 3 -11
v 18 4 14
v 18 4 13
v 18 4 -10
v 18 4 -11
v 18 6 14
v 18 6 13
v 18 6 -10
v 18 6 -11
v 18 7 14
v 18 7 13
v 18 7 -10
v 18 7 -11
v 18 9 14
v 18 9 13
v 18 9 -10
v 18 9 -11
v 18 10 14
v 18 10 13
v 18 10 -10
v 18 10 -11
v 18 12 14
v 18 12 13
v 18 12 -10
v 18 12 -11
v 18 13 14
v 18 13 13
v 18 13 -10
v 18 13 -11
v 18 15 14
v 18 15 13
v 18 15 -10
v 18 15 -11
v 18 16 14
v 18 16 13
v 18 16 -10
v 18 16 -11
v 18 18 14
v 18 18 -11
v -16 0 14
v -16 3 14
v -16 4 14
v -16 6 14
v -16 7 14
v -16 9 14
v -16 10 14
v -16 12 14
v -16 13 14
v -16 15 14
v -16 16 14
v -16 18 14
v -14 0 14
v -14 2 14
v -12 0 14
v -12 2 14
v -11 1 14
v -11 2 14
v 18 0 14
v 18 1 14
v 18 2 14
v 18 3 14
v 18 4 14
v 18 6 14
v 18 7 14
v 18 9 14
v 18 10 14
v 18 12 14
v 18 13 14
v 18 15 14
v 18 16 14
v 18 18 14
v -15 3 13
v -15 4 13
v -15 6 13
v -15 7 13
v -15 9 13
v -15 10 13
v -15 12 13
v -15 13 13
v -15 15 13
v -15 16 13
v -14 0 13
v -14 2 13
v -12 0 13
v -12 2 13
v -11 1 13
v -11 2 13
v 17 1 13
v 17 2 13
v 17 3 13
v 17 4 13
v 17 6 13
v 17 7 13
v 17 9 13
v 17 10 13
v 17 12 13
v 17 13 13
v 17 15 13
v 17 16 13
v 18 1 13
v 18 2 13
v 18 3 13
v 18 4 13
v 18 6 13
v 18 7 13
v 18 9 13
v 18 10 13
v 18 12 13
v 18 13 13
v 18 15 13
v 18 16 13
v 8 17 9
v 8 19 9
v 14 17 9
v 14 19 9
v -10 17 6
v -10 19 6
v -6 17 6
v -6 19 6
v -15 17 -10
v -15 18 -10
v 17 17 -10
v 17 18 -10
v -16 1 13
v -16 2 13
v -15 1 13
v -15 2 13
v -15 17 13
v -15 18 13
v 17 17 13
v 17 18 13
v 8 17 6
v 8 19 6
v 14 17 6
v 14 19 6
v -10 17 -1
v -10 19 -1
v -6 17 -1
v -6 19 -1
v -15 1 -10
v -15 2 -10
v -15 3 -10
v -15 4 -10
v -15 6 -10
v -15 7 -10
v -15 9 -10
v -15 10 -10
v -15 12 -10
v -15 13 -10
v -15 15 -10
v -15 16 -10
v 17 1 -10
v 17 2 -10
v 17 3 -10
v 17 4 -10
v 17 6 -10
v 17 7 -10
v 17 9 -10
v 17 10 -10
v 17 12 -10
v 17 13 -10
v 17 15 -10
v 17 16 -10
v 18 1 -10
v 18 2 -10
v 18 3 -10
v 18 4 -10
v 18 6 -10
v 18 7 -10
v 18 9 -10
v 18 10 -10
v 18 12 -10
v 18 13 -10
v 18 15 -10
v 18 16 -10
v -16 0 -11
v -16 1 -11
v -16 2 -11
v -16 3 -11
v -16 4 -11
v -16 6 -11
v -16 7 -11
v -16 9 -11
v -16 10 -11
v -16 12 -11
v -16 13 -11
v -16 15 -11
v -16 16 -11
v -16 18 -11
v 18 0 -11
v 18 1 -11
v 18 2 -11
v 18 3 -11
v 18 4 -11
v 18 6 -11
v 18 7 -11
v 18 9 -11
v 18 10 -11
v 18 12 -11
v 18 13 -11
v 18 15 -11
v 18 16 -11
v 18 18 -11
v -16 0 14
v -14 0 14
v -12 0 14
v 18 0 14
v -14 0 13
v -12 0 13
v -14 0 12
v -12 0 12
v -16 0 -11
v 18 0 -11
v -14 2 14
v -12 2 14
v -11 2 14
v 18 2 14
v -16 2 13
v -15 2 13
v -14 2 13
v -12 2 13
v -11 2 13
v 17 2 13
v 18 2 13
v -15 2 -10
v 17 2 -10
v 18 2 -10
v -16 2 -11
v 18 2 -11
v -16 4 14
v 18 4 14
v -15 4 13
v 17 4 13
v 18 4 13
v -15 4 -10
v 17 4 -10
v 18 4 -10
v -16 4 -11
v 18 4 -11
v -16 7 14
v 18 7 14
v -15 7 13
v 17 7 13
v 18 7 13
v -15 7 -10
v 17 7 -10
v 18 7 -10
v -16 7 -11
v 18 7 -11
v -16 10 14
v 18 10 14
v -15 10 13
v 17 10 13
v 18 10 13
v -15 10 -10
v 17 10 -10
v 18 10 -10
v -16 10 -11
v 18 10 -11
v -16 13 14
v 18 13 14
v -15 13 13
v 17 13 13
v 18 13 13
v -15 13 -10
v 17 13 -10
v 18 13 -10
v -16 13 -11
v 18 13 -11
v -16 16 14
v 18 16 14
v -15 16 13
v 17 16 13
v 18 16 13
v -15 16 -10
v 17 16 -10
v 18 16 -10
v -16 16 -11
v 18 16 -11
v -11 1 14
v 18 1 14
v -16 1 13
v -15 1 13
v -11 1 13
v 17 1 13
v 18 1 13
v -15 1 -10
v 17 1 -10
v 18 1 -10
v -16 1 -11
v 18 1 -11
v -16 3 14
v 18 3 14
v -15 3 13
v 17 3 13
v 18 3 13
v -15 3 -10
v 17 3 -10
v 18 3 -10
v -16 3 -11
v 18 3 -11
v -16 6 14
v 18 6 14
v -15 6 13
v 17 6 13
v 18 6 13
v -15 6 -10
v 17 6 -10
v 18 6 -10
v -16 6 -11
v 18 6 -11
v -16 9 14
v 18 9 14
v -15 9 13
v 17 9 13
v 18 9 13
v -15 9 -10
v 17 9 -10
v 18 9 -10
v -16 9 -11
v 18 9 -11
v -16 12 14
v 18 12 14
v -15 12 13
v 17 12 13
v 18 12 13
v -15 12 -10
v 17 12 -10
v 18 12 -10
v -16 12 -11
v 18 12 -11
v -16 15 14
v 18 15 14
v -15 15 13
v 17 15 13
v 18 15 13
v -15 15 -10
v 17 15 -10
v 18 15 -10
v -16 15 -11
v 18 15 -11
v -15 17 13
v 17 17 13
v 8 17 9
v 14 17 9
v -10 17 6
v -6 17 6
v 8 17 6
v 14 17 6
v -10 17 -1
v -6 17 -1
v -15 17 -10
v 17 17 -10
v -16 18 14
v 18 18 14
v -15 18 13
v 17 18 13
v -15 18 -10
v 17 18 -10
v -16 18 -11
v 18 18 -11
v 8 19 9
v 14 19 9
v -10 19 6
v -6 19 6
v 8 19 6
v 14 19 6
v -10 19 -1
v -6 19 -1

# faces
f 3/2/1 2/2/1 1/2/1
f 4/2/1 2/2/1 3/2/1
f 5/2/1 3/2/1 1/2/1
f 7/2/1 5/2/1 1/2/1
f 7/2/1 6/2/1 5/2/1
f 8/2/1 6/2/1 7/2/1
f 11/2/1 10/2/1 9/2/1
f 12/2/1 10/2/1 11/2/1
f 15/2/1 14/2/1 13/2/1
f 16/2/1 14/2/1 15/2/1
f 19/2/1 18/2/1 17/2/1
f 20/2/1 18/2/1 19/2/1
f 23/2/1 22/2/1 21/2/1
f 24/2/1 22/2/1 23/2/1
f 27/2/1 26/2/1 25/2/1
f 28/2/1 26/2/1 27/2/1
f 31/1/1 30/1/1 29/1/1
f 32/1/1 30/1/1 31/1/1
f 35/1/1 34/1/1 33/1/1
f 36/1/1 34/1/1 35/1/1
f 39/1/1 38/1/1 37/1/1
f 40/1/1 38/1/1 39/1/1
f 43/1/1 42/1/1 41/1/1
f 44/1/1 42/1/1 43/1/1
f 47/1/1 46/1/1 45/1/1
f 48/1/1 46/1/1 47/1/1
f 51/1/1 50/1/1 49/1/1
f 52/1/1 50/1/1 51/1/1
f 55/2/1 54/2/1 53/2/1
f 56/2/1 54/2/1 55/2/1
f 59/3/1 58/3/1 57/3/1
f 60/3/1 58/3/1 59/3/1
f 63/3/1 62/3/1 61/3/1
f 64/3/1 62/3/1 63/3/1
f 67/2/1 66/2/1 65/2/1
f 68/2/1 66/2/1 67/2/1
f 69/2/2 70/2/2 71/2/2
f 71/2/2 70/2/2 72/2/2
f 73/2/2 74/2/2 75/2/2
f 75/2/2 74/2/2 76/2/2
f 77/2/2 78/2/2 79/2/2
f 79/2/2 78/2/2 80/2/2
f 81/3/2 82/3/2 83/3/2
f 83/3/2 82/3/2 84/3/2
f 85/3/2 86/3/2 87/3/2
f 87/3/2 86/3/2 88/3/2
f 89/2/2 90/2/2 91/2/2
f 91/2/2 90/2/2 92/2/2
f 92/2/2 90/2/2 93/2/2
f 93/2/2 90/2/2 94/2/2
f 92/2/2 93/2/2 96/2/2
f 96/2/2 93/2/2 97/2/2
f 95/2/2 96/2/2 99/2/2
f 97/2/2 98/2/2 99/2/2
f 96/2/2 97/2/2 99/2/2
f 99/2/2 98/2/2 100/2/2
f 100/2/2 98/2/2 101/2/2
f 101/2/2 98/2/2 102/2/2
f 100/2/2 101/2/2 104/2/2
f 104/2/2 101/2/2 105/2/2
f 103/2/2 104/2/2 107/2/2
f 105/2/2 106/2/2 107/2/2
f 104/2/2 105/2/2 107/2/2
f 107/2/2 106/2/2 108/2/2
f 108/2/2 106/2/2 109/2/2
f 109/2/2 106/2/2 110/2/2
f 108/2/2 109/2/2 112/2/2
f 112/2/2 109/2/2 113/2/2
f 111/2/2 112/2/2 115/2/2
f 113/2/2 114/2/2 115/2/2
f 112/2/2 113/2/2 115/2/2
f 115/2/2 114/2/2 116/2/2
f 116/2/2 114/2/2 117/2/2
f 117/2/2 114/2/2 118/2/2
f 116/2/2 117/2/2 120/2/2
f 120/2/2 117/2/2 121/2/2
f 119/2/2 120/2/2 123/2/2
f 121/2/2 122/2/2 123/2/2
f 120/2/2 121/2/2 123/2/2
f 123/2/2 122/2/2 124/2/2
f 124/2/2 122/2/2 125/2/2
f 125/2/2 122/2/2 126/2/2
f 124/2/2 125/2/2 128/2/2
f 128/2/2 125/2/2 129/2/2
f 127/2/2 128/2/2 131/2/2
f 129/2/2 130/2/2 131/2/2
f 128/2/2 129/2/2 131/2/2
f 131/2/2 130/2/2 132/2/2
f 132/2/2 130/2/2 133/2/2
f 133/2/2 130/2/2 134/2/2
f 132/2/2 133/2/2 136/2/2
f 136/2/2 133/2/2 137/2/2
f 135/2/2 136/2/2 139/2/2
f 137/2/2 138/2/2 139/2/2
f 136/2/2 137/2/2 139/2/2
f 139/2/2 138/2/2 140/2/2
f 153/2/3 142/2/3 141/2/3
f 154/2/3 142/2/3 153/2/3
f 156/2/3 142/2/3 154/2/3
f 157/2/3 156/2/3 155/2/3
f 158/2/3 142/2/3 156/2/3
f 158/2/3 156/2/3 157/2/3
f 159/2/3 157/2/3 155/2/3
f 160/2/3 157/2/3 159/2/3
f 161/2/3 142/2/3 158/2/3
f 162/2/3 142/2/3 161/2/3
f 163/2/3 144/2/3 143/2/3
f 164/2/3 144/2/3 163/2/3
f 165/2/3 146/2/3 145/2/3
f 166/2/3 146/2/3 165/2/3
f 167/2/3 148/2/3 147/2/3
f 168/2/3 148/2/3 167/2/3
f 169/2/3 150/2/3 149/2/3
f 170/2/3 150/2/3 169/2/3
f 171/2/3 152/2/3 151/2/3
f 172/2/3 152/2/3 171/2/3
f 185/1/3 184/1/3 183/1/3
f 186/1/3 184/1/3 185/1/3
f 189/1/3 188/1/3 187/1/3
f 190/1/3 188/1/3 189/1/3
f 191/1/3 174/1/3 173/1/3
f 192/1/3 174/1/3 191/1/3
f 193/1/3 176/1/3 175/1/3
f 194/1/3 176/1/3 193/1/3
f 195/1/3 178/1/3 177/1/3
f 196/1/3 178/1/3 195/1/3
f 197/1/3 180/1/3 179/1/3
f 198/1/3 180/1/3 197/1/3
f 199/1/3 182/1/3 181/1/3
f 200/1/3 182/1/3 199/1/3
f 201/2/3 190/2/3 189/2/3
f 202/2/3 190/2/3 201/2/3
f 203/2/3 192/2/3 191/2/3
f 204/2/3 192/2/3 203/2/3
f 205/2/3 194/2/3 193/2/3
f 206/2/3 194/2/3 205/2/3
f 207/2/3 196/2/3 195/2/3
f 208/2/3 196/2/3 207/2/3
f 209/2/3 198/2/3 197/2/3
f 210/2/3 198/2/3 209/2/3
f 211/2/3 200/2/3 199/2/3
f 212/2/3 200/2/3 211/2/3
f 215/3/3 214/3/3 213/3/3
f 216/3/3 214/3/3 215/3/3
f 219/3/3 218/3/3 217/3/3
f 220/3/3 218/3/3 219/3/3
f 223/2/3 222/2/3 221/2/3
f 224/2/3 222/2/3 223/2/3
f 225/2/4 226/2/4 227/2/4
f 227/2/4 226/2/4 228/2/4
f 229/2/4 230/2/4 231/2/4
f 231/2/4 230/2/4 232/2/4
f 233/3/4 234/3/4 235/3/4
f 235/3/4 234/3/4 236/3/4
f 237/3/4 238/3/4 239/3/4
f 239/3/4 238/3/4 240/3/4
f 241/1/4 242/1/4 253/1/4
f 253/1/4 242/1/4 254/1/4
f 243/1/4 244/1/4 255/1/4
f 255/1/4 244/1/4 256/1/4
f 245/1/4 246/1/4 257/1/4
f 257/1/4 246/1/4 258/1/4
f 247/1/4 248/1/4 259/1/4
f 259/1/4 248/1/4 260/1/4
f 249/1/4 250/1/4 261/1/4
f 261/1/4 250/1/4 262/1/4
f 251/1/4 252/1/4 263/1/4
f 263/1/4 252/1/4 264/1/4
f 253/2/4 254/2/4 265/2/4
f 265/2/4 254/2/4 266/2/4
f 255/2/4 256/2/4 267/2/4
f 267/2/4 256/2/4 268/2/4
f 257/2/4 258/2/4 269/2/4
f 269/2/4 258/2/4 270/2/4
f 259/2/4 260/2/4 271/2/4
f 271/2/4 260/2/4 272/2/4
f 261/2/4 262/2/4 273/2/4
f 273/2/4 262/2/4 274/2/4
f 263/2/4 264/2/4 275/2/4
f 275/2/4 264/2/4 276/2/4
f 277/2/4 278/2/4 291/2/4
f 291/2/4 278/2/4 292/2/4
f 279/2/4 280/2/4 293/2/4
f 293/2/4 280/2/4 294/2/4
f 281/2/4 282/2/4 295/2/4
f 295/2/4 282/2/4 296/2/4
f 283/2/4 284/2/4 297/2/4
f 297/2/4 284/2/4 298/2/4
f 285/2/4 286/2/4 299/2/4
f 299/2/4 286/2/4 300/2/4
f 287/2/4 288/2/4 301/2/4
f 301/2/4 288/2/4 302/2/4
f 289/2/4 290/2/4 303/2/4
f 303/2/4 290/2/4 304/2/4
f 309/2/5 306/2/5 305/2/5
f 310/2/5 308/2/5 307/2/5
f 311/2/5 309/2/5 305/2/5
f 311/1/5 310/1/5 309/1/5
f 312/2/5 308/2/5 310/2/5
f 312/1/5 310/1/5 311/1/5
f 313/2/5 311/2/5 305/2/5
f 313/2/5 312/2/5 311/2/5
f 314/2/5 308/2/5 312/2/5
f 314/2/5 312/2/5 313/2/5
f 321/2/5 316/2/5 315/2/5
f 322/2/5 316/2/5 321/2/5
f 323/2/5 318/2/5 317/2/5
f 324/2/5 318/2/5 323/2/5
f 325/2/5 318/2/5 324/2/5
f 326/2/5 320/2/5 319/2/5
f 329/2/5 326/2/5 319/2/5
f 329/2/5 328/2/5 327/2/5
f 329/2/5 327/2/5 326/2/5
f 330/2/5 328/2/5 329/2/5
f 333/2/5 332/2/5 331/2/5
f 334/2/5 332/2/5 333/2/5
f 335/2/5 332/2/5 334/2/5
f 336/2/5 333/2/5 331/2/5
f 339/2/5 336/2/5 331/2/5
f 339/2/5 338/2/5 337/2/5
f 339/2/5 337/2/5 336/2/5
f 340/2/5 338/2/5 339/2/5
f 343/2/5 342/2/5 341/2/5
f 344/2/5 342/2/5 343/2/5
f 345/2/5 342/2/5 344/2/5
f 346/2/5 343/2/5 341/2/5
f 349/2/5 346/2/5 341/2/5
f 349/2/5 348/2/5 347/2/5
f 349/2/5 347/2/5 346/2/5
f 350/2/5 348/2/5 349/2/5
f 353/2/5 352/2/5 351/2/5
f 354/2/5 352/2/5 353/2/5
f 355/2/5 352/2/5 354/2/5
f 356/2/5 353/2/5 351/2/5
f 359/2/5 356/2/5 351/2/5
f 359/2/5 358/2/5 357/2/5
f 359/2/5 357/2/5 356/2/5
f 360/2/5 358/2/5 359/2/5
f 363/2/5 362/2/5 361/2/5
f 364/2/5 362/2/5 363/2/5
f 365/2/5 362/2/5 364/2/5
f 366/2/5 363/2/5 361/2/5
f 369/2/5 366/2/5 361/2/5
f 369/2/5 368/2/5 367/2/5
f 369/2/5 367/2/5 366/2/5
f 370/2/5 368/2/5 369/2/5
f 373/2/5 372/2/5 371/2/5
f 374/2/5 372/2/5 373/2/5
f 375/2/5 372/2/5 374/2/5
f 376/2/5 373/2/5 371/2/5
f 379/2/5 376/2/5 371/2/5
f 379/2/5 378/2/5 377/2/5
f 379/2/5 377/2/5 376/2/5
f 380/2/5 378/2/5 379/2/5
f 381/2/6 382/2/6 385/2/6
f 385/2/6 382/2/6 386/2/6
f 386/2/6 382/2/6 387/2/6
f 383/2/6 384/2/6 388/2/6
f 383/2/6 388/2/6 391/2/6
f 389/2/6 390/2/6 391/2/6
f 388/2/6 389/2/6 391/2/6
f 391/2/6 390/2/6 392/2/6
f 393/2/6 394/2/6 395/2/6
f 395/2/6 394/2/6 396/2/6
f 396/2/6 394/2/6 397/2/6
f 393/2/6 395/2/6 398/2/6
f 393/2/6 398/2/6 401/2/6
f 399/2/6 400/2/6 401/2/6
f 398/2/6 399/2/6 401/2/6
f 401/2/6 400/2/6 402/2/6
f 403/2/6 404/2/6 405/2/6
f 405/2/6 404/2/6 406/2/6
f 406/2/6 404/2/6 407/2/6
f 403/2/6 405/2/6 408/2/6
f 403/2/6 408/2/6 411/2/6
f 409/2/6 410/2/6 411/2/6
f 408/2/6 409/2/6 411/2/6
f 411/2/6 410/2/6 412/2/6
f 413/2/6 414/2/6 415/2/6
f 415/2/6 414/2/6 416/2/6
f 416/2/6 414/2/6 417/2/6
f 413/2/6 415/2/6 418/2/6
f 413/2/6 418/2/6 421/2/6
f 419/2/6 420/2/6 421/2/6
f 418/2/6 419/2/6 421/2/6
f 421/2/6 420/2/6 422/2/6
f 423/2/6 424/2/6 425/2/6
f 425/2/6 424/2/6 426/2/6
f 426/2/6 424/2/6 427/2/6
f 423/2/6 425/2/6 428/2/6
f 423/2/6 428/2/6 431/2/6
f 429/2/6 430/2/6 431/2/6
f 428/2/6 429/2/6 431/2/6
f 431/2/6 430/2/6 432/2/6
f 433/2/6 434/2/6 435/2/6
f 435/2/6 434/2/6 436/2/6
f 436/2/6 434/2/6 437/2/6
f 433/2/6 435/2/6 438/2/6
f 433/2/6 438/2/6 441/2/6
f 439/2/6 440/2/6 441/2/6
f 438/2/6 439/2/6 441/2/6
f 441/2/6 440/2/6 442/2/6
f 443/2/6 444/2/6 445/2/6
f 445/2/6 444/2/6 446/2/6
f 443/2/6 445/2/6 447/2/6
f 447/2/6 445/2/6 448/2/6
f 448/2/6 445/2/6 449/2/6
f 446/2/6 444/2/6 450/2/6
f 443/2/6 447/2/6 451/2/6
f 448/2/6 449/2/6 452/2/6
f 449/2/6 450/2/6 452/2/6
f 443/2/6 451/2/6 453/2/6
f 451/2/6 452/2/6 453/2/6
f 452/2/6 450/2/6 454/2/6
f 453/2/6 452/2/6 454/2/6
f 450/2/6 444/2/6 454/2/6
f 455/2/6 456/2/6 457/2/6
f 457/2/6 456/2/6 458/2/6
f 455/2/6 457/2/6 459/2/6
f 458/2/6 456/2/6 460/2/6
f 455/2/6 459/2/6 461/2/6
f 459/2/6 460/2/6 461/2/6
f 460/2/6 456/2/6 462/2/6
f 461/2/6 460/2/6 462/2/6
f 463/3/6 464/3/6 467/3/6
f 467/3/6 464/3/6 468/3/6
f 465/3/6 466/3/6 469/3/6
f 469/3/6 466/3/6 470/3/6
